<svg width="176" height="123" viewBox="0 0 176 123" fill="none" xmlns="http://www.w3.org/2000/svg">
<path d="M159.601 122.499H6.14734C5.36034 122.511 4.5798 122.356 3.85707 122.044C3.13434 121.732 2.48581 121.271 1.95416 120.691C1.42251 120.11 1.01979 119.424 0.772508 118.677C0.525224 117.93 0.438975 117.139 0.519445 116.356L9.73519 6.64434C9.90171 4.98295 10.6714 3.44022 11.8986 2.30805C13.1259 1.17588 14.7256 0.532804 16.395 0.500509H169.848C170.635 0.489889 171.416 0.645671 172.138 0.957645C172.861 1.26962 173.509 1.73074 174.041 2.31081C174.573 2.89087 174.976 3.57678 175.225 4.32359C175.473 5.0704 175.561 5.86125 175.482 6.64434L166.266 116.356C166.097 118.017 165.326 119.559 164.098 120.691C162.87 121.823 161.27 122.466 159.601 122.499Z" fill="#178CAF"/>
<path d="M6.3481 120.126C5.86446 120.135 5.38454 120.04 4.94008 119.85C4.49563 119.659 4.09678 119.376 3.76992 119.019C3.44307 118.662 3.19568 118.241 3.04411 117.781C2.89254 117.322 2.84025 116.836 2.89071 116.355L12.1065 6.64331C12.208 5.6225 12.6808 4.6745 13.4351 3.97923C14.1894 3.28397 15.1727 2.88982 16.1984 2.87161H169.646C170.13 2.8632 170.61 2.95751 171.055 3.14832C171.499 3.33913 171.898 3.6221 172.226 3.97855C172.553 4.335 172.801 4.75682 172.953 5.21616C173.106 5.6755 173.159 6.16192 173.109 6.64331L163.893 116.355C163.792 117.375 163.319 118.323 162.565 119.019C161.81 119.714 160.827 120.108 159.801 120.126H6.3481Z" fill="white"/>
<path d="M162.861 14.0538C164.093 12.8727 164.211 10.9973 163.125 9.86502C162.04 8.7327 160.161 8.77221 158.929 9.95328C157.698 11.1344 157.579 13.0097 158.665 14.1421C159.751 15.2744 161.63 15.2349 162.861 14.0538Z" fill="#178CAF"/>
<path d="M151.004 14.0587C152.236 12.8776 152.354 11.0022 151.268 9.8699C150.182 8.73758 148.303 8.77709 147.072 9.95816C145.84 11.1392 145.722 13.0146 146.808 14.1469C147.894 15.2793 149.772 15.2397 151.004 14.0587Z" fill="#178CAF"/>
<path d="M139.141 14.0587C140.372 12.8776 140.491 11.0022 139.405 9.8699C138.319 8.73758 136.44 8.77709 135.209 9.95816C133.977 11.1392 133.859 13.0146 134.945 14.1469C136.03 15.2793 137.909 15.2397 139.141 14.0587Z" fill="#178CAF"/>
<path d="M60.92 24.3877H23.4758C21.2342 24.3877 19.2593 26.0778 19.0874 28.1475L11.3779 120.127H56.9704L64.6798 28.1475C64.8458 26.0719 63.1557 24.3877 60.92 24.3877Z" fill="#178CAF"/>
<path d="M59.7573 26.6661H24.2524C23.447 26.6847 22.676 26.9959 22.0833 27.5416C21.4907 28.0873 21.1171 28.8302 21.0323 29.6313L19.2532 50.9212C19.2146 51.2995 19.2566 51.6817 19.3764 52.0426C19.4962 52.4035 19.6911 52.735 19.9482 53.0151C20.2054 53.2952 20.519 53.5177 20.8684 53.6679C21.2177 53.8181 21.5949 53.8925 21.9752 53.8864H57.4742C58.2807 53.8716 59.0539 53.5617 59.6473 53.0152C60.2407 52.4688 60.6132 51.7238 60.6943 50.9212L62.4734 29.6313C62.51 29.2539 62.4669 28.873 62.3467 28.5133C62.2265 28.1536 62.0321 27.8233 61.7759 27.5437C61.5198 27.264 61.2077 27.0414 60.86 26.8902C60.5122 26.739 60.1365 26.6627 59.7573 26.6661Z" fill="white"/>
<path d="M57.2007 57.1066H21.6958C20.89 57.1239 20.1183 57.4347 19.5254 57.9806C18.9325 58.5266 18.5592 59.2701 18.4756 60.0717L16.6965 81.3616C16.6579 81.7399 16.6999 82.1221 16.8197 82.483C16.9395 82.8439 17.1345 83.1754 17.3916 83.4555C17.6488 83.7357 17.9624 83.9581 18.3117 84.1083C18.6611 84.2585 19.0383 84.3329 19.4185 84.3268H54.9175C55.7241 84.312 56.4972 84.0021 57.0906 83.4557C57.6841 82.9092 58.0566 82.1642 58.1377 81.3616L59.9168 60.0717C59.9534 59.6943 59.9102 59.3134 59.7901 58.9537C59.6699 58.5941 59.4754 58.2637 59.2193 57.9841C58.9632 57.7045 58.6511 57.4818 58.3033 57.3307C57.9556 57.1795 57.5799 57.1031 57.2007 57.1066Z" fill="white"/>
<path d="M54.6462 87.5508H19.1294C18.3232 87.5669 17.5508 87.8772 16.9576 88.4234C16.3645 88.9696 15.9916 89.7139 15.9092 90.516L14.1301 111.806C14.0915 112.184 14.1335 112.566 14.2533 112.927C14.3731 113.288 14.568 113.62 14.8252 113.9C15.0824 114.18 15.396 114.402 15.7453 114.553C16.0947 114.703 16.4719 114.777 16.8521 114.771H52.3393C53.1454 114.755 53.9179 114.445 54.511 113.898C55.1042 113.352 55.4771 112.608 55.5594 111.806L57.3385 90.516C57.3768 90.1402 57.3356 89.7605 57.2175 89.4017C57.0995 89.0429 56.9072 88.7129 56.6533 88.4333C56.3994 88.1536 56.0894 87.9305 55.7436 87.7785C55.3978 87.6264 55.0239 87.5489 54.6462 87.5508Z" fill="white"/>
<path d="M30.8825 38.6215H24.6023C24.4283 38.624 24.2557 38.5897 24.0959 38.5208C23.936 38.452 23.7926 38.35 23.675 38.2218C23.5574 38.0935 23.4682 37.9418 23.4134 37.7766C23.3586 37.6114 23.3393 37.4365 23.3569 37.2634L23.8847 30.9832C23.9236 30.6159 24.0949 30.2755 24.3668 30.0255C24.6386 29.7755 24.9922 29.6332 25.3614 29.6251H31.6356C31.8097 29.6226 31.9823 29.6569 32.1421 29.7257C32.3019 29.7946 32.4453 29.8966 32.5629 30.0248C32.6806 30.1531 32.7697 30.3048 32.8245 30.47C32.8794 30.6351 32.8986 30.81 32.881 30.9832L32.3532 37.2634C32.3157 37.6301 32.1456 37.9705 31.8747 38.2206C31.6039 38.4707 31.251 38.6132 30.8825 38.6215Z" fill="#178CAF"/>
<path opacity="0.5" d="M57.7057 43.5125H23.4758C23.3938 43.5127 23.3126 43.496 23.2373 43.4632C23.1621 43.4305 23.0945 43.3825 23.0387 43.3224C22.983 43.2622 22.9404 43.191 22.9135 43.1135C22.8867 43.036 22.8762 42.9538 22.8828 42.872C22.9 42.6983 22.98 42.5368 23.1077 42.4178C23.2354 42.2989 23.4021 42.2305 23.5766 42.2256H57.8065C57.8891 42.2253 57.9708 42.2422 58.0465 42.2753C58.1222 42.3083 58.1901 42.3569 58.2459 42.4177C58.3017 42.4786 58.3442 42.5504 58.3707 42.6286C58.3972 42.7069 58.407 42.7897 58.3995 42.872C58.381 43.0446 58.3004 43.2047 58.1728 43.3224C58.0452 43.4402 57.8793 43.5077 57.7057 43.5125Z" fill="#178CAF"/>
<path opacity="0.2" d="M53.1752 33.4493H37.4301C37.299 33.4509 37.1689 33.4246 37.0486 33.3724C36.9283 33.3202 36.8203 33.2431 36.7319 33.1462C36.6434 33.0494 36.5764 32.9349 36.5352 32.8103C36.4941 32.6858 36.4798 32.5539 36.4931 32.4234C36.522 32.1475 36.6506 31.8915 36.8548 31.7037C37.059 31.5159 37.3247 31.4091 37.6021 31.4034H53.3471C53.4778 31.4019 53.6072 31.428 53.7271 31.4799C53.847 31.5318 53.9547 31.6083 54.043 31.7045C54.1314 31.8007 54.1985 31.9144 54.2401 32.0383C54.2816 32.1621 54.2966 32.2934 54.2841 32.4234C54.2567 32.7004 54.1287 32.9577 53.9243 33.1468C53.72 33.3358 53.4535 33.4435 53.1752 33.4493Z" fill="#263238"/>
<path opacity="0.2" d="M46.6626 36.8419H37.1444C37.0138 36.8434 36.8843 36.8173 36.7644 36.7654C36.6445 36.7135 36.5369 36.637 36.4485 36.5408C36.3601 36.4446 36.293 36.3309 36.2515 36.207C36.2099 36.0832 36.1949 35.9519 36.2074 35.8219C36.2347 35.5459 36.3619 35.2894 36.565 35.1004C36.7681 34.9115 37.0332 34.8033 37.3104 34.796H46.8346C46.9657 34.7944 47.0957 34.8207 47.2161 34.8729C47.3364 34.9251 47.4444 35.0022 47.5328 35.0991C47.6213 35.1959 47.6883 35.3104 47.7294 35.435C47.7706 35.5595 47.7849 35.6914 47.7715 35.8219C47.7427 36.0978 47.6141 36.3538 47.4099 36.5416C47.2057 36.7294 46.9399 36.8362 46.6626 36.8419Z" fill="#263238"/>
<path d="M28.3268 69.0668H22.0466C21.8726 69.0693 21.7 69.035 21.5402 68.9662C21.3804 68.8973 21.2369 68.7953 21.1193 68.6671C21.0017 68.5388 20.9125 68.3871 20.8577 68.2219C20.8029 68.0568 20.7836 67.8819 20.8012 67.7087L21.329 61.4285C21.3667 61.0608 21.5377 60.7196 21.8097 60.4693C22.0818 60.2191 22.4361 60.0772 22.8057 60.0704H29.08C29.254 60.0679 29.4266 60.1022 29.5864 60.1711C29.7462 60.2399 29.8897 60.3419 30.0073 60.4701C30.1249 60.5984 30.2141 60.7501 30.2689 60.9153C30.3237 61.0805 30.3429 61.2553 30.3254 61.4285L29.8035 67.7087C29.7659 68.0764 29.5948 68.4176 29.3228 68.6679C29.0507 68.9181 28.6964 69.06 28.3268 69.0668Z" fill="#178CAF"/>
<path opacity="0.5" d="M55.1497 73.9597H20.9079C20.8254 73.9601 20.7436 73.9432 20.668 73.9101C20.5923 73.877 20.5244 73.8285 20.4685 73.7676C20.4127 73.7068 20.3702 73.6349 20.3438 73.5567C20.3173 73.4785 20.3075 73.3956 20.3149 73.3133C20.3335 73.1407 20.4141 72.9807 20.5416 72.8629C20.6692 72.7451 20.8352 72.6776 21.0088 72.6729H55.2387C55.3207 72.6726 55.4019 72.6893 55.4771 72.7221C55.5523 72.7548 55.62 72.8028 55.6757 72.863C55.7314 72.9232 55.7741 72.9943 55.8009 73.0718C55.8278 73.1493 55.8383 73.2316 55.8317 73.3133C55.8148 73.4851 55.7365 73.645 55.6112 73.7637C55.486 73.8824 55.3221 73.952 55.1497 73.9597Z" fill="#178CAF"/>
<path opacity="0.2" d="M50.6185 63.8966H34.8675C34.7369 63.8973 34.6075 63.8705 34.4879 63.8178C34.3683 63.7652 34.2611 63.688 34.1732 63.5913C34.0854 63.4945 34.0189 63.3803 33.9782 63.2562C33.9374 63.132 33.9232 63.0007 33.9365 62.8707C33.9652 62.5957 34.0929 62.3406 34.2959 62.1529C34.4989 61.9652 34.7632 61.8578 35.0395 61.8506H50.7905C50.9211 61.8492 51.0506 61.8753 51.1705 61.9272C51.2904 61.9791 51.398 62.0556 51.4864 62.1518C51.5747 62.248 51.6419 62.3617 51.6834 62.4856C51.725 62.6094 51.74 62.7406 51.7275 62.8707C51.7 63.1477 51.572 63.405 51.3677 63.594C51.1633 63.7831 50.8968 63.8907 50.6185 63.8966Z" fill="#263238"/>
<path opacity="0.2" d="M44.1075 67.2872H34.5834C34.453 67.2888 34.3238 67.2627 34.2041 67.2108C34.0845 67.1588 33.9772 67.0822 33.8893 66.9859C33.8014 66.8895 33.7348 66.7757 33.694 66.6519C33.6532 66.528 33.639 66.3969 33.6523 66.2672C33.6797 65.9912 33.8069 65.7347 34.01 65.5458C34.2131 65.3569 34.4781 65.2486 34.7554 65.2413H44.2795C44.4107 65.2398 44.5407 65.266 44.661 65.3182C44.7814 65.3704 44.8893 65.4475 44.9778 65.5444C45.0662 65.6413 45.1332 65.7557 45.1744 65.8803C45.2155 66.0049 45.2299 66.1367 45.2165 66.2672C45.1877 66.5432 45.0591 66.7991 44.8549 66.9869C44.6507 67.1747 44.3849 67.2815 44.1075 67.2872Z" fill="#263238"/>
<path d="M41.6643 76.9241H54.0468C54.2409 76.9205 54.4334 76.9582 54.6118 77.0346C54.7901 77.1111 54.9502 77.2245 55.0814 77.3675C55.2126 77.5105 55.3119 77.6797 55.3728 77.864C55.4337 78.0482 55.4547 78.2433 55.4345 78.4363L55.2507 80.6483C55.2101 81.0586 55.0205 81.4397 54.7178 81.7195C54.415 81.9993 54.0202 82.1583 53.608 82.1665H41.2017C41.0074 82.1692 40.8148 82.1307 40.6364 82.0536C40.4581 81.9765 40.2981 81.8624 40.167 81.719C40.0359 81.5756 39.9366 81.406 39.8758 81.2215C39.815 81.0369 39.7939 80.8416 39.814 80.6483L39.9979 78.4363C40.0403 78.0231 40.2339 77.6402 40.5415 77.361C40.8491 77.0819 41.2489 76.9263 41.6643 76.9241Z" fill="#178CAF"/>
<path d="M42.6078 80.2345H41.8843L41.7538 80.5725H41.1074L42.0563 78.5146H42.7501L43.3432 80.5725H42.679L42.6078 80.2345ZM42.5129 79.7897L42.3528 79.0484L42.0622 79.7897H42.5129Z" fill="white"/>
<path d="M44.9432 79.7306L45.4887 79.9026C45.4419 80.0449 45.3696 80.1775 45.2753 80.2939C45.1875 80.3959 45.0781 80.477 44.955 80.5312C44.8075 80.5874 44.6502 80.6136 44.4925 80.6083C44.3078 80.6167 44.1235 80.5843 43.9528 80.5134C43.8057 80.4385 43.687 80.3178 43.6148 80.1694C43.5198 79.9744 43.4847 79.7557 43.5139 79.5408C43.5242 79.2449 43.6448 78.9636 43.852 78.7521C44.0712 78.561 44.3563 78.4631 44.6466 78.4793C44.8556 78.4675 45.0629 78.5214 45.2397 78.6335C45.3913 78.7558 45.4944 78.9282 45.5303 79.1197L44.9372 79.2443C44.9288 79.1966 44.9128 79.1505 44.8898 79.1079C44.8588 79.0601 44.8159 79.0213 44.7652 78.9952C44.7148 78.9663 44.6573 78.9519 44.5992 78.9537C44.5307 78.9522 44.4629 78.9676 44.4019 78.9987C44.3408 79.0297 44.2884 79.0754 44.2493 79.1316C44.1717 79.2518 44.1305 79.3918 44.1307 79.5349C44.0975 79.6933 44.1184 79.8582 44.19 80.0034C44.2227 80.0472 44.2659 80.0822 44.3157 80.105C44.3654 80.1278 44.4201 80.1377 44.4747 80.1338C44.5269 80.1363 44.579 80.1281 44.628 80.1097C44.6769 80.0914 44.7216 80.0632 44.7593 80.0271C44.8437 79.9446 44.9068 79.8428 44.9432 79.7306Z" fill="white"/>
<path d="M47.1844 79.7306L47.73 79.9026C47.6832 80.0449 47.6108 80.1775 47.5165 80.2939C47.4288 80.3959 47.3193 80.477 47.1962 80.5312C47.0487 80.5874 46.8914 80.6136 46.7337 80.6083C46.549 80.6167 46.3647 80.5843 46.194 80.5134C46.0469 80.4385 45.9283 80.3178 45.856 80.1694C45.761 79.9744 45.7259 79.7557 45.7552 79.5408C45.7654 79.2449 45.886 78.9636 46.0932 78.7521C46.3124 78.561 46.5975 78.4631 46.8878 78.4793C47.0967 78.4683 47.3038 78.5221 47.4809 78.6335C47.6306 78.7575 47.7332 78.9291 47.7715 79.1197L47.1784 79.2443C47.1701 79.1966 47.154 79.1505 47.131 79.1079C47.0986 79.0614 47.056 79.0228 47.0065 78.9952C46.9542 78.9655 46.8946 78.9511 46.8345 78.9537C46.7669 78.9526 46.7001 78.9683 46.6401 78.9994C46.5801 79.0304 46.5287 79.0759 46.4905 79.1316C46.4131 79.2522 46.3701 79.3916 46.366 79.5349C46.3368 79.694 46.3597 79.8583 46.4312 80.0034C46.4635 80.0477 46.5067 80.0829 46.5565 80.1058C46.6064 80.1286 46.6612 80.1383 46.7159 80.1338C46.7673 80.1379 46.8189 80.1315 46.8678 80.1152C46.9167 80.0989 46.9618 80.073 47.0005 80.0389C47.0865 79.9531 47.1497 79.8471 47.1844 79.7306Z" fill="white"/>
<path d="M48.1868 78.5146H49.8947L49.8532 78.9535H48.7798L48.7501 79.2797H49.7405L49.7049 79.7007H48.7146L48.679 80.1099H49.782L49.7405 80.5725H48.0029L48.1868 78.5146Z" fill="white"/>
<path d="M50.2336 78.5146H51.2952C51.3861 78.5061 51.4778 78.5165 51.5645 78.5451C51.6513 78.5736 51.7312 78.6198 51.7993 78.6806C51.8529 78.7451 51.8922 78.8201 51.9147 78.9009C51.9372 78.9816 51.9423 79.0662 51.9297 79.1491C51.9255 79.2415 51.9029 79.3321 51.8632 79.4156C51.8235 79.4991 51.7674 79.5739 51.6984 79.6354C51.5286 79.7637 51.3175 79.8249 51.1054 79.8074H50.7555L50.6903 80.5724H50.0498L50.2336 78.5146ZM50.8267 79.3923H50.9868C51.0785 79.3988 51.1699 79.3759 51.2477 79.327C51.272 79.3084 51.2924 79.2852 51.3076 79.2587C51.3228 79.2322 51.3327 79.2029 51.3365 79.1726C51.3404 79.1423 51.3382 79.1115 51.3301 79.082C51.322 79.0525 51.3081 79.0249 51.2892 79.0009C51.2568 78.9733 51.2189 78.9527 51.1781 78.9404C51.1373 78.9282 51.0943 78.9245 51.052 78.9297H50.8682L50.8267 79.3923Z" fill="white"/>
<path d="M52.1732 78.5146H54.1184L54.0768 79.0247H53.4304L53.294 80.5725H52.6536L52.79 79.0247H52.1436L52.1732 78.5146Z" fill="white"/>
<path d="M25.7642 99.5138H19.4899C19.3156 99.5155 19.1429 99.4804 18.9831 99.4108C18.8233 99.3413 18.6799 99.2388 18.5624 99.1101C18.4449 98.9814 18.3558 98.8293 18.3011 98.6638C18.2463 98.4984 18.227 98.3232 18.2446 98.1498L18.7724 91.8992C18.8099 91.5325 18.98 91.1921 19.2509 90.942C19.5217 90.6919 19.8745 90.5494 20.2431 90.5411H26.5233C26.6973 90.5386 26.8699 90.5729 27.0297 90.6418C27.1895 90.7106 27.333 90.8126 27.4506 90.9408C27.5682 91.0691 27.6574 91.2208 27.7122 91.386C27.767 91.5512 27.7863 91.7261 27.7687 91.8992L27.2409 98.1735C27.1968 98.537 27.0233 98.8725 26.7522 99.1187C26.481 99.3648 26.1303 99.505 25.7642 99.5138Z" fill="#178CAF"/>
<path opacity="0.25" d="M52.588 104.407H18.364C18.2814 104.407 18.1997 104.39 18.124 104.357C18.0483 104.324 17.9804 104.276 17.9246 104.215C17.8688 104.154 17.8263 104.082 17.7998 104.004C17.7734 103.926 17.7635 103.843 17.771 103.761C17.7896 103.588 17.8701 103.428 17.9977 103.31C18.1253 103.192 18.2912 103.125 18.4648 103.12H52.6947C52.7767 103.12 52.8579 103.137 52.9332 103.169C53.0084 103.202 53.076 103.25 53.1317 103.31C53.1875 103.37 53.2301 103.442 53.257 103.519C53.2838 103.597 53.2943 103.679 53.2877 103.761C53.2704 103.935 53.1896 104.098 53.0606 104.217C52.9316 104.336 52.7635 104.404 52.588 104.407Z" fill="#178CAF"/>
<path opacity="0.25" d="M45.9638 104.407H18.364C18.2814 104.407 18.1997 104.39 18.124 104.357C18.0483 104.324 17.9804 104.276 17.9246 104.215C17.8688 104.154 17.8263 104.082 17.7998 104.004C17.7734 103.926 17.7635 103.843 17.771 103.761C17.7896 103.588 17.8701 103.428 17.9977 103.31C18.1253 103.192 18.2912 103.125 18.4648 103.12H46.0646C46.1466 103.12 46.2278 103.137 46.3031 103.169C46.3783 103.202 46.4459 103.25 46.5016 103.31C46.5574 103.37 46.6 103.442 46.6269 103.519C46.6537 103.597 46.6642 103.679 46.6576 103.761C46.6404 103.934 46.5604 104.096 46.4327 104.215C46.305 104.334 46.1383 104.402 45.9638 104.407Z" fill="#178CAF"/>
<path opacity="0.2" d="M48.0629 94.3361H32.3119C32.1815 94.3376 32.0523 94.3115 31.9327 94.2596C31.813 94.2077 31.7057 94.131 31.6178 94.0347C31.5299 93.9384 31.4633 93.8246 31.4225 93.7007C31.3817 93.5769 31.3675 93.4458 31.3809 93.3161C31.4083 93.0406 31.5357 92.7848 31.7389 92.5969C31.9422 92.4089 32.2072 92.3019 32.4839 92.2961H48.2349C48.3658 92.2937 48.4957 92.3191 48.616 92.3707C48.7364 92.4222 48.8444 92.4988 48.9329 92.5952C49.0215 92.6916 49.0886 92.8057 49.1298 92.93C49.171 93.0542 49.1853 93.1858 49.1719 93.3161C49.1443 93.5925 49.016 93.8491 48.8116 94.0372C48.6071 94.2253 48.3407 94.3316 48.0629 94.3361Z" fill="#263238"/>
<path opacity="0.2" d="M41.5518 97.7344H32.0277C31.897 97.7351 31.7677 97.7083 31.6481 97.6557C31.5284 97.6031 31.4212 97.5259 31.3334 97.4291C31.2456 97.3323 31.1791 97.2181 31.1383 97.094C31.0975 96.9698 31.0833 96.8385 31.0966 96.7085C31.1229 96.4326 31.2499 96.176 31.4534 95.9878C31.6568 95.7996 31.9226 95.6931 32.1997 95.6885H41.7238C41.8542 95.688 41.9832 95.7147 42.1027 95.7668C42.2221 95.819 42.3293 95.8956 42.4175 95.9916C42.5057 96.0876 42.5729 96.2009 42.6148 96.3244C42.6567 96.4478 42.6724 96.5786 42.6608 96.7085C42.6333 96.9855 42.5053 97.2428 42.301 97.4319C42.0966 97.6209 41.8301 97.7286 41.5518 97.7344Z" fill="#263238"/>
<path d="M109.864 24.3877H72.3898C70.1541 24.3877 68.1793 26.0778 68.0073 28.1475L60.2979 120.127H105.884L113.594 28.1475C113.766 26.0719 112.076 24.3877 109.864 24.3877Z" fill="#178CAF"/>
<path d="M108.676 26.6662H73.1714C72.3656 26.6835 71.5938 26.9943 71.0009 27.5403C70.408 28.0862 70.0348 28.8297 69.9512 29.6314L68.1721 50.9213C68.1336 51.2991 68.1754 51.6808 68.2949 52.0412C68.4143 52.4017 68.6087 52.7329 68.8652 53.0129C69.1217 53.2929 69.4346 53.5156 69.7832 53.6661C70.1319 53.8167 70.5085 53.8917 70.8882 53.8864H106.393C107.199 53.8704 107.972 53.56 108.565 53.0138C109.158 52.4677 109.531 51.7234 109.613 50.9213L111.392 29.6314C111.43 29.2537 111.387 28.8724 111.268 28.5124C111.148 28.1523 110.953 27.8216 110.697 27.5417C110.441 27.2619 110.128 27.0393 109.78 26.8884C109.432 26.7376 109.056 26.6618 108.676 26.6662Z" fill="white"/>
<path d="M106.115 57.1068H70.616C69.8099 57.1228 69.0374 57.4332 68.4443 57.9794C67.8511 58.5256 67.4782 59.2699 67.3959 60.072L65.6168 81.3619C65.5792 81.74 65.6218 82.1218 65.742 82.4823C65.8622 82.8428 66.0571 83.1738 66.3141 83.4537C66.571 83.7337 66.8842 83.9561 67.2332 84.1066C67.5821 84.2571 67.9588 84.3322 68.3388 84.327H103.844C104.649 84.3097 105.421 83.9989 106.014 83.453C106.607 82.907 106.98 82.1635 107.064 81.3619L108.843 60.072C108.881 59.6933 108.838 59.311 108.717 58.9501C108.597 58.5892 108.401 58.2579 108.144 57.9778C107.886 57.6978 107.572 57.4755 107.223 57.3253C106.873 57.1752 106.495 57.1007 106.115 57.1068Z" fill="white"/>
<path d="M103.558 87.5512H68.0594C67.2529 87.566 66.4797 87.8759 65.8863 88.4224C65.2929 88.9688 64.9203 89.7138 64.8392 90.5164L63.0601 111.806C63.0225 112.184 63.0652 112.566 63.1853 112.927C63.3055 113.287 63.5005 113.618 63.7574 113.898C64.0144 114.178 64.3276 114.401 64.6765 114.551C65.0254 114.702 65.4022 114.777 65.7822 114.771H101.287C102.093 114.754 102.865 114.443 103.457 113.897C104.05 113.351 104.424 112.608 104.507 111.806L106.286 90.5164C106.325 90.1376 106.283 89.7549 106.163 89.3936C106.043 89.0322 105.847 88.7005 105.589 88.4203C105.331 88.14 105.017 87.9177 104.667 87.7679C104.317 87.6181 103.939 87.5442 103.558 87.5512Z" fill="white"/>
<path d="M79.7965 38.6204H73.5222C73.3482 38.623 73.1756 38.5887 73.0158 38.5198C72.856 38.4509 72.7125 38.349 72.5949 38.2207C72.4773 38.0925 72.3881 37.9408 72.3333 37.7756C72.2785 37.6104 72.2592 37.4355 72.2768 37.2624L72.8046 30.9821C72.8424 30.615 73.0136 30.2745 73.2858 30.0252C73.558 29.776 73.9122 29.6353 74.2813 29.63H80.5615C80.7355 29.6275 80.9081 29.6617 81.0679 29.7306C81.2277 29.7995 81.3712 29.9014 81.4888 30.0297C81.6064 30.158 81.6956 30.3097 81.7504 30.4748C81.8052 30.64 81.8245 30.8149 81.8069 30.9881L81.2791 37.2683C81.2387 37.6354 81.0659 37.9753 80.793 38.2242C80.5201 38.4731 80.1658 38.614 79.7965 38.6204Z" fill="#178CAF"/>
<path opacity="0.25" d="M106.619 43.5125H72.3947C72.3127 43.5127 72.2315 43.496 72.1563 43.4632C72.0811 43.4305 72.0134 43.3825 71.9577 43.3224C71.902 43.2622 71.8593 43.191 71.8325 43.1135C71.8056 43.036 71.7951 42.9538 71.8017 42.872C71.8177 42.6978 71.8973 42.5356 72.0253 42.4164C72.1533 42.2971 72.3207 42.2292 72.4955 42.2256H106.725C106.808 42.2253 106.89 42.2422 106.965 42.2753C107.041 42.3083 107.109 42.3569 107.165 42.4177C107.221 42.4786 107.263 42.5504 107.29 42.6286C107.316 42.7069 107.326 42.7897 107.318 42.872C107.3 43.0456 107.218 43.2065 107.09 43.3244C106.961 43.4423 106.793 43.5092 106.619 43.5125Z" fill="#178CAF"/>
<path opacity="0.25" d="M87.0782 43.5125H72.3947C72.3127 43.5127 72.2315 43.496 72.1563 43.4632C72.0811 43.4305 72.0134 43.3825 71.9577 43.3224C71.902 43.2622 71.8593 43.191 71.8325 43.1135C71.8056 43.036 71.7951 42.9538 71.8017 42.872C71.8177 42.6978 71.8973 42.5356 72.0253 42.4164C72.1533 42.2971 72.3207 42.2292 72.4955 42.2256H87.185C87.2676 42.2253 87.3493 42.2422 87.425 42.2753C87.5006 42.3083 87.5686 42.3569 87.6244 42.4177C87.6802 42.4786 87.7227 42.5504 87.7492 42.6286C87.7756 42.7069 87.7855 42.7897 87.778 42.872C87.7593 43.0456 87.6779 43.2065 87.5491 43.3244C87.4203 43.4423 87.2528 43.5092 87.0782 43.5125Z" fill="#178CAF"/>
<path opacity="0.2" d="M102.093 33.4493H86.3422C86.2111 33.4509 86.081 33.4247 85.9607 33.3724C85.8404 33.3202 85.7324 33.2431 85.644 33.1462C85.5555 33.0494 85.4885 32.9349 85.4474 32.8103C85.4062 32.6858 85.3919 32.5539 85.4052 32.4234C85.4341 32.1475 85.5627 31.8915 85.7669 31.7037C85.9711 31.5159 86.2368 31.4091 86.5142 31.4034H102.265C102.396 31.4019 102.525 31.4279 102.644 31.4799C102.764 31.5318 102.871 31.6084 102.959 31.7048C103.047 31.8011 103.114 31.9149 103.155 32.0387C103.195 32.1626 103.21 32.2937 103.196 32.4234C103.169 32.6994 103.042 32.956 102.839 33.1449C102.636 33.3338 102.37 33.442 102.093 33.4493Z" fill="#263238"/>
<path opacity="0.2" d="M95.5826 36.8419H86.0584C85.9278 36.8433 85.7984 36.8172 85.6785 36.7653C85.5586 36.7135 85.4509 36.6369 85.3626 36.5407C85.2742 36.4445 85.2071 36.3308 85.1655 36.207C85.124 36.0831 85.109 35.9519 85.1215 35.8219C85.1489 35.5449 85.2769 35.2875 85.4813 35.0985C85.6856 34.9094 85.9521 34.8018 86.2304 34.7959H95.7545C95.8852 34.7952 96.0146 34.8221 96.1342 34.8747C96.2538 34.9273 96.361 35.0045 96.4489 35.1013C96.5367 35.198 96.6032 35.3122 96.6439 35.4364C96.6847 35.5605 96.6989 35.6919 96.6856 35.8219C96.6569 36.0968 96.5291 36.3519 96.3262 36.5396C96.1232 36.7273 95.8589 36.8347 95.5826 36.8419Z" fill="#263238"/>
<path d="M77.2458 69.0669H70.9656C70.7915 69.0694 70.619 69.0352 70.4591 68.9663C70.2993 68.8974 70.1559 68.7955 70.0383 68.6672C69.9206 68.5389 69.8315 68.3872 69.7767 68.2221C69.7218 68.0569 69.7026 67.882 69.7202 67.7088L70.248 61.4286C70.2842 61.0614 70.454 60.7203 70.7251 60.4699C70.9962 60.2196 71.3498 60.0775 71.7187 60.0706H77.993C78.1673 60.067 78.3403 60.1007 78.5006 60.1693C78.6609 60.2378 78.8047 60.3397 78.9225 60.4682C79.0403 60.5967 79.1294 60.7488 79.1839 60.9144C79.2384 61.08 79.2569 61.2553 79.2384 61.4286L78.7165 67.7088C78.6778 68.0751 78.5073 68.4148 78.2367 68.6646C77.9661 68.9144 77.6139 69.0574 77.2458 69.0669Z" fill="#178CAF"/>
<path opacity="0.25" d="M104.063 73.9597H69.8386C69.756 73.9601 69.6743 73.9432 69.5986 73.9101C69.523 73.877 69.455 73.8285 69.3992 73.7676C69.3434 73.7068 69.3009 73.6349 69.2744 73.5567C69.248 73.4785 69.2381 73.3956 69.2456 73.3133C69.2643 73.1397 69.3457 72.9789 69.4745 72.861C69.6033 72.7431 69.7708 72.6762 69.9454 72.6729H104.169C104.251 72.6726 104.333 72.6893 104.408 72.7221C104.483 72.7548 104.551 72.8028 104.606 72.863C104.662 72.9232 104.705 72.9943 104.732 73.0718C104.758 73.1493 104.769 73.2316 104.762 73.3133C104.745 73.488 104.664 73.6503 104.535 73.7694C104.406 73.8885 104.238 73.9562 104.063 73.9597Z" fill="#178CAF"/>
<path opacity="0.25" d="M71.6651 73.9597H69.8386C69.756 73.9601 69.6743 73.9432 69.5986 73.9101C69.523 73.877 69.455 73.8285 69.3992 73.7676C69.3434 73.7068 69.3009 73.6349 69.2744 73.5567C69.248 73.4785 69.2381 73.3956 69.2456 73.3133C69.2643 73.1397 69.3457 72.9789 69.4745 72.861C69.6033 72.7431 69.7708 72.6762 69.9454 72.6729H71.7719C71.8539 72.6726 71.9351 72.6893 72.0104 72.7221C72.0856 72.7548 72.1532 72.8028 72.2089 72.863C72.2647 72.9232 72.3073 72.9943 72.3342 73.0718C72.361 73.1493 72.3715 73.2316 72.3649 73.3133C72.3475 73.488 72.2667 73.6503 72.1378 73.7694C72.0088 73.8885 71.8407 73.9562 71.6651 73.9597Z" fill="#178CAF"/>
<path opacity="0.2" d="M99.5378 63.8966H83.769C83.6378 63.8981 83.5078 63.8719 83.3875 63.8197C83.2671 63.7674 83.1592 63.6904 83.0707 63.5935C82.9822 63.4966 82.9152 63.3822 82.8741 63.2576C82.833 63.133 82.8186 63.0012 82.832 62.8707C82.8608 62.5947 82.9894 62.3388 83.1936 62.151C83.3978 61.9632 83.6636 61.8564 83.941 61.8506H99.6919C99.8223 61.8491 99.9516 61.8752 100.071 61.9271C100.191 61.9791 100.298 62.0557 100.386 62.152C100.474 62.2483 100.541 62.3622 100.581 62.486C100.622 62.6099 100.636 62.7409 100.623 62.8707C100.596 63.1437 100.471 63.3979 100.272 63.5864C100.073 63.7749 99.8119 63.8851 99.5378 63.8966Z" fill="#263238"/>
<path opacity="0.2" d="M93.0269 67.2872H83.5028C83.3721 67.2887 83.2427 67.2626 83.1228 67.2107C83.0029 67.1588 82.8953 67.0823 82.8069 66.9861C82.7185 66.8899 82.6514 66.7762 82.6099 66.6523C82.5683 66.5285 82.5533 66.3973 82.5658 66.2672C82.5933 65.9902 82.7213 65.7329 82.9256 65.5438C83.1299 65.3548 83.3965 65.2472 83.6748 65.2413H93.193C93.3241 65.2398 93.4541 65.266 93.5745 65.3182C93.6948 65.3704 93.8028 65.4475 93.8912 65.5444C93.9797 65.6413 94.0467 65.7557 94.0878 65.8803C94.129 66.0049 94.1433 66.1367 94.1299 66.2672C94.1012 66.5422 93.9735 66.7973 93.7705 66.985C93.5676 67.1727 93.3032 67.2801 93.0269 67.2872Z" fill="#263238"/>
<path d="M74.6841 99.514H68.4099C68.2356 99.5157 68.0629 99.4807 67.903 99.4111C67.7432 99.3416 67.5999 99.2391 67.4823 99.1104C67.3648 98.9816 67.2758 98.8296 67.221 98.6641C67.1662 98.4986 67.147 98.3235 67.1645 98.1501L67.6923 91.8757C67.7285 91.5085 67.8983 91.1674 68.1694 90.9171C68.4405 90.6667 68.7941 90.5246 69.163 90.5177H75.467C75.641 90.5151 75.8135 90.5494 75.9734 90.6183C76.1332 90.6872 76.2766 90.7891 76.3943 90.9174C76.5119 91.0457 76.601 91.1974 76.6558 91.3625C76.7107 91.5277 76.7299 91.7026 76.7123 91.8757L76.1845 98.1501C76.1478 98.5229 75.974 98.8688 75.6968 99.1208C75.4196 99.3727 75.0588 99.5129 74.6841 99.514Z" fill="#178CAF"/>
<path opacity="0.5" d="M101.507 104.407H67.2829C67.2004 104.407 67.1186 104.39 67.043 104.357C66.9673 104.324 66.8994 104.276 66.8435 104.215C66.7877 104.154 66.7452 104.082 66.7188 104.004C66.6923 103.926 66.6825 103.843 66.6899 103.761C66.7086 103.587 66.79 103.426 66.9189 103.308C67.0477 103.19 67.2151 103.123 67.3897 103.12H101.614C101.696 103.12 101.777 103.137 101.852 103.169C101.927 103.202 101.995 103.25 102.051 103.31C102.106 103.37 102.149 103.442 102.176 103.519C102.203 103.597 102.213 103.679 102.207 103.761C102.189 103.935 102.109 104.098 101.98 104.217C101.851 104.336 101.682 104.404 101.507 104.407Z" fill="#178CAF"/>
<path opacity="0.2" d="M96.9819 94.3361H81.2309C81.1 94.3384 80.9701 94.313 80.8498 94.2615C80.7295 94.2099 80.6215 94.1334 80.5329 94.0369C80.4443 93.9405 80.3772 93.8264 80.336 93.7022C80.2948 93.5779 80.2805 93.4463 80.294 93.3161C80.3216 93.0396 80.4498 92.783 80.6542 92.5949C80.8587 92.4069 81.1252 92.3005 81.4029 92.2961H97.148C97.2789 92.2937 97.4088 92.3191 97.5291 92.3707C97.6494 92.4222 97.7575 92.4988 97.846 92.5952C97.9346 92.6916 98.0017 92.8057 98.0429 92.93C98.0841 93.0542 98.0984 93.1858 98.085 93.3161C98.0575 93.5915 97.9301 93.8473 97.7269 94.0353C97.5237 94.2232 97.2587 94.3302 96.9819 94.3361Z" fill="#263238"/>
<path opacity="0.2" d="M90.4649 97.7345H80.9467C80.8155 97.736 80.6855 97.7098 80.5652 97.6576C80.4449 97.6053 80.3369 97.5282 80.2484 97.4314C80.16 97.3345 80.093 97.22 80.0519 97.0955C80.0107 96.9709 79.9964 96.839 80.0097 96.7085C80.0386 96.4326 80.1672 96.1767 80.3714 95.9889C80.5756 95.801 80.8413 95.6943 81.1187 95.6885H90.6369C90.7675 95.6871 90.897 95.7132 91.0169 95.7651C91.1368 95.8169 91.2444 95.8935 91.3328 95.9897C91.4211 96.0859 91.4883 96.1996 91.5298 96.3234C91.5714 96.4473 91.5864 96.5785 91.5739 96.7085C91.5464 96.9855 91.4184 97.2429 91.2141 97.4319C91.0097 97.621 90.7432 97.7286 90.4649 97.7345Z" fill="#263238"/>
<path d="M87.9974 107.371H100.374C100.568 107.369 100.76 107.407 100.938 107.484C101.116 107.56 101.275 107.674 101.406 107.817C101.537 107.959 101.637 108.128 101.698 108.312C101.759 108.496 101.781 108.691 101.762 108.883L101.578 111.095C101.535 111.504 101.344 111.883 101.042 112.161C100.739 112.44 100.346 112.598 99.9352 112.608H87.5586C87.3648 112.61 87.1727 112.572 86.9948 112.495C86.8169 112.418 86.6572 112.305 86.5262 112.162C86.3952 112.019 86.2958 111.851 86.2346 111.667C86.1733 111.483 86.1516 111.288 86.1709 111.095L86.3547 108.883C86.3978 108.475 86.5884 108.096 86.8908 107.817C87.1931 107.539 87.5866 107.38 87.9974 107.371Z" fill="#178CAF"/>
<path d="M88.9702 110.679H88.2467L88.1162 111.017H87.4639L88.4186 108.959H89.1066L89.6996 111.017H89.0354L88.9702 110.679ZM88.8753 110.234L88.7092 109.493L88.4186 110.234H88.8753Z" fill="white"/>
<path d="M91.3064 110.176L91.8461 110.342C91.805 110.487 91.7343 110.623 91.6385 110.739C91.5508 110.841 91.4414 110.922 91.3183 110.976C91.1689 111.034 91.0096 111.06 90.8498 111.054C90.6652 111.061 90.481 111.029 90.3101 110.959C90.1643 110.882 90.0461 110.762 89.9721 110.615C89.873 110.38 89.8433 110.122 89.8864 109.871C89.9295 109.619 90.0436 109.386 90.2152 109.197C90.4344 109.006 90.7196 108.908 91.0099 108.925C91.2187 108.914 91.4256 108.968 91.6029 109.079C91.7508 109.203 91.8514 109.375 91.8876 109.565L91.2946 109.69C91.2831 109.642 91.2651 109.596 91.2412 109.553C91.2125 109.506 91.1715 109.467 91.1226 109.441C91.0703 109.411 91.0107 109.396 90.9506 109.399C90.8836 109.397 90.8171 109.412 90.7572 109.442C90.6972 109.472 90.6455 109.516 90.6066 109.571C90.5304 109.694 90.4874 109.835 90.4821 109.98C90.4508 110.139 90.4737 110.304 90.5473 110.449C90.5795 110.492 90.6217 110.526 90.6704 110.549C90.719 110.572 90.7725 110.582 90.8261 110.579C90.8784 110.583 90.9309 110.575 90.98 110.557C91.029 110.538 91.0736 110.509 91.1107 110.472C91.2015 110.393 91.2691 110.291 91.3064 110.176Z" fill="white"/>
<path d="M93.5428 110.176L94.0883 110.342C94.0452 110.487 93.9725 110.623 93.8749 110.739C93.7872 110.841 93.6777 110.922 93.5546 110.976C93.4071 111.033 93.2498 111.059 93.0921 111.053C92.9074 111.062 92.7231 111.029 92.5524 110.959C92.4066 110.882 92.2884 110.762 92.2144 110.615C92.1194 110.42 92.0843 110.201 92.1136 109.986C92.1238 109.69 92.2444 109.409 92.4516 109.197C92.6714 109.007 92.9561 108.91 93.2462 108.924C93.4552 108.913 93.6625 108.967 93.8393 109.079C93.9909 109.201 94.094 109.373 94.1299 109.565L93.5368 109.689C93.5295 109.641 93.5134 109.595 93.4894 109.553C93.4607 109.506 93.4197 109.467 93.3708 109.44C93.3182 109.412 93.2588 109.397 93.1988 109.399C93.131 109.398 93.0639 109.413 93.0031 109.443C92.9422 109.473 92.8894 109.516 92.8489 109.571C92.7747 109.695 92.7338 109.836 92.7303 109.98C92.6989 110.139 92.7219 110.304 92.7955 110.449C92.8277 110.492 92.8699 110.526 92.9185 110.549C92.9672 110.571 93.0207 110.582 93.0743 110.579C93.1266 110.583 93.179 110.575 93.2281 110.556C93.2772 110.538 93.3218 110.509 93.3589 110.472C93.4486 110.394 93.5126 110.291 93.5428 110.176Z" fill="white"/>
<path d="M94.515 108.959H96.223L96.1874 109.398H95.114V109.724H96.1044L96.0688 110.145H95.0369L95.0013 110.554H96.0984L96.0569 111.017H94.3193L94.515 108.959Z" fill="white"/>
<path d="M96.5959 108.96H97.6515C97.7419 108.952 97.833 108.962 97.9195 108.989C98.0061 109.017 98.0863 109.061 98.1556 109.12C98.2092 109.184 98.2485 109.259 98.271 109.34C98.2935 109.421 98.2986 109.505 98.286 109.588C98.2774 109.775 98.1967 109.952 98.0607 110.08C97.8892 110.205 97.6794 110.266 97.4676 110.252H97.1237L97.0585 111.017H96.418L96.5959 108.96ZM97.1593 109.837H97.3135C97.4071 109.845 97.5006 109.822 97.5803 109.772C97.6066 109.753 97.6281 109.728 97.6435 109.699C97.6589 109.67 97.6677 109.639 97.6693 109.606C97.6729 109.577 97.67 109.548 97.6607 109.52C97.6515 109.492 97.6362 109.467 97.6159 109.446C97.5834 109.418 97.5456 109.398 97.5048 109.385C97.4639 109.373 97.421 109.37 97.3787 109.375H97.1949L97.1593 109.837Z" fill="white"/>
<path d="M98.5297 108.959H100.469L100.427 109.469H99.781L99.6446 111.017H99.0101L99.1465 109.469H98.4941L98.5297 108.959Z" fill="white"/>
<path d="M158.752 24.3882H121.308C120.244 24.3722 119.21 24.7454 118.402 25.4378C117.594 26.1302 117.067 27.0941 116.919 28.148L109.21 120.128H154.796L162.506 28.148C162.684 26.0724 160.994 24.3882 158.752 24.3882Z" fill="#178CAF"/>
<path d="M157.59 26.6663H122.091C121.285 26.6823 120.513 26.9927 119.92 27.5389C119.326 28.0851 118.953 28.8293 118.871 29.6314L117.092 50.9213C117.053 51.2997 117.095 51.6818 117.215 52.0428C117.335 52.4037 117.53 52.7351 117.787 53.0152C118.044 53.2954 118.358 53.5178 118.707 53.668C119.057 53.8182 119.434 53.8927 119.814 53.8865H155.313C156.12 53.8717 156.893 53.5618 157.486 53.0154C158.08 52.469 158.452 51.7239 158.533 50.9213L160.312 29.6314C160.35 29.2533 160.307 28.8715 160.187 28.511C160.067 28.1505 159.872 27.8195 159.615 27.5396C159.358 27.2596 159.045 27.0372 158.696 26.8867C158.347 26.7362 157.97 26.6611 157.59 26.6663Z" fill="white"/>
<path d="M155.035 57.1066H119.536C118.729 57.1227 117.957 57.433 117.364 57.9792C116.771 58.5254 116.398 59.2697 116.315 60.0718L114.536 81.3617C114.498 81.74 114.54 82.1222 114.66 82.4831C114.779 82.844 114.974 83.1754 115.231 83.4556C115.489 83.7357 115.802 83.9582 116.152 84.1084C116.501 84.2585 116.878 84.333 117.258 84.3269H152.757C153.564 84.3121 154.337 84.0022 154.93 83.4557C155.524 82.9093 155.896 82.1643 155.978 81.3617L157.757 60.0718C157.793 59.6939 157.75 59.3124 157.629 58.9524C157.509 58.5923 157.314 58.2616 157.057 57.9819C156.8 57.7022 156.488 57.4797 156.139 57.3289C155.791 57.1781 155.414 57.1023 155.035 57.1066Z" fill="white"/>
<path d="M152.479 87.5509H116.98C116.174 87.5682 115.402 87.879 114.81 88.4249C114.217 88.9709 113.843 89.7145 113.76 90.5161L111.981 111.806C111.942 112.184 111.984 112.566 112.104 112.927C112.224 113.288 112.419 113.62 112.676 113.9C112.933 114.18 113.247 114.402 113.596 114.553C113.945 114.703 114.322 114.777 114.703 114.771H150.19C150.996 114.756 151.77 114.446 152.363 113.9C152.956 113.354 153.329 112.609 153.41 111.806L155.189 90.5161C155.227 90.1389 155.184 89.7582 155.065 89.3985C154.945 89.0388 154.751 88.7084 154.496 88.4286C154.24 88.1489 153.928 87.9262 153.581 87.775C153.233 87.6237 152.858 87.5474 152.479 87.5509Z" fill="white"/>
<path d="M128.715 38.6215H122.441C122.267 38.625 122.094 38.5913 121.933 38.5228C121.773 38.4542 121.629 38.3523 121.511 38.2238C121.393 38.0953 121.304 37.9432 121.25 37.7776C121.195 37.612 121.177 37.4367 121.195 37.2634L121.717 30.9832C121.756 30.6159 121.928 30.2755 122.199 30.0255C122.471 29.7755 122.825 29.6332 123.194 29.6251H129.468C129.642 29.6226 129.815 29.6569 129.975 29.7257C130.135 29.7946 130.278 29.8966 130.396 30.0248C130.513 30.1531 130.602 30.3048 130.657 30.47C130.712 30.6351 130.731 30.81 130.714 30.9832L130.186 37.2634C130.15 37.6306 129.98 37.9717 129.709 38.2221C129.438 38.4724 129.084 38.6145 128.715 38.6215Z" fill="#178CAF"/>
<path opacity="0.5" d="M155.527 43.5125H121.309C121.227 43.5127 121.146 43.496 121.07 43.4632C120.995 43.4305 120.927 43.3825 120.872 43.3224C120.816 43.2622 120.773 43.191 120.747 43.1135C120.72 43.036 120.709 42.9538 120.716 42.872C120.733 42.6973 120.814 42.535 120.943 42.4159C121.072 42.2968 121.24 42.2291 121.416 42.2256H155.645C155.728 42.2253 155.81 42.2422 155.885 42.2753C155.961 42.3083 156.029 42.3569 156.085 42.4177C156.141 42.4786 156.183 42.5504 156.21 42.6286C156.236 42.7069 156.246 42.7897 156.238 42.872C156.221 43.0481 156.138 43.2114 156.006 43.3298C155.875 43.4482 155.704 43.5134 155.527 43.5125Z" fill="#178CAF"/>
<path opacity="0.2" d="M151.008 33.4493H135.263C135.132 33.4509 135.002 33.4246 134.882 33.3724C134.761 33.3202 134.653 33.2431 134.565 33.1462C134.476 33.0494 134.409 32.9349 134.368 32.8103C134.327 32.6858 134.313 32.5539 134.326 32.4234C134.355 32.1475 134.484 31.8915 134.688 31.7037C134.892 31.5159 135.158 31.4091 135.435 31.4034H151.18C151.311 31.4019 151.44 31.428 151.56 31.4799C151.68 31.5318 151.788 31.6083 151.876 31.7045C151.964 31.8007 152.032 31.9144 152.073 32.0383C152.115 32.1621 152.13 32.2934 152.117 32.4234C152.09 32.7004 151.962 32.9577 151.757 33.1468C151.553 33.3358 151.286 33.4435 151.008 33.4493Z" fill="#263238"/>
<path opacity="0.2" d="M144.496 36.8419H135.008C134.877 36.8434 134.748 36.8173 134.628 36.7654C134.508 36.7135 134.4 36.637 134.312 36.5408C134.223 36.4446 134.156 36.3309 134.115 36.207C134.073 36.0832 134.058 35.9519 134.071 35.8219C134.098 35.5449 134.226 35.2876 134.43 35.0985C134.635 34.9095 134.901 34.8018 135.18 34.796H144.698C144.829 34.7944 144.959 34.8207 145.079 34.8729C145.2 34.9251 145.308 35.0022 145.396 35.0991C145.485 35.1959 145.552 35.3104 145.593 35.435C145.634 35.5595 145.648 35.6914 145.635 35.8219C145.605 36.1029 145.473 36.3629 145.262 36.5514C145.052 36.7399 144.779 36.8435 144.496 36.8419Z" fill="#263238"/>
<path d="M126.16 69.0668H119.88C119.706 69.0693 119.533 69.035 119.373 68.9662C119.213 68.8973 119.07 68.7953 118.952 68.6671C118.835 68.5388 118.746 68.3871 118.691 68.2219C118.636 68.0568 118.617 67.8819 118.634 67.7087L119.162 61.4285C119.201 61.0613 119.372 60.7208 119.644 60.4708C119.916 60.2208 120.27 60.0785 120.639 60.0704H126.913C127.087 60.0679 127.26 60.1022 127.419 60.1711C127.579 60.2399 127.723 60.3419 127.84 60.4701C127.958 60.5984 128.047 60.7501 128.102 60.9153C128.157 61.0805 128.176 61.2553 128.158 61.4285L127.654 67.7087C127.618 68.08 127.444 68.4244 127.168 68.6752C126.892 68.9261 126.533 69.0656 126.16 69.0668Z" fill="#178CAF"/>
<path opacity="0.5" d="M152.982 73.9597H118.759C118.676 73.9601 118.594 73.9432 118.519 73.9101C118.443 73.877 118.375 73.8285 118.319 73.7676C118.263 73.7068 118.221 73.6349 118.194 73.5567C118.168 73.4785 118.158 73.3956 118.165 73.3133C118.184 73.1407 118.265 72.9807 118.392 72.8629C118.52 72.7451 118.686 72.6776 118.859 72.6729H153.089C153.171 72.6726 153.252 72.6893 153.328 72.7221C153.403 72.7548 153.471 72.8028 153.526 72.863C153.582 72.9232 153.625 72.9943 153.652 73.0718C153.678 73.1493 153.689 73.2316 153.682 73.3133C153.665 73.488 153.584 73.6503 153.455 73.7694C153.326 73.8885 153.158 73.9562 152.982 73.9597Z" fill="#178CAF"/>
<path opacity="0.2" d="M148.452 63.8966H132.706C132.575 63.8981 132.445 63.8719 132.325 63.8197C132.205 63.7674 132.097 63.6904 132.008 63.5935C131.92 63.4966 131.853 63.3822 131.812 63.2576C131.77 63.133 131.756 63.0012 131.77 62.8707C131.798 62.5947 131.927 62.3388 132.131 62.151C132.335 61.9632 132.601 61.8564 132.878 61.8506H148.624C148.754 61.8492 148.884 61.8753 149.003 61.9272C149.123 61.9791 149.231 62.0556 149.319 62.1518C149.408 62.248 149.475 62.3617 149.516 62.4856C149.558 62.6094 149.573 62.7406 149.561 62.8707C149.533 63.1477 149.405 63.405 149.201 63.594C148.996 63.7831 148.73 63.8907 148.452 63.8966Z" fill="#263238"/>
<path opacity="0.2" d="M141.94 67.2872H132.398C132.268 67.2887 132.138 67.2626 132.018 67.2107C131.898 67.1588 131.791 67.0823 131.702 66.9861C131.614 66.8899 131.547 66.7762 131.505 66.6523C131.464 66.5285 131.449 66.3973 131.461 66.2672C131.489 65.9902 131.617 65.7329 131.821 65.5438C132.025 65.3548 132.292 65.2472 132.57 65.2413H142.088C142.22 65.2398 142.35 65.266 142.47 65.3182C142.59 65.3704 142.698 65.4475 142.787 65.5444C142.875 65.6413 142.942 65.7557 142.983 65.8803C143.024 66.0049 143.039 66.1367 143.025 66.2672C142.997 66.5392 142.872 66.792 142.673 66.9793C142.473 67.1666 142.213 67.2759 141.94 67.2872Z" fill="#263238"/>
<path d="M139.473 76.924H151.861C152.055 76.9213 152.247 76.9597 152.425 77.0364C152.603 77.1132 152.762 77.2267 152.893 77.3694C153.024 77.5122 153.124 77.681 153.185 77.8649C153.246 78.0487 153.268 78.2434 153.249 78.4362L153.059 80.6482C153.02 81.0589 152.83 81.4408 152.527 81.7208C152.224 82.0009 151.829 82.1595 151.416 82.1664H139.034C138.839 82.1691 138.647 82.1306 138.468 82.0535C138.29 81.9764 138.13 81.8623 137.999 81.7189C137.868 81.5755 137.769 81.4059 137.708 81.2214C137.647 81.0368 137.626 80.8415 137.646 80.6482L137.83 78.4362C137.873 78.0275 138.064 77.6485 138.366 77.3702C138.668 77.0919 139.062 76.9332 139.473 76.924Z" fill="#178CAF"/>
<path d="M140.44 80.2345H139.717L139.586 80.5725H138.922L139.871 78.5146H140.571L141.164 80.5725H140.499L140.44 80.2345ZM140.345 79.7897L140.185 79.0484L139.894 79.7897H140.345Z" fill="white"/>
<path d="M142.776 79.7304L143.322 79.9024C143.277 80.0458 143.205 80.1789 143.108 80.2938C143.021 80.3958 142.911 80.4768 142.788 80.531C142.64 80.5873 142.483 80.6135 142.325 80.6081C142.141 80.6166 141.957 80.5842 141.786 80.5132C141.639 80.4384 141.52 80.3176 141.448 80.1693C141.353 79.9743 141.318 79.7556 141.347 79.5407C141.357 79.2448 141.478 78.9634 141.685 78.7519C141.905 78.5619 142.189 78.4642 142.48 78.4791C142.689 78.4674 142.896 78.5213 143.073 78.6333C143.224 78.7557 143.327 78.9281 143.363 79.1196L142.77 79.2441C142.762 79.1964 142.746 79.1504 142.723 79.1077C142.694 79.0602 142.653 79.0213 142.604 78.9951C142.552 78.9662 142.492 78.9519 142.432 78.9536C142.364 78.9526 142.296 78.9682 142.235 78.9992C142.174 79.0302 142.122 79.0756 142.082 79.1315C142.007 79.2528 141.966 79.3921 141.964 79.5347C141.931 79.6938 141.954 79.8591 142.029 80.0032C142.06 80.0475 142.102 80.0828 142.151 80.1057C142.2 80.1286 142.254 80.1383 142.308 80.1337C142.36 80.1372 142.412 80.1295 142.462 80.1111C142.511 80.0927 142.555 80.064 142.592 80.0269C142.682 79.9488 142.746 79.8455 142.776 79.7304Z" fill="white"/>
<path d="M145.018 79.7306L145.564 79.9026C145.517 80.0449 145.445 80.1775 145.35 80.2939C145.263 80.3959 145.153 80.477 145.03 80.5312C144.883 80.5874 144.725 80.6136 144.568 80.6083C144.383 80.6167 144.199 80.5843 144.028 80.5134C143.881 80.4385 143.762 80.3178 143.69 80.1694C143.595 79.9744 143.56 79.7557 143.589 79.5408C143.599 79.2449 143.72 78.9636 143.927 78.7521C144.146 78.561 144.432 78.4631 144.722 78.4793C144.931 78.4675 145.138 78.5214 145.315 78.6335C145.467 78.7558 145.57 78.9282 145.605 79.1197L145.012 79.2443C145.004 79.1966 144.988 79.1505 144.965 79.1079C144.934 79.0601 144.891 79.0213 144.84 78.9952C144.79 78.9663 144.733 78.9519 144.674 78.9537C144.606 78.9522 144.538 78.9676 144.477 78.9987C144.416 79.0297 144.364 79.0754 144.324 79.1316C144.247 79.2518 144.206 79.3918 144.206 79.5349C144.173 79.6933 144.194 79.8582 144.265 80.0034C144.298 80.0472 144.341 80.0822 144.391 80.105C144.441 80.1278 144.495 80.1377 144.55 80.1338C144.604 80.1404 144.659 80.1353 144.711 80.1189C144.763 80.1026 144.811 80.0753 144.852 80.0389C144.932 79.9512 144.989 79.8453 145.018 79.7306Z" fill="white"/>
<path d="M145.99 78.5146H147.698L147.657 78.9535H146.589L146.56 79.2797H147.556L147.515 79.7007H146.524L146.489 80.1099H147.592L147.55 80.5725H145.812L145.99 78.5146Z" fill="white"/>
<path d="M148.066 78.5146H149.127C149.218 78.5061 149.31 78.5165 149.397 78.5451C149.483 78.5736 149.563 78.6198 149.631 78.6806C149.687 78.7438 149.728 78.8188 149.75 78.8999C149.773 78.981 149.777 79.0663 149.762 79.1491C149.758 79.2415 149.735 79.3321 149.695 79.4156C149.655 79.4991 149.599 79.5739 149.53 79.6354C149.361 79.7652 149.15 79.8266 148.937 79.8074H148.588L148.522 80.5724H147.882L148.066 78.5146ZM148.659 79.3923H148.813C148.905 79.3996 148.996 79.3767 149.074 79.327C149.098 79.3084 149.118 79.2852 149.134 79.2587C149.149 79.2322 149.159 79.2029 149.163 79.1726C149.167 79.1423 149.164 79.1115 149.156 79.082C149.148 79.0525 149.134 79.0249 149.115 79.0009C149.083 78.9733 149.045 78.9527 149.004 78.9404C148.963 78.9282 148.92 78.9245 148.878 78.9297H148.694L148.659 79.3923Z" fill="white"/>
<path d="M150.005 78.5146H151.968L151.921 79.0247H151.274L151.138 80.5725H150.503L150.634 79.0247H149.987L150.005 78.5146Z" fill="white"/>
<path d="M123.604 99.514H117.324C117.15 99.5157 116.977 99.4807 116.817 99.4111C116.657 99.3416 116.514 99.2391 116.396 99.1104C116.279 98.9816 116.19 98.8296 116.135 98.6641C116.08 98.4986 116.061 98.3235 116.079 98.1501L116.606 91.8757C116.645 91.5085 116.817 91.168 117.088 90.9181C117.36 90.6681 117.714 90.5258 118.083 90.5177H124.357C124.531 90.5151 124.704 90.5494 124.864 90.6183C125.024 90.6872 125.167 90.7891 125.285 90.9174C125.402 91.0457 125.491 91.1974 125.546 91.3625C125.601 91.5277 125.62 91.7026 125.603 91.8757L125.075 98.1501C125.037 98.5174 124.868 98.8585 124.597 99.1095C124.326 99.3606 123.973 99.5044 123.604 99.514Z" fill="#178CAF"/>
<path opacity="0.25" d="M150.427 104.407H116.197C116.114 104.407 116.033 104.39 115.957 104.357C115.881 104.324 115.813 104.276 115.758 104.215C115.702 104.154 115.659 104.082 115.633 104.004C115.606 103.926 115.597 103.843 115.604 103.761C115.623 103.588 115.703 103.428 115.831 103.31C115.958 103.192 116.124 103.125 116.298 103.12H150.528C150.61 103.12 150.691 103.137 150.766 103.169C150.841 103.202 150.909 103.25 150.965 103.31C151.021 103.37 151.063 103.442 151.09 103.519C151.117 103.597 151.127 103.679 151.121 103.761C151.104 103.934 151.024 104.096 150.896 104.215C150.768 104.334 150.601 104.402 150.427 104.407Z" fill="#178CAF"/>
<path opacity="0.2" d="M145.896 94.3361H130.151C130.02 94.3384 129.89 94.313 129.77 94.2615C129.649 94.2099 129.541 94.1334 129.453 94.0369C129.364 93.9405 129.297 93.8264 129.256 93.7022C129.215 93.5779 129.2 93.4463 129.214 93.3161C129.241 93.0406 129.369 92.7848 129.572 92.5969C129.775 92.4089 130.04 92.3019 130.317 92.2961H146.068C146.199 92.2937 146.329 92.3191 146.449 92.3707C146.569 92.4222 146.677 92.4988 146.766 92.5952C146.855 92.6916 146.922 92.8057 146.963 92.93C147.004 93.0542 147.018 93.1858 147.005 93.3161C146.977 93.5925 146.849 93.8491 146.645 94.0372C146.44 94.2253 146.174 94.3316 145.896 94.3361Z" fill="#263238"/>
<path opacity="0.2" d="M139.384 97.7345H129.895C129.764 97.736 129.634 97.7098 129.513 97.6576C129.393 97.6053 129.285 97.5282 129.197 97.4314C129.108 97.3345 129.041 97.22 129 97.0955C128.959 96.9709 128.945 96.839 128.958 96.7085C128.987 96.4336 129.114 96.1785 129.317 95.9908C129.52 95.8031 129.785 95.6957 130.061 95.6885H139.585C139.716 95.6871 139.845 95.7132 139.965 95.7651C140.085 95.8169 140.193 95.8935 140.281 95.9897C140.369 96.0859 140.437 96.1996 140.478 96.3234C140.52 96.4473 140.535 96.5785 140.522 96.7085C140.494 96.9906 140.362 97.252 140.151 97.4418C139.941 97.6315 139.667 97.7359 139.384 97.7345Z" fill="#263238"/>
</svg>
