<svg width="132" height="125" viewBox="0 0 132 125" fill="none" xmlns="http://www.w3.org/2000/svg">
<path opacity="0.2" d="M57.7653 21.9229H5.37736C3.4943 21.9229 1.96777 23.4494 1.96777 25.3324V63.1369C1.96777 65.02 3.4943 66.5465 5.37736 66.5465H57.7653C59.6483 66.5465 61.1749 65.02 61.1749 63.1369V25.3324C61.1749 23.4494 59.6483 21.9229 57.7653 21.9229Z" fill="black"/>
<path d="M56.2975 19.5723H3.90958C2.02652 19.5723 0.5 21.0988 0.5 22.9818V60.7863C0.5 62.6694 2.02652 64.1959 3.90958 64.1959H56.2975C58.1806 64.1959 59.7071 62.6694 59.7071 60.7863V22.9818C59.7071 21.0988 58.1806 19.5723 56.2975 19.5723Z" fill="white" stroke="#263238" stroke-linecap="round" stroke-linejoin="round"/>
<path d="M19.6407 39.9819L6.98334 44.0894C5.89246 40.7303 6.18033 37.0755 7.78367 33.9287C9.387 30.7818 12.1745 28.4006 15.5332 27.3086C16.8569 26.8654 18.2448 26.6444 19.6407 26.6546V39.9819Z" fill="#178CAF" stroke="#263238" stroke-linecap="round" stroke-linejoin="round"/>
<path d="M19.6417 39.9814L27.4698 50.7485C24.6129 52.823 21.0491 53.6779 17.562 53.1252C14.0749 52.5726 10.9501 50.6577 8.8746 47.8015C8.04384 46.6769 7.40513 45.4223 6.98438 44.0889L19.6417 39.9814Z" fill="white" stroke="#263238" stroke-linecap="round" stroke-linejoin="round"/>
<path d="M19.6416 39.9826L32.3069 35.8672C33.2089 38.5374 33.2263 41.4272 32.3564 44.108C31.4865 46.7888 29.7756 49.1179 27.4777 50.7497L19.6416 39.9826Z" fill="#263238" stroke="#263238" stroke-linecap="round" stroke-linejoin="round"/>
<path d="M19.6416 39.9813V26.662C22.4618 26.6299 25.2172 27.5081 27.4987 29.1661C29.7803 30.8241 31.4665 33.1736 32.3069 35.8658L19.6416 39.9813Z" fill="white" stroke="#263238" stroke-linecap="round" stroke-linejoin="round"/>
<path d="M19.662 48.2781C24.2474 48.2781 27.9646 44.5609 27.9646 39.9755C27.9646 35.3901 24.2474 31.6729 19.662 31.6729C15.0766 31.6729 11.3594 35.3901 11.3594 39.9755C11.3594 44.5609 15.0766 48.2781 19.662 48.2781Z" fill="white" stroke="#263238" stroke-linecap="round" stroke-linejoin="round"/>
<path d="M54.9532 25.8496H36.709V27.361H54.9532V25.8496Z" fill="#178CAF" stroke="#263238" stroke-linecap="round" stroke-linejoin="round"/>
<path d="M51.0292 29.082H36.709V30.5934H51.0292V29.082Z" fill="#263238" stroke="#263238" stroke-linecap="round" stroke-linejoin="round"/>
<path d="M47.2328 32.3174H36.709V33.8288H47.2328V32.3174Z" fill="white" stroke="#263238" stroke-linecap="round" stroke-linejoin="round"/>
<path d="M51.6633 35.5518H36.709V37.0631H51.6633V35.5518Z" fill="#178CAF" stroke="#263238" stroke-linecap="round" stroke-linejoin="round"/>
<path d="M43.8153 38.7842H36.709V40.2956H43.8153V38.7842Z" fill="#263238" stroke="#263238" stroke-linecap="round" stroke-linejoin="round"/>
<path d="M54.9532 42.0234H36.709V43.5348H54.9532V42.0234Z" fill="white" stroke="#263238" stroke-linecap="round" stroke-linejoin="round"/>
<path d="M50.1439 45.2588H36.709V46.7702H50.1439V45.2588Z" fill="#178CAF" stroke="#263238" stroke-linecap="round" stroke-linejoin="round"/>
<path d="M48.4491 48.4912H36.709V50.0026H48.4491V48.4912Z" fill="#263238" stroke="#263238" stroke-linecap="round" stroke-linejoin="round"/>
<path d="M54.9532 51.7285H36.709V53.2399H54.9532V51.7285Z" fill="white" stroke="#263238" stroke-linecap="round" stroke-linejoin="round"/>
<path d="M12.8701 56.1328H27.0109" stroke="#263238" stroke-linecap="round" stroke-linejoin="round"/>
<path d="M10.8682 58.127H29.0127" stroke="#263238" stroke-linecap="round" stroke-linejoin="round"/>
<path d="M37.1953 56.1328H51.3361" stroke="#263238" stroke-linecap="round" stroke-linejoin="round"/>
<path d="M35.1943 58.127H53.3389" stroke="#263238" stroke-linecap="round" stroke-linejoin="round"/>
<path opacity="0.2" d="M58.0563 85.1562H13.0658C11.1828 85.1562 9.65625 86.6828 9.65625 88.5658V120.795C9.65625 122.678 11.1828 124.205 13.0658 124.205H58.0563C59.9394 124.205 61.4659 122.678 61.4659 120.795V88.5658C61.4659 86.6828 59.9394 85.1562 58.0563 85.1562Z" fill="black"/>
<path d="M56.2937 83.1074H11.3031C9.42007 83.1074 7.89355 84.6339 7.89355 86.517V118.747C7.89355 120.63 9.42007 122.156 11.3031 122.156H56.2937C58.1767 122.156 59.7032 120.63 59.7032 118.747V86.517C59.7032 84.6339 58.1767 83.1074 56.2937 83.1074Z" fill="white" stroke="#263238" stroke-linecap="round" stroke-linejoin="round"/>
<path d="M11.4424 101.671H18.3533" stroke="#263238" stroke-linecap="round" stroke-linejoin="round"/>
<path d="M11.4424 103.233H22.373" stroke="#263238" stroke-linecap="round" stroke-linejoin="round"/>
<path d="M11.4424 104.792H18.3533" stroke="#263238" stroke-linecap="round" stroke-linejoin="round"/>
<path d="M11.4424 106.352H21.4119" stroke="#263238" stroke-linecap="round" stroke-linejoin="round"/>
<path d="M11.4424 107.914H18.3533" stroke="#263238" stroke-linecap="round" stroke-linejoin="round"/>
<path d="M11.4424 109.473H23.6531" stroke="#263238" stroke-linecap="round" stroke-linejoin="round"/>
<path d="M28.75 101.671H35.6609" stroke="#263238" stroke-linecap="round" stroke-linejoin="round"/>
<path d="M28.75 103.233H39.6806" stroke="#263238" stroke-linecap="round" stroke-linejoin="round"/>
<path d="M28.75 104.792H35.6609" stroke="#263238" stroke-linecap="round" stroke-linejoin="round"/>
<path d="M28.75 106.352H38.7195" stroke="#263238" stroke-linecap="round" stroke-linejoin="round"/>
<path d="M28.75 107.914H35.6609" stroke="#263238" stroke-linecap="round" stroke-linejoin="round"/>
<path d="M28.75 109.473H40.9607" stroke="#263238" stroke-linecap="round" stroke-linejoin="round"/>
<path d="M46.0566 101.671H52.9675" stroke="#263238" stroke-linecap="round" stroke-linejoin="round"/>
<path d="M46.0566 103.233H56.9832" stroke="#263238" stroke-linecap="round" stroke-linejoin="round"/>
<path d="M46.0566 104.792H52.9675" stroke="#263238" stroke-linecap="round" stroke-linejoin="round"/>
<path d="M46.0566 106.352H56.0222" stroke="#263238" stroke-linecap="round" stroke-linejoin="round"/>
<path d="M46.0566 107.914H52.9675" stroke="#263238" stroke-linecap="round" stroke-linejoin="round"/>
<path d="M46.0566 109.473H58.2673" stroke="#263238" stroke-linecap="round" stroke-linejoin="round"/>
<path d="M24.3742 96.542H10.999V99.2178H24.3742V96.542Z" fill="#263238"/>
<path d="M41.9855 96.542H28.6104V99.2178H41.9855V96.542Z" fill="#263238"/>
<path d="M59.5958 96.542H46.2207V99.2178H59.5958V96.542Z" fill="#263238"/>
<path d="M26.4609 96.3867V109.925" stroke="#263238" stroke-linecap="round" stroke-linejoin="round"/>
<path d="M43.9277 96.3867V109.925" stroke="#263238" stroke-linecap="round" stroke-linejoin="round"/>
<path d="M16.4509 90.201L19.346 89.2599C19.5317 89.8322 19.5436 90.4467 19.3801 91.0257C19.2167 91.6047 18.8852 92.1223 18.4277 92.513C17.9701 92.9037 17.407 93.1499 16.8095 93.2207C16.212 93.2914 15.607 93.1834 15.0709 92.9103C14.5348 92.6372 14.0917 92.2113 13.7975 91.6865C13.5034 91.1616 13.3715 90.5613 13.4185 89.9615C13.4654 89.3617 13.6892 88.7893 14.0614 88.3166C14.4336 87.8439 14.9377 87.4922 15.5097 87.3059C15.8132 87.2052 16.1312 87.1554 16.4509 87.1583V90.201Z" fill="#178CAF" stroke="#263238" stroke-width="0.5" stroke-miterlimit="10"/>
<path d="M16.4512 90.2011V87.1584C17.0956 87.1506 17.7254 87.3508 18.247 87.7294C18.7686 88.108 19.1541 88.6448 19.3463 89.26L16.4512 90.2011Z" fill="#263238" stroke="#263238" stroke-width="0.5" stroke-miterlimit="10"/>
<path d="M45.762 90.201L48.6572 89.2599C48.8432 89.8323 48.8552 90.447 48.6918 91.0263C48.5284 91.6056 48.1969 92.1233 47.7392 92.5142C47.2815 92.905 46.7181 93.1513 46.1204 93.2219C45.5227 93.2925 44.9175 93.1843 44.3813 92.9109C43.8451 92.6375 43.402 92.2112 43.1081 91.686C42.8142 91.1607 42.6827 90.5601 42.7302 89.9602C42.7777 89.3602 43.002 88.7877 43.3749 88.3153C43.7478 87.8428 44.2524 87.4915 44.8249 87.3059C45.1269 87.2052 45.4436 87.1554 45.762 87.1583V90.201Z" fill="#178CAF" stroke="#263238" stroke-width="0.5" stroke-miterlimit="10"/>
<path d="M45.7617 90.2012V87.1585C46.4063 87.15 47.0364 87.35 47.5582 87.7287C48.0799 88.1074 48.4652 88.6445 48.6569 89.26L45.7617 90.2012Z" fill="#263238" stroke="#263238" stroke-width="0.5" stroke-miterlimit="10"/>
<path d="M26.2292 90.2009V93.2436C25.4223 93.2436 24.6483 92.923 24.0777 92.3524C23.5071 91.7818 23.1865 91.0079 23.1865 90.2009C23.1865 89.3939 23.5071 88.62 24.0777 88.0494C24.6483 87.4788 25.4223 87.1582 26.2292 87.1582V90.2009Z" fill="#178CAF" stroke="#263238" stroke-width="0.5" stroke-miterlimit="10"/>
<path d="M26.2285 90.2009V87.1582C27.0355 87.1582 27.8094 87.4788 28.38 88.0494C28.9506 88.62 29.2712 89.3939 29.2712 90.2009C29.2712 91.0079 28.9506 91.7818 28.38 92.3524C27.8094 92.923 27.0355 93.2436 26.2285 93.2436V90.2009Z" fill="#263238" stroke="#263238" stroke-width="0.5" stroke-miterlimit="10"/>
<path d="M35.9915 90.2011L38.8867 91.1423C38.7631 91.5225 38.5658 91.8746 38.3062 92.1785C38.0465 92.4825 37.7295 92.7323 37.3733 92.9138C37.017 93.0952 36.6285 93.2047 36.23 93.2361C35.8314 93.2674 35.4306 93.2199 35.0504 93.0963C34.6702 92.9727 34.3181 92.7754 34.0141 92.5157C33.7102 92.2561 33.4603 91.9391 33.2789 91.5828C33.0974 91.2266 32.9879 90.8381 32.9566 90.4396C32.9253 90.041 32.9728 89.6402 33.0964 89.26C33.2886 88.6448 33.6741 88.108 34.1957 87.7294C34.7173 87.3508 35.3471 87.1506 35.9915 87.1584V90.2011Z" fill="#178CAF" stroke="#263238" stroke-width="0.5" stroke-miterlimit="10"/>
<path d="M35.9912 90.2009V87.1582C36.3911 87.1577 36.7872 87.236 37.1568 87.3887C37.5264 87.5414 37.8623 87.7654 38.1453 88.048C38.4283 88.3306 38.6527 88.6662 38.8059 89.0356C38.9591 89.405 39.0379 89.801 39.0379 90.2009C39.0395 90.5208 38.9883 90.8388 38.8864 91.142L35.9912 90.2009Z" fill="#263238" stroke="#263238" stroke-width="0.5" stroke-miterlimit="10"/>
<path d="M55.5316 90.2011L58.4267 91.1423C58.3031 91.5225 58.1059 91.8746 57.8462 92.1785C57.5865 92.4825 57.2695 92.7323 56.9133 92.9138C56.5571 93.0952 56.1686 93.2047 55.77 93.2361C55.3715 93.2674 54.9707 93.2199 54.5905 93.0963C54.2103 92.9727 53.8581 92.7754 53.5542 92.5157C53.2502 92.2561 53.0004 91.9391 52.8189 91.5828C52.6375 91.2266 52.528 90.8381 52.4967 90.4396C52.4653 90.041 52.5128 89.6402 52.6364 89.26C52.8286 88.6448 53.2141 88.108 53.7357 87.7294C54.2573 87.3508 54.8871 87.1506 55.5316 87.1584V90.2011Z" fill="#178CAF" stroke="#263238" stroke-width="0.5" stroke-miterlimit="10"/>
<path d="M55.5322 90.2009V87.1582C55.9319 87.1577 56.3278 87.236 56.6972 87.3888C57.0666 87.5415 57.4023 87.7656 57.6849 88.0482C57.9676 88.3309 58.1917 88.6665 58.3444 89.0359C58.4971 89.4053 58.5755 89.8012 58.5749 90.2009C58.5779 90.5206 58.528 90.8386 58.4274 91.142L55.5322 90.2009Z" fill="#263238" stroke="#263238" stroke-width="0.5" stroke-miterlimit="10"/>
<path d="M56.1307 117.824H53.4668V118.725H56.1307V117.824Z" fill="#178CAF" stroke="#263238" stroke-width="0.75" stroke-linecap="round" stroke-linejoin="round"/>
<path d="M53.1717 113.322H50.5078V118.726H53.1717V113.322Z" fill="#263238" stroke="#263238" stroke-width="0.75" stroke-linecap="round" stroke-linejoin="round"/>
<path d="M50.2156 115.264H47.5518V118.729H50.2156V115.264Z" fill="white" stroke="#263238" stroke-width="0.75" stroke-linecap="round" stroke-linejoin="round"/>
<path d="M47.2576 112.562H44.5938V118.727H47.2576V112.562Z" fill="#178CAF" stroke="#263238" stroke-width="0.75" stroke-linecap="round" stroke-linejoin="round"/>
<path d="M44.2986 117.135H41.6348V118.73H44.2986V117.135Z" fill="#263238" stroke="#263238" stroke-width="0.75" stroke-linecap="round" stroke-linejoin="round"/>
<path d="M41.3396 116.648H38.6758V118.726H41.3396V116.648Z" fill="white" stroke="#263238" stroke-width="0.75" stroke-linecap="round" stroke-linejoin="round"/>
<path d="M38.3797 114.569H35.7158V118.729H38.3797V114.569Z" fill="#178CAF" stroke="#263238" stroke-width="0.75" stroke-linecap="round" stroke-linejoin="round"/>
<path d="M35.4207 118.034H32.7568V118.728H35.4207V118.034Z" fill="#263238" stroke="#263238" stroke-width="0.75" stroke-linecap="round" stroke-linejoin="round"/>
<path d="M32.4617 113.322H29.7979V118.726H32.4617V113.322Z" fill="white" stroke="#263238" stroke-width="0.75" stroke-linecap="round" stroke-linejoin="round"/>
<path d="M29.5037 114.361H26.8398V118.728H29.5037V114.361Z" fill="#178CAF" stroke="#263238" stroke-width="0.75" stroke-linecap="round" stroke-linejoin="round"/>
<path d="M26.5486 118.519H23.8848V118.726H26.5486V118.519Z" fill="#263238" stroke="#263238" stroke-width="0.75" stroke-linecap="round" stroke-linejoin="round"/>
<path d="M23.5896 118.45H20.9258V118.725H23.5896V118.45Z" fill="white" stroke="#263238" stroke-width="0.75" stroke-linecap="round" stroke-linejoin="round"/>
<path d="M20.6297 115.264H17.9658V118.729H20.6297V115.264Z" fill="#178CAF" stroke="#263238" stroke-width="0.75" stroke-linecap="round" stroke-linejoin="round"/>
<path d="M17.6717 118.034H15.0078V118.728H17.6717V118.034Z" fill="#263238" stroke="#263238" stroke-width="0.75" stroke-linecap="round" stroke-linejoin="round"/>
<path d="M14.7117 117.34H12.0479V118.728H14.7117V117.34Z" fill="white" stroke="#263238" stroke-width="0.75" stroke-linecap="round" stroke-linejoin="round"/>
<path opacity="0.2" d="M128.09 51.3467H75.7025C73.8195 51.3467 72.293 52.8732 72.293 54.7563V92.5607C72.293 94.4438 73.8195 95.9703 75.7025 95.9703H128.09C129.974 95.9703 131.5 94.4438 131.5 92.5607V54.7563C131.5 52.8732 129.974 51.3467 128.09 51.3467Z" fill="black"/>
<path d="M126.037 49.0029H73.6488C71.7658 49.0029 70.2393 50.5295 70.2393 52.4125V90.217C70.2393 92.1001 71.7658 93.6266 73.6488 93.6266H126.037C127.92 93.6266 129.446 92.1001 129.446 90.217V52.4125C129.446 50.5295 127.92 49.0029 126.037 49.0029Z" fill="white" stroke="#263238" stroke-linecap="round" stroke-linejoin="round"/>
<path d="M125.717 83.916H122.646V87.3216H125.717V83.916Z" fill="#178CAF" stroke="#263238" stroke-width="0.75" stroke-linecap="round" stroke-linejoin="round"/>
<path d="M122.303 66.8877H119.232V87.3173H122.303V66.8877Z" fill="#263238" stroke="#263238" stroke-width="0.75" stroke-linecap="round" stroke-linejoin="round"/>
<path d="M118.89 74.2256H115.819V87.3216H118.89V74.2256Z" fill="white" stroke="#263238" stroke-width="0.75" stroke-linecap="round" stroke-linejoin="round"/>
<path d="M115.481 64.0098H112.41V87.3225H115.481V64.0098Z" fill="#178CAF" stroke="#263238" stroke-width="0.75" stroke-linecap="round" stroke-linejoin="round"/>
<path d="M112.068 81.2959H108.997V87.3215H112.068V81.2959Z" fill="#263238" stroke="#263238" stroke-width="0.75" stroke-linecap="round" stroke-linejoin="round"/>
<path d="M108.654 79.4619H105.583V87.3179H108.654V79.4619Z" fill="white" stroke="#263238" stroke-width="0.75" stroke-linecap="round" stroke-linejoin="round"/>
<path d="M105.243 71.6055H102.173V87.3214H105.243V71.6055Z" fill="#178CAF" stroke="#263238" stroke-width="0.75" stroke-linecap="round" stroke-linejoin="round"/>
<path d="M101.831 84.7021H98.7607V87.3221H101.831V84.7021Z" fill="#263238" stroke="#263238" stroke-width="0.75" stroke-linecap="round" stroke-linejoin="round"/>
<path d="M98.4163 66.8877H95.3457V87.3173H98.4163V66.8877Z" fill="white" stroke="#263238" stroke-width="0.75" stroke-linecap="round" stroke-linejoin="round"/>
<path d="M95.0071 70.8193H91.9365V87.3209H95.0071V70.8193Z" fill="#178CAF" stroke="#263238" stroke-width="0.75" stroke-linecap="round" stroke-linejoin="round"/>
<path d="M91.594 86.5322H88.5234V87.3178H91.594V86.5322Z" fill="#263238" stroke="#263238" stroke-width="0.75" stroke-linecap="round" stroke-linejoin="round"/>
<path d="M88.18 86.2715H85.1094V87.3203H88.18V86.2715Z" fill="white" stroke="#263238" stroke-width="0.75" stroke-linecap="round" stroke-linejoin="round"/>
<path d="M84.7669 74.2256H81.6963V87.3216H84.7669V74.2256Z" fill="#178CAF" stroke="#263238" stroke-width="0.75" stroke-linecap="round" stroke-linejoin="round"/>
<path d="M81.3568 84.7021H78.2861V87.3221H81.3568V84.7021Z" fill="#263238" stroke="#263238" stroke-width="0.75" stroke-linecap="round" stroke-linejoin="round"/>
<path d="M77.9437 82.082H74.873V87.322H77.9437V82.082Z" fill="white" stroke="#263238" stroke-width="0.75" stroke-linecap="round" stroke-linejoin="round"/>
<path d="M125.917 58.3262H75.2715V60.9183H125.917V58.3262Z" fill="#178CAF" stroke="#263238" stroke-miterlimit="10"/>
<path d="M96.8301 58.5127H88.6152V60.7259H96.8301V58.5127Z" fill="#263238" stroke="#263238" stroke-miterlimit="10"/>
<path d="M112.589 58.5127H97.1602V60.7259H112.589V58.5127Z" fill="white" stroke="#263238" stroke-miterlimit="10"/>
<path opacity="0.2" d="M121.63 3.1377H80.5395C78.6564 3.1377 77.1299 4.66422 77.1299 6.54728V35.8378C77.1299 37.7208 78.6564 39.2474 80.5395 39.2474H121.63C123.513 39.2474 125.039 37.7208 125.039 35.8378V6.54728C125.039 4.66422 123.513 3.1377 121.63 3.1377Z" fill="black"/>
<path d="M119.867 0.793945H78.7768C76.8937 0.793945 75.3672 2.32047 75.3672 4.20353V33.494C75.3672 35.3771 76.8937 36.9036 78.7768 36.9036H119.867C121.75 36.9036 123.277 35.3771 123.277 33.494V4.20353C123.277 2.32047 121.75 0.793945 119.867 0.793945Z" fill="white" stroke="#263238" stroke-linecap="round" stroke-linejoin="round"/>
<path d="M77.5928 33.5215H122.575" stroke="#263238" stroke-width="0.5" stroke-miterlimit="10"/>
<path d="M77.5928 33.5215V34.1874" stroke="#263238" stroke-width="0.5" stroke-miterlimit="10"/>
<path d="M80.5908 33.5215V34.1874" stroke="#263238" stroke-width="0.5" stroke-miterlimit="10"/>
<path d="M83.5898 33.5215V34.1874" stroke="#263238" stroke-width="0.5" stroke-miterlimit="10"/>
<path d="M86.5889 33.5215V34.1874" stroke="#263238" stroke-width="0.5" stroke-miterlimit="10"/>
<path d="M89.5879 33.5215V34.1874" stroke="#263238" stroke-width="0.5" stroke-miterlimit="10"/>
<path d="M92.5869 33.5215V34.1874" stroke="#263238" stroke-width="0.5" stroke-miterlimit="10"/>
<path d="M95.5859 33.5215V34.1874" stroke="#263238" stroke-width="0.5" stroke-miterlimit="10"/>
<path d="M98.584 33.5215V34.1874" stroke="#263238" stroke-width="0.5" stroke-miterlimit="10"/>
<path d="M101.583 33.5215V34.1874" stroke="#263238" stroke-width="0.5" stroke-miterlimit="10"/>
<path d="M104.582 33.5215V34.1874" stroke="#263238" stroke-width="0.5" stroke-miterlimit="10"/>
<path d="M107.58 33.5215V34.1874" stroke="#263238" stroke-width="0.5" stroke-miterlimit="10"/>
<path d="M110.58 33.5215V34.1874" stroke="#263238" stroke-width="0.5" stroke-miterlimit="10"/>
<path d="M113.578 33.5215V34.1874" stroke="#263238" stroke-width="0.5" stroke-miterlimit="10"/>
<path d="M116.578 33.5215V34.1874" stroke="#263238" stroke-width="0.5" stroke-miterlimit="10"/>
<path d="M119.576 33.5215V34.1874" stroke="#263238" stroke-width="0.5" stroke-miterlimit="10"/>
<path d="M122.574 33.5215V34.1874" stroke="#263238" stroke-width="0.5" stroke-miterlimit="10"/>
<path d="M79.0918 32.9794H121.076V27.1771L118.105 21.4346C118.085 21.3942 118.072 21.3512 118.065 21.307L115.425 4.27508C115.425 4.19047 115.391 4.10932 115.331 4.04949C115.272 3.98967 115.19 3.95605 115.106 3.95605C115.021 3.95605 114.94 3.98967 114.88 4.04949C114.82 4.10932 114.787 4.19047 114.787 4.27508L112.099 25.0675C112.086 25.1672 112.036 25.2583 111.959 25.3228L109.371 27.3167C109.334 27.3444 109.291 27.3632 109.245 27.3716C109.199 27.3799 109.152 27.3777 109.108 27.3649C109.063 27.3522 109.022 27.3294 108.987 27.2982C108.953 27.267 108.926 27.2283 108.909 27.1851L106.301 21.8055C106.281 21.755 106.249 21.7107 106.206 21.6773C106.164 21.6438 106.113 21.6225 106.06 21.6155C106.006 21.6086 105.952 21.6163 105.902 21.6378C105.853 21.6593 105.81 21.6938 105.778 21.7377L103.082 25.2271L100.084 29.0952L97.0848 25.2271L94.4409 21.8175C94.4062 21.7698 94.3584 21.7333 94.3033 21.7124C94.2482 21.6916 94.1881 21.6872 94.1306 21.6999C94.073 21.7126 94.0204 21.7418 93.9792 21.7839C93.938 21.8261 93.91 21.8793 93.8986 21.9371L91.1071 30.6425L88.1083 15.1259L85.1094 32.1898L82.1106 29.8689L79.7179 23.1295C79.5823 22.7307 79.0958 22.8583 79.0958 23.273L79.0918 32.9794Z" fill="#178CAF"/>
<path d="M121.076 32.992H79.0918V28.0192L82.0587 23.0822C82.0795 23.0481 82.0931 23.0101 82.0986 22.9706L84.7385 8.32334C84.753 8.2488 84.7929 8.18162 84.8515 8.13332C84.9101 8.08501 84.9837 8.05859 85.0596 8.05859C85.1355 8.05859 85.209 8.08501 85.2676 8.13332C85.3262 8.18162 85.3661 8.2488 85.3806 8.32334L88.0644 26.2047C88.0813 26.2939 88.1329 26.3728 88.2079 26.424L90.796 28.1468C90.8332 28.1717 90.8751 28.1886 90.9191 28.1965C90.9632 28.2044 91.0084 28.2031 91.0519 28.1926C91.0954 28.1821 91.1362 28.1627 91.1718 28.1356C91.2074 28.1084 91.2369 28.0742 91.2586 28.0351L93.8627 23.4092C93.8879 23.3645 93.9235 23.3265 93.9665 23.2983C94.0094 23.2701 94.0584 23.2525 94.1095 23.247C94.1606 23.2416 94.2122 23.2484 94.2602 23.2669C94.3081 23.2854 94.3509 23.315 94.3851 23.3534L97.0848 26.3443L100.084 29.6701L103.082 26.3443L105.722 23.4132C105.76 23.3722 105.808 23.3414 105.86 23.3238C105.913 23.3063 105.97 23.3025 106.024 23.3129C106.079 23.3233 106.13 23.3475 106.173 23.3832C106.216 23.4189 106.249 23.4649 106.269 23.5169L109.06 31.002H112.059L115.058 32.334L118.057 30.3401L120.449 24.5458C120.476 24.4735 120.527 24.413 120.594 24.3753C120.661 24.3376 120.74 24.325 120.815 24.3399C120.891 24.3548 120.959 24.3962 121.006 24.4566C121.054 24.517 121.078 24.5925 121.076 24.6694V32.992Z" fill="#263238"/>
<path d="M101.827 5.60742H111.119" stroke="#263238" stroke-linecap="round" stroke-linejoin="round"/>
<path d="M101.827 7.78418H111.119" stroke="#263238" stroke-linecap="round" stroke-linejoin="round"/>
<path d="M101.827 9.95898H111.119" stroke="#263238" stroke-linecap="round" stroke-linejoin="round"/>
<path d="M101.827 12.1367H111.119" stroke="#263238" stroke-linecap="round" stroke-linejoin="round"/>
<path d="M101.827 14.3086H111.119" stroke="#263238" stroke-linecap="round" stroke-linejoin="round"/>
<path d="M101.827 16.4863H111.119" stroke="#263238" stroke-linecap="round" stroke-linejoin="round"/>
<path d="M99.7129 5.60742H100.877" stroke="#263238" stroke-linecap="round" stroke-linejoin="round"/>
<path d="M99.7129 7.78418H100.877" stroke="#263238" stroke-linecap="round" stroke-linejoin="round"/>
<path d="M99.7129 9.95898H100.877" stroke="#263238" stroke-linecap="round" stroke-linejoin="round"/>
<path d="M99.7129 12.1367H100.877" stroke="#263238" stroke-linecap="round" stroke-linejoin="round"/>
<path d="M99.7129 14.3086H100.877" stroke="#263238" stroke-linecap="round" stroke-linejoin="round"/>
<path d="M99.7129 16.4863H100.877" stroke="#263238" stroke-linecap="round" stroke-linejoin="round"/>
</svg>
