<svg width="172" height="123" viewBox="0 0 172 123" fill="none" xmlns="http://www.w3.org/2000/svg">
<path d="M77.8596 16.0761L80.4809 11.8748L79.1922 11.0769C79.0087 10.9593 78.8609 10.7938 78.7645 10.5983C78.6682 10.4029 78.6271 10.1848 78.6455 9.96772C78.6695 9.72246 78.6775 9.4759 78.6695 9.2296C78.6667 9.01374 78.7223 8.80113 78.8305 8.6143C78.9386 8.42747 79.0953 8.27337 79.2839 8.16832L80.6165 7.45016L78.2665 3.09331L76.9339 3.80748C76.742 3.90984 76.5252 3.95661 76.3081 3.94251C76.091 3.92841 75.8822 3.85402 75.7051 3.72769C75.5037 3.58335 75.2946 3.45016 75.0787 3.32871C74.888 3.22439 74.7293 3.07012 74.6196 2.88244C74.51 2.69477 74.4535 2.48078 74.4563 2.26343L74.5041 0.747316L69.5648 0.595703L69.5169 2.11182C69.5091 2.32961 69.4407 2.54091 69.3195 2.72203C69.1983 2.90314 69.029 3.0469 68.8307 3.1372C68.719 3.18906 68.6112 3.24093 68.5035 3.30078C68.3958 3.36063 68.292 3.41648 68.1883 3.48032C68.0035 3.59396 67.7908 3.65412 67.5739 3.65412C67.3569 3.65412 67.1443 3.59396 66.9595 3.48032L65.6628 2.68236L63.0574 6.88361L64.3461 7.68157C64.529 7.79885 64.6764 7.96367 64.7727 8.15836C64.869 8.35305 64.9105 8.57027 64.8927 8.78674C64.8688 9.032 64.8608 9.27855 64.8688 9.52485C64.8723 9.74139 64.8171 9.95483 64.7089 10.1424C64.6007 10.33 64.4436 10.4848 64.2544 10.5901L62.9258 11.3242L65.2598 15.6811L66.5964 14.9669C66.7879 14.8654 67.0038 14.819 67.2201 14.8331C67.4364 14.8472 67.6446 14.9212 67.8213 15.0467C68.0247 15.1864 68.2202 15.314 68.4476 15.4457C68.6401 15.5479 68.8003 15.7017 68.9102 15.8899C69.0202 16.0781 69.0755 16.2931 69.0701 16.511L69.0222 18.0271L73.9655 18.1827L74.0134 16.6626C74.0213 16.4458 74.0898 16.2356 74.2111 16.0558C74.3324 15.876 74.5016 15.7337 74.6996 15.6452C74.8074 15.5933 74.9191 15.5375 75.0268 15.4776C75.1345 15.4178 75.2383 15.3619 75.342 15.2981C75.5286 15.1855 75.7425 15.1259 75.9604 15.1259C76.1784 15.1259 76.3922 15.1855 76.5788 15.2981L77.8596 16.0761ZM73.6982 12.9561C72.9923 13.3345 72.19 13.4952 71.3928 13.4177C70.5956 13.3402 69.8393 13.028 69.2195 12.5207C68.5997 12.0133 68.1443 11.3335 67.9108 10.5673C67.6774 9.80114 67.6764 8.98292 67.908 8.21616C68.1396 7.4494 68.5933 6.76854 69.2119 6.25968C69.8305 5.75082 70.586 5.43682 71.383 5.35739C72.1801 5.27796 72.9827 5.43666 73.6896 5.81344C74.3964 6.19021 74.9756 6.76813 75.354 7.4741C75.6057 7.94266 75.7625 8.45626 75.8156 8.98551C75.8686 9.51476 75.8167 10.0493 75.6629 10.5584C75.5091 11.0676 75.2564 11.5415 74.9193 11.9529C74.5822 12.3643 74.1672 12.7052 73.6982 12.9561Z" fill="#EBEBEB"/>
<path d="M8.38182 70.2293L11.3821 68.4858L10.8515 67.5681C10.7761 67.435 10.7392 67.2836 10.7448 67.1307C10.7505 66.9778 10.7984 66.8295 10.8834 66.7023C10.9752 66.5587 11.063 66.4111 11.1428 66.2555C11.2088 66.1225 11.3107 66.0107 11.4368 65.9324C11.563 65.8542 11.7085 65.8127 11.8569 65.8126H12.9342V62.3455H11.8569C11.7045 62.3473 11.5547 62.3055 11.4253 62.2249C11.2959 62.1443 11.1923 62.0283 11.1268 61.8907C11.047 61.7351 10.9592 61.5874 10.8675 61.4438C10.7825 61.3166 10.7345 61.1683 10.7289 61.0154C10.7232 60.8626 10.7602 60.7111 10.8355 60.578L11.3662 59.6604L8.36586 57.9288L7.86714 58.8504C7.78937 58.9808 7.67699 59.0871 7.54248 59.1576C7.40796 59.228 7.25657 59.2598 7.10509 59.2494C7.0213 59.2494 6.93353 59.2494 6.84974 59.2494C6.76596 59.2494 6.67818 59.2494 6.5944 59.2494C6.44298 59.2593 6.29176 59.2273 6.15733 59.157C6.0229 59.0866 5.91046 58.9805 5.83235 58.8504L5.29772 57.9248L2.28144 59.6604L2.81607 60.582C2.89155 60.7144 2.92856 60.8652 2.92292 61.0175C2.91728 61.1697 2.86922 61.3174 2.78415 61.4438C2.69006 61.5882 2.6035 61.7373 2.52481 61.8907C2.45927 62.0283 2.35568 62.1443 2.22628 62.2249C2.09689 62.3055 1.94712 62.3473 1.79468 62.3455H0.733398V65.8126H1.79468C1.94712 65.8108 2.09689 65.8526 2.22628 65.9332C2.35568 66.0138 2.45927 66.1298 2.52481 66.2675C2.6035 66.4208 2.69006 66.5699 2.78415 66.7143C2.86922 66.8407 2.91728 66.9884 2.92292 67.1407C2.92856 67.2929 2.89155 67.4437 2.81607 67.5761L2.28144 68.4858L5.28176 70.2173L5.81639 69.2957C5.89382 69.165 6.00613 69.0584 6.14073 68.9879C6.27533 68.9175 6.42689 68.8859 6.57844 68.8967H6.83378H7.08913C7.24067 68.8859 7.39224 68.9175 7.52684 68.9879C7.66144 69.0584 7.77375 69.165 7.85118 69.2957L8.38182 70.2293ZM6.83378 66.9178C6.27093 66.9186 5.72052 66.7521 5.25242 66.4396C4.78432 66.127 4.41961 65.6824 4.20459 65.1623C3.98957 64.6421 3.93392 64.0698 4.04471 63.5179C4.15549 62.9661 4.42772 62.4596 4.82684 62.0627C5.22596 61.6658 5.73399 61.3965 6.28646 61.2888C6.83892 61.1811 7.41092 61.24 7.92987 61.4579C8.44881 61.6759 8.89132 62.0431 9.20123 62.513C9.51113 62.9828 9.67448 63.5342 9.67052 64.097C9.66631 64.8466 9.36558 65.564 8.83404 66.0926C8.30251 66.6211 7.58338 66.9178 6.83378 66.9178Z" fill="#EBEBEB"/>
<path d="M98.8698 19.8114L97.1382 16.8111L96.2206 17.3417C96.0886 17.4178 95.9379 17.4555 95.7857 17.4505C95.6334 17.4456 95.4856 17.3982 95.3588 17.3138C95.2135 17.2188 95.063 17.1322 94.9079 17.0544C94.7681 16.9866 94.6504 16.8804 94.5685 16.7484C94.4866 16.6163 94.4438 16.4637 94.4451 16.3084V15.2471H90.982V16.3084C90.9835 16.4612 90.941 16.6113 90.8597 16.7407C90.7783 16.8702 90.6615 16.9735 90.5231 17.0385C90.3698 17.1172 90.2207 17.2037 90.0763 17.2978C89.9495 17.3823 89.8016 17.4296 89.6494 17.4346C89.4971 17.4395 89.3465 17.4018 89.2145 17.3257L88.2968 16.7951L86.5732 19.8114L87.4949 20.342C87.6256 20.4205 87.7321 20.5335 87.8025 20.6687C87.8729 20.8039 87.9045 20.956 87.8939 21.1081C87.8939 21.1919 87.8939 21.2756 87.8939 21.3634C87.8939 21.4512 87.8939 21.535 87.8939 21.6188C87.9063 21.77 87.8754 21.9216 87.8047 22.0559C87.734 22.1901 87.6266 22.3015 87.4949 22.3768L86.5732 22.9115L88.3048 25.9118L89.2225 25.3811C89.3556 25.3057 89.507 25.2688 89.6599 25.2745C89.8127 25.2801 89.961 25.3281 90.0882 25.4131C90.2319 25.5048 90.3795 25.5926 90.5351 25.6724C90.671 25.7402 90.7854 25.8443 90.8657 25.9732C90.946 26.1021 90.989 26.2507 90.9899 26.4025V27.4638H94.4451V26.4025C94.4461 26.2507 94.4891 26.1021 94.5694 25.9732C94.6496 25.8443 94.7641 25.7402 94.8999 25.6724C95.0555 25.5926 95.2032 25.5048 95.3468 25.4131C95.4732 25.328 95.6209 25.2799 95.7731 25.2743C95.9254 25.2686 96.0762 25.3057 96.2086 25.3811L97.1302 25.9118L98.8618 22.9115L97.9402 22.3808C97.8097 22.303 97.7034 22.1907 97.633 22.0562C97.5626 21.9216 97.5308 21.7702 97.5412 21.6188C97.5412 21.535 97.5412 21.4472 97.5412 21.3634C97.5412 21.2796 97.5412 21.1919 97.5412 21.1081C97.5305 20.956 97.5621 20.8039 97.6325 20.6687C97.703 20.5335 97.8094 20.4205 97.9402 20.342L98.8698 19.8114ZM95.5582 21.3634C95.5575 21.9243 95.3904 22.4724 95.0782 22.9383C94.766 23.4043 94.3227 23.7673 93.8043 23.9814C93.2859 24.1955 92.7156 24.2511 92.1656 24.1412C91.6156 24.0313 91.1106 23.7608 90.7142 23.3639C90.3179 22.967 90.0481 22.4615 89.939 21.9114C89.8299 21.3612 89.8863 20.791 90.1011 20.2729C90.3159 19.7548 90.6795 19.312 91.1459 19.0005C91.6123 18.689 92.1606 18.5227 92.7215 18.5227C93.4718 18.5227 94.1915 18.8199 94.7232 19.3493C95.2548 19.8787 95.5551 20.5972 95.5582 21.3475V21.3634Z" fill="#EBEBEB"/>
<path d="M111.685 80.292H101.12V84.7566H111.685V80.292Z" fill="#EBEBEB"/>
<path d="M105.793 74.6622L100.466 74.7699L97.8411 74.8178C96.9674 74.8178 96.0976 74.8178 95.2278 74.8178L95.4074 74.6423V79.1028L95.2079 78.9073L100.49 78.9313C102.254 78.9313 104.013 78.9752 105.773 78.9951L105.665 79.1028C105.665 78.3727 105.701 77.6386 105.717 76.8965L105.793 74.6622ZM105.793 74.6622L105.849 76.8686C105.869 77.6147 105.897 78.3687 105.904 79.1228V79.2305H105.793C104.033 79.2505 102.274 79.2944 100.51 79.2944L95.2278 79.3183H95.0283V79.1148L95.0523 74.6542V74.4707H95.2438C96.1335 74.4707 97.0272 74.4707 97.9169 74.4907L100.574 74.5385L105.793 74.6622Z" fill="#EBEBEB"/>
<path d="M117.586 74.6622L112.256 74.7699L109.63 74.8178C108.757 74.8178 107.891 74.8178 107.021 74.8178L107.196 74.6423L107.22 79.1028L107.021 78.9073L112.303 78.9313C114.063 78.9313 115.822 78.9752 117.586 78.9951L117.474 79.1028C117.474 78.3727 117.51 77.6386 117.526 76.8965L117.586 74.6622ZM117.586 74.6622L117.642 76.8686C117.642 77.6147 117.686 78.3687 117.694 79.1228V79.2305H117.586C115.822 79.2505 114.063 79.2944 112.303 79.2944L107.021 79.3183H106.813V79.1148L106.833 74.6542V74.4707H107.013C107.903 74.4707 108.792 74.4707 109.682 74.4907L112.339 74.5385L117.586 74.6622Z" fill="#EBEBEB"/>
<path d="M10.5521 9.41309L15.8785 9.30536L18.5038 9.25748C19.3776 9.25748 20.2473 9.25748 21.1171 9.25748L20.9376 9.43304L20.9176 4.96846L21.1171 5.16795L15.8466 5.12406C14.0831 5.12406 12.3236 5.08018 10.5641 5.06023L10.6718 4.94851C10.6718 5.68263 10.6359 6.41676 10.62 7.15886L10.5521 9.41309ZM10.5521 9.41309L10.4923 7.20673C10.4923 6.46064 10.4484 5.70657 10.4404 4.94851V4.84079H10.5521C12.3116 4.84079 14.0711 4.77695 15.8346 4.77695L21.1171 4.74902H21.3166V4.94851L21.2927 9.41309V9.59263H21.1171C20.2274 9.59263 19.3337 9.59263 18.4439 9.56869L15.7867 9.5248L10.5521 9.41309Z" fill="#EBEBEB"/>
<path d="M4.65477 15.0469L15.2197 15.0469V10.5823H4.65477V15.0469Z" fill="#EBEBEB"/>
<path d="M154.516 9.43686L159.846 9.32514L162.472 9.28126C163.345 9.28126 164.211 9.28126 165.081 9.25732L164.905 9.43686L164.885 4.97228L165.081 5.17177L159.798 5.12789C158.039 5.12789 156.279 5.084 154.516 5.06405L154.628 4.95633C154.628 5.68646 154.592 6.42058 154.576 7.16268L154.516 9.43686ZM154.516 9.43686L154.46 7.22651C154.46 6.48042 154.416 5.72635 154.408 4.97228V4.8486H154.516C156.279 4.82865 158.039 4.78476 159.798 4.78476L165.065 4.75684H165.268V4.96031L165.26 9.43686V9.6164H165.065C164.175 9.6164 163.285 9.6164 162.396 9.6164L159.739 9.56852L154.516 9.43686Z" fill="#EBEBEB"/>
<path d="M15.2242 117.836L9.8938 117.959L7.26852 118.003C6.39476 118.023 5.52897 118.003 4.6592 118.027L4.83475 117.848L4.8547 122.312L4.6592 122.113L9.94168 122.137C11.7012 122.137 13.4607 122.185 15.2242 122.205L15.1124 122.312C15.1124 121.582 15.1484 120.848 15.1643 120.102L15.2242 117.836ZM15.2242 117.836L15.28 120.046C15.28 120.788 15.3239 121.542 15.3319 122.3V122.408H15.2242C13.4607 122.428 11.7012 122.472 9.94168 122.476L4.67516 122.5H4.47168V122.3V117.836V117.656H4.67516C5.56488 117.656 6.4546 117.656 7.34433 117.68L10.0015 117.724L15.2242 117.836Z" fill="#EBEBEB"/>
<path d="M165.094 73.3476C168.503 63.5453 163.443 52.877 153.79 49.5194C144.137 46.1618 133.548 51.3863 130.139 61.1887C126.729 70.9911 131.79 81.6594 141.442 85.017C151.095 88.3746 161.684 83.15 165.094 73.3476Z" fill="#EBEBEB"/>
<path d="M161.242 71.9995C163.901 64.3532 159.953 56.0314 152.424 53.4122C144.894 50.793 136.634 54.8683 133.974 62.5146C131.314 70.1608 135.262 78.4826 142.792 81.1018C150.322 83.721 158.582 79.6457 161.242 71.9995Z" fill="white"/>
<path d="M158.043 67.0978C158.07 69.8895 156.997 72.5795 155.055 74.5859C153.114 76.5922 150.46 77.7534 147.669 77.8183C146.297 77.8342 144.935 77.5775 143.663 77.0633C142.39 76.5491 141.233 75.7875 140.257 74.8227C139.281 73.8578 138.506 72.7089 137.977 71.4425C137.448 70.176 137.176 68.8173 137.176 67.4449C137.149 64.6532 138.223 61.9631 140.164 59.9568C142.105 57.9505 144.759 56.7892 147.55 56.7243C148.922 56.7085 150.284 56.9651 151.556 57.4793C152.829 57.9936 153.986 58.7551 154.962 59.72C155.938 60.6848 156.713 61.8337 157.242 63.1002C157.771 64.3666 158.043 65.7254 158.043 67.0978Z" fill="#EBEBEB"/>
<path d="M153.965 67.1613C153.978 68.8572 153.324 70.4903 152.144 71.7083C150.964 72.9264 149.353 73.6319 147.657 73.6727C146.822 73.6822 145.993 73.5257 145.218 73.2123C144.443 72.8988 143.739 72.4347 143.145 71.8468C142.551 71.2589 142.08 70.5589 141.759 69.7875C141.437 69.016 141.273 68.1885 141.274 67.3529C141.258 65.6549 141.91 64.0188 143.09 62.7982C144.271 61.5775 145.884 60.8704 147.582 60.8296C148.418 60.8195 149.249 60.976 150.024 61.29C150.8 61.604 151.505 62.0692 152.1 62.6585C152.694 63.2478 153.165 63.9494 153.485 64.7224C153.805 65.4955 153.968 66.3246 153.965 67.1613Z" fill="white"/>
<path d="M150.442 67.2215C150.451 67.9752 150.163 68.7022 149.641 69.2456C149.118 69.7889 148.403 70.1052 147.65 70.1261C147.277 70.133 146.906 70.0652 146.56 69.9267C146.214 69.7882 145.899 69.5818 145.634 69.3196C145.369 69.0575 145.159 68.7449 145.017 68.4003C144.874 68.0557 144.802 67.6861 144.805 67.3133C144.796 66.5595 145.084 65.8325 145.607 65.2892C146.129 64.7458 146.844 64.4296 147.598 64.4087C147.971 64.4018 148.341 64.4695 148.687 64.608C149.033 64.7465 149.348 64.9529 149.613 65.2151C149.878 65.4773 150.088 65.7898 150.231 66.1344C150.373 66.479 150.445 66.8486 150.442 67.2215Z" fill="#EBEBEB"/>
<path d="M120.443 52.8421L120.295 53.125L147.467 67.3304L147.615 67.0475L120.443 52.8421Z" fill="#C7C7C7"/>
<path d="M119.15 53.6205L119.218 53.5925L120.463 53.2095L118.009 51.9248L116.681 52.3278L119.15 53.6205Z" fill="#C7C7C7"/>
<path d="M117.714 50.3525L118.157 51.6452L120.61 52.926C120.416 52.5148 120.27 52.0823 120.176 51.6373L117.714 50.3525Z" fill="#C7C7C7"/>
<path d="M148.212 66.9493L147.697 67.871L146.337 67.7553L147.231 67.0211L147.322 65.8721L148.212 66.9493Z" fill="#C7C7C7"/>
<path d="M56.7022 104.534C56.8408 105.272 56.789 106.034 56.5517 106.746C56.3143 107.459 55.8993 108.1 55.3457 108.607L50.7095 109.473C49.9907 109.191 49.3581 108.725 48.8742 108.124C48.3903 107.522 48.072 106.804 47.9506 106.041C47.8293 105.278 47.9091 104.497 48.1823 103.775C48.4554 103.052 48.9124 102.414 49.5081 101.922C50.1037 101.431 50.8174 101.103 51.5785 100.972C52.3396 100.841 53.1217 100.91 53.8476 101.174C54.5735 101.438 55.2179 101.887 55.7171 102.476C56.2164 103.065 56.5532 103.774 56.6942 104.534H56.7022Z" fill="#EBEBEB"/>
<path d="M57.6542 108.179L48.4014 109.902L48.6497 111.236L57.9025 109.513L57.6542 108.179Z" fill="#EBEBEB"/>
<path d="M12.544 30.5513C12.5169 27.4827 13.0079 24.4316 13.9963 21.5264C15.5195 17.1456 18.1457 13.2311 21.6217 10.1604C25.0977 7.08972 29.3063 4.96642 33.8415 3.99526C35.3495 3.68921 36.8801 3.50772 38.4178 3.45265C38.8168 3.45265 39.1878 3.42871 39.5709 3.42871L40.7239 3.4726C41.4939 3.4726 42.26 3.59229 43.022 3.67608C46.0884 4.05931 49.0612 4.989 51.7996 6.42105C54.53 7.82562 56.9984 9.68943 59.0969 11.931C61.1829 14.1842 62.8816 16.7673 64.124 19.5754C61.5352 13.9981 57.143 9.45544 51.6559 6.68039C50.2964 6.00012 48.8849 5.42911 47.4347 4.97276C46.7046 4.77327 45.9745 4.57378 45.2324 4.40222L44.1152 4.19475L43.5527 4.08703L42.9781 4.02319C42.2252 3.92094 41.4674 3.85834 40.7079 3.83567L39.5709 3.79577C39.1719 3.79577 38.8128 3.79577 38.4338 3.81971C36.9168 3.88647 35.4077 4.07594 33.9213 4.38626C30.9468 5.01833 28.1005 6.14874 25.5029 7.7297C22.9104 9.33431 20.6011 11.3565 18.6684 13.7144C14.7826 18.4732 12.6238 24.4081 12.544 30.5513Z" fill="#263238"/>
<path d="M16.7334 10.7418C17.9971 9.09513 19.4561 7.60802 21.0783 6.31312C24.3332 3.69733 28.1616 1.88982 32.2497 1.03862C32.7604 0.950847 33.2711 0.843122 33.7818 0.771306C34.2925 0.69949 34.8111 0.631664 35.3258 0.583787L36.8778 0.5H38.4299L36.8858 0.595756L35.3497 0.767317C34.8391 0.835143 34.3324 0.926908 33.8256 1.0067C33.3189 1.0865 32.8202 1.22215 32.3175 1.32589C28.3143 2.28602 24.5521 4.06119 21.2658 6.54054C19.6218 7.79003 18.1038 9.19712 16.7334 10.7418Z" fill="#263238"/>
<path d="M135.078 58.6153C141.153 57.6498 146.721 54.6508 150.87 50.1091C152.915 47.854 154.573 45.2764 155.777 42.4806C156.967 39.681 157.671 36.6992 157.86 33.6632C157.953 32.1484 157.922 30.6286 157.768 29.1188C157.72 28.7437 157.68 28.3647 157.628 27.9897L157.421 26.8685C157.287 26.1222 157.115 25.3831 156.906 24.6542C156.854 24.4707 156.811 24.2872 156.759 24.1036L156.575 23.565L156.204 22.4878C155.937 21.7776 155.626 21.0834 155.318 20.3891C154.655 19.0232 153.886 17.7118 153.016 16.4672C149.475 11.4403 144.344 7.75348 138.45 6.00195C141.407 6.81865 144.209 8.12109 146.74 9.85609C149.27 11.6083 151.478 13.7841 153.268 16.2876C155.08 18.7829 156.432 21.5827 157.257 24.5545C157.473 25.2938 157.652 26.0435 157.792 26.8007L158.003 27.9338C158.059 28.3328 158.099 28.6959 158.151 29.0789C158.314 30.6107 158.351 32.1532 158.263 33.6911C157.881 39.8867 155.362 45.758 151.135 50.3034C146.907 54.8487 141.234 57.7864 135.082 58.6153H135.078Z" fill="#263238"/>
<path d="M161.355 30.9383C161.295 28.8778 161.034 26.828 160.577 24.818C159.653 20.8064 157.91 17.029 155.458 13.7224C155.139 13.3234 154.84 12.9005 154.508 12.5254C154.177 12.1504 153.842 11.7275 153.495 11.3644L152.43 10.2353L151.305 9.16602L152.502 10.1555L153.635 11.2168C154.002 11.5838 154.345 11.9708 154.7 12.3499C155.055 12.7289 155.366 13.1478 155.701 13.5468C156.984 15.1843 158.075 16.9634 158.953 18.8492C159.815 20.7427 160.46 22.7276 160.876 24.7661C161.285 26.7965 161.446 28.8691 161.355 30.9383Z" fill="#263238"/>
<path d="M116.191 64.3767C114.358 71.4143 110.154 77.6044 104.288 81.9028C98.4215 86.2012 91.2524 88.3449 83.9896 87.9723C82.1869 87.8678 80.396 87.6143 78.6353 87.2143C78.1964 87.1066 77.7575 87.0068 77.3226 86.8911L76.0299 86.4921C75.1676 86.2284 74.3194 85.9208 73.4884 85.5705C73.281 85.4867 73.0695 85.4069 72.862 85.3191L72.2516 85.0239L71.0347 84.4454C70.6357 84.2539 70.2368 84.0025 69.8378 83.7871C69.4388 83.5716 69.0398 83.3402 68.6688 83.1008C67.1486 82.1301 65.715 81.0302 64.3837 79.8132L63.3943 78.8996L62.4686 77.9141C61.8263 77.2757 61.2717 76.5536 60.7131 75.8593C60.4179 75.5202 60.1745 75.1412 59.9152 74.7741L59.1531 73.6729L58.4549 72.5199C58.2235 72.1209 57.9801 71.7539 57.7886 71.3469C56.1076 68.1639 54.9644 64.7249 54.4053 61.1689C55.6359 68.2824 59.2304 74.7726 64.6072 79.5898C65.9399 80.7772 67.3662 81.8553 68.8722 82.8135C69.2473 83.0489 69.6423 83.2604 70.0253 83.4878C70.4083 83.7152 70.7913 83.9466 71.1983 84.1342L72.3952 84.7087L72.9977 84.9999C73.2012 85.0877 73.3967 85.1635 73.6201 85.2433C74.4409 85.5907 75.28 85.893 76.1337 86.149L77.4144 86.548C77.8453 86.6597 78.2802 86.7555 78.7111 86.8632C80.4518 87.2498 82.2211 87.494 84.0015 87.5933C87.5705 87.7842 91.1459 87.366 94.5745 86.3565C99.7391 84.8265 104.431 82.0107 108.21 78.1727C111.99 74.3347 114.733 69.6002 116.183 64.4126L116.191 64.3767Z" fill="#263238"/>
<path d="M105.423 85.5576C103.486 87.0298 101.379 88.2636 99.1468 89.2322C94.662 91.195 89.7795 92.0791 84.8912 91.8136C84.2848 91.7617 83.6943 91.7298 83.0719 91.658C82.4495 91.5862 81.875 91.5064 81.2685 91.4027C80.6621 91.2989 80.0716 91.1673 79.4851 91.0356L77.7256 90.5608L79.505 90.9319C80.0995 91.0316 80.702 91.1154 81.2964 91.2111C81.8909 91.3069 82.4934 91.3428 83.0958 91.4067C83.6983 91.4705 84.2928 91.4705 84.9032 91.5064C87.3095 91.5836 89.717 91.4031 92.0848 90.9678C94.4583 90.543 96.7801 89.8676 99.0111 88.9529C101.255 88.036 103.403 86.8987 105.423 85.5576Z" fill="#263238"/>
<path d="M107.64 56.941C107.395 59.1869 106.814 61.3833 105.916 63.4563L109.962 66.3609L107.868 69.9836L103.343 67.9369C102.006 69.7588 100.406 71.3723 98.5952 72.7246L100.646 77.265L97.0233 79.3517L94.1267 75.326C92.0595 76.2355 89.8671 76.8287 87.6233 77.0855L87.1286 82.0527H82.9473L82.4525 77.1134C80.2086 76.8677 78.0139 76.2881 75.9412 75.3938L73.0366 79.4354L69.4139 77.3448L71.4527 72.8164C69.6325 71.4788 68.0193 69.8803 66.665 68.0725L62.1286 70.0834L60.0459 66.4926L64.0796 63.596C63.1682 61.5292 62.5737 59.3367 62.3161 57.0926L57.3408 56.5819V52.4006L62.2842 51.9099C62.5293 49.6628 63.1103 47.4652 64.0078 45.3906L59.9621 42.486L62.0568 38.8673L66.5812 40.91C67.9171 39.0871 69.5173 37.4734 71.329 36.1223L69.3102 31.5939L72.9329 29.4992L75.8255 33.5289C77.8913 32.6255 80.0807 32.0365 82.3209 31.7814L82.8116 26.8301H86.9929L87.4877 31.7694C89.7323 32.0113 91.9276 32.5911 93.999 33.489L96.9076 29.4474L100.526 31.542L98.4875 36.0664C100.308 37.4055 101.921 39.0053 103.275 40.8143L107.816 38.7635L109.906 42.3903L105.873 45.2828C106.775 47.3442 107.362 49.53 107.612 51.7663L112.575 52.265V56.4503L107.64 56.941Z" fill="#178CAF"/>
<path d="M57.5359 35.771C57.0801 38.1643 56.1524 40.4428 54.8069 42.4738L57.7593 46.1165L53.1471 50.5053L49.8715 47.5488C47.7943 48.9756 45.4487 49.9651 42.9772 50.4574L42.5183 54.8222L36.1945 54.6547L35.9631 50.5332C33.4008 50.0735 30.966 49.0723 28.8214 47.5967L25.5857 50.218L21.1969 45.6138L23.882 42.6414C22.4081 40.4684 21.4177 38.0044 20.9775 35.4159L16.876 34.973L17.0435 28.6213L21.1291 28.4138C21.6569 25.8867 22.7119 23.4994 24.2252 21.4078L21.4882 18.0324L26.0964 13.6436L29.3281 16.5602C31.4314 15.2214 33.783 14.3203 36.2424 13.9109L36.7252 9.30273L43.0729 9.47031L43.3083 14.0985C45.6727 14.6281 47.9087 15.6207 49.8875 17.019L53.6618 13.9548L58.0306 18.567L54.8388 22.11C56.1529 24.1067 57.0662 26.3398 57.5279 28.6851L62.3755 29.1918L62.208 35.5396L57.5359 35.771Z" fill="#455A64"/>
<path d="M41.8559 38.4008L37.1479 38.3569V38.2771C37.0053 37.5291 36.8201 36.7898 36.5933 36.0628C36.3645 35.6583 36.0548 35.3052 35.6837 35.0254C34.88 34.3728 34.2179 33.5631 33.7377 32.646C33.2575 31.7288 32.9694 30.7234 32.8908 29.6911C32.8268 28.7276 32.9577 27.761 33.2758 26.8493C33.5939 25.9375 34.0926 25.0993 34.7421 24.3847C35.3744 23.71 36.1397 23.1738 36.9898 22.81C37.8398 22.4461 38.7561 22.2625 39.6807 22.2708C40.6053 22.279 41.5182 22.4789 42.3616 22.8579C43.205 23.2369 43.9607 23.7866 44.5809 24.4725C45.2186 25.1987 45.7031 26.0462 46.0054 26.9642C46.3077 27.8822 46.4217 28.8517 46.3404 29.8148C46.24 30.8471 45.9299 31.8481 45.429 32.7565C44.9282 33.6648 44.2473 34.4613 43.4278 35.0973C43.051 35.3689 42.7356 35.717 42.5022 36.1186C42.2611 36.8408 42.0613 37.5761 41.9037 38.321L41.8559 38.4008ZM37.3115 38.1654L41.7003 38.2053C41.8527 37.4757 42.0499 36.7562 42.2907 36.0508C42.5317 35.6175 42.8655 35.2428 43.2682 34.9536C44.3096 34.04 45.7339 32.7872 46.113 29.7988C46.192 28.8635 46.0811 27.9219 45.787 27.0306C45.4929 26.1393 45.0215 25.3166 44.4013 24.6121C43.8 23.9472 43.0672 23.4142 42.2494 23.0469C41.4315 22.6796 40.5464 22.4859 39.6499 22.478C38.7534 22.4701 37.865 22.6483 37.0409 23.0012C36.2167 23.3541 35.4747 23.8741 34.8618 24.5283C34.2299 25.2213 33.7446 26.0347 33.4347 26.9198C33.1248 27.8048 32.9968 28.7434 33.0584 29.6791C33.3815 32.6715 34.782 33.9522 35.8073 34.8858C36.2033 35.1832 36.53 35.563 36.7649 35.9989C36.9917 36.7091 37.1743 37.4326 37.3115 38.1654Z" fill="white"/>
<path d="M37.3249 31.0055L37.0303 31.0576L38.3129 38.3021L38.6075 38.25L37.3249 31.0055Z" fill="white"/>
<path d="M41.9594 31.049L40.543 38.2686L40.8366 38.3262L42.253 31.1066L41.9594 31.049Z" fill="white"/>
<path d="M39.618 33.4776C39.1911 33.4776 38.82 33.0786 38.5687 32.6078C38.5208 32.6682 38.4603 32.7174 38.3914 32.7519C38.3224 32.7863 38.2468 32.8052 38.1697 32.8073C37.4755 32.8073 37.2122 31.3829 37.2002 31.3231L37.3478 31.2991C37.4156 31.6742 37.6949 32.6557 38.1697 32.6597C38.2328 32.6518 38.2935 32.6306 38.3478 32.5976C38.4021 32.5646 38.4488 32.5205 38.4849 32.4681C38.2885 32.0672 38.1784 31.6296 38.1617 31.1834C38.1617 30.7845 38.3213 30.553 38.5886 30.553C38.6693 30.55 38.7491 30.5693 38.8195 30.6087C38.8899 30.6481 38.9481 30.7062 38.9876 30.7765C39.1991 31.1515 39.0315 31.8856 38.7562 32.3484C38.7298 32.3976 38.6991 32.4444 38.6644 32.4881C38.9078 32.9549 39.247 33.3259 39.614 33.3299C39.9492 33.3299 40.2444 33.0307 40.4599 32.6277C40.1879 32.2786 40.0468 31.8452 40.0609 31.4029C40.0609 30.8882 40.2644 30.569 40.5795 30.573C40.8349 30.573 40.9785 30.8283 40.9785 31.2672C40.9582 31.73 40.8428 32.1836 40.6394 32.5998C40.7553 32.7142 40.9114 32.7787 41.0743 32.7793C41.4733 32.7793 41.8483 31.8018 41.96 31.4228L42.1036 31.4627C42.0598 31.6143 41.6608 32.9349 41.0703 32.931C40.8846 32.925 40.7068 32.8545 40.5676 32.7315C40.4896 32.9288 40.3606 33.1019 40.1938 33.233C40.0269 33.3641 39.8282 33.4485 39.618 33.4776ZM40.5795 30.7206C40.3082 30.7206 40.2125 31.0877 40.2085 31.4029C40.203 31.7885 40.3173 32.1662 40.5357 32.4841C40.7135 32.1019 40.8138 31.6884 40.8309 31.2672C40.8309 31.1036 40.811 30.7206 40.5795 30.7206ZM38.5847 30.7206C38.3572 30.7206 38.3094 30.9839 38.3054 31.2074C38.3208 31.6047 38.4143 31.9952 38.5807 32.3564L38.6166 32.2926C38.8679 31.8936 39.0155 31.1834 38.844 30.8722C38.8193 30.8252 38.7819 30.786 38.7361 30.7592C38.6902 30.7324 38.6377 30.719 38.5847 30.7206Z" fill="white"/>
<path d="M42.3989 39.3056L36.5938 39.2537V37.957L42.4029 38.0089L42.3989 39.3056ZM36.7932 39.0542L42.1994 39.1061V38.2084L36.8012 38.1645L36.7932 39.0542Z" fill="white"/>
<path d="M42.3869 40.579L36.5938 40.5271V39.2305L42.4029 39.2823L42.3869 40.579ZM36.7813 40.3277L42.1914 40.3795V39.4818L36.7813 39.4339V40.3277Z" fill="white"/>
<path d="M42.3746 41.8515L36.5654 41.7996V40.5029L42.3746 40.5588V41.8515ZM36.7689 41.6001L42.1791 41.652V40.7543L36.7689 40.7064V41.6001Z" fill="white"/>
<path d="M94.0463 47.2612L90.1084 43.9018L90.1563 43.826C90.1962 43.7662 91.1298 42.3977 92.4624 42.2301C92.8026 42.1925 93.1469 42.2294 93.4714 42.3382C93.7959 42.4471 94.0929 42.6253 94.3416 42.8605C94.6158 43.0709 94.8413 43.3381 95.0025 43.6439C95.1637 43.9497 95.2567 44.2868 95.2752 44.632C95.327 45.9925 94.162 47.1615 94.1141 47.2094L94.0463 47.2612ZM90.3757 43.8659L94.0343 46.9859C94.2737 46.7226 95.1196 45.7212 95.0757 44.62C95.057 44.3033 94.9703 43.9944 94.8216 43.7142C94.6729 43.434 94.4656 43.1891 94.2139 42.9961C93.9863 42.7794 93.7142 42.615 93.4165 42.5144C93.1188 42.4138 92.8027 42.3794 92.4903 42.4136C91.429 42.5533 90.5991 43.5826 90.3877 43.8659H90.3757Z" fill="white"/>
<path d="M79.1561 65.3072L79.0005 65.1795L93.9981 47.034L90.3475 43.9219L75.3538 62.0635L75.1982 61.9358L90.3235 43.6387L94.2774 47.01L94.2176 47.0858L79.1561 65.3072Z" fill="white"/>
<path d="M93.9545 48.0642L89.3623 44.1502L90.0884 43.2725L94.6767 47.1904L93.9545 48.0642ZM89.6575 44.1223L93.9426 47.7809L94.4174 47.2104L90.1283 43.5517L89.6575 44.1223Z" fill="white"/>
<path d="M93.2924 48.862L88.7002 44.9481L89.4263 44.0703L94.0186 47.9843L93.2924 48.862ZM88.9795 44.9241L93.2486 48.5788L93.7233 48.0082L89.4343 44.3536L88.9795 44.9241Z" fill="white"/>
<path d="M74.6318 66.6921L75.2143 61.9961H75.2941L76.0163 61.8764L76.132 61.8564V62.6065L76.8901 62.5028V63.2529L77.6242 63.1292V63.8793L78.3503 63.7516V64.5057L78.9647 64.3979H79.0765V65.3435L74.6318 66.6921ZM75.3939 62.1836L74.8672 66.4088L75.7729 66.1295L78.881 65.16V64.5934L78.2705 64.7012L78.1548 64.7211V63.967L77.4247 64.0947V63.3446L76.6906 63.4683V62.7182L75.9564 62.8419V62.1038L75.3939 62.1836Z" fill="white"/>
<path d="M74.7041 66.5561L74.9435 64.6689L76.5075 66.0015L74.7041 66.5561ZM75.1031 65.0599L74.9475 66.2768L76.1085 65.9178L75.1031 65.0599Z" fill="white"/>
<path d="M77.25 61.7723C78.1996 60.4477 79.197 59.159 80.2024 57.8783C81.2079 56.5976 82.2452 55.3448 83.2666 54.072C84.288 52.7993 85.3533 51.5784 86.4225 50.3495C87.4918 49.1207 88.573 47.8998 89.6942 46.7148C88.7446 48.0434 87.7471 49.3282 86.7417 50.6129C85.7363 51.8976 84.6989 53.1464 83.6775 54.4151C82.6562 55.6839 81.5909 56.9127 80.5176 58.1376C79.4444 59.3625 78.3711 60.5873 77.25 61.7723Z" fill="white"/>
<path d="M78.9775 63.2088C79.9311 61.8802 80.9285 60.5955 81.93 59.3108C82.9314 58.0261 83.9728 56.7773 84.9941 55.5085C86.0155 54.2398 87.0808 53.0109 88.1541 51.7821C89.2273 50.5532 90.3006 49.3323 91.4217 48.1514C90.4721 49.476 89.4747 50.7647 88.4692 52.0454C87.4638 53.3261 86.4265 54.5829 85.4051 55.8477C84.3837 57.1124 83.3184 58.3453 82.2492 59.5741C81.1799 60.803 80.0827 62.0239 78.9775 63.2088Z" fill="white"/>
<path d="M148.028 35.7708C147.572 38.1641 146.645 40.4427 145.299 42.4737L148.252 46.1163L143.639 50.5051L140.364 47.5487C138.29 48.9834 135.945 49.9811 133.473 50.4812L133.015 54.846L126.667 54.6784L126.455 50.533C123.893 50.0733 121.458 49.0722 119.314 47.5966L116.078 50.2178L111.689 45.6136L114.374 42.6412C112.899 40.4689 111.909 38.0047 111.47 35.4157L107.368 34.9729L107.536 28.6211L111.621 28.4137C112.149 25.8858 113.206 23.4983 114.721 21.4076L112 18.0402L116.609 13.6514L119.84 16.568C121.944 15.2292 124.295 14.3282 126.755 13.9188L127.237 9.31055L133.585 9.47812L133.82 14.1063C136.177 14.6369 138.406 15.6266 140.38 17.0188L144.15 13.9547L148.539 18.5669L145.347 22.1098C146.661 24.1065 147.574 26.3397 148.036 28.685L152.884 29.1917L152.696 35.5235L148.028 35.7708Z" fill="#455A64"/>
<path d="M124.915 42.8689H123.941V24.085H124.915V42.8689ZM124.141 42.6694H124.715V24.2845H124.141V42.6694Z" fill="white"/>
<path d="M138.046 33.5766H124.716V24.5078H138.046L133.501 29.0402L138.046 33.5766ZM124.915 33.3771H137.563L133.218 29.0402L137.563 24.7073H124.915V33.3771Z" fill="white"/>
<path d="M126.966 97.9951H42.7734V103.314H126.966V97.9951Z" fill="white"/>
<path d="M126.966 103.309L42.7813 103.452H42.6377V103.309V97.9944V97.8428H42.7893L84.8696 97.8907L126.966 97.9784V103.309ZM126.966 103.309V97.9944L84.8696 98.0981L42.7734 98.142L42.921 97.9944V103.309L42.7773 103.169L126.966 103.309Z" fill="#263238"/>
<path d="M98.2754 98.9326H43.7988V102.372H98.2754V98.9326Z" fill="#178CAF"/>
<path opacity="0.1" d="M49.2768 98.9326H46.456L43.7988 102.372H46.6196L49.2768 98.9326Z" fill="black"/>
<path opacity="0.1" d="M54.7222 98.9326H51.9014L49.2402 102.372H52.061L54.7222 98.9326Z" fill="black"/>
<path opacity="0.1" d="M60.1685 98.9326H57.3477L54.6865 102.372H57.5073L60.1685 98.9326Z" fill="black"/>
<path opacity="0.1" d="M65.6109 98.9326H62.7901L60.1289 102.372H62.9497L65.6109 98.9326Z" fill="black"/>
<path opacity="0.1" d="M71.0572 98.9326H68.2364L65.5752 102.372H68.396L71.0572 98.9326Z" fill="black"/>
<path opacity="0.1" d="M76.4985 98.9326H73.6817L71.0205 102.372H73.8413L76.4985 98.9326Z" fill="black"/>
<path opacity="0.1" d="M81.9449 98.9326H79.1241L76.4629 102.372H79.2837L81.9449 98.9326Z" fill="black"/>
<path opacity="0.1" d="M87.3912 98.9326H84.5704L81.9092 102.372H84.73L87.3912 98.9326Z" fill="black"/>
<path opacity="0.1" d="M92.8334 98.9326H90.0127L87.3555 102.372H90.1762L92.8334 98.9326Z" fill="black"/>
<path opacity="0.1" d="M98.2709 98.9446V98.9326H95.4581L92.7969 102.372H95.6177L98.2709 98.9446Z" fill="black"/>
<path opacity="0.1" d="M98.2713 102.371V102.335L98.2432 102.371H98.2713Z" fill="black"/>
<path d="M77.6883 106.816H77.2893V107.478C77.2893 107.5 77.285 107.522 77.2766 107.542C77.2682 107.562 77.2558 107.581 77.2402 107.596C77.2247 107.612 77.2062 107.624 77.1859 107.633C77.1656 107.641 77.1438 107.645 77.1218 107.645C77.0769 107.645 77.0339 107.628 77.0018 107.597C76.9698 107.565 76.9512 107.523 76.9502 107.478V105.674C76.9502 105.652 76.9547 105.63 76.9633 105.609C76.972 105.589 76.9847 105.57 77.0007 105.555C77.0167 105.539 77.0356 105.527 77.0564 105.518C77.0772 105.51 77.0994 105.506 77.1218 105.507H77.6883C77.8618 105.507 78.0283 105.576 78.151 105.699C78.2737 105.821 78.3426 105.988 78.3426 106.161C78.3426 106.335 78.2737 106.501 78.151 106.624C78.0283 106.747 77.8618 106.816 77.6883 106.816ZM77.3093 106.476H77.6883C77.7719 106.476 77.8521 106.443 77.9112 106.384C77.9703 106.325 78.0035 106.245 78.0035 106.161C78.0035 106.078 77.9703 105.997 77.9112 105.938C77.8521 105.879 77.7719 105.846 77.6883 105.846H77.2893L77.3093 106.476Z" fill="black"/>
<path d="M80.1535 107.39C80.161 107.411 80.1641 107.434 80.1627 107.456C80.1613 107.479 80.1554 107.501 80.1453 107.521C80.1353 107.541 80.1213 107.559 80.1042 107.573C80.0871 107.588 80.0672 107.599 80.0458 107.606H79.9819C79.9398 107.607 79.8982 107.596 79.8623 107.574C79.8213 107.546 79.7872 107.509 79.7625 107.466C79.7148 107.35 79.6931 107.225 79.6987 107.099C79.7007 107.052 79.6882 107.006 79.6628 106.967C79.6393 106.931 79.6079 106.901 79.571 106.88C79.519 106.845 79.4607 106.82 79.3994 106.808H79.0404V107.47C79.0404 107.492 79.0359 107.515 79.0272 107.535C79.0186 107.556 79.0059 107.574 78.9899 107.59C78.9739 107.606 78.9549 107.618 78.9341 107.626C78.9134 107.634 78.8911 107.638 78.8688 107.638C78.8468 107.638 78.825 107.633 78.8047 107.625C78.7843 107.616 78.7659 107.604 78.7503 107.589C78.7347 107.573 78.7224 107.554 78.714 107.534C78.7056 107.514 78.7012 107.492 78.7012 107.47V105.667C78.7007 105.644 78.7046 105.622 78.7129 105.602C78.7211 105.581 78.7334 105.563 78.7491 105.547C78.7648 105.531 78.7835 105.519 78.804 105.511C78.8246 105.502 78.8466 105.499 78.8688 105.499H79.4154C79.5017 105.499 79.5871 105.516 79.6667 105.549C79.7464 105.582 79.8187 105.631 79.8795 105.692C79.9403 105.753 79.9884 105.826 80.0211 105.906C80.0537 105.986 80.0702 106.071 80.0697 106.157C80.0698 106.253 80.0483 106.348 80.0069 106.434C79.9654 106.52 79.9051 106.596 79.8303 106.656C79.8711 106.688 79.9074 106.726 79.9381 106.768C80.003 106.866 80.0376 106.981 80.0378 107.099C80.0334 107.159 80.0334 107.219 80.0378 107.279C80.0651 107.286 80.0901 107.3 80.1103 107.319C80.1306 107.339 80.1455 107.363 80.1535 107.39ZM79.7266 106.165C79.7271 106.124 79.7194 106.082 79.7038 106.044C79.6882 106.005 79.665 105.97 79.6357 105.94C79.6064 105.91 79.5715 105.887 79.533 105.871C79.4945 105.854 79.4531 105.846 79.4114 105.846H79.0364V106.477H79.4114C79.4943 106.477 79.5739 106.444 79.6329 106.386C79.6919 106.327 79.7256 106.248 79.7266 106.165Z" fill="black"/>
<path d="M82.2839 105.774C82.4809 105.983 82.5906 106.259 82.5906 106.546C82.5906 106.833 82.4809 107.11 82.2839 107.318C82.1914 107.42 82.0788 107.502 81.9531 107.558C81.8274 107.615 81.6915 107.644 81.5538 107.646C81.413 107.645 81.2738 107.616 81.1448 107.56C81.0158 107.504 80.8997 107.421 80.8037 107.318C80.6085 107.109 80.5 106.833 80.5 106.546C80.5 106.26 80.6085 105.984 80.8037 105.774C80.8991 105.671 81.0151 105.588 81.1443 105.532C81.2734 105.475 81.4129 105.447 81.5538 105.447C81.6916 105.448 81.8278 105.477 81.9535 105.533C82.0793 105.59 82.1919 105.672 82.2839 105.774ZM82.244 106.544C82.2435 106.347 82.1696 106.156 82.0365 106.01C81.9745 105.942 81.899 105.888 81.8148 105.851C81.7307 105.814 81.6398 105.794 81.5478 105.794C81.4558 105.794 81.3649 105.814 81.2808 105.851C81.1966 105.888 81.1211 105.942 81.059 106.01C80.9267 106.156 80.8535 106.347 80.8535 106.544C80.8535 106.742 80.9267 106.932 81.059 107.079C81.1204 107.148 81.1957 107.203 81.28 107.241C81.3642 107.279 81.4555 107.298 81.5478 107.298C81.6401 107.298 81.7314 107.279 81.8156 107.241C81.8999 107.203 81.9752 107.148 82.0365 107.079C82.1696 106.933 82.2435 106.742 82.244 106.544Z" fill="black"/>
<path d="M83.0059 106.544C83.0121 106.251 83.133 105.972 83.3426 105.767C83.5522 105.562 83.8337 105.447 84.127 105.447C84.3819 105.446 84.6301 105.529 84.8332 105.683C84.8672 105.713 84.8891 105.755 84.8949 105.8C84.9008 105.846 84.8902 105.892 84.8651 105.93C84.8355 105.966 84.7935 105.989 84.7477 105.994C84.7018 106 84.6554 105.989 84.6177 105.962C84.4794 105.849 84.3053 105.79 84.127 105.794C83.9221 105.794 83.7249 105.873 83.5764 106.014C83.5056 106.083 83.4493 106.166 83.4109 106.258C83.3725 106.349 83.3528 106.447 83.3528 106.546C83.3528 106.646 83.3725 106.744 83.4109 106.835C83.4493 106.927 83.5056 107.01 83.5764 107.079C83.7262 107.218 83.9226 107.296 84.127 107.299C84.3047 107.299 84.4774 107.24 84.6177 107.131C84.656 107.106 84.702 107.095 84.7473 107.101C84.7927 107.107 84.8345 107.129 84.8651 107.163C84.8908 107.2 84.9017 107.246 84.8958 107.291C84.8899 107.336 84.8676 107.377 84.8332 107.406C84.6315 107.563 84.3827 107.648 84.127 107.646C83.8328 107.647 83.55 107.532 83.3401 107.326C83.1302 107.119 83.0101 106.839 83.0059 106.544Z" fill="black"/>
<path d="M85.4561 107.478V105.674C85.4556 105.652 85.4595 105.63 85.4677 105.61C85.476 105.589 85.4883 105.57 85.504 105.555C85.5196 105.539 85.5383 105.527 85.5589 105.519C85.5795 105.51 85.6015 105.506 85.6237 105.507H86.6211C86.6656 105.507 86.7082 105.525 86.7396 105.556C86.771 105.587 86.7887 105.63 86.7887 105.674C86.7892 105.697 86.7853 105.719 86.7771 105.74C86.7689 105.761 86.7567 105.78 86.741 105.796C86.7254 105.812 86.7068 105.824 86.6862 105.833C86.6656 105.842 86.6435 105.846 86.6211 105.846H85.7952V106.389H86.5054C86.5495 106.39 86.5916 106.408 86.6228 106.439C86.654 106.47 86.672 106.512 86.673 106.556C86.6735 106.579 86.6696 106.601 86.6614 106.622C86.6532 106.642 86.641 106.661 86.6253 106.677C86.6097 106.693 86.5911 106.706 86.5705 106.715C86.5499 106.723 86.5278 106.728 86.5054 106.728H85.7952V107.29H86.6211C86.6616 107.297 86.6986 107.317 86.7252 107.348C86.7519 107.379 86.7666 107.419 86.7666 107.46C86.7666 107.501 86.7519 107.54 86.7252 107.572C86.6986 107.603 86.6616 107.623 86.6211 107.629H85.6237C85.5819 107.63 85.5415 107.614 85.5105 107.586C85.4795 107.558 85.4601 107.519 85.4561 107.478Z" fill="black"/>
<path d="M87.1999 107.115C87.227 107.083 87.2653 107.063 87.3068 107.059C87.3484 107.054 87.3901 107.066 87.4233 107.091C87.5856 107.233 87.7908 107.316 88.0058 107.327C88.1474 107.333 88.2873 107.294 88.4048 107.215C88.4429 107.192 88.4748 107.16 88.4977 107.121C88.5206 107.083 88.5339 107.04 88.5365 106.995C88.5357 106.96 88.5261 106.926 88.5085 106.896C88.4832 106.86 88.4522 106.829 88.4168 106.804C88.2859 106.734 88.1444 106.685 87.9978 106.66C87.8605 106.639 87.7264 106.6 87.5989 106.545C87.4836 106.493 87.3853 106.41 87.3156 106.305C87.2709 106.229 87.2475 106.142 87.2478 106.054C87.2507 105.966 87.2742 105.879 87.3165 105.802C87.3587 105.724 87.4185 105.657 87.4911 105.607C87.6455 105.5 87.8298 105.444 88.0178 105.447C88.2594 105.459 88.4917 105.544 88.6841 105.691C88.7185 105.714 88.7424 105.749 88.7506 105.789C88.7588 105.83 88.7507 105.872 88.728 105.906C88.7174 105.924 88.7033 105.939 88.6866 105.952C88.6698 105.964 88.6508 105.972 88.6306 105.977C88.6104 105.981 88.5895 105.981 88.5692 105.978C88.5489 105.974 88.5296 105.966 88.5125 105.954C88.3713 105.84 88.1987 105.772 88.0178 105.759C87.8964 105.755 87.7773 105.792 87.6787 105.862C87.6447 105.882 87.6161 105.91 87.5953 105.943C87.5744 105.977 87.562 106.015 87.559 106.054C87.5578 106.084 87.5662 106.113 87.5829 106.138C87.6031 106.17 87.6304 106.197 87.6627 106.217C87.7855 106.288 87.9211 106.334 88.0617 106.353C88.2057 106.38 88.3463 106.422 88.4806 106.481C88.6051 106.535 88.7116 106.624 88.7878 106.736C88.8365 106.814 88.8614 106.904 88.8596 106.995C88.857 107.089 88.8322 107.182 88.7871 107.264C88.742 107.347 88.678 107.417 88.6003 107.47C88.4336 107.584 88.2358 107.644 88.0338 107.642C87.7412 107.634 87.4599 107.527 87.2358 107.339C87.2022 107.313 87.1797 107.276 87.173 107.234C87.1663 107.192 87.1759 107.15 87.1999 107.115Z" fill="black"/>
<path d="M89.2023 107.115C89.2295 107.083 89.2678 107.063 89.3093 107.059C89.3508 107.054 89.3925 107.066 89.4258 107.091C89.5901 107.232 89.7962 107.315 90.0123 107.327C90.1472 107.33 90.2797 107.291 90.3913 107.215C90.4294 107.192 90.4612 107.16 90.4842 107.121C90.5071 107.083 90.5204 107.04 90.523 106.995C90.5242 106.96 90.5144 106.925 90.495 106.896C90.4725 106.859 90.4426 106.828 90.4073 106.804C90.2763 106.734 90.1348 106.685 89.9883 106.66C89.851 106.639 89.7169 106.6 89.5893 106.545C89.4741 106.493 89.3758 106.41 89.3061 106.305C89.2602 106.229 89.2354 106.143 89.2343 106.054C89.237 105.965 89.2609 105.878 89.3039 105.801C89.3469 105.723 89.4078 105.656 89.4816 105.607C89.636 105.5 89.8203 105.444 90.0083 105.447C90.2499 105.459 90.4822 105.544 90.6746 105.691C90.7037 105.716 90.7226 105.752 90.7277 105.79C90.7329 105.828 90.7238 105.867 90.7023 105.899C90.6809 105.932 90.6484 105.955 90.611 105.965C90.5736 105.975 90.5338 105.971 90.499 105.954C90.3593 105.84 90.188 105.772 90.0083 105.759C89.8858 105.756 89.7655 105.792 89.6652 105.862C89.6322 105.883 89.6045 105.911 89.5844 105.944C89.5643 105.978 89.5523 106.015 89.5495 106.054C89.5483 106.084 89.5567 106.113 89.5734 106.138C89.5924 106.171 89.62 106.198 89.6532 106.217C89.776 106.288 89.9116 106.334 90.0522 106.353C90.1962 106.38 90.3368 106.422 90.4711 106.481C90.5956 106.535 90.7021 106.624 90.7783 106.736C90.8254 106.814 90.8502 106.904 90.8501 106.995C90.8474 107.09 90.8221 107.182 90.7763 107.265C90.7304 107.348 90.6655 107.418 90.5868 107.47C90.4218 107.585 90.2251 107.645 90.0242 107.642C89.7317 107.634 89.4504 107.527 89.2263 107.339C89.1945 107.311 89.1743 107.273 89.1699 107.232C89.1654 107.19 89.177 107.148 89.2023 107.115Z" fill="black"/>
<path d="M91.4687 107.211C91.5293 107.212 91.5872 107.237 91.6297 107.28C91.6723 107.323 91.6961 107.382 91.6961 107.442C91.695 107.502 91.6706 107.559 91.6281 107.601C91.5855 107.642 91.5283 107.666 91.4687 107.666C91.439 107.666 91.4095 107.661 91.3819 107.65C91.3544 107.639 91.3293 107.623 91.3081 107.602C91.2869 107.581 91.2701 107.556 91.2586 107.529C91.2471 107.501 91.2412 107.472 91.2412 107.442C91.2407 107.412 91.2462 107.382 91.2574 107.354C91.2686 107.326 91.2853 107.3 91.3064 107.279C91.3276 107.257 91.3529 107.24 91.3807 107.229C91.4086 107.217 91.4385 107.211 91.4687 107.211Z" fill="black"/>
<path d="M92.1708 107.211C92.2315 107.212 92.2893 107.237 92.3319 107.28C92.3744 107.323 92.3982 107.382 92.3982 107.442C92.3972 107.502 92.3728 107.559 92.3302 107.601C92.2877 107.642 92.2304 107.666 92.1708 107.666C92.1411 107.666 92.1116 107.661 92.0841 107.65C92.0565 107.639 92.0314 107.623 92.0102 107.602C91.9891 107.581 91.9722 107.556 91.9608 107.529C91.9493 107.501 91.9434 107.472 91.9434 107.442C91.9429 107.412 91.9483 107.382 91.9595 107.354C91.9707 107.326 91.9874 107.3 92.0086 107.279C92.0297 107.257 92.055 107.24 92.0828 107.229C92.1107 107.217 92.1406 107.211 92.1708 107.211Z" fill="black"/>
<path d="M92.873 107.211C92.9336 107.212 92.9915 107.237 93.034 107.28C93.0766 107.323 93.1004 107.382 93.1004 107.442C93.0993 107.502 93.0749 107.559 93.0324 107.601C92.9898 107.642 92.9326 107.666 92.873 107.666C92.8433 107.666 92.8138 107.661 92.7862 107.65C92.7587 107.639 92.7336 107.623 92.7124 107.602C92.6912 107.581 92.6744 107.556 92.6629 107.529C92.6515 107.501 92.6455 107.472 92.6455 107.442C92.645 107.412 92.6505 107.382 92.6617 107.354C92.6729 107.326 92.6896 107.3 92.7107 107.279C92.7319 107.257 92.7572 107.24 92.785 107.229C92.8129 107.217 92.8428 107.211 92.873 107.211Z" fill="black"/>
</svg>
