<svg width="29" height="29" viewBox="0 0 29 29" fill="none" xmlns="http://www.w3.org/2000/svg">
<path d="M26.5837 15.7077V10.8743C26.5837 4.83268 24.167 2.41602 18.1253 2.41602H10.8753C4.83366 2.41602 2.41699 4.83268 2.41699 10.8743V18.1243C2.41699 24.166 4.83366 26.5827 10.8753 26.5827H15.7087" stroke="#178CAF" stroke-width="1.5" stroke-linecap="round" stroke-linejoin="round"/>
<path d="M26.5837 15.7077V10.8743C26.5837 4.83268 24.167 2.41602 18.1253 2.41602H10.8753C4.83366 2.41602 2.41699 4.83268 2.41699 10.8743V18.1243C2.41699 24.166 4.83366 26.5827 10.8753 26.5827H15.7087" stroke="#178CAF" stroke-width="1.5" stroke-linecap="round" stroke-linejoin="round"/>
<path d="M26.5837 15.7077V10.8743C26.5837 4.83268 24.167 2.41602 18.1253 2.41602H10.8753C4.83366 2.41602 2.41699 4.83268 2.41699 10.8743V18.1243C2.41699 24.166 4.83366 26.5827 10.8753 26.5827H15.7087" stroke="#178CAF" stroke-width="1.5" stroke-linecap="round" stroke-linejoin="round"/>
<path d="M19.333 23.4773L21.2422 25.3743L25.3747 20.541" stroke="#178CAF" stroke-width="1.5" stroke-linecap="round" stroke-linejoin="round"/>
<path d="M8.45801 12.6875V16.3125" stroke="#178CAF" stroke-width="1.5" stroke-linecap="round" stroke-linejoin="round"/>
<path d="M14.5 12.6875V16.3125" stroke="#178CAF" stroke-width="1.5" stroke-linecap="round" stroke-linejoin="round"/>
<path d="M20.542 12.6875V16.3125" stroke="#178CAF" stroke-width="1.5" stroke-linecap="round" stroke-linejoin="round"/>
</svg>
