<svg width="20" height="20" viewBox="0 0 20 20" fill="none" xmlns="http://www.w3.org/2000/svg">
<path d="M15.833 9.16706H5.94967L8.97467 5.53373C9.11612 5.36355 9.18417 5.14414 9.16386 4.92379C9.14354 4.70343 9.03652 4.50017 8.86634 4.35873C8.69616 4.21728 8.47676 4.14923 8.2564 4.16954C8.03605 4.18986 7.83279 4.29688 7.69134 4.46706L3.52467 9.46706C3.49664 9.50683 3.47157 9.54861 3.44967 9.59206C3.44967 9.63373 3.44967 9.65873 3.39134 9.70039C3.35357 9.79594 3.33379 9.89765 3.33301 10.0004C3.33379 10.1031 3.35357 10.2048 3.39134 10.3004C3.39134 10.3421 3.39134 10.3671 3.44967 10.4087C3.47157 10.4522 3.49664 10.494 3.52467 10.5337L7.69134 15.5337C7.76969 15.6278 7.86781 15.7034 7.97871 15.7553C8.08962 15.8071 8.21058 15.8339 8.33301 15.8337C8.52772 15.8341 8.71641 15.7663 8.86634 15.6421C8.95072 15.5721 9.02047 15.4862 9.0716 15.3892C9.12273 15.2923 9.15422 15.1862 9.16429 15.077C9.17435 14.9679 9.16278 14.8578 9.13025 14.7532C9.09771 14.6485 9.04484 14.5513 8.97467 14.4671L5.94967 10.8337H15.833C16.054 10.8337 16.266 10.7459 16.4223 10.5896C16.5785 10.4334 16.6663 10.2214 16.6663 10.0004C16.6663 9.77938 16.5785 9.56742 16.4223 9.41114C16.266 9.25486 16.054 9.16706 15.833 9.16706Z" fill="white"/>
</svg>
