<svg width="20" height="20" viewBox="0 0 20 20" fill="none" xmlns="http://www.w3.org/2000/svg">
<g opacity="0.4">
<g clip-path="url(#clip0_1083_4951)">
<path d="M20 10C20 4.47715 15.5228 0 10 0C4.47715 0 0 4.47715 0 10C0 15.5228 4.47715 20 10 20C15.5228 20 20 15.5228 20 10Z" fill="#D11414"/>
<path d="M14.3537 13.2807C14.3895 13.3161 14.4178 13.3583 14.4371 13.4047C14.4565 13.4511 14.4664 13.5009 14.4664 13.5512C14.4664 13.6015 14.4565 13.6513 14.4371 13.6977C14.4178 13.7442 14.3895 13.7863 14.3537 13.8217L13.8207 14.3547C13.7853 14.3904 13.7432 14.4188 13.6968 14.4381C13.6503 14.4575 13.6005 14.4674 13.5502 14.4674C13.4999 14.4674 13.4502 14.4575 13.4037 14.4381C13.3573 14.4188 13.3152 14.3904 13.2797 14.3547L9.89874 10.9737L6.51674 14.3547C6.48133 14.3904 6.43919 14.4188 6.39276 14.4381C6.34633 14.4575 6.29654 14.4674 6.24624 14.4674C6.19595 14.4674 6.14615 14.4575 6.09973 14.4381C6.0533 14.4188 6.01116 14.3904 5.97574 14.3547L5.44374 13.8217C5.40804 13.7863 5.37969 13.7442 5.36035 13.6977C5.34101 13.6513 5.33105 13.6015 5.33105 13.5512C5.33105 13.5009 5.34101 13.4511 5.36035 13.4047C5.37969 13.3583 5.40804 13.3161 5.44374 13.2807L8.82474 9.89972L5.44374 6.51772C5.40804 6.4823 5.37969 6.44016 5.36035 6.39374C5.34101 6.34731 5.33105 6.29751 5.33105 6.24722C5.33105 6.19693 5.34101 6.14713 5.36035 6.1007C5.37969 6.05428 5.40804 6.01214 5.44374 5.97672L5.97674 5.44472C6.01216 5.40901 6.0543 5.38067 6.10073 5.36133C6.14715 5.34199 6.19695 5.33203 6.24724 5.33203C6.29754 5.33203 6.34733 5.34199 6.39376 5.36133C6.44019 5.38067 6.48233 5.40901 6.51774 5.44472L9.89874 8.82572L13.2797 5.44472C13.3152 5.40901 13.3573 5.38067 13.4037 5.36133C13.4502 5.34199 13.4999 5.33203 13.5502 5.33203C13.6005 5.33203 13.6503 5.34199 13.6968 5.36133C13.7432 5.38067 13.7853 5.40901 13.8207 5.44472L14.3537 5.97772C14.3895 6.01314 14.4178 6.05528 14.4371 6.1017C14.4565 6.14813 14.4664 6.19793 14.4664 6.24822C14.4664 6.29851 14.4565 6.34831 14.4371 6.39474C14.4178 6.44116 14.3895 6.4833 14.3537 6.51872L10.9727 9.89972L14.3537 13.2807Z" fill="#FAFAFA"/>
</g>
</g>
<defs>
<clipPath id="clip0_1083_4951">
<rect width="20" height="20" rx="10" fill="white"/>
</clipPath>
</defs>
</svg>
