<svg width="20" height="20" viewBox="0 0 20 20" fill="none" xmlns="http://www.w3.org/2000/svg">
<g clip-path="url(#clip0_883_5544)">
<path d="M20 10C20 4.47715 15.5228 0 10 0C4.47715 0 0 4.47715 0 10C0 15.5228 4.47715 20 10 20C15.5228 20 20 15.5228 20 10Z" fill="#C6C6C6"/>
<path d="M14.3537 13.2797C14.3895 13.3152 14.4178 13.3573 14.4371 13.4037C14.4565 13.4502 14.4664 13.4999 14.4664 13.5502C14.4664 13.6005 14.4565 13.6503 14.4371 13.6968C14.4178 13.7432 14.3895 13.7853 14.3537 13.8207L13.8207 14.3537C13.7853 14.3895 13.7432 14.4178 13.6968 14.4371C13.6503 14.4565 13.6005 14.4664 13.5502 14.4664C13.4999 14.4664 13.4502 14.4565 13.4037 14.4371C13.3573 14.4178 13.3152 14.3895 13.2797 14.3537L9.89874 10.9727L6.51674 14.3537C6.48133 14.3895 6.43919 14.4178 6.39276 14.4371C6.34633 14.4565 6.29654 14.4664 6.24624 14.4664C6.19595 14.4664 6.14615 14.4565 6.09973 14.4371C6.0533 14.4178 6.01116 14.3895 5.97574 14.3537L5.44374 13.8207C5.40804 13.7853 5.37969 13.7432 5.36035 13.6968C5.34101 13.6503 5.33105 13.6005 5.33105 13.5502C5.33105 13.4999 5.34101 13.4502 5.36035 13.4037C5.37969 13.3573 5.40804 13.3152 5.44374 13.2797L8.82474 9.89874L5.44374 6.51674C5.40804 6.48133 5.37969 6.43919 5.36035 6.39276C5.34101 6.34633 5.33105 6.29654 5.33105 6.24624C5.33105 6.19595 5.34101 6.14615 5.36035 6.09973C5.37969 6.0533 5.40804 6.01116 5.44374 5.97574L5.97674 5.44374C6.01216 5.40804 6.0543 5.37969 6.10073 5.36035C6.14715 5.34101 6.19695 5.33105 6.24724 5.33105C6.29754 5.33105 6.34733 5.34101 6.39376 5.36035C6.44019 5.37969 6.48233 5.40804 6.51774 5.44374L9.89874 8.82474L13.2797 5.44374C13.3152 5.40804 13.3573 5.37969 13.4037 5.36035C13.4502 5.34101 13.4999 5.33105 13.5502 5.33105C13.6005 5.33105 13.6503 5.34101 13.6968 5.36035C13.7432 5.37969 13.7853 5.40804 13.8207 5.44374L14.3537 5.97674C14.3895 6.01216 14.4178 6.0543 14.4371 6.10073C14.4565 6.14715 14.4664 6.19695 14.4664 6.24724C14.4664 6.29754 14.4565 6.34733 14.4371 6.39376C14.4178 6.44019 14.3895 6.48233 14.3537 6.51774L10.9727 9.89874L14.3537 13.2797Z" fill="#FAFAFA"/>
</g>
<defs>
<clipPath id="clip0_883_5544">
<rect width="20" height="20" fill="white"/>
</clipPath>
</defs>
</svg>
