<svg width="28" height="18" viewBox="0 0 28 18" fill="none" xmlns="http://www.w3.org/2000/svg">
<path d="M25 0.00585938H21C20.2044 0.00585938 19.4413 0.32193 18.8787 0.884539C18.3161 1.44715 18 2.21021 18 3.00586V5.00586C18 5.27108 17.8946 5.52543 17.7071 5.71297C17.5196 5.9005 17.2652 6.00586 17 6.00586H11C10.7348 6.00586 10.4804 5.9005 10.2929 5.71297C10.1054 5.52543 10 5.27108 10 5.00586V3.00586C10 2.21021 9.68393 1.44715 9.12132 0.884539C8.55871 0.32193 7.79565 0.00585938 7 0.00585938H3C2.20435 0.00585938 1.44129 0.32193 0.87868 0.884539C0.316071 1.44715 0 2.21021 0 3.00586V15.0059C0 15.8015 0.316071 16.5646 0.87868 17.1272C1.44129 17.6898 2.20435 18.0059 3 18.0059H25C25.7956 18.0059 26.5587 17.6898 27.1213 17.1272C27.6839 16.5646 28 15.8015 28 15.0059V3.00586C28 2.21021 27.6839 1.44715 27.1213 0.884539C26.5587 0.32193 25.7956 0.00585938 25 0.00585938ZM26 15.0059C26 15.2711 25.8946 15.5254 25.7071 15.713C25.5196 15.9005 25.2652 16.0059 25 16.0059H3C2.73478 16.0059 2.48043 15.9005 2.29289 15.713C2.10536 15.5254 2 15.2711 2 15.0059V3.00586C2 2.74064 2.10536 2.48629 2.29289 2.29875C2.48043 2.11122 2.73478 2.00586 3 2.00586H7C7.26522 2.00586 7.51957 2.11122 7.70711 2.29875C7.89464 2.48629 8 2.74064 8 3.00586V5.00586C8 5.80151 8.31607 6.56457 8.87868 7.12718C9.44129 7.68979 10.2044 8.00586 11 8.00586H17C17.7956 8.00586 18.5587 7.68979 19.1213 7.12718C19.6839 6.56457 20 5.80151 20 5.00586V3.00586C20 2.74064 20.1054 2.48629 20.2929 2.29875C20.4804 2.11122 20.7348 2.00586 21 2.00586H25C25.2652 2.00586 25.5196 2.11122 25.7071 2.29875C25.8946 2.48629 26 2.74064 26 3.00586V15.0059Z" fill="white"/>
</svg>
