<svg width="14" height="11" viewBox="0 0 14 11" fill="none" xmlns="http://www.w3.org/2000/svg">
<path d="M12.8516 0.625L8.5625 5.10156C8.46875 5.21875 8.39844 5.35938 8.39844 5.5C8.39844 5.64062 8.46875 5.78125 8.5625 5.875L12.8516 10.3516C13.0625 10.5859 13.4375 10.5859 13.6484 10.375C13.8828 10.1641 13.8828 9.8125 13.6719 9.57812L9.73438 5.47656L13.6719 1.39844C13.8828 1.1875 13.8828 0.8125 13.6484 0.601562C13.4375 0.390625 13.0625 0.390625 12.8516 0.625ZM5.35156 0.625L1.0625 5.10156C0.96875 5.21875 0.898438 5.35938 0.898438 5.5C0.898438 5.64062 0.96875 5.78125 1.0625 5.875L5.35156 10.3516C5.5625 10.5859 5.9375 10.5859 6.14844 10.375C6.38281 10.1641 6.38281 9.8125 6.17188 9.57812L2.23438 5.47656L6.17188 1.39844C6.38281 1.1875 6.38281 0.8125 6.14844 0.601562C5.9375 0.390625 5.5625 0.390625 5.35156 0.625Z" fill="#5C6672"/>
</svg>
