<svg width="21" height="21" viewBox="0 0 21 21" fill="none" xmlns="http://www.w3.org/2000/svg">
<path d="M16.1259 14.2495C13.4259 14.2495 11.251 16.4245 11.251 19.1244V20.2494C11.251 20.6994 11.551 20.9994 12.001 20.9994H20.2508C20.7008 20.9994 21.0008 20.6994 21.0008 20.2494V19.1244C21.0008 16.4245 18.8259 14.2495 16.1259 14.2495ZM19.5008 19.4994H12.751V19.1244C12.751 17.2495 14.2509 15.7495 16.1259 15.7495C18.0009 15.7495 19.5008 17.2495 19.5008 19.1244V19.4994Z" fill="white"/>
<path d="M16.123 8.25C14.698 8.25 13.498 9.44998 13.498 10.875C13.498 12.2999 14.698 13.4999 16.123 13.4999C17.548 13.4999 18.748 12.2999 18.748 10.875C18.748 9.44998 17.548 8.25 16.123 8.25ZM16.123 11.9999C15.523 11.9999 14.998 11.4749 14.998 10.875C14.998 10.275 15.523 9.74998 16.123 9.74998C16.723 9.74998 17.248 10.275 17.248 10.875C17.248 11.4749 16.723 11.9999 16.123 11.9999Z" fill="white"/>
<path d="M9.74984 11.9994V10.8744C9.74984 8.17448 7.57487 5.99951 4.87492 5.99951C2.17496 5.99951 0 8.17448 0 10.8744V11.9994C0 12.4494 0.299995 12.7494 0.749988 12.7494H8.99985C9.44984 12.7494 9.74984 12.4494 9.74984 11.9994ZM8.24986 11.2494H1.49998V10.8744C1.49998 8.99946 2.99995 7.49949 4.87492 7.49949C6.74989 7.49949 8.24986 8.99946 8.24986 10.8744V11.2494Z" fill="white"/>
<path d="M4.87691 5.24991C6.30189 5.24991 7.50187 4.04993 7.50187 2.62496C7.50187 1.19998 6.30189 0 4.87691 0C3.45193 0 2.25195 1.19998 2.25195 2.62496C2.25195 4.04993 3.45193 5.24991 4.87691 5.24991ZM4.87691 1.49998C5.4769 1.49998 6.00189 2.02497 6.00189 2.62496C6.00189 3.22495 5.4769 3.74994 4.87691 3.74994C4.27692 3.74994 3.75193 3.22495 3.75193 2.62496C3.75193 2.02497 4.27692 1.49998 4.87691 1.49998Z" fill="white"/>
<path d="M11.023 3.22495L10.798 2.99995H16.4979V6.74989C16.4979 7.19988 16.7979 7.49988 17.2479 7.49988C17.6979 7.49988 17.9979 7.19988 17.9979 6.74989V2.24996C17.9979 1.79997 17.6979 1.49998 17.2479 1.49998H10.798L11.023 1.27498C11.323 0.974984 11.323 0.524991 11.023 0.224996C10.723 -0.0749988 10.273 -0.0749988 9.97302 0.224996L8.47304 1.72497C8.17305 2.02497 8.17305 2.47496 8.47304 2.77495L9.97302 4.27493C10.273 4.57492 10.723 4.57492 11.023 4.27493C11.323 3.97493 11.323 3.52494 11.023 3.22495Z" fill="white"/>
<path d="M10.4229 18.4498C10.3479 18.3748 10.3479 18.2998 10.2729 18.2248L8.77295 16.7248C8.47296 16.4248 8.02296 16.4248 7.72297 16.7248C7.42297 17.0248 7.42297 17.4748 7.72297 17.7748L7.94797 17.9998H4.49802V14.2499C4.49802 13.7999 4.19803 13.4999 3.74803 13.4999C3.29804 13.4999 2.99805 13.7999 2.99805 14.2499V18.7498C2.99805 19.1998 3.29804 19.4998 3.74803 19.4998H7.94797L7.72297 19.7248C7.42297 20.0248 7.42297 20.4748 7.72297 20.7748C8.02296 21.0748 8.47296 21.0748 8.77295 20.7748L10.2729 19.2748C10.4979 19.0498 10.5729 18.7498 10.4229 18.4498Z" fill="white"/>
</svg>
