<svg width="25" height="22" viewBox="0 0 25 22" fill="none" xmlns="http://www.w3.org/2000/svg">
<path d="M19.5 21.25L17.75 19.5L19.7188 17.5H14.5V15H19.7188L17.75 13L19.5 11.25L24.5 16.25L19.5 21.25ZM0.75 21.25V2.5C0.75 1.8125 0.994792 1.22396 1.48438 0.734375C1.97396 0.244792 2.5625 0 3.25 0H18.25C18.9375 0 19.526 0.244792 20.0156 0.734375C20.5052 1.22396 20.75 1.8125 20.75 2.5V8.84375C20.5417 8.80208 20.3333 8.77604 20.125 8.76562C19.9167 8.75521 19.7083 8.75 19.5 8.75C19.2917 8.75 19.0833 8.75521 18.875 8.76562C18.6667 8.77604 18.4583 8.80208 18.25 8.84375V2.5H3.25V15H12.0938C12.0521 15.2083 12.026 15.4167 12.0156 15.625C12.0052 15.8333 12 16.0417 12 16.25C12 16.4583 12.0052 16.6667 12.0156 16.875C12.026 17.0833 12.0521 17.2917 12.0938 17.5H4.5L0.75 21.25ZM5.75 7.5H15.75V5H5.75V7.5ZM5.75 12.5H12V10H5.75V12.5Z" fill="white"/>
</svg>
