<svg width="87" height="87" viewBox="0 0 87 87" fill="none" xmlns="http://www.w3.org/2000/svg">
<mask id="mask0_190_1350" style="mask-type:alpha" maskUnits="userSpaceOnUse" x="0" y="0" width="87" height="87">
<rect x="0.160156" width="86.4057" height="86.4057" fill="#D9D9D9"/>
</mask>
<g mask="url(#mask0_190_1350)">
<path d="M7.36084 36.0024C7.36084 30.002 8.69593 24.4967 11.3661 19.4863C14.0363 14.476 17.6215 10.3207 22.1218 7.02051L26.3521 12.7809C22.7518 15.4211 19.8867 18.7513 17.7565 22.7715C15.6264 26.7918 14.5613 31.2021 14.5613 36.0024H7.36084ZM72.1651 36.0024C72.1651 31.2021 71.1 26.7918 68.9699 22.7715C66.8397 18.7513 63.9745 15.4211 60.3743 12.7809L64.6046 7.02051C69.1049 10.3207 72.6901 14.476 75.3603 19.4863C78.0305 24.4967 79.3656 30.002 79.3656 36.0024H72.1651ZM14.5613 68.4045V61.2041H21.7618V36.0024C21.7618 31.0221 23.2619 26.5968 26.2621 22.7265C29.2623 18.8563 33.1625 16.3211 37.9628 15.121V12.6009C37.9628 11.1008 38.4879 9.82569 39.5379 8.77562C40.588 7.72555 41.8631 7.20052 43.3632 7.20052C44.8633 7.20052 46.1384 7.72555 47.1884 8.77562C48.2385 9.82569 48.7635 11.1008 48.7635 12.6009V15.121C53.5639 16.3211 57.4641 18.8563 60.4643 22.7265C63.4645 26.5968 64.9646 31.0221 64.9646 36.0024V61.2041H72.1651V68.4045H14.5613ZM43.3632 79.2052C41.3831 79.2052 39.688 78.5002 38.2779 77.0901C36.8678 75.68 36.1627 73.9849 36.1627 72.0048H50.5637C50.5637 73.9849 49.8586 75.68 48.4485 77.0901C47.0384 78.5002 45.3433 79.2052 43.3632 79.2052ZM28.9623 61.2041H57.7641V36.0024C57.7641 32.0421 56.354 28.6519 53.5339 25.8317C50.7137 23.0116 47.3235 21.6015 43.3632 21.6015C39.4029 21.6015 36.0127 23.0116 33.1925 25.8317C30.3723 28.6519 28.9623 32.0421 28.9623 36.0024V61.2041Z" fill="#3570B7"/>
</g>
</svg>
