<svg width="26" height="26" viewBox="0 0 26 26" fill="none" xmlns="http://www.w3.org/2000/svg">
<path d="M20.75 22.2813L18.0938 24.9062L16.3438 23.1562L18.9688 20.5L16.3438 17.8438L18.0938 16.0938L20.75 18.7188L23.4062 16.0938L25.1562 17.8438L22.5313 20.5L25.1562 23.1562L23.4062 24.9062L20.75 22.2813ZM4.5 25.5C3.45833 25.5 2.57292 25.1354 1.84375 24.4062C1.11458 23.6771 0.75 22.7917 0.75 21.75V18H4.5V0.5H23.25V13.4688C22.8542 13.3229 22.4479 13.2135 22.0312 13.1406C21.6146 13.0677 21.1875 13.0313 20.75 13.0313V3H7V18H13.6875C13.5417 18.3958 13.4323 18.8021 13.3594 19.2188C13.2865 19.6354 13.25 20.0625 13.25 20.5H3.25V21.75C3.25 22.1042 3.36979 22.401 3.60938 22.6406C3.84896 22.8802 4.14583 23 4.5 23H13.6875C13.8542 23.4792 14.0625 23.9271 14.3125 24.3438C14.5625 24.7604 14.8542 25.1458 15.1875 25.5H4.5ZM8.25 9.25V6.75H19.5V9.25H8.25ZM8.25 13V10.5H19.5V13H8.25Z" fill="white"/>
</svg>
