<svg width="21" height="21" viewBox="0 0 21 21" fill="none" xmlns="http://www.w3.org/2000/svg">
<path d="M8.25391 18.8984H13.1523C17.2344 18.8984 18.8672 17.2656 18.8672 13.1836V8.28516C18.8672 4.20312 17.2344 2.57031 13.1523 2.57031H8.25391C4.17188 2.57031 2.53906 4.20312 2.53906 8.28516V13.1836C2.53906 17.2656 4.17188 18.8984 8.25391 18.8984Z" stroke="#E23535" stroke-width="1.5" stroke-linecap="round" stroke-linejoin="round"/>
<path d="M15.5203 8.32606C13.7405 8.14645 11.9444 8.05664 10.1565 8.05664C9.09519 8.05664 8.03386 8.11379 6.9807 8.21992L5.88672 8.32606" stroke="#E23535" stroke-width="1.5" stroke-linecap="round" stroke-linejoin="round"/>
<path d="M8.83398 7.7873L8.94828 7.08519C9.02992 6.57902 9.09523 6.19531 10.0014 6.19531H11.4057C12.3119 6.19531 12.3772 6.59535 12.4588 7.08519L12.5731 7.77914" stroke="#E23535" stroke-width="1.5" stroke-linecap="round" stroke-linejoin="round"/>
<path d="M14.3688 8.3916L14.0177 13.7799C13.9606 14.6208 13.9116 15.2739 12.4176 15.2739H8.98051C7.48648 15.2739 7.43749 14.6208 7.38035 13.7799L7.0293 8.3916" stroke="#E23535" stroke-width="1.5" stroke-linecap="round" stroke-linejoin="round"/>
</svg>
