<svg width="17" height="18" viewBox="0 0 17 18" fill="none" xmlns="http://www.w3.org/2000/svg">
<path d="M0.702148 17.6V14.4H16.7021V17.6H0.702148ZM3.90215 11.2H5.02215L11.2621 4.98L10.1221 3.84L3.90215 10.08V11.2ZM2.30215 12.8V9.4L11.2621 0.46C11.4088 0.313333 11.5788 0.2 11.7721 0.12C11.9655 0.04 12.1688 0 12.3821 0C12.5955 0 12.8021 0.04 13.0021 0.12C13.2021 0.2 13.3821 0.32 13.5421 0.48L14.6421 1.6C14.8021 1.74667 14.9188 1.92 14.9921 2.12C15.0655 2.32 15.1021 2.52667 15.1021 2.74C15.1021 2.94 15.0655 3.13667 14.9921 3.33C14.9188 3.52333 14.8021 3.7 14.6421 3.86L5.70215 12.8H2.30215Z" fill="white"/>
</svg>
