<svg width="16" height="17" viewBox="0 0 16 17" fill="none" xmlns="http://www.w3.org/2000/svg">
<path d="M10.0833 13.3333C9.5 13.3333 9.00694 13.1319 8.60417 12.7292C8.20139 12.3264 8 11.8333 8 11.25C8 10.6667 8.20139 10.1736 8.60417 9.77083C9.00694 9.36806 9.5 9.16667 10.0833 9.16667C10.6667 9.16667 11.1597 9.36806 11.5625 9.77083C11.9653 10.1736 12.1667 10.6667 12.1667 11.25C12.1667 11.8333 11.9653 12.3264 11.5625 12.7292C11.1597 13.1319 10.6667 13.3333 10.0833 13.3333ZM2.16667 16.6667C1.70833 16.6667 1.31597 16.5035 0.989583 16.1771C0.663194 15.8507 0.5 15.4583 0.5 15V3.33333C0.5 2.875 0.663194 2.48264 0.989583 2.15625C1.31597 1.82986 1.70833 1.66667 2.16667 1.66667H3V0H4.66667V1.66667H11.3333V0H13V1.66667H13.8333C14.2917 1.66667 14.684 1.82986 15.0104 2.15625C15.3368 2.48264 15.5 2.875 15.5 3.33333V15C15.5 15.4583 15.3368 15.8507 15.0104 16.1771C14.684 16.5035 14.2917 16.6667 13.8333 16.6667H2.16667ZM2.16667 15H13.8333V6.66667H2.16667V15ZM2.16667 5H13.8333V3.33333H2.16667V5Z" fill="white"/>
</svg>
