<svg width="16" height="18" viewBox="0 0 16 18" fill="none" xmlns="http://www.w3.org/2000/svg">
<path fill-rule="evenodd" clip-rule="evenodd" d="M13 2.33335H12.1667V1.50002C12.1667 1.27901 12.0789 1.06704 11.9226 0.910765C11.7663 0.754484 11.5543 0.666687 11.3333 0.666687C11.1123 0.666687 10.9004 0.754484 10.7441 0.910765C10.5878 1.06704 10.5 1.27901 10.5 1.50002V2.33335H5.5V1.50002C5.5 1.27901 5.4122 1.06704 5.25592 0.910765C5.09964 0.754484 4.88768 0.666687 4.66667 0.666687C4.44565 0.666687 4.23369 0.754484 4.07741 0.910765C3.92113 1.06704 3.83333 1.27901 3.83333 1.50002V2.33335H3C2.33696 2.33335 1.70107 2.59675 1.23223 3.06559C0.763392 3.53443 0.5 4.17031 0.5 4.83335V14.8334C0.5 15.4964 0.763392 16.1323 1.23223 16.6011C1.70107 17.07 2.33696 17.3334 3 17.3334H13C13.663 17.3334 14.2989 17.07 14.7678 16.6011C15.2366 16.1323 15.5 15.4964 15.5 14.8334V4.83335C15.5 4.17031 15.2366 3.53443 14.7678 3.06559C14.2989 2.59675 13.663 2.33335 13 2.33335ZM3 4.00002H3.83333V4.83335C3.83333 5.05437 3.92113 5.26633 4.07741 5.42261C4.23369 5.57889 4.44565 5.66669 4.66667 5.66669C4.88768 5.66669 5.09964 5.57889 5.25592 5.42261C5.4122 5.26633 5.5 5.05437 5.5 4.83335V4.00002H10.5V4.83335C10.5 5.05437 10.5878 5.26633 10.7441 5.42261C10.9004 5.57889 11.1123 5.66669 11.3333 5.66669C11.5543 5.66669 11.7663 5.57889 11.9226 5.42261C12.0789 5.26633 12.1667 5.05437 12.1667 4.83335V4.00002H13C13.221 4.00002 13.433 4.08782 13.5893 4.2441C13.7455 4.40038 13.8333 4.61234 13.8333 4.83335V8.16669H2.16667V4.83335C2.16667 4.61234 2.25446 4.40038 2.41074 4.2441C2.56702 4.08782 2.77899 4.00002 3 4.00002ZM13 15.6667H3C2.77899 15.6667 2.56702 15.5789 2.41074 15.4226C2.25446 15.2663 2.16667 15.0544 2.16667 14.8334V9.83335H13.8333V14.8334C13.8333 15.0544 13.7455 15.2663 13.5893 15.4226C13.433 15.5789 13.221 15.6667 13 15.6667ZM4.66667 13.1667C5.1269 13.1667 5.5 12.7936 5.5 12.3334C5.5 11.8731 5.1269 11.5 4.66667 11.5C4.20643 11.5 3.83333 11.8731 3.83333 12.3334C3.83333 12.7936 4.20643 13.1667 4.66667 13.1667ZM8 11.5H11.3333C11.5543 11.5 11.7663 11.5878 11.9226 11.7441C12.0789 11.9004 12.1667 12.1123 12.1667 12.3334C12.1667 12.5544 12.0789 12.7663 11.9226 12.9226C11.7663 13.0789 11.5543 13.1667 11.3333 13.1667H8C7.77899 13.1667 7.56703 13.0789 7.41074 12.9226C7.25446 12.7663 7.16667 12.5544 7.16667 12.3334C7.16667 12.1123 7.25446 11.9004 7.41074 11.7441C7.56703 11.5878 7.77899 11.5 8 11.5Z" fill="#646466"/>
</svg>
