<svg width="20" height="20" viewBox="0 0 20 20" fill="none" xmlns="http://www.w3.org/2000/svg">
<g clip-path="url(#clip0_190_815)">
<path d="M20 10C20 4.47715 15.5228 0 10 0C4.47715 0 0 4.47715 0 10C0 15.5228 4.47715 20 10 20C15.5228 20 20 15.5228 20 10Z" fill="#C6C6C6"/>
<path d="M14.3542 13.28C14.3899 13.3154 14.4183 13.3575 14.4376 13.404C14.457 13.4504 14.4669 13.5002 14.4669 13.5505C14.4669 13.6008 14.457 13.6506 14.4376 13.697C14.4183 13.7434 14.3899 13.7856 14.3542 13.821L13.8212 14.354C13.7858 14.3897 13.7437 14.418 13.6972 14.4374C13.6508 14.4567 13.601 14.4667 13.5507 14.4667C13.5004 14.4667 13.4506 14.4567 13.4042 14.4374C13.3578 14.418 13.3157 14.3897 13.2802 14.354L9.89923 10.973L6.51723 14.354C6.48181 14.3897 6.43968 14.418 6.39325 14.4374C6.34682 14.4567 6.29703 14.4667 6.24673 14.4667C6.19644 14.4667 6.14664 14.4567 6.10021 14.4374C6.05379 14.418 6.01165 14.3897 5.97623 14.354L5.44423 13.821C5.40852 13.7856 5.38018 13.7434 5.36084 13.697C5.3415 13.6506 5.33154 13.6008 5.33154 13.5505C5.33154 13.5002 5.3415 13.4504 5.36084 13.404C5.38018 13.3575 5.40852 13.3154 5.44423 13.28L8.82523 9.89899L5.44423 6.51699C5.40852 6.48157 5.38018 6.43943 5.36084 6.39301C5.3415 6.34658 5.33154 6.29678 5.33154 6.24649C5.33154 6.19619 5.3415 6.1464 5.36084 6.09997C5.38018 6.05354 5.40852 6.01141 5.44423 5.97599L5.97723 5.44399C6.01265 5.40828 6.05479 5.37994 6.10121 5.3606C6.14764 5.34126 6.19744 5.3313 6.24773 5.3313C6.29803 5.3313 6.34782 5.34126 6.39425 5.3606C6.44068 5.37994 6.48281 5.40828 6.51823 5.44399L9.89923 8.82499L13.2802 5.44399C13.3157 5.40828 13.3578 5.37994 13.4042 5.3606C13.4506 5.34126 13.5004 5.3313 13.5507 5.3313C13.601 5.3313 13.6508 5.34126 13.6972 5.3606C13.7437 5.37994 13.7858 5.40828 13.8212 5.44399L14.3542 5.97699C14.3899 6.01241 14.4183 6.05454 14.4376 6.10097C14.457 6.1474 14.4669 6.19719 14.4669 6.24749C14.4669 6.29778 14.457 6.34758 14.4376 6.39401C14.4183 6.44043 14.3899 6.48257 14.3542 6.51799L10.9732 9.89899L14.3542 13.28Z" fill="#FAFAFA"/>
</g>
<defs>
<clipPath id="clip0_190_815">
<rect width="20" height="20" fill="white"/>
</clipPath>
</defs>
</svg>
