<svg width="31" height="24" viewBox="0 0 31 24" fill="none" xmlns="http://www.w3.org/2000/svg">
<path d="M19.0769 21.3404C21.5314 21.3404 23.8865 20.3678 25.6221 18.6363C27.3577 16.9047 28.3326 14.5551 28.3326 12.1063C28.3326 9.65752 27.3577 7.30789 25.6221 5.57634C23.8865 3.84478 21.5314 2.87221 19.0769 2.87221C16.6223 2.87221 14.2672 3.84482 12.5316 5.57634C10.796 7.30786 9.82115 9.65752 9.82115 12.1063C9.82403 14.5551 10.8004 16.9021 12.5345 18.6333C14.27 20.3634 16.6223 21.3375 19.0769 21.3404ZM18.5017 4.04541V4.70817C18.5017 5.02521 18.7591 5.28199 19.0769 5.28199C19.3946 5.28199 19.652 5.02521 19.652 4.70817V4.04541C21.5831 4.18456 23.4023 5.00799 24.7768 6.36793C26.1528 7.72787 26.9954 9.53398 27.1522 11.459H26.4203C26.1025 11.459 25.8451 11.7158 25.8451 12.0329C25.8451 12.3499 26.1025 12.6067 26.4203 12.6067H27.1608H27.1593C27.0357 14.5605 26.2075 16.401 24.8271 17.791C23.4467 19.1811 21.6076 20.0246 19.6519 20.1667V19.3748C19.6519 19.0578 19.3945 18.801 19.0767 18.801C18.759 18.801 18.5016 19.0578 18.5016 19.3748V20.1825V20.181C16.5432 20.039 14.7042 19.1941 13.3238 17.8011C11.9434 16.4082 11.1167 14.5619 10.9973 12.6064H11.7335C12.0513 12.6064 12.3087 12.3497 12.3087 12.0326C12.3087 11.7156 12.0513 11.4588 11.7335 11.4588H11.0045H11.0059C11.1627 9.53364 12.0038 7.72908 13.3785 6.36918C14.7545 5.00924 16.5706 4.18599 18.5017 4.04541ZM30.9984 12.106C30.9956 15.2592 29.7374 18.2831 27.5029 20.5126C25.2684 22.7422 22.2372 23.9971 19.0766 24H6.74075C6.42297 24 6.16559 23.7432 6.16559 23.4262C6.16559 23.1091 6.42297 22.8524 6.74075 22.8524H19.0766C21.9337 22.8524 24.6729 21.722 26.6945 19.7064C28.7148 17.6923 29.8507 14.9594 29.8507 12.1089C29.8522 9.25844 28.7177 6.52419 26.6974 4.50876C24.6786 2.49322 21.9378 1.36137 19.0821 1.35994C16.225 1.35994 13.4843 2.49178 11.4642 4.50733C9.44392 6.52287 8.30942 9.25579 8.30942 12.106C8.30942 12.423 8.05204 12.6798 7.73426 12.6798C7.41649 12.6798 7.1591 12.423 7.1591 12.106C7.10158 8.91554 8.33243 5.83565 10.5741 3.55911C12.8143 1.28249 15.8799 0 19.078 0C22.2774 0 25.3417 1.28249 27.5831 3.55911C29.8247 5.83572 31.056 8.9158 30.9984 12.106ZM18.6353 12.4891C18.5462 12.3815 18.4987 12.2452 18.5016 12.106V7.48832C18.5016 7.17128 18.759 6.9145 19.0767 6.9145C19.3945 6.9145 19.6519 7.17128 19.6519 7.48832V11.8997L21.4809 14.0845C21.5802 14.2007 21.6276 14.3527 21.6132 14.5048C21.6003 14.6568 21.5255 14.7974 21.4076 14.895C21.2911 14.9925 21.1402 15.0413 20.9878 15.0269C20.8368 15.014 20.6959 14.9394 20.5995 14.8218L18.6353 12.4891ZM11.2158 20.0866C11.5336 20.0866 11.791 20.3434 11.791 20.6604C11.791 20.9775 11.5336 21.2343 11.2158 21.2343H10.7169H10.7183C10.4005 21.2343 10.1431 20.9775 10.1431 20.6604C10.1431 20.3434 10.4005 20.0866 10.7183 20.0866H11.2158ZM3.96161 20.6604C3.96161 20.3434 4.21899 20.0866 4.53677 20.0866H8.75413C9.07191 20.0866 9.32929 20.3434 9.32929 20.6604C9.32929 20.9775 9.07191 21.2343 8.75413 21.2343H4.53677C4.21899 21.2343 3.96161 20.9775 3.96161 20.6604ZM9.41395 17.8946C9.41395 18.2117 9.15657 18.4685 8.83879 18.4685H5.64089C5.32312 18.4685 5.06573 18.2117 5.06573 17.8946C5.06573 17.5776 5.32312 17.3208 5.64089 17.3208H8.83879C8.99121 17.3208 9.13788 17.3811 9.24573 17.4887C9.35359 17.5963 9.41395 17.7426 9.41395 17.8946ZM4.23768 17.8946C4.23768 18.2117 3.9803 18.4685 3.66252 18.4685H2.15992C1.84215 18.4685 1.58476 18.2117 1.58476 17.8946C1.58476 17.5776 1.84215 17.3208 2.15992 17.3208H3.66252C3.81494 17.3208 3.96161 17.3811 4.06946 17.4887C4.17731 17.5963 4.23768 17.7426 4.23768 17.8946ZM7.831 15.1289C7.831 15.4459 7.57361 15.7027 7.25584 15.7027H6.1544C5.83662 15.7027 5.57924 15.4459 5.57924 15.1289C5.57924 14.8118 5.83662 14.555 6.1544 14.555H7.25584C7.57361 14.555 7.831 14.8118 7.831 15.1289ZM0 15.1289C0 14.8118 0.257385 14.555 0.575162 14.555H4.17566C4.49343 14.555 4.75082 14.8118 4.75082 15.1289C4.75082 15.4459 4.49343 15.7027 4.17566 15.7027H0.575162C0.257385 15.7027 0 15.4459 0 15.1289Z" fill="white"/>
</svg>
