<svg width="14" height="35" viewBox="0 0 14 35" fill="none" xmlns="http://www.w3.org/2000/svg">
<path d="M12.9791 5.1172L8.5789 0.717214C8.35157 0.489832 8.08168 0.309461 7.78463 0.1864C7.48759 0.0633389 7.16921 0 6.84768 0C6.52615 0 6.20777 0.0633389 5.91073 0.1864C5.61368 0.309461 5.34379 0.489832 5.11646 0.717214L0.717027 5.11684C0.374628 5.45931 0.141464 5.89562 0.0470191 6.3706C-0.0474259 6.84558 0.00108887 7.3379 0.186428 7.7853C0.371768 8.23271 0.68561 8.61512 1.08827 8.88417C1.49093 9.15322 1.96433 9.29684 2.44861 9.29686C2.77035 9.29765 3.08942 9.23462 3.38665 9.11141C3.68387 8.98821 3.95371 8.80728 4.18055 8.5791L4.40359 8.35587V11.9595C4.40361 12.1558 4.48161 12.3441 4.62045 12.483C4.75928 12.6218 4.94758 12.6998 5.14392 12.6998H8.55178C8.74812 12.6998 8.93642 12.6218 9.07526 12.483C9.21409 12.3441 9.2921 12.1558 9.29211 11.9595V8.35515L9.5166 8.57982C9.74343 8.80787 10.0132 8.98866 10.3104 9.11174C10.6076 9.23482 10.9262 9.29774 11.2479 9.29686C11.5696 9.29764 11.8886 9.23462 12.1859 9.11145C12.4831 8.98828 12.7529 8.80741 12.9798 8.57928C13.438 8.11969 13.6952 7.49697 13.6951 6.848C13.6949 6.19903 13.4374 5.57661 12.9791 5.1172ZM11.9322 7.53256C11.7478 7.70861 11.5028 7.80686 11.2479 7.80689C10.993 7.80693 10.7479 7.70874 10.5635 7.53274L9.07523 6.04427C8.9717 5.94072 8.83979 5.8702 8.69619 5.84163C8.55258 5.81305 8.40372 5.82771 8.26844 5.88374C8.13316 5.93977 8.01753 6.03466 7.93619 6.15641C7.85484 6.27816 7.81142 6.42129 7.81143 6.56772V11.2191H5.88428V6.56772C5.88424 6.42128 5.84077 6.27813 5.75938 6.15639C5.67798 6.03465 5.56232 5.93978 5.42701 5.88377C5.2917 5.82776 5.14282 5.81313 4.99919 5.84173C4.85557 5.87033 4.72365 5.94088 4.62012 6.04445L3.13291 7.53238C2.94854 7.70849 2.70338 7.80676 2.44841 7.80676C2.19345 7.80676 1.94829 7.70849 1.76391 7.53238C1.58244 7.35088 1.4805 7.10473 1.4805 6.84806C1.4805 6.5914 1.58244 6.34525 1.76391 6.16375L6.16334 1.76432C6.34767 1.58827 6.59274 1.49002 6.84763 1.48998C7.10251 1.48995 7.34761 1.58813 7.53198 1.76413L11.9321 6.16412C12.1132 6.34579 12.2149 6.59183 12.2149 6.84834C12.2149 7.10484 12.1133 7.35089 11.9322 7.53256Z" fill="white"/>
<path d="M11.2478 30.6532C11.5695 30.654 11.8885 30.591 12.1858 30.4678C12.483 30.3446 12.7528 30.1638 12.9797 29.9356C13.4379 29.476 13.6951 28.8533 13.695 28.2044C13.6948 27.5554 13.4374 26.933 12.979 26.4736L8.57881 22.0736C8.11929 21.6151 7.49669 21.3577 6.84759 21.3577C6.19849 21.3577 5.57589 21.6151 5.11637 22.0736L0.716937 26.4732C0.48959 26.7006 0.309263 26.9706 0.186251 27.2677C0.0632386 27.5648 -5.02751e-05 27.8832 2.99652e-08 28.2048C5.03351e-05 28.5264 0.0634379 28.8448 0.186543 29.1418C0.309648 29.4389 0.49006 29.7088 0.717479 29.9362C0.944897 30.1635 1.21487 30.3439 1.51198 30.4669C1.80909 30.5899 2.12751 30.6532 2.44908 30.6531C2.77065 30.6531 3.08906 30.5897 3.38613 30.4666C3.6832 30.3435 3.95311 30.1631 4.18046 29.9356L4.4035 29.7124V33.3159C4.40352 33.5122 4.48152 33.7005 4.62036 33.8393C4.7592 33.9782 4.9475 34.0562 5.14385 34.0562H8.5517C8.74804 34.0562 8.93634 33.9782 9.07518 33.8393C9.21401 33.7005 9.29202 33.5122 9.29203 33.3159V29.7115L9.51652 29.9362C9.74335 30.1642 10.0132 30.345 10.3103 30.4681C10.6075 30.5912 10.9261 30.6541 11.2478 30.6532ZM9.07514 27.4006C8.97161 27.2971 8.8397 27.2266 8.69609 27.198C8.55249 27.1694 8.40363 27.1841 8.26835 27.2401C8.13307 27.2961 8.01744 27.391 7.9361 27.5128C7.85475 27.6345 7.81133 27.7777 7.81134 27.9241V32.5755H5.88419V27.9241C5.88415 27.7776 5.84068 27.6345 5.75929 27.5127C5.67789 27.391 5.56223 27.2961 5.42692 27.2401C5.29161 27.1841 5.14273 27.1695 4.9991 27.1981C4.85548 27.2267 4.72356 27.2972 4.62003 27.4008L3.13282 28.8889C2.94842 29.065 2.70325 29.1632 2.44828 29.1632C2.19332 29.1632 1.94817 29.0649 1.76382 28.8887C1.58273 28.707 1.48104 28.461 1.48104 28.2044C1.48104 27.9479 1.58273 27.7018 1.76382 27.5201L6.16325 23.1207C6.34489 22.9395 6.59097 22.8377 6.84753 22.8377C7.1041 22.8376 7.35021 22.9393 7.53189 23.1205L11.9321 27.5205C12.1131 27.7021 12.2148 27.9482 12.2148 28.2047C12.2148 28.4612 12.1131 28.7072 11.9321 28.8889C11.7477 29.065 11.5027 29.1632 11.2478 29.1632C10.9929 29.1633 10.7478 29.0651 10.5634 28.8891L9.07514 27.4006Z" fill="white"/>
</svg>
