<svg width="27" height="25" viewBox="0 0 27 25" fill="none" xmlns="http://www.w3.org/2000/svg">
<path d="M17.412 5.14698C16.6153 4.9651 15.7993 5.14751 15.172 5.6474C14.5455 6.1473 14.186 6.89289 14.186 7.69378C14.186 7.99479 14.4299 8.23835 14.7306 8.23835C15.0313 8.23835 15.2752 7.99479 15.2752 7.69378C15.2752 7.22633 15.485 6.79078 15.8511 6.49882C16.2228 6.20261 16.6914 6.09997 17.1697 6.20846C17.714 6.3329 18.1634 6.78227 18.2876 7.32684C18.4825 8.18039 17.973 8.8712 17.3689 9.11264C16.7044 9.37801 16.2579 10.0694 16.2579 10.8325V11.994C16.2579 12.295 16.5018 12.5385 16.8025 12.5385C17.1032 12.5385 17.3471 12.295 17.3471 11.994V10.8325C17.3471 10.5108 17.5183 10.2257 17.7731 10.1241C18.9787 9.64231 19.6415 8.36386 19.3496 7.08434C19.1305 6.12603 18.37 5.36502 17.412 5.14698Z" fill="white"/>
<path d="M16.8024 13.3247C16.5016 13.3247 16.2578 13.5683 16.2578 13.8693V14.3474C16.2578 14.6484 16.5016 14.8919 16.8024 14.8919C17.1031 14.8919 17.3469 14.6484 17.3469 14.3474V13.8693C17.3469 13.5683 17.1031 13.3247 16.8024 13.3247Z" fill="white"/>
<path d="M25.8063 20.8797L23.6706 17.1682C23.5204 16.9076 23.1877 16.8188 22.9271 16.9677L22.7616 17.063L21.9876 15.7174C23.5505 14.3007 24.5396 12.262 24.5396 9.99153C24.5396 6.85216 22.6569 4.1489 19.9639 2.93702V1.6337C19.9639 0.732826 19.2311 0 18.3302 0H1.6337C0.732826 0 0 0.732826 0 1.6337V18.8966C0 19.104 0.117529 19.2933 0.303394 19.3848C0.379708 19.4225 0.462404 19.4412 0.544567 19.4412C0.66183 19.4412 0.778561 19.4034 0.875349 19.3289L6.52337 15.008H10.923C12.3432 16.67 14.4499 17.7288 16.8023 17.7288C17.6209 17.7288 18.4091 17.5988 19.1501 17.3621L19.9218 18.6969L19.756 18.7924C19.6307 18.8647 19.5393 18.9833 19.5018 19.1231C19.464 19.2625 19.4834 19.4108 19.5555 19.5364L21.6912 23.2478C22.1137 23.9817 22.9027 24.438 23.7504 24.438C24.1638 24.438 24.5728 24.3284 24.9326 24.1216C25.4822 23.8051 25.876 23.2941 26.0408 22.6814C26.206 22.0693 26.1227 21.4296 25.8063 20.8797ZM6.33884 13.9189C6.21918 13.9189 6.10298 13.9583 6.00806 14.0311L1.08913 17.7942V1.6337C1.08913 1.33323 1.3335 1.08913 1.6337 1.08913H18.3302C18.6355 1.08913 18.8748 1.32845 18.8748 1.6337V2.54455C18.2141 2.36035 17.521 2.25432 16.8023 2.25432C15.1112 2.25432 13.55 2.806 12.2755 3.73007H3.64312C3.34239 3.73007 3.09856 3.97364 3.09856 4.27464C3.09856 4.57564 3.34239 4.81921 3.64312 4.81921H11.0647C10.4959 5.44953 10.0237 6.1682 9.68525 6.95972H3.64312C3.34239 6.95972 3.09856 7.20329 3.09856 7.50429C3.09856 7.80529 3.34239 8.04885 3.64312 8.04885H9.32193C9.16016 8.6709 9.06513 9.31957 9.06513 9.99153C9.06513 10.0563 9.07327 10.1191 9.07487 10.1835H3.64312C3.34239 10.1835 3.09856 10.4271 3.09856 10.7281C3.09856 11.0291 3.34239 11.2726 3.64312 11.2726H9.18033C9.34007 12.2252 9.67288 13.1174 10.1478 13.9189H6.33884ZM10.1543 9.99153C10.1543 6.32581 13.1366 3.34345 16.8023 3.34345C20.4681 3.34345 23.4504 6.32581 23.4504 9.99153C23.4504 13.6573 20.4681 16.6396 16.8023 16.6396C13.1366 16.6396 10.1543 13.6573 10.1543 9.99153ZM20.1686 16.9473C20.5002 16.7861 20.8232 16.6098 21.1263 16.4048L21.8174 17.6063L20.8661 18.1536L20.1686 16.9473ZM24.9892 22.3985C24.9001 22.7298 24.6871 23.0064 24.3893 23.1776C23.7929 23.5201 22.9745 23.2951 22.6352 22.7043L20.7712 19.4651L21.5057 19.0424L22.8327 18.2797C22.8341 18.2789 22.8349 18.2774 22.8363 18.2766L22.9981 18.1834L24.8624 21.4232C25.0336 21.7205 25.0785 22.0667 24.9892 22.3985Z" fill="white"/>
</svg>
