<svg width="25" height="26" viewBox="0 0 25 26" fill="none" xmlns="http://www.w3.org/2000/svg">
<path d="M12.0201 4.90997C8.71009 4.90997 6.02009 7.59997 6.02009 10.91V13.8C6.02009 14.41 5.76009 15.34 5.45009 15.86L4.30009 17.77C3.59009 18.95 4.08009 20.26 5.38009 20.7C9.69009 22.14 14.3401 22.14 18.6501 20.7C19.8601 20.3 20.3901 18.87 19.7301 17.77L18.5801 15.86C18.2801 15.34 18.0201 14.41 18.0201 13.8V10.91C18.0201 7.60997 15.3201 4.90997 12.0201 4.90997Z" stroke="white" stroke-width="1.5" stroke-miterlimit="10" stroke-linecap="round"/>
<path d="M13.8699 5.20043C13.5599 5.11043 13.2399 5.04043 12.9099 5.00043C11.9499 4.88043 11.0299 4.95043 10.1699 5.20043C10.4599 4.46043 11.1799 3.94043 12.0199 3.94043C12.8599 3.94043 13.5799 4.46043 13.8699 5.20043Z" stroke="white" stroke-width="1.5" stroke-miterlimit="10" stroke-linecap="round" stroke-linejoin="round"/>
<path d="M15.02 21.0596C15.02 22.7096 13.67 24.0596 12.02 24.0596C11.2 24.0596 10.44 23.7196 9.90002 23.1796C9.36002 22.6396 9.02002 21.8796 9.02002 21.0596" stroke="white" stroke-width="1.5" stroke-miterlimit="10"/>
<circle cx="19" cy="6" r="6" fill="#CC0000"/>
<path d="M19.1741 9.1C18.9274 9.1 18.6674 9.08333 18.3941 9.05C18.1207 9.02333 17.8641 8.99 17.6241 8.95C17.3841 8.91 17.1841 8.87 17.0241 8.83L17.0941 8.12C17.2474 8.14667 17.4341 8.17667 17.6541 8.21C17.8807 8.24333 18.1207 8.27333 18.3741 8.3C18.6274 8.32 18.8641 8.33 19.0841 8.33C19.5507 8.33 19.8941 8.23 20.1141 8.03C20.3407 7.83 20.4541 7.53 20.4541 7.13C20.4541 6.84333 20.3974 6.61667 20.2841 6.45C20.1707 6.28333 20.0141 6.16 19.8141 6.08C19.6207 6 19.4041 5.95667 19.1641 5.95H17.8241V5.21H19.1541C19.3207 5.21 19.4907 5.16667 19.6641 5.08C19.8441 4.98667 19.9941 4.85667 20.1141 4.69C20.2407 4.51667 20.3041 4.31 20.3041 4.07C20.3041 3.71 20.2041 3.45333 20.0041 3.3C19.8041 3.14 19.4707 3.06 19.0041 3.06C18.7907 3.06 18.5674 3.07333 18.3341 3.1C18.1074 3.12 17.8907 3.14667 17.6841 3.18C17.4841 3.20667 17.3174 3.23667 17.1841 3.27L17.1141 2.57C17.2541 2.53 17.4274 2.49 17.6341 2.45C17.8474 2.40333 18.0741 2.36667 18.3141 2.34C18.5607 2.30667 18.8041 2.29 19.0441 2.29C19.5774 2.29 20.0007 2.35333 20.3141 2.48C20.6274 2.6 20.8541 2.78667 20.9941 3.04C21.1341 3.29333 21.2041 3.62 21.2041 4.02C21.2041 4.26667 21.1641 4.48 21.0841 4.66C21.0107 4.83333 20.9174 4.98 20.8041 5.1C20.6974 5.21333 20.5907 5.30333 20.4841 5.37C20.3841 5.43667 20.3041 5.48667 20.2441 5.52C20.4707 5.6 20.6674 5.69667 20.8341 5.81C21.0007 5.92333 21.1307 6.08 21.2241 6.28C21.3174 6.48 21.3641 6.75333 21.3641 7.1C21.3641 7.55333 21.2874 7.93 21.1341 8.23C20.9807 8.52333 20.7407 8.74333 20.4141 8.89C20.0941 9.03 19.6807 9.1 19.1741 9.1Z" fill="white"/>
</svg>
