<svg width="24" height="20" viewBox="0 0 24 20" fill="none" xmlns="http://www.w3.org/2000/svg">
<path d="M22.464 16.5689L24 19.082L18.5891 16.5689H8.81467C7.97686 16.5689 7.27869 15.8804 7.27869 15.0541V13.264H18.3797C19.3571 13.264 20.16 12.5066 20.16 11.5771V5.31152H22.464C22.7782 5.31152 23.0575 5.38038 23.2669 5.55251C23.6858 5.82792 23.9651 6.30988 23.9651 6.8607V15.0886C23.9651 15.6394 23.6858 16.1214 23.2669 16.3968C23.0225 16.5 22.7433 16.5689 22.464 16.5689Z" fill="#3570B7"/>
<path d="M17.2214 0H1.72552C1.38718 0 1.08268 0.101501 0.812009 0.270669C0.338337 0.575173 0 1.08268 0 1.69168V10.7253C0 11.3343 0.338337 11.8418 0.812009 12.1463C1.08268 12.3155 1.38718 12.3831 1.72552 12.3831H1.75935L0 15.1237L6.1239 12.3831H17.1875C18.1349 12.3831 18.913 11.6388 18.913 10.7253V1.65785C18.9469 0.744341 18.1687 0 17.2214 0ZM6.46224 6.56374C6.25923 6.83441 5.95473 7.00357 5.61639 7.00357C5.04122 7.00357 4.56755 6.5299 4.56755 5.95473C4.56755 5.37956 5.04122 4.90589 5.61639 4.90589C6.0224 4.90589 6.39457 5.14272 6.56374 5.51489C6.63141 5.65023 6.66524 5.78556 6.66524 5.95473C6.6314 6.2254 6.56374 6.39457 6.46224 6.56374ZM10.3869 7.03741C9.81177 7.03741 9.3381 6.56374 9.3381 5.98856C9.3381 5.41339 9.81177 4.93972 10.3869 4.93972C10.9621 4.93972 11.4358 5.41339 11.4358 5.98856C11.4358 6.56374 10.996 7.03741 10.3869 7.03741ZM15.2252 7.03741C14.65 7.03741 14.1763 6.56374 14.1763 5.98856C14.1763 5.41339 14.65 4.93972 15.2252 4.93972C15.8003 4.93972 16.274 5.41339 16.274 5.98856C16.274 6.56374 15.8003 7.03741 15.2252 7.03741Z" fill="#3570B7"/>
</svg>
