<svg width="27" height="20" viewBox="0 0 27 20" fill="none" xmlns="http://www.w3.org/2000/svg">
<path d="M8.31677 17.2297C8.11804 17.2297 7.95544 17.0671 7.95544 16.8684C7.95544 16.6697 8.11804 16.5071 8.31677 16.5071H13.3213C13.52 16.5071 13.6826 16.6697 13.6826 16.8684C13.6826 17.0671 13.52 17.2297 13.3213 17.2297H8.31677ZM8.31677 3.51701C8.11804 3.51701 7.95544 3.35441 7.95544 3.15568C7.95544 2.95694 8.11804 2.79434 8.31677 2.79434H14.8329C15.0316 2.79434 15.1942 2.95694 15.1942 3.15568C15.1942 3.35441 15.0316 3.51701 14.8329 3.51701H8.31677ZM2.84854 12.8997V11.2075C2.84854 10.7678 3.23999 10.4306 3.67961 10.4306H5.60072C6.04035 10.4306 6.4318 10.7618 6.4318 11.2075V12.8997C6.4318 13.3394 6.04035 13.6766 5.60072 13.6766H3.67961C3.23999 13.6766 2.84854 13.3394 2.84854 12.8997ZM3.57121 11.2075V12.8997C3.57121 12.9178 3.62541 12.9539 3.67961 12.9539H5.60072C5.65492 12.9539 5.70912 12.9178 5.70912 12.8997V11.2075C5.70912 11.1894 5.65492 11.1533 5.60072 11.1533H3.67961C3.61939 11.1533 3.57121 11.1894 3.57121 11.2075ZM2.84854 4.02288V2.33062C2.84854 1.891 3.23999 1.55375 3.67961 1.55375H5.60072C6.04035 1.55375 6.4318 1.88497 6.4318 2.33062V4.02288C6.4318 4.46251 6.04035 4.79976 5.60072 4.79976H3.67961C3.23999 4.79976 2.84854 4.46251 2.84854 4.02288ZM3.57121 2.33062V4.02288C3.57121 4.04095 3.62541 4.07709 3.67961 4.07709H5.60072C5.65492 4.07709 5.70912 4.04697 5.70912 4.02288V2.33062C5.70912 2.31256 5.65492 2.27642 5.60072 2.27642H3.67961C3.61939 2.27642 3.57121 2.31256 3.57121 2.33062ZM2.84854 8.46131V6.76905C2.84854 6.32942 3.23999 5.99217 3.67961 5.99217H5.60072C6.04035 5.99217 6.4318 6.3234 6.4318 6.76905V8.46131C6.4318 8.90093 6.04035 9.23818 5.60072 9.23818H3.67961C3.23999 9.23818 2.84854 8.90093 2.84854 8.46131ZM3.57121 6.76905V8.46131C3.57121 8.47937 3.62541 8.51551 3.67961 8.51551H5.60072C5.65492 8.51551 5.70912 8.47937 5.70912 8.46131V6.76905C5.70912 6.75098 5.65492 6.71484 5.60072 6.71484H3.67961C3.61939 6.71484 3.57121 6.75098 3.57121 6.76905ZM2.84854 17.3382V15.6459C2.84854 15.2063 3.23999 14.869 3.67961 14.869H5.60072C6.04035 14.869 6.4318 15.2002 6.4318 15.6459V17.3382C6.4318 17.7778 6.04035 18.115 5.60072 18.115H3.67961C3.23999 18.115 2.84854 17.7838 2.84854 17.3382ZM3.57121 15.6459V17.3382C3.57121 17.3562 3.62541 17.3924 3.67961 17.3924H5.60072C5.65492 17.3924 5.70912 17.3622 5.70912 17.3382V15.6459C5.70912 15.6278 5.65492 15.5917 5.60072 15.5917H3.67961C3.61939 15.5917 3.57121 15.6278 3.57121 15.6459ZM24.5468 5.60674H10.4848C9.47907 5.60674 8.65402 6.4318 8.65402 7.43752V12.6829C8.65402 13.6886 9.47907 14.5137 10.4848 14.5137H18.2897C18.4884 14.5137 18.651 14.6763 18.651 14.875V17.4285L20.6504 14.6763C20.7106 14.5739 20.8251 14.5137 20.9515 14.5137H24.5468C25.5525 14.5137 26.3776 13.6886 26.3776 12.6829V7.43752C26.3776 6.4318 25.5525 5.60674 24.5468 5.60674ZM10.4848 4.88407H17.9283V1.07799C17.9283 0.487805 17.4405 0 16.8503 0H1.07799C0.487805 0 0 0.487805 0 1.07799V18.922C0 19.5182 0.487805 20 1.07799 20H16.8503C17.4405 20 17.9283 19.5122 17.9283 18.922V15.2304H10.4848C9.0816 15.2304 7.93135 14.0861 7.93135 12.6769V7.4315C7.93135 6.03433 9.0816 4.88407 10.4848 4.88407ZM10.9124 9.27431C10.7136 9.27431 10.551 9.11171 10.551 8.91298C10.551 8.71424 10.7136 8.55164 10.9124 8.55164H12.3939C12.5926 8.55164 12.7552 8.71424 12.7552 8.91298C12.7552 9.11171 12.5926 9.27431 12.3939 9.27431H10.9124ZM18.7955 8.55164C18.9943 8.55164 19.1569 8.71424 19.1569 8.91298C19.1569 9.11171 18.9943 9.27431 18.7955 9.27431H14.0139C13.8151 9.27431 13.6525 9.11171 13.6525 8.91298C13.6525 8.71424 13.8151 8.55164 14.0139 8.55164H18.7955ZM18.7955 11.2195C18.9943 11.2195 19.1569 11.3821 19.1569 11.5808C19.1569 11.7796 18.9943 11.9422 18.7955 11.9422H17.3141C17.1153 11.9422 16.9527 11.7796 16.9527 11.5808C16.9527 11.3821 17.1153 11.2195 17.3141 11.2195H18.7955ZM10.9124 11.9422C10.7136 11.9422 10.551 11.7796 10.551 11.5808C10.551 11.3821 10.7136 11.2195 10.9124 11.2195H15.6941C15.8928 11.2195 16.0554 11.3821 16.0554 11.5808C16.0554 11.7796 15.8928 11.9422 15.6941 11.9422H10.9124ZM22.6257 12.5023C22.6257 12.3035 22.7883 12.1409 22.9871 12.1409C23.1858 12.1409 23.3484 12.3035 23.3484 12.5023V12.6649C23.3484 12.8636 23.1858 13.0262 22.9871 13.0262C22.7883 13.0262 22.6257 12.8636 22.6257 12.6649V12.5023ZM21.9693 8.88889C21.9693 9.08762 21.8067 9.25023 21.6079 9.25023C21.4092 9.25023 21.2466 9.08762 21.2466 8.88889C21.2466 7.34116 23.1256 6.56429 24.2216 7.66034C24.9322 8.37097 24.8961 9.53327 24.1373 10.2017C24.0048 10.3162 23.8723 10.4246 23.7579 10.5149C23.3183 10.8702 23.3544 10.8642 23.3544 11.2135C23.3544 11.4122 23.1918 11.5748 22.9931 11.5748C22.7943 11.5748 22.6317 11.4122 22.6317 11.2135V10.9967C22.6317 10.4968 22.8847 10.2921 23.3123 9.95483C23.6676 9.67179 24.0108 9.43089 24.0108 8.89491C24.0108 7.99157 22.9148 7.53388 22.2704 8.17224C22.0837 8.35291 21.9693 8.60584 21.9693 8.88889Z" fill="#3570B7"/>
</svg>
