<svg width="30" height="27" viewBox="0 0 30 27" fill="none" xmlns="http://www.w3.org/2000/svg">
<path d="M7.91628 9.76913H20.6271C21.4663 9.76913 22.149 9.08649 22.149 8.24727V1.52187C22.149 0.682643 21.4689 0 20.6328 0H1.52187C0.682643 0 0 0.682643 0 1.52187V8.24727C0 9.08649 0.682643 9.76913 1.52187 9.76913C2.32233 9.76913 2.97345 10.4203 2.97345 11.2207V12.5178C2.97345 12.5987 3.02151 12.6385 3.06182 12.6578C3.10161 12.677 3.16207 12.6896 3.22563 12.6382L5.87042 10.4942C6.44764 10.0265 7.17421 9.76913 7.91628 9.76913ZM9.6123 2.2828H19.4365C19.729 2.2828 19.9656 2.51973 19.9656 2.81196C19.9656 3.10419 19.729 3.34113 19.4365 3.34113H9.6123C9.31981 3.34113 9.08313 3.10419 9.08313 2.81196C9.08313 2.51973 9.31981 2.2828 9.6123 2.2828ZM9.6123 4.25735H15.3654C15.6579 4.25735 15.8946 4.49428 15.8946 4.78651C15.8946 5.07874 15.6579 5.31568 15.3654 5.31568H9.6123C9.31981 5.31568 9.08313 5.07874 9.08313 4.78651C9.08313 4.49428 9.31981 4.25735 9.6123 4.25735ZM9.6123 6.23189H19.4365C19.729 6.23189 19.9656 6.46883 19.9656 6.76106C19.9656 7.05329 19.729 7.29022 19.4365 7.29022H9.6123C9.31981 7.29022 9.08313 7.05329 9.08313 6.76106C9.08313 6.46883 9.31981 6.23189 9.6123 6.23189ZM2.47684 4.78651C2.47684 3.40598 3.59977 2.2828 4.98056 2.2828C6.36134 2.2828 7.48427 3.40598 7.48427 4.78651C7.48427 6.16704 6.36134 7.29022 4.98056 7.29022C3.59977 7.29022 2.47684 6.16704 2.47684 4.78651Z" fill="#3570B7"/>
<path d="M4.98054 6.23183C5.7788 6.23183 6.42592 5.58471 6.42592 4.78645C6.42592 3.98818 5.7788 3.34106 4.98054 3.34106C4.18228 3.34106 3.53516 3.98818 3.53516 4.78645C3.53516 5.58471 4.18228 6.23183 4.98054 6.23183Z" fill="#3570B7"/>
<path d="M24.6527 17.0731C23.8558 17.0731 23.2073 17.7217 23.2073 18.5188C23.2073 19.3159 23.8558 19.9641 24.6527 19.9641C25.4495 19.9641 26.098 19.3159 26.098 18.5188C26.098 17.7217 25.4495 17.0731 24.6527 17.0731Z" fill="#3570B7"/>
<path d="M28.1113 13.7321H9.00043C8.16431 13.7321 7.48425 14.4147 7.48425 15.2537V21.9793C7.48425 22.8185 8.1669 23.5012 9.00612 23.5012H21.7169C22.459 23.5012 23.1856 23.7585 23.7628 24.2262L26.4076 26.3703C26.4711 26.4214 26.5311 26.4088 26.5714 26.3899C26.6117 26.3705 26.6598 26.3307 26.6598 26.2498V24.9525C26.6598 24.1523 27.3109 23.5012 28.1113 23.5012C28.9506 23.5012 29.6332 22.8185 29.6332 21.9793V15.2537C29.6332 14.4147 28.9506 13.7321 28.1113 13.7321ZM10.1967 16.0146H12.0498C12.3423 16.0146 12.579 16.2515 12.579 16.5438C12.579 16.836 12.3423 17.0729 12.0498 17.0729H10.1967C9.90425 17.0729 9.66757 16.836 9.66757 16.5438C9.66757 16.2515 9.90425 16.0146 10.1967 16.0146ZM15.4874 21.0223H10.1967C9.90425 21.0223 9.66757 20.7853 9.66757 20.4931C9.66757 20.2009 9.90425 19.964 10.1967 19.964H15.4874C15.7798 19.964 16.0165 20.2009 16.0165 20.4931C16.0165 20.7853 15.7798 21.0223 15.4874 21.0223ZM20.0209 21.0223H17.2304C16.9379 21.0223 16.7012 20.7853 16.7012 20.4931C16.7012 20.2009 16.9379 19.964 17.2304 19.964H20.0209C20.3134 19.964 20.5501 20.2009 20.5501 20.4931C20.5501 20.7853 20.3134 21.0223 20.0209 21.0223ZM20.0209 19.0477H14.2678C13.9753 19.0477 13.7386 18.8108 13.7386 18.5186C13.7386 18.2263 13.9753 17.9894 14.2678 17.9894H20.0209C20.3134 17.9894 20.5501 18.2263 20.5501 18.5186C20.5501 18.8108 20.3134 19.0477 20.0209 19.0477ZM20.0209 17.0729H13.8177C13.5252 17.0729 13.2885 16.836 13.2885 16.5438C13.2885 16.2515 13.5252 16.0146 13.8177 16.0146H20.0209C20.3134 16.0146 20.5501 16.2515 20.5501 16.5438C20.5501 16.836 20.3134 17.0729 20.0209 17.0729ZM24.6526 21.0223C23.2719 21.0223 22.1489 19.8991 22.1489 18.5186C22.1489 17.1378 23.2719 16.0146 24.6526 16.0146C26.0334 16.0146 27.1564 17.1378 27.1564 18.5186C27.1564 19.8991 26.0334 21.0223 24.6526 21.0223Z" fill="#3570B7"/>
</svg>
