<svg width="343" height="246" viewBox="0 0 343 246" fill="none" xmlns="http://www.w3.org/2000/svg">
<rect width="343" height="246" rx="20" fill="white"/>
<path d="M105.81 183.502L105.67 177.23H107.686L107.56 183.502H105.81ZM105.712 186.792V184.734H107.658V186.792H105.712ZM114.891 189.536L115.157 191.034C114.737 191.118 114.336 191.184 113.953 191.23C113.58 191.286 113.216 191.314 112.861 191.314C112.105 191.314 111.442 191.193 110.873 190.95C110.313 190.708 109.874 190.353 109.557 189.886C109.249 189.429 109.095 188.883 109.095 188.248C109.095 187.604 109.249 187.054 109.557 186.596C109.874 186.139 110.313 185.789 110.873 185.546C111.442 185.294 112.11 185.168 112.875 185.168H114.387V186.792H112.875C112.212 186.792 111.727 186.914 111.419 187.156C111.12 187.399 110.971 187.763 110.971 188.248C110.971 188.734 111.12 189.098 111.419 189.34C111.727 189.583 112.208 189.704 112.861 189.704C113.094 189.704 113.374 189.69 113.701 189.662C114.028 189.634 114.424 189.592 114.891 189.536ZM109.977 181.598L109.809 180.128C110.22 180.026 110.644 179.942 111.083 179.876C111.522 179.802 111.946 179.764 112.357 179.764C113.122 179.764 113.794 179.9 114.373 180.17C114.961 180.432 115.418 180.81 115.745 181.304C116.081 181.799 116.249 182.396 116.249 183.096V186.792H114.387V183.096C114.387 182.536 114.21 182.112 113.855 181.822C113.5 181.533 112.95 181.388 112.203 181.388C111.97 181.388 111.657 181.407 111.265 181.444C110.882 181.482 110.453 181.533 109.977 181.598ZM120.216 186.792V185.168H121.812V186.792H120.216ZM118.354 186.792V176.894H120.216V186.792H118.354ZM121.812 186.792V185.168C121.924 185.168 121.998 185.243 122.036 185.392C122.073 185.532 122.092 185.728 122.092 185.98C122.092 186.223 122.073 186.419 122.036 186.568C121.998 186.718 121.924 186.792 121.812 186.792ZM129.062 186.792V185.168H130.546V186.792H129.062ZM121.81 186.792V185.168H127.83L127.2 185.686V183.096C127.2 182.536 127.023 182.112 126.668 181.822C126.323 181.533 125.772 181.388 125.016 181.388C124.802 181.388 124.508 181.407 124.134 181.444C123.761 181.472 123.355 181.519 122.916 181.584L122.734 180.1C123.136 180.007 123.542 179.928 123.952 179.862C124.372 179.797 124.783 179.764 125.184 179.764C125.95 179.764 126.622 179.9 127.2 180.17C127.779 180.432 128.232 180.81 128.558 181.304C128.894 181.799 129.062 182.396 129.062 183.096V186.792H121.81ZM121.81 186.792C121.698 186.792 121.624 186.718 121.586 186.568C121.549 186.419 121.53 186.223 121.53 185.98C121.53 185.728 121.549 185.532 121.586 185.392C121.624 185.243 121.698 185.168 121.81 185.168V186.792ZM130.546 186.792V185.168C130.649 185.168 130.719 185.243 130.756 185.392C130.803 185.532 130.826 185.728 130.826 185.98C130.826 186.223 130.803 186.419 130.756 186.568C130.719 186.718 130.649 186.792 130.546 186.792ZM124.512 189.774V188.178H126.388V189.774H124.512ZM133.893 186.792V185.168H135.363V186.792H133.893ZM130.547 186.792V185.168H133.109L132.017 186.078V179.764H133.893V186.792H130.547ZM130.547 186.792C130.435 186.792 130.36 186.718 130.323 186.568C130.285 186.419 130.267 186.223 130.267 185.98C130.267 185.728 130.285 185.532 130.323 185.392C130.36 185.243 130.435 185.168 130.547 185.168V186.792ZM135.363 186.792V185.168C135.475 185.168 135.549 185.243 135.587 185.392C135.624 185.532 135.643 185.728 135.643 185.98C135.643 186.223 135.624 186.419 135.587 186.568C135.549 186.718 135.475 186.792 135.363 186.792ZM132.017 178.476V176.88H133.893V178.476H132.017ZM135.359 186.792V185.168H137.921L136.829 186.078V179.764H138.705V186.792H135.359ZM135.359 186.792C135.247 186.792 135.173 186.718 135.135 186.568C135.098 186.419 135.079 186.223 135.079 185.98C135.079 185.728 135.098 185.532 135.135 185.392C135.173 185.243 135.247 185.168 135.359 185.168V186.792ZM136.829 189.774V188.178H138.705V189.774H136.829ZM149.293 186.792V179.764H151.169V186.078L150.077 185.168H152.919V186.792H149.293ZM146.353 182.788V181.15H149.293V182.788H146.353ZM143.301 190.264C143.18 190.264 143.049 190.26 142.909 190.25C142.769 190.241 142.625 190.227 142.475 190.208L142.545 188.612C142.695 188.622 142.835 188.631 142.965 188.64C143.105 188.65 143.208 188.654 143.273 188.654C143.637 188.654 143.927 188.51 144.141 188.22C144.365 187.931 144.477 187.525 144.477 187.002V179.764H146.353V187.002C146.353 187.637 146.223 188.202 145.961 188.696C145.709 189.191 145.355 189.574 144.897 189.844C144.44 190.124 143.908 190.264 143.301 190.264ZM152.919 186.792V185.168C153.022 185.168 153.092 185.243 153.129 185.392C153.176 185.532 153.199 185.728 153.199 185.98C153.199 186.223 153.176 186.419 153.129 186.568C153.092 186.718 153.022 186.792 152.919 186.792ZM147.529 189.704V188.108H149.405V189.704H147.529ZM149.447 189.704V188.108H151.323V189.704H149.447ZM152.914 186.792V185.168H159.942L159.326 185.672V183.768C159.326 183.283 159.275 182.896 159.172 182.606C159.069 182.317 158.911 182.107 158.696 181.976C158.491 181.846 158.229 181.78 157.912 181.78H154.846L153.684 180.1L154.398 178.756C154.482 178.598 154.575 178.425 154.678 178.238C154.781 178.052 154.916 177.828 155.084 177.566C155.252 177.305 155.467 176.978 155.728 176.586L157.296 177.468C157.053 177.832 156.857 178.136 156.708 178.378C156.559 178.612 156.433 178.817 156.33 178.994C156.227 179.172 156.134 179.349 156.05 179.526L155.49 180.576L155.21 180.156H157.912C158.509 180.156 159.018 180.254 159.438 180.45C159.858 180.646 160.194 180.917 160.446 181.262C160.707 181.608 160.899 181.995 161.02 182.424C161.141 182.854 161.202 183.302 161.202 183.768V186.792H152.914ZM152.914 186.792C152.802 186.792 152.727 186.718 152.69 186.568C152.653 186.419 152.634 186.223 152.634 185.98C152.634 185.728 152.653 185.532 152.69 185.392C152.727 185.243 152.802 185.168 152.914 185.168V186.792ZM168.414 186.792V185.168H169.884V186.792H168.414ZM162.73 186.792V185.168H167.812L166.538 186.274V183.922C166.538 183.26 166.468 182.746 166.328 182.382C166.197 182.018 165.973 181.762 165.656 181.612C165.348 181.463 164.923 181.388 164.382 181.388H163.248V179.764H164.382C165.24 179.764 165.968 179.904 166.566 180.184C167.172 180.464 167.63 180.912 167.938 181.528C168.255 182.135 168.414 182.933 168.414 183.922V186.792H162.73ZM169.884 186.792V185.168C169.996 185.168 170.07 185.243 170.108 185.392C170.145 185.532 170.164 185.728 170.164 185.98C170.164 186.223 170.145 186.419 170.108 186.568C170.07 186.718 169.996 186.792 169.884 186.792ZM163.458 178.476V176.88H165.334V178.476H163.458ZM173.969 186.792V185.168H175.719V186.792H173.969ZM175.719 186.792V185.168C175.831 185.168 175.905 185.243 175.943 185.392C175.98 185.532 175.999 185.728 175.999 185.98C175.999 186.223 175.98 186.419 175.943 186.568C175.905 186.718 175.831 186.792 175.719 186.792ZM169.881 186.792V185.168H173.199L172.107 186.078V179.764H173.969V186.792H169.881ZM169.881 186.792C169.769 186.792 169.694 186.718 169.657 186.568C169.619 186.419 169.601 186.223 169.601 185.98C169.601 185.728 169.619 185.532 169.657 185.392C169.694 185.243 169.769 185.168 169.881 185.168V186.792ZM170.441 178.924V177.328H172.317V178.924H170.441ZM172.359 178.924V177.328H174.235V178.924H172.359ZM177.301 186.792V176.894H179.177V186.792H177.301ZM175.719 186.792V185.168H177.301V186.792H175.719ZM175.719 186.792C175.607 186.792 175.532 186.718 175.495 186.568C175.457 186.419 175.439 186.223 175.439 185.98C175.439 185.728 175.457 185.532 175.495 185.392C175.532 185.243 175.607 185.168 175.719 185.168V186.792ZM181.422 186.792V176.894H183.284V186.792H181.422ZM192.387 190.264C191.575 190.264 190.847 190.115 190.203 189.816C189.569 189.527 189.069 189.121 188.705 188.598C188.341 188.076 188.159 187.483 188.159 186.82C188.159 186.634 188.173 186.386 188.201 186.078C188.229 185.77 188.267 185.425 188.313 185.042C188.369 184.66 188.425 184.272 188.481 183.88C188.547 183.479 188.607 183.092 188.663 182.718L190.511 182.97C190.409 183.596 190.32 184.17 190.245 184.692C190.18 185.206 190.129 185.644 190.091 186.008C190.054 186.372 190.035 186.638 190.035 186.806C190.035 187.18 190.129 187.502 190.315 187.772C190.502 188.043 190.768 188.253 191.113 188.402C191.468 188.561 191.893 188.64 192.387 188.64C192.901 188.64 193.316 188.566 193.633 188.416C193.951 188.267 194.179 188.062 194.319 187.8C194.469 187.539 194.543 187.245 194.543 186.918V176.894H196.419V186.918C196.419 187.59 196.242 188.178 195.887 188.682C195.542 189.186 195.066 189.574 194.459 189.844C193.853 190.124 193.162 190.264 192.387 190.264ZM200.511 186.792V185.168H202.107V186.792H200.511ZM198.649 186.792V176.894H200.511V186.792H198.649ZM202.107 186.792V185.168C202.219 185.168 202.293 185.243 202.331 185.392C202.368 185.532 202.387 185.728 202.387 185.98C202.387 186.223 202.368 186.419 202.331 186.568C202.293 186.718 202.219 186.792 202.107 186.792ZM210.337 186.792C209.955 186.792 209.572 186.722 209.189 186.582C208.816 186.433 208.471 186.214 208.153 185.924L209.301 184.734C209.488 184.884 209.661 184.996 209.819 185.07C209.987 185.136 210.16 185.168 210.337 185.168H212.955L211.989 186.05V182.942C211.989 182.793 211.971 182.569 211.933 182.27C211.905 181.962 211.859 181.617 211.793 181.234C211.737 180.842 211.667 180.446 211.583 180.044L213.431 179.764C213.497 180.1 213.557 180.478 213.613 180.898C213.679 181.309 213.735 181.701 213.781 182.074C213.828 182.438 213.851 182.728 213.851 182.942V186.792H210.337ZM202.105 186.792V185.168H204.149L203.729 185.602V181.192H205.605V186.792H202.105ZM205.605 186.792V185.168H206.739C207.038 185.168 207.267 185.126 207.425 185.042C207.584 184.949 207.691 184.767 207.747 184.496C207.813 184.216 207.845 183.801 207.845 183.25V180.492H209.721V183.25C209.721 184.081 209.614 184.758 209.399 185.28C209.194 185.803 208.872 186.186 208.433 186.428C207.995 186.671 207.43 186.792 206.739 186.792H205.605ZM202.105 186.792C201.993 186.792 201.919 186.718 201.881 186.568C201.844 186.419 201.825 186.223 201.825 185.98C201.825 185.728 201.844 185.532 201.881 185.392C201.919 185.243 201.993 185.168 202.105 185.168V186.792ZM215.366 190.264C215.244 190.264 215.114 190.26 214.974 190.25C214.834 190.241 214.689 190.227 214.54 190.208L214.61 188.612C214.759 188.622 214.899 188.631 215.03 188.64C215.17 188.65 215.272 188.654 215.338 188.654C215.702 188.654 215.991 188.51 216.206 188.22C216.43 187.931 216.542 187.525 216.542 187.002V179.764H218.418V187.002C218.418 187.637 218.287 188.202 218.026 188.696C217.774 189.191 217.419 189.574 216.962 189.844C216.504 190.124 215.972 190.264 215.366 190.264ZM220.619 186.792V176.894H222.481V186.792H220.619ZM235.127 186.792V185.168H236.611V186.792H235.127ZM227.693 191.44C227.609 190.936 227.529 190.446 227.455 189.97C227.389 189.494 227.357 189.074 227.357 188.71C227.357 187.982 227.497 187.352 227.777 186.82C228.057 186.298 228.453 185.892 228.967 185.602C229.48 185.313 230.087 185.168 230.787 185.168C230.927 185.168 231.099 185.168 231.305 185.168C231.519 185.168 231.767 185.168 232.047 185.168C232.327 185.168 232.639 185.168 232.985 185.168C233.33 185.168 233.708 185.168 234.119 185.168L233.265 185.98V183.334C233.265 182.849 233.209 182.466 233.097 182.186C232.994 181.897 232.803 181.692 232.523 181.57C232.252 181.449 231.855 181.388 231.333 181.388C230.978 181.388 230.614 181.416 230.241 181.472C229.877 181.519 229.587 181.584 229.373 181.668L230.549 180.576C230.483 180.8 230.423 181.08 230.367 181.416C230.32 181.752 230.283 182.102 230.255 182.466C230.227 182.821 230.213 183.157 230.213 183.474C230.213 183.82 230.227 184.17 230.255 184.524C230.283 184.87 230.315 185.178 230.353 185.448C230.399 185.719 230.437 185.906 230.465 186.008L228.687 186.498C228.64 186.368 228.589 186.153 228.533 185.854C228.486 185.556 228.439 185.206 228.393 184.804C228.355 184.394 228.337 183.96 228.337 183.502C228.337 183.045 228.355 182.602 228.393 182.172C228.439 181.734 228.495 181.342 228.561 180.996C228.626 180.642 228.687 180.357 228.743 180.142C228.985 180.049 229.345 179.965 229.821 179.89C230.297 179.806 230.81 179.764 231.361 179.764C231.967 179.764 232.485 179.825 232.915 179.946C233.353 180.058 233.713 180.222 233.993 180.436C234.282 180.651 234.511 180.908 234.679 181.206C234.847 181.496 234.963 181.822 235.029 182.186C235.094 182.55 235.127 182.938 235.127 183.348V186.792C234.716 186.792 234.287 186.792 233.839 186.792C233.4 186.792 232.971 186.792 232.551 186.792C232.14 186.792 231.776 186.792 231.459 186.792C231.151 186.792 230.927 186.792 230.787 186.792C230.637 186.792 230.474 186.811 230.297 186.848C230.119 186.895 229.947 186.979 229.779 187.1C229.62 187.231 229.489 187.422 229.387 187.674C229.284 187.936 229.233 188.281 229.233 188.71C229.233 189.046 229.261 189.438 229.317 189.886C229.382 190.334 229.457 190.852 229.541 191.44H227.693ZM236.611 186.792V185.168C236.713 185.168 236.783 185.243 236.821 185.392C236.867 185.532 236.891 185.728 236.891 185.98C236.891 186.223 236.867 186.419 236.821 186.568C236.783 186.718 236.713 186.792 236.611 186.792ZM236.613 186.792V185.168H239.931L238.839 186.078V179.764H240.701V186.792H236.613ZM236.613 186.792C236.501 186.792 236.426 186.718 236.389 186.568C236.352 186.419 236.333 186.223 236.333 185.98C236.333 185.728 236.352 185.532 236.389 185.392C236.426 185.243 236.501 185.168 236.613 185.168V186.792ZM237.173 178.924V177.328H239.049V178.924H237.173ZM239.091 178.924V177.328H240.967V178.924H239.091Z" fill="#3570B7"/>
<mask id="mask0_190_1345" style="mask-type:alpha" maskUnits="userSpaceOnUse" x="128" y="70" width="87" height="87">
<rect x="128.16" y="70" width="86.4057" height="86.4057" fill="#D9D9D9"/>
</mask>
<g mask="url(#mask0_190_1345)">
<path d="M135.361 106.002C135.361 100.002 136.696 94.4967 139.366 89.4863C142.036 84.476 145.622 80.3207 150.122 77.0205L154.352 82.7809C150.752 85.4211 147.887 88.7513 145.757 92.7715C143.626 96.7918 142.561 101.202 142.561 106.002H135.361ZM200.165 106.002C200.165 101.202 199.1 96.7918 196.97 92.7715C194.84 88.7513 191.975 85.4211 188.374 82.7809L192.605 77.0205C197.105 80.3207 200.69 84.476 203.36 89.4863C206.03 94.4967 207.366 100.002 207.366 106.002H200.165ZM142.561 138.405V131.204H149.762V106.002C149.762 101.022 151.262 96.5968 154.262 92.7265C157.262 88.8563 161.163 86.3211 165.963 85.121V82.6009C165.963 81.1008 166.488 79.8257 167.538 78.7756C168.588 77.7256 169.863 77.2005 171.363 77.2005C172.863 77.2005 174.138 77.7256 175.188 78.7756C176.239 79.8257 176.764 81.1008 176.764 82.6009V85.121C181.564 86.3211 185.464 88.8563 188.464 92.7265C191.465 96.5968 192.965 101.022 192.965 106.002V131.204H200.165V138.405H142.561ZM171.363 149.205C169.383 149.205 167.688 148.5 166.278 147.09C164.868 145.68 164.163 143.985 164.163 142.005H178.564C178.564 143.985 177.859 145.68 176.449 147.09C175.038 148.5 173.343 149.205 171.363 149.205ZM156.962 131.204H185.764V106.002C185.764 102.042 184.354 98.6519 181.534 95.8317C178.714 93.0116 175.323 91.6015 171.363 91.6015C167.403 91.6015 164.013 93.0116 161.193 95.8317C158.372 98.6519 156.962 102.042 156.962 106.002V131.204Z" fill="#3570B7"/>
</g>
</svg>
