<svg width="20" height="20" viewBox="0 0 20 20" fill="none" xmlns="http://www.w3.org/2000/svg">
<g clip-path="url(#clip0_1_355)">
<path d="M20 10C20 4.47715 15.5228 0 10 0C4.47715 0 0 4.47715 0 10C0 15.5228 4.47715 20 10 20C15.5228 20 20 15.5228 20 10Z" fill="#C6C6C6"/>
<path d="M14.354 13.28C14.3897 13.3154 14.418 13.3575 14.4374 13.404C14.4567 13.4504 14.4667 13.5002 14.4667 13.5505C14.4667 13.6008 14.4567 13.6506 14.4374 13.697C14.418 13.7434 14.3897 13.7856 14.354 13.821L13.821 14.354C13.7856 14.3897 13.7434 14.418 13.697 14.4374C13.6506 14.4567 13.6008 14.4667 13.5505 14.4667C13.5002 14.4667 13.4504 14.4567 13.404 14.4374C13.3575 14.418 13.3154 14.3897 13.28 14.354L9.89899 10.973L6.51699 14.354C6.48157 14.3897 6.43943 14.418 6.39301 14.4374C6.34658 14.4567 6.29678 14.4667 6.24649 14.4667C6.19619 14.4667 6.1464 14.4567 6.09997 14.4374C6.05354 14.418 6.01141 14.3897 5.97599 14.354L5.44399 13.821C5.40828 13.7856 5.37994 13.7434 5.3606 13.697C5.34126 13.6506 5.3313 13.6008 5.3313 13.5505C5.3313 13.5002 5.34126 13.4504 5.3606 13.404C5.37994 13.3575 5.40828 13.3154 5.44399 13.28L8.82499 9.89899L5.44399 6.51699C5.40828 6.48157 5.37994 6.43943 5.3606 6.39301C5.34126 6.34658 5.3313 6.29678 5.3313 6.24649C5.3313 6.19619 5.34126 6.1464 5.3606 6.09997C5.37994 6.05354 5.40828 6.01141 5.44399 5.97599L5.97699 5.44399C6.01241 5.40828 6.05454 5.37994 6.10097 5.3606C6.1474 5.34126 6.19719 5.3313 6.24749 5.3313C6.29778 5.3313 6.34758 5.34126 6.39401 5.3606C6.44043 5.37994 6.48257 5.40828 6.51799 5.44399L9.89899 8.82499L13.28 5.44399C13.3154 5.40828 13.3575 5.37994 13.404 5.3606C13.4504 5.34126 13.5002 5.3313 13.5505 5.3313C13.6008 5.3313 13.6506 5.34126 13.697 5.3606C13.7434 5.37994 13.7856 5.40828 13.821 5.44399L14.354 5.97699C14.3897 6.01241 14.418 6.05454 14.4374 6.10097C14.4567 6.1474 14.4667 6.19719 14.4667 6.24749C14.4667 6.29778 14.4567 6.34758 14.4374 6.39401C14.418 6.44043 14.3897 6.48257 14.354 6.51799L10.973 9.89899L14.354 13.28Z" fill="#FAFAFA"/>
</g>
<defs>
<clipPath id="clip0_1_355">
<rect width="20" height="20" rx="10" fill="white"/>
</clipPath>
</defs>
</svg>
