<svg width="24" height="24" viewBox="0 0 24 24" fill="none" xmlns="http://www.w3.org/2000/svg">
<g clip-path="url(#clip0_1_220)">
<path d="M19.96 20.998C19.8945 20.9979 19.8297 20.9845 19.7695 20.9585C19.7093 20.9325 19.6551 20.8946 19.61 20.847L16.662 17.907C15.2066 18.6135 13.6118 18.9862 11.994 18.998H11.939C9.81243 18.9981 7.73461 18.3609 5.97369 17.1686C4.21278 15.9763 2.84958 14.2836 2.06003 12.309C2.0195 12.2104 1.9991 12.1046 2.00003 11.998C2.00242 11.8888 2.02268 11.7807 2.06003 11.678C2.76186 9.76633 4.05343 8.12736 5.74803 6.99801L3.14803 4.37801C3.10033 4.33304 3.06232 4.2788 3.03635 4.21861C3.01037 4.15843 2.99697 4.09356 2.99697 4.02801C2.99697 3.96246 3.01037 3.89759 3.03635 3.83741C3.06232 3.77722 3.10033 3.72298 3.14803 3.67801L3.67803 3.14801C3.72292 3.10018 3.77714 3.06206 3.83734 3.036C3.89753 3.00994 3.96243 2.99649 4.02803 2.99649C4.09363 2.99649 4.15853 3.00994 4.21872 3.036C4.27892 3.06206 4.33314 3.10018 4.37803 3.14801L20.838 19.618C20.8857 19.663 20.9237 19.7172 20.9497 19.7774C20.9757 19.8376 20.9891 19.9025 20.9891 19.968C20.9891 20.0336 20.9757 20.0984 20.9497 20.1586C20.9237 20.2188 20.8857 20.273 20.838 20.318L20.308 20.848C20.2632 20.8952 20.2092 20.9329 20.1494 20.9586C20.0896 20.9844 20.0252 20.9978 19.96 20.998ZM7.20003 8.43901C5.82406 9.28569 4.73346 10.5254 4.06903 11.998C4.78617 13.4921 5.91002 14.7537 7.31161 15.6381C8.7132 16.5225 10.3357 16.9939 11.993 16.998C13.0622 16.9725 14.1182 16.7557 15.111 16.358L13.354 14.598C12.7943 14.8651 12.1656 14.9521 11.5544 14.8472C10.9432 14.7422 10.3796 14.4505 9.94103 14.012C9.50329 13.5728 9.2121 13.0089 9.10737 12.3977C9.00264 11.7865 9.0895 11.1579 9.35603 10.598L7.20003 8.43901ZM19.6 15.889L18.181 14.469C18.9284 13.7774 19.5208 12.9352 19.919 11.998C19.2018 10.5038 18.0778 9.24202 16.676 8.35761C15.2742 7.4732 13.6515 7.00197 11.994 6.99801C11.596 6.99834 11.1986 7.02843 10.805 7.08801L9.11503 5.39801C11.66 4.66979 14.3845 4.91076 16.7621 6.07436C19.1397 7.23796 21.0017 9.24157 21.988 11.698C22.0041 11.7974 22.0041 11.8987 21.988 11.998C21.9913 12.1107 21.9708 12.2227 21.928 12.327C21.4424 13.68 20.6448 14.8996 19.6 15.887V15.889Z" fill="#908D8D"/>
</g>
<defs>
<clipPath id="clip0_1_220">
<rect width="24" height="24" fill="white"/>
</clipPath>
</defs>
</svg>
