<svg width="29" height="29" viewBox="0 0 29 29" fill="none" xmlns="http://www.w3.org/2000/svg">
<path d="M8.5437 24.1977C10.2731 25.2353 12.3484 25.8118 14.4237 25.8118C20.7649 25.8118 25.9531 20.6236 25.9531 14.2824C25.9531 7.94123 20.7649 2.75299 14.4237 2.75299C8.08252 2.75299 2.89429 7.94123 2.89429 14.2824C2.89429 16.3577 3.47076 18.3177 4.39311 20.0471L3.33473 24.1178C3.14001 24.8667 3.83321 25.5435 4.57727 25.331L8.5437 24.1977Z" stroke="#3570B7" stroke-width="1.5" stroke-miterlimit="10" stroke-linecap="round" stroke-linejoin="round"/>
<path d="M19.6118 17.5665C19.6118 17.7533 19.5703 17.9452 19.4819 18.132C19.3936 18.3188 19.2793 18.4952 19.1286 18.6612C18.874 18.9414 18.5934 19.1437 18.2764 19.2734C17.9647 19.4031 17.6269 19.4706 17.2632 19.4706C16.7332 19.4706 16.1669 19.3461 15.5693 19.0918C14.9718 18.8376 14.3742 18.4952 13.7819 18.0646C13.1843 17.6288 12.618 17.1463 12.0776 16.6119C11.5424 16.0723 11.0592 15.5068 10.6279 14.9153C10.2018 14.3239 9.85888 13.7324 9.60947 13.1461C9.36006 12.5547 9.23535 11.9892 9.23535 11.4496C9.23535 11.0968 9.2977 10.7595 9.42241 10.4482C9.54711 10.1318 9.74456 9.84122 10.02 9.58181C10.3525 9.25495 10.7162 9.09412 11.1007 9.09412C11.2462 9.09412 11.3917 9.12525 11.5216 9.1875C11.6567 9.24976 11.7762 9.34315 11.8697 9.47805L13.0752 11.1746C13.1687 11.3043 13.2363 11.4236 13.2831 11.5378C13.3298 11.6467 13.3558 11.7557 13.3558 11.8543C13.3558 11.9788 13.3194 12.1033 13.2467 12.2226C13.1791 12.342 13.0804 12.4665 12.9557 12.591L12.5608 13.0009C12.5037 13.0579 12.4777 13.1254 12.4777 13.2084C12.4777 13.2499 12.4829 13.2862 12.4933 13.3277C12.5089 13.3692 12.5244 13.4004 12.5348 13.4315C12.6284 13.6027 12.7894 13.8258 13.0181 14.0956C13.2519 14.3654 13.5013 14.6403 13.7715 14.9153C14.0521 15.1903 14.3223 15.4445 14.5977 15.678C14.8678 15.9063 15.0913 16.0619 15.2679 16.1553C15.2939 16.1657 15.3251 16.1812 15.3615 16.1968C15.403 16.2124 15.4446 16.2176 15.4914 16.2176C15.5797 16.2176 15.6473 16.1864 15.7044 16.1294L16.0993 15.7402C16.2292 15.6105 16.3539 15.512 16.4734 15.4497C16.5929 15.3771 16.7124 15.3408 16.8423 15.3408C16.9411 15.3408 17.045 15.3615 17.1593 15.4082C17.2736 15.4549 17.3931 15.5223 17.523 15.6105L19.2429 16.8298C19.378 16.9232 19.4715 17.0321 19.5287 17.1618C19.5806 17.2915 19.6118 17.4212 19.6118 17.5665Z" stroke="#3570B7" stroke-width="1.5" stroke-miterlimit="10"/>
</svg>
