<svg width="22" height="16" viewBox="0 0 22 16" fill="none" xmlns="http://www.w3.org/2000/svg">
<path d="M6.65342 13.7838C6.49443 13.7838 6.36435 13.6537 6.36435 13.4947C6.36435 13.3357 6.49443 13.2057 6.65342 13.2057H10.657C10.816 13.2057 10.9461 13.3357 10.9461 13.4947C10.9461 13.6537 10.816 13.7838 10.657 13.7838H6.65342ZM6.65342 2.81361C6.49443 2.81361 6.36435 2.68353 6.36435 2.52454C6.36435 2.36555 6.49443 2.23547 6.65342 2.23547H11.8663C12.0253 2.23547 12.1554 2.36555 12.1554 2.52454C12.1554 2.68353 12.0253 2.81361 11.8663 2.81361H6.65342ZM2.27883 10.3198V8.96597C2.27883 8.61427 2.59199 8.34447 2.94369 8.34447H4.48058C4.83228 8.34447 5.14544 8.60946 5.14544 8.96597V10.3198C5.14544 10.6715 4.83228 10.9413 4.48058 10.9413H2.94369C2.59199 10.9413 2.27883 10.6715 2.27883 10.3198ZM2.85697 8.96597V10.3198C2.85697 10.3342 2.90033 10.3631 2.94369 10.3631H4.48058C4.52394 10.3631 4.5673 10.3342 4.5673 10.3198V8.96597C4.5673 8.95152 4.52394 8.92261 4.48058 8.92261H2.94369C2.89551 8.92261 2.85697 8.95152 2.85697 8.96597ZM2.27883 3.21831V1.8645C2.27883 1.5128 2.59199 1.243 2.94369 1.243H4.48058C4.83228 1.243 5.14544 1.50798 5.14544 1.8645V3.21831C5.14544 3.57001 4.83228 3.83981 4.48058 3.83981H2.94369C2.59199 3.83981 2.27883 3.57001 2.27883 3.21831ZM2.85697 1.8645V3.21831C2.85697 3.23276 2.90033 3.26167 2.94369 3.26167H4.48058C4.52394 3.26167 4.5673 3.23758 4.5673 3.21831V1.8645C4.5673 1.85005 4.52394 1.82114 4.48058 1.82114H2.94369C2.89551 1.82114 2.85697 1.85005 2.85697 1.8645ZM2.27883 6.76905V5.41524C2.27883 5.06354 2.59199 4.79374 2.94369 4.79374H4.48058C4.83228 4.79374 5.14544 5.05872 5.14544 5.41524V6.76905C5.14544 7.12075 4.83228 7.39054 4.48058 7.39054H2.94369C2.59199 7.39054 2.27883 7.12075 2.27883 6.76905ZM2.85697 5.41524V6.76905C2.85697 6.7835 2.90033 6.81241 2.94369 6.81241H4.48058C4.52394 6.81241 4.5673 6.7835 4.5673 6.76905V5.41524C4.5673 5.40078 4.52394 5.37188 4.48058 5.37188H2.94369C2.89551 5.37188 2.85697 5.40078 2.85697 5.41524ZM2.27883 13.8705V12.5167C2.27883 12.165 2.59199 11.8952 2.94369 11.8952H4.48058C4.83228 11.8952 5.14544 12.1602 5.14544 12.5167V13.8705C5.14544 14.2222 4.83228 14.492 4.48058 14.492H2.94369C2.59199 14.492 2.27883 14.227 2.27883 13.8705ZM2.85697 12.5167V13.8705C2.85697 13.885 2.90033 13.9139 2.94369 13.9139H4.48058C4.52394 13.9139 4.5673 13.8898 4.5673 13.8705V12.5167C4.5673 12.5023 4.52394 12.4734 4.48058 12.4734H2.94369C2.89551 12.4734 2.85697 12.5023 2.85697 12.5167ZM19.6375 4.4854H8.38784C7.58326 4.4854 6.92322 5.14544 6.92322 5.95001V10.1463C6.92322 10.9509 7.58326 11.611 8.38784 11.611H14.6317C14.7907 11.611 14.9208 11.741 14.9208 11.9V13.9428L16.5203 11.741C16.5685 11.6591 16.66 11.611 16.7612 11.611H19.6375C20.442 11.611 21.1021 10.9509 21.1021 10.1463V5.95001C21.1021 5.14544 20.442 4.4854 19.6375 4.4854ZM8.38784 3.90726H14.3427V0.862391C14.3427 0.390244 13.9524 0 13.4803 0H0.862391C0.390244 0 0 0.390244 0 0.862391V15.1376C0 15.6146 0.390244 16 0.862391 16H13.4803C13.9524 16 14.3427 15.6098 14.3427 15.1376V12.1843H8.38784C7.26528 12.1843 6.34508 11.2689 6.34508 10.1415V5.9452C6.34508 4.82746 7.26528 3.90726 8.38784 3.90726ZM8.7299 7.41945C8.57091 7.41945 8.44083 7.28937 8.44083 7.13038C8.44083 6.97139 8.57091 6.84131 8.7299 6.84131H9.91509C10.0741 6.84131 10.2042 6.97139 10.2042 7.13038C10.2042 7.28937 10.0741 7.41945 9.91509 7.41945H8.7299ZM15.0364 6.84131C15.1954 6.84131 15.3255 6.97139 15.3255 7.13038C15.3255 7.28937 15.1954 7.41945 15.0364 7.41945H11.2111C11.0521 7.41945 10.922 7.28937 10.922 7.13038C10.922 6.97139 11.0521 6.84131 11.2111 6.84131H15.0364ZM15.0364 8.97561C15.1954 8.97561 15.3255 9.10569 15.3255 9.26468C15.3255 9.42367 15.1954 9.55375 15.0364 9.55375H13.8512C13.6923 9.55375 13.5622 9.42367 13.5622 9.26468C13.5622 9.10569 13.6923 8.97561 13.8512 8.97561H15.0364ZM8.7299 9.55375C8.57091 9.55375 8.44083 9.42367 8.44083 9.26468C8.44083 9.10569 8.57091 8.97561 8.7299 8.97561H12.5553C12.7142 8.97561 12.8443 9.10569 12.8443 9.26468C12.8443 9.42367 12.7142 9.55375 12.5553 9.55375H8.7299ZM18.1006 10.0018C18.1006 9.84282 18.2307 9.71274 18.3896 9.71274C18.5486 9.71274 18.6787 9.84282 18.6787 10.0018V10.1319C18.6787 10.2909 18.5486 10.421 18.3896 10.421C18.2307 10.421 18.1006 10.2909 18.1006 10.1319V10.0018ZM17.5754 7.11111C17.5754 7.2701 17.4453 7.40018 17.2864 7.40018C17.1274 7.40018 16.9973 7.2701 16.9973 7.11111C16.9973 5.87293 18.5005 5.25143 19.3773 6.12827C19.9458 6.69678 19.9169 7.62662 19.3098 8.1614C19.2039 8.25294 19.0979 8.33966 19.0063 8.41192C18.6546 8.69618 18.6835 8.69136 18.6835 8.97079C18.6835 9.12978 18.5534 9.25986 18.3945 9.25986C18.2355 9.25986 18.1054 9.12978 18.1054 8.97079V8.79735C18.1054 8.39747 18.3077 8.23367 18.6498 7.96387C18.9341 7.73743 19.2087 7.54472 19.2087 7.11593C19.2087 6.39326 18.3318 6.0271 17.8163 6.53779C17.667 6.68233 17.5754 6.88467 17.5754 7.11111Z" fill="white"/>
</svg>
