<svg width="21" height="17" viewBox="0 0 21 17" fill="none" xmlns="http://www.w3.org/2000/svg">
<path d="M19.6561 14.4978L21 16.6968L16.2655 14.4978H7.71289C6.9798 14.4978 6.3689 13.8953 6.3689 13.1724V11.606H16.0823C16.9375 11.606 17.6401 10.9433 17.6401 10.13V4.64758H19.6561C19.931 4.64758 20.1753 4.70783 20.3586 4.85844C20.7251 5.09943 20.9695 5.52115 20.9695 6.00312V13.2025C20.9695 13.6845 20.7251 14.1062 20.3586 14.3472C20.1448 14.4375 19.9004 14.4978 19.6561 14.4978Z" fill="white"/>
<path d="M15.0687 0H1.50983C1.21378 0 0.947344 0.0888133 0.710508 0.236836C0.296045 0.503276 0 0.947344 0 1.48023V9.38463C0 9.91751 0.296045 10.3616 0.710508 10.628C0.947344 10.776 1.21378 10.8352 1.50983 10.8352H1.53943L0 13.2332L5.35842 10.8352H15.0391C15.868 10.8352 16.5489 10.1839 16.5489 9.38463V1.45062C16.5785 0.651299 15.8976 0 15.0687 0ZM5.65446 5.74327C5.47683 5.98011 5.21039 6.12813 4.91435 6.12813C4.41107 6.12813 3.99661 5.71367 3.99661 5.21039C3.99661 4.70712 4.41107 4.29265 4.91435 4.29265C5.2696 4.29265 5.59525 4.49989 5.74327 4.82553C5.80248 4.94395 5.83209 5.06237 5.83209 5.21039C5.80248 5.44723 5.74327 5.59525 5.65446 5.74327ZM9.08858 6.15774C8.58531 6.15774 8.17084 5.74327 8.17084 5.24C8.17084 4.73672 8.58531 4.32226 9.08858 4.32226C9.59186 4.32226 10.0063 4.73672 10.0063 5.24C10.0063 5.74327 9.62146 6.15774 9.08858 6.15774ZM13.322 6.15774C12.8188 6.15774 12.4043 5.74327 12.4043 5.24C12.4043 4.73672 12.8188 4.32226 13.322 4.32226C13.8253 4.32226 14.2398 4.73672 14.2398 5.24C14.2398 5.74327 13.8253 6.15774 13.322 6.15774Z" fill="white"/>
</svg>
