<svg width="29" height="28" viewBox="0 0 29 28" fill="none" xmlns="http://www.w3.org/2000/svg">
<path d="M25.9185 21.4276C25.9185 21.8426 25.8263 22.2692 25.6303 22.6843C25.4343 23.0993 25.1806 23.4913 24.8463 23.8603C24.2813 24.4829 23.6588 24.9325 22.9555 25.2207C22.2637 25.509 21.5143 25.6589 20.7072 25.6589C19.5312 25.6589 18.2745 25.3822 16.9486 24.8172C15.6228 24.2523 14.2969 23.4913 12.9825 22.5344C11.6566 21.5659 10.3999 20.4937 9.20088 19.3062C8.01335 18.1071 6.94111 16.8504 5.98417 15.536C5.03876 14.2217 4.27782 12.9073 3.7244 11.6045C3.17099 10.2902 2.89429 9.03345 2.89429 7.83439C2.89429 7.05039 3.03264 6.30098 3.30935 5.60921C3.58605 4.90592 4.02417 4.26027 4.63523 3.6838C5.37311 2.95745 6.18017 2.60004 7.03335 2.60004C7.35617 2.60004 7.67899 2.66921 7.96723 2.80757C8.26699 2.94592 8.53217 3.15345 8.7397 3.45321L11.4145 7.22333C11.6221 7.51157 11.7719 7.77674 11.8757 8.03039C11.9795 8.27251 12.0371 8.51462 12.0371 8.73368C12.0371 9.01039 11.9564 9.28709 11.795 9.55227C11.6451 9.81745 11.4261 10.0942 11.1493 10.3709L10.2731 11.2817C10.1463 11.4085 10.0886 11.5584 10.0886 11.7429C10.0886 11.8351 10.1002 11.9158 10.1232 12.008C10.1578 12.1003 10.1924 12.1694 10.2155 12.2386C10.423 12.6191 10.7804 13.1149 11.2877 13.7144C11.8065 14.3139 12.3599 14.925 12.9595 15.536C13.5821 16.1471 14.1816 16.712 14.7926 17.2309C15.3922 17.7382 15.8879 18.084 16.2799 18.2916C16.3376 18.3146 16.4068 18.3492 16.4875 18.3838C16.5797 18.4184 16.6719 18.4299 16.7757 18.4299C16.9717 18.4299 17.1216 18.3607 17.2484 18.2339L18.1246 17.3692C18.4129 17.081 18.6896 16.8619 18.9548 16.7236C19.2199 16.5622 19.4851 16.4814 19.7733 16.4814C19.9924 16.4814 20.223 16.5276 20.4766 16.6313C20.7303 16.7351 20.9955 16.885 21.2837 17.081L25.0999 19.7904C25.3997 19.9979 25.6072 20.24 25.7341 20.5283C25.8493 20.8165 25.9185 21.1047 25.9185 21.4276Z" stroke="#3570B7" stroke-width="1.5" stroke-miterlimit="10"/>
<path d="M18.459 7.21179H24.2237" stroke="#3570B7" stroke-width="1.5" stroke-linecap="round" stroke-linejoin="round"/>
<path d="M21.3413 10.0942V4.32947" stroke="#3570B7" stroke-width="1.5" stroke-linecap="round" stroke-linejoin="round"/>
</svg>
