<svg width="29" height="28" viewBox="0 0 29 28" fill="none" xmlns="http://www.w3.org/2000/svg">
<path d="M10.3884 22.2H9.81193C5.20017 22.2 2.89429 21.0471 2.89429 15.2824V9.51768C2.89429 4.90592 5.20017 2.60004 9.81193 2.60004H19.0355C23.6472 2.60004 25.9531 4.90592 25.9531 9.51768V15.2824C25.9531 19.8942 23.6472 22.2 19.0355 22.2H18.459C18.1016 22.2 17.7557 22.373 17.5366 22.6612L15.8072 24.9671C15.0463 25.9817 13.8011 25.9817 13.0402 24.9671L11.3108 22.6612C11.1263 22.4076 10.6997 22.2 10.3884 22.2Z" stroke="#3570B7" stroke-width="1.5" stroke-miterlimit="10" stroke-linecap="round" stroke-linejoin="round"/>
<path d="M8.65894 9.51764H20.1883" stroke="#3570B7" stroke-width="1.5" stroke-linecap="round" stroke-linejoin="round"/>
<path d="M8.65894 15.2823H15.5766" stroke="#3570B7" stroke-width="1.5" stroke-linecap="round" stroke-linejoin="round"/>
</svg>
