<svg width="24" height="24" viewBox="0 0 24 24" fill="none" xmlns="http://www.w3.org/2000/svg">
<path d="M12.0007 3.26023e-05V0.00140963H11.9993C5.37179 3.26741e-05 0 5.3732 0 12.0007C0 18.6282 5.3732 24 12.0007 24C18.6282 24 24 18.6282 24 12.0007C24 5.3732 18.6282 3.26023e-05 12.0007 3.26023e-05ZM7.26608 2.48085L7.26746 2.48222C6.68376 3.46104 6.19226 4.56517 5.80818 5.75738C5.16939 5.53436 4.56779 5.27829 4.00883 4.99468H4.00607C4.91468 3.95804 6.02016 3.10035 7.26608 2.48085ZM16.7363 2.48222C17.9932 3.1086 19.1097 3.97731 20.0238 5.02774H20.0211C19.4553 5.30996 18.8468 5.56464 18.2011 5.78628V5.78766C17.8156 4.58442 17.3214 3.47069 16.7335 2.48222L16.7363 2.48222ZM11.312 1.39186V1.39324H11.3148V6.74987C9.81281 6.69756 8.40032 6.4883 7.10883 6.15102L7.10746 6.1524C7.69531 4.33793 8.54197 2.80703 9.54696 1.65605C10.1183 1.51976 10.709 1.43041 11.312 1.39186ZM12.6846 1.39186V1.39324H12.6873V1.39462C13.2903 1.43041 13.8809 1.5199 14.4536 1.65481L14.4509 1.65619C15.4614 2.81122 16.3121 4.35174 16.9 6.17438H16.8986C15.6031 6.50479 14.1893 6.70716 12.6846 6.75258L12.6846 1.39186ZM6.74008 7.459V7.46038H6.74145C8.18146 7.83759 9.72473 8.06614 11.316 8.11982H11.3147V11.3151H6.22905C6.27723 9.94669 6.45511 8.65382 6.74008 7.459ZM17.2634 7.48241V7.48378H17.2648C17.547 8.67187 17.7232 9.95631 17.77 11.3151H12.6844V8.12528H12.683C14.2745 8.07572 15.8206 7.85549 17.2634 7.48241ZM3.16182 6.09333L3.1632 6.0947C3.87219 6.46366 4.63489 6.78995 5.43886 7.06527L5.43748 7.06665C5.10846 8.41167 4.90883 9.84206 4.85928 11.3152H1.39416L1.3914 11.3166C1.51393 9.39063 2.14858 7.60491 3.16182 6.09333ZM20.8607 6.1305L20.8634 6.13187C21.8601 7.63384 22.4866 9.40566 22.6077 11.3151H19.1398C19.0903 9.85445 18.8948 8.43369 18.5699 7.09825H18.5671C19.378 6.82291 20.1462 6.49946 20.8607 6.1305ZM17.77 12.6851V12.6864H17.7728V12.6878C17.7328 14.0452 17.5621 15.3324 17.2868 16.5233V16.5247C15.8385 16.1489 14.287 15.9245 12.6872 15.8777L12.6844 15.8791V12.6879L17.77 12.6851ZM11.3148 12.6851V15.8804L11.3121 15.8817C9.71373 15.9354 8.16359 16.1653 6.71953 16.548C6.44006 15.3503 6.26799 14.0562 6.22668 12.6878H6.22531L11.3148 12.6851ZM22.605 12.6864H22.6078C22.4866 14.5959 21.8602 16.3676 20.8622 17.8711V17.8724C20.1545 17.5062 19.3946 17.1855 18.5934 16.9143H18.5906C18.91 15.572 19.1 14.1498 19.144 12.6879H19.1413L22.605 12.6864ZM4.85403 12.6864L4.85678 12.6878C4.89946 14.1595 5.0922 15.594 5.41708 16.9431L5.41433 16.9445C4.61861 17.2184 3.86419 17.5419 3.16207 17.9082V17.9095C2.1502 16.3965 1.51554 14.6123 1.39166 12.6879H1.39028L4.85403 12.6864ZM18.2285 18.2249L18.2299 18.2263C18.8659 18.4438 19.4648 18.6957 20.0237 18.9752H20.021C19.1275 20.0022 18.0385 20.8571 16.8133 21.4808V21.4794C17.3805 20.4992 17.8568 19.4048 18.2285 18.2249ZM5.77917 18.2538V18.2552H5.78054C6.15226 19.424 6.62582 20.5102 7.18753 21.4808L7.18615 21.4822C5.97466 20.864 4.89671 20.0215 4.00738 19.0096H4.006C4.55805 18.7274 5.15004 18.4755 5.77917 18.2538ZM12.6847 17.2488V17.2502H12.6875C14.2032 17.2943 15.6281 17.4994 16.9304 17.8339L16.9291 17.8353C16.3591 19.6333 15.5359 21.16 14.5543 22.3218H14.5529C13.9485 22.4704 13.3249 22.5668 12.6847 22.6081L12.6847 17.2488ZM11.3122 17.2516V17.253H11.3149V22.6082C10.6748 22.5669 10.0512 22.4705 9.44677 22.3218H9.44539C8.46795 21.1654 7.64879 19.6469 7.07887 17.8586L7.0775 17.86C8.3771 17.5158 9.79909 17.3039 11.3122 17.2516Z" fill="#3570B7"/>
</svg>
