<svg width="23" height="20" viewBox="0 0 23 20" fill="none" xmlns="http://www.w3.org/2000/svg">
<path d="M5.99573 7.39907H15.6228C16.2584 7.39907 16.7755 6.88204 16.7755 6.24642V1.15265C16.7755 0.517029 16.2604 0 15.6271 0H1.15265C0.517029 0 0 0.517029 0 1.15265V6.24642C0 6.88204 0.517029 7.39907 1.15265 7.39907C1.75892 7.39907 2.25207 7.89222 2.25207 8.49849V9.48088C2.25207 9.54214 2.28847 9.57227 2.319 9.58695C2.34913 9.60143 2.39493 9.61102 2.44307 9.57208L4.44621 7.94819C4.8834 7.59398 5.4337 7.39907 5.99573 7.39907ZM7.28028 1.72897H14.721C14.9426 1.72897 15.1218 1.90843 15.1218 2.12976C15.1218 2.35109 14.9426 2.53054 14.721 2.53054H7.28028C7.05876 2.53054 6.8795 2.35109 6.8795 2.12976C6.8795 1.90843 7.05876 1.72897 7.28028 1.72897ZM7.28028 3.22448H11.6377C11.8592 3.22448 12.0384 3.40394 12.0384 3.62527C12.0384 3.8466 11.8592 4.02605 11.6377 4.02605H7.28028C7.05876 4.02605 6.8795 3.8466 6.8795 3.62527C6.8795 3.40394 7.05876 3.22448 7.28028 3.22448ZM7.28028 4.71999H14.721C14.9426 4.71999 15.1218 4.89945 15.1218 5.12078C15.1218 5.34211 14.9426 5.52156 14.721 5.52156H7.28028C7.05876 5.52156 6.8795 5.34211 6.8795 5.12078C6.8795 4.89945 7.05876 4.71999 7.28028 4.71999ZM1.87594 3.62527C1.87594 2.57966 2.72644 1.72897 3.77224 1.72897C4.81804 1.72897 5.66853 2.57966 5.66853 3.62527C5.66853 4.67087 4.81804 5.52156 3.77224 5.52156C2.72644 5.52156 1.87594 4.67087 1.87594 3.62527Z" fill="white"/>
<path d="M3.77221 4.71996C4.37681 4.71996 4.86694 4.22984 4.86694 3.62524C4.86694 3.02064 4.37681 2.53052 3.77221 2.53052C3.16761 2.53052 2.67749 3.02064 2.67749 3.62524C2.67749 4.22984 3.16761 4.71996 3.77221 4.71996Z" fill="white"/>
<path d="M18.6717 12.9311C18.0682 12.9311 17.577 13.4223 17.577 14.026C17.577 14.6297 18.0682 15.1207 18.6717 15.1207C19.2753 15.1207 19.7665 14.6297 19.7665 14.026C19.7665 13.4223 19.2753 12.9311 18.6717 12.9311Z" fill="white"/>
<path d="M21.2914 10.4006H6.81692C6.18365 10.4006 5.66858 10.9176 5.66858 11.553V16.647C5.66858 17.2826 6.18561 17.7996 6.82123 17.7996H16.4483C17.0103 17.7996 17.5606 17.9946 17.9978 18.3488L20.001 19.9727C20.0491 20.0114 20.0945 20.0018 20.125 19.9875C20.1556 19.9728 20.192 19.9427 20.192 19.8815V18.8989C20.192 18.2928 20.6851 17.7996 21.2914 17.7996C21.927 17.7996 22.444 17.2826 22.444 16.647V11.553C22.444 10.9176 21.927 10.4006 21.2914 10.4006ZM7.723 12.1294H9.12653C9.34806 12.1294 9.52731 12.3088 9.52731 12.5301C9.52731 12.7515 9.34806 12.9309 9.12653 12.9309H7.723C7.50147 12.9309 7.32221 12.7515 7.32221 12.5301C7.32221 12.3088 7.50147 12.1294 7.723 12.1294ZM11.7301 15.9221H7.723C7.50147 15.9221 7.32221 15.7427 7.32221 15.5214C7.32221 15.3 7.50147 15.1206 7.723 15.1206H11.7301C11.9516 15.1206 12.1309 15.3 12.1309 15.5214C12.1309 15.7427 11.9516 15.9221 11.7301 15.9221ZM15.1637 15.9221H13.0502C12.8287 15.9221 12.6494 15.7427 12.6494 15.5214C12.6494 15.3 12.8287 15.1206 13.0502 15.1206H15.1637C15.3853 15.1206 15.5645 15.3 15.5645 15.5214C15.5645 15.7427 15.3853 15.9221 15.1637 15.9221ZM15.1637 14.4266H10.8064C10.5849 14.4266 10.4056 14.2472 10.4056 14.0258C10.4056 13.8045 10.5849 13.6251 10.8064 13.6251H15.1637C15.3853 13.6251 15.5645 13.8045 15.5645 14.0258C15.5645 14.2472 15.3853 14.4266 15.1637 14.4266ZM15.1637 12.9309H10.4655C10.244 12.9309 10.0647 12.7515 10.0647 12.5301C10.0647 12.3088 10.244 12.1294 10.4655 12.1294H15.1637C15.3853 12.1294 15.5645 12.3088 15.5645 12.5301C15.5645 12.7515 15.3853 12.9309 15.1637 12.9309ZM18.6718 15.9221C17.626 15.9221 16.7755 15.0714 16.7755 14.0258C16.7755 12.98 17.626 12.1294 18.6718 12.1294C19.7176 12.1294 20.5681 12.98 20.5681 14.0258C20.5681 15.0714 19.7176 15.9221 18.6718 15.9221Z" fill="white"/>
</svg>
