<svg width="20" height="18" viewBox="0 0 20 18" fill="none" xmlns="http://www.w3.org/2000/svg">
<path d="M17.96 18.0015C17.8945 18.0014 17.8297 17.988 17.7695 17.962C17.7093 17.936 17.6551 17.8981 17.61 17.8505L14.662 14.9105C13.2066 15.617 11.6118 15.9897 9.99403 16.0015H9.93903C7.81243 16.0016 5.73461 15.3644 3.97369 14.1721C2.21278 12.9798 0.849584 11.2871 0.0600302 9.31252C0.0195032 9.21389 -0.000896531 9.10815 3.02163e-05 9.00152C0.00241527 8.89229 0.0226838 8.78419 0.0600302 8.68152C0.761864 6.76984 2.05343 5.13087 3.74803 4.00152L1.14803 1.38152C1.10033 1.33655 1.06232 1.28231 1.03635 1.22212C1.01037 1.16193 0.996971 1.09707 0.996971 1.03152C0.996971 0.965965 1.01037 0.901103 1.03635 0.840915C1.06232 0.780728 1.10033 0.726485 1.14803 0.681519L1.67803 0.151519C1.72292 0.103688 1.77714 0.0655656 1.83734 0.0395054C1.89753 0.0134451 1.96243 0 2.02803 0C2.09363 0 2.15853 0.0134451 2.21872 0.0395054C2.27892 0.0655656 2.33314 0.103688 2.37803 0.151519L18.838 16.6215C18.8857 16.6665 18.9237 16.7207 18.9497 16.7809C18.9757 16.8411 18.9891 16.906 18.9891 16.9715C18.9891 17.0371 18.9757 17.1019 18.9497 17.1621C18.9237 17.2223 18.8857 17.2766 18.838 17.3215L18.308 17.8515C18.2632 17.8987 18.2092 17.9364 18.1494 17.9622C18.0896 17.9879 18.0252 18.0013 17.96 18.0015ZM5.20003 5.44252C3.82406 6.2892 2.73346 7.52887 2.06903 9.00152C2.78617 10.4956 3.91002 11.7573 5.31161 12.6417C6.7132 13.526 8.33574 13.9974 9.99303 14.0015C11.0622 13.976 12.1182 13.7592 13.111 13.3615L11.354 11.6015C10.7943 11.8686 10.1656 11.9556 9.55444 11.8507C8.94324 11.7457 8.37959 11.454 7.94103 11.0155C7.50329 10.5763 7.2121 10.0124 7.10737 9.40125C7.00264 8.79005 7.0895 8.16142 7.35603 7.60152L5.20003 5.44252ZM17.6 12.8925L16.181 11.4725C16.9284 10.7809 17.5208 9.93872 17.919 9.00152C17.1971 7.51094 16.072 6.25244 14.6712 5.3687C13.2705 4.48496 11.6502 4.01134 9.99403 4.00152C9.59601 4.00185 9.19857 4.03194 8.80503 4.09152L7.11503 2.40152C9.65997 1.6733 12.3845 1.91427 14.7621 3.07787C17.1397 4.24146 19.0017 6.24508 19.988 8.70152C20.0041 8.80087 20.0041 8.90217 19.988 9.00152C19.9913 9.11417 19.9708 9.22625 19.928 9.33052C19.4424 10.6835 18.6448 11.9031 17.6 12.8905V12.8925Z" fill="#C8C9CC"/>
</svg>
