<svg width="25" height="25" viewBox="0 0 25 25" fill="none" xmlns="http://www.w3.org/2000/svg">
<path d="M9.18315 19.8355C7.6083 19.4959 6.15408 18.7382 4.97346 17.642C3.79284 16.5459 2.92947 15.1518 2.47417 13.6064C2.01887 12.0611 1.98847 10.4216 2.38617 8.86038C2.78388 7.29921 3.59498 5.87407 4.73415 4.7349C5.87333 3.59572 7.29846 2.78462 8.85964 2.38692C10.4208 1.98922 12.0603 2.01961 13.6057 2.47491C15.151 2.93022 16.5451 3.79359 17.6413 4.97421C18.7374 6.15483 19.4952 7.60905 19.8347 9.18389C19.8933 9.45743 20.0582 9.69647 20.2931 9.84844C20.5279 10.0004 20.8136 10.0529 21.0871 9.99425C21.3606 9.93563 21.5997 9.77076 21.7516 9.53589C21.9036 9.30103 21.9561 9.01541 21.8974 8.74188C21.4785 6.79614 20.5428 4.99931 19.1888 3.54044C17.8349 2.08158 16.1128 1.01462 14.2036 0.451849C12.2945 -0.110924 10.269 -0.148711 8.34023 0.342467C6.41145 0.833644 4.65072 1.83562 3.24331 3.24297C1.8359 4.65033 0.833843 6.41101 0.342583 8.33977C-0.148676 10.2685 -0.110976 12.294 0.451716 14.2032C1.01441 16.1123 2.08129 17.8345 3.54009 19.1885C4.9989 20.5425 6.7957 21.4783 8.74142 21.8973C8.87753 21.9283 9.01844 21.932 9.15597 21.908C9.29351 21.8841 9.42492 21.8332 9.5426 21.7581C9.66027 21.683 9.76186 21.5852 9.84148 21.4706C9.9211 21.3559 9.97715 21.2266 10.0064 21.0901C10.0356 20.9536 10.0375 20.8126 10.0118 20.6754C9.98618 20.5382 9.93353 20.4075 9.85695 20.2907C9.78037 20.174 9.68137 20.0737 9.56571 19.9955C9.45004 19.9174 9.32001 19.863 9.18315 19.8355Z" fill="white"/>
<path d="M10.017 4.74558V10.0177H6.85373C6.57408 10.0177 6.30589 10.1288 6.10815 10.3265C5.91041 10.5242 5.79932 10.7924 5.79932 11.0721C5.79932 11.3517 5.91041 11.6199 6.10815 11.8177C6.30589 12.0154 6.57408 12.1265 6.85373 12.1265H11.0714C11.351 12.1265 11.6192 12.0154 11.817 11.8177C12.0147 11.6199 12.1258 11.3517 12.1258 11.0721V4.74558C12.1258 4.46593 12.0147 4.19773 11.817 3.99999C11.6192 3.80225 11.351 3.69116 11.0714 3.69116C10.7917 3.69116 10.5236 3.80225 10.3258 3.99999C10.1281 4.19773 10.017 4.46593 10.017 4.74558Z" fill="white"/>
<path d="M17.3981 10.5447C16.0426 10.5447 14.7175 10.9466 13.5904 11.6997C12.4633 12.4528 11.5849 13.5232 11.0661 14.7756C10.5474 16.0279 10.4117 17.406 10.6761 18.7355C10.9406 20.065 11.5933 21.2862 12.5518 22.2447C13.5103 23.2032 14.7316 23.8559 16.0611 24.1204C17.3905 24.3848 18.7686 24.2491 20.0209 23.7304C21.2733 23.2116 22.3437 22.3332 23.0968 21.2061C23.8499 20.079 24.2519 18.7539 24.2519 17.3984C24.25 15.5812 23.5273 13.8391 22.2424 12.5541C20.9575 11.2692 19.2153 10.5465 17.3981 10.5447ZM17.3981 22.1433C16.4597 22.1433 15.5423 21.865 14.762 21.3436C13.9817 20.8222 13.3736 20.0812 13.0145 19.2142C12.6553 18.3472 12.5614 17.3931 12.7444 16.4727C12.9275 15.5523 13.3794 14.7068 14.043 14.0433C14.7066 13.3797 15.552 12.9278 16.4725 12.7447C17.3929 12.5616 18.3469 12.6556 19.2139 13.0147C20.0809 13.3738 20.822 13.982 21.3434 14.7623C21.8647 15.5426 22.143 16.4599 22.143 17.3984C22.1415 18.6563 21.6411 19.8624 20.7516 20.7519C19.8621 21.6414 18.6561 22.1418 17.3981 22.1433Z" fill="white"/>
<path d="M17.3982 13.708C17.1185 13.708 16.8503 13.8191 16.6526 14.0168C16.4548 14.2146 16.3438 14.4828 16.3438 14.7624V17.3985C16.3438 17.6781 16.4548 17.9463 16.6526 18.1441C16.8503 18.3418 17.1185 18.4529 17.3982 18.4529C17.6778 18.4529 17.946 18.3418 18.1438 18.1441C18.3415 17.9463 18.4526 17.6781 18.4526 17.3985V14.7624C18.4526 14.4828 18.3415 14.2146 18.1438 14.0168C17.946 13.8191 17.6778 13.708 17.3982 13.708Z" fill="white"/>
<path d="M17.3982 21.0891C17.9805 21.0891 18.4526 20.617 18.4526 20.0346C18.4526 19.4523 17.9805 18.9802 17.3982 18.9802C16.8158 18.9802 16.3438 19.4523 16.3438 20.0346C16.3438 20.617 16.8158 21.0891 17.3982 21.0891Z" fill="white"/>
</svg>
