<svg width="43" height="54" viewBox="0 0 43 54" fill="none" xmlns="http://www.w3.org/2000/svg">
<g clip-path="url(#clip0_1_39)">
<path d="M42.9962 20.6928L42.9949 20.7308C42.8951 23.2736 40.764 25.2552 38.2309 25.1554C35.8225 25.0616 33.9215 23.099 33.8273 20.7205L33.8247 20.6833C33.7305 18.1384 35.7072 15.9991 38.2408 15.9041C40.7748 15.8099 42.9029 17.7958 42.997 20.3412C43.0013 20.4556 43.0013 20.5805 42.9962 20.6928Z" fill="white"/>
<path d="M38.7692 33.194L38.7486 33.223C37.3864 35.0814 34.7862 35.478 32.9359 34.1107C31.1849 32.8156 30.7463 30.3856 31.8626 28.5561L31.8819 28.5271C33.0889 26.5633 35.6487 25.955 37.6031 27.1646C39.5579 28.3768 40.1646 30.9502 38.9576 32.9137C38.9013 33.0065 38.8346 33.1059 38.7692 33.194Z" fill="white"/>
<path d="M28.5168 41.0391L28.4841 41.0508C26.5495 41.7502 24.4158 40.7402 23.7201 38.7971C23.0609 36.9554 23.9424 34.9294 25.68 34.128L25.7123 34.112C27.5841 33.2567 29.793 34.0848 30.6461 35.9666C31.5001 37.8475 30.6741 40.0663 28.8018 40.9247C28.7103 40.9657 28.6096 41.005 28.5168 41.0391Z" fill="white"/>
<path d="M15.9031 41.7787L15.8675 41.7697C14.1045 41.3286 13.0303 39.5328 13.4698 37.7624C13.8869 36.0802 15.5312 35.024 17.2052 35.3004L17.2409 35.3061C19.0348 35.608 20.2457 37.3114 19.9469 39.1137C19.6472 40.9143 17.9504 42.1325 16.1568 41.8314C16.0734 41.818 15.984 41.7982 15.9031 41.7787Z" fill="white"/>
<path d="M5.24644 35.4439L5.22279 35.4167C4.16671 34.2377 4.2626 32.4225 5.43779 31.3597C6.54977 30.3549 8.23967 30.3972 9.31123 31.406L9.33703 31.4306C10.486 32.5192 10.5384 34.338 9.45442 35.4936C8.37039 36.6479 6.56009 36.7019 5.41027 35.6128C5.3548 35.5596 5.29675 35.4992 5.24644 35.4439Z" fill="white"/>
<path d="M0.0288294 24.4426L0.0240994 24.4058C-0.162951 23.0727 0.76198 21.8406 2.08939 21.6527C3.34671 21.4743 4.51717 22.3098 4.79495 23.5306L4.80312 23.5647C5.09724 24.8797 4.27594 26.184 2.96659 26.482C1.65896 26.7775 0.359069 25.9515 0.0645194 24.637C0.0503294 24.5735 0.0378594 24.5052 0.0288294 24.4426Z" fill="white"/>
<path d="M1.77981 12.6347L1.79658 12.6027C2.27603 11.6061 3.46971 11.1897 4.46129 11.6722C5.40213 12.1297 5.81966 13.2391 5.45115 14.2011L5.43825 14.2344C5.03835 15.2669 3.88294 15.7784 2.85524 15.3783C1.82754 14.9774 1.31756 13.8158 1.71617 12.7833C1.73552 12.7336 1.75788 12.6822 1.77981 12.6347Z" fill="white"/>
<path d="M9.6217 4.0176L9.65137 4.00032C10.3957 3.56271 11.3533 3.815 11.7885 4.56322C12.2013 5.2717 11.9932 6.17544 11.3365 6.64028L11.3077 6.66015C10.6012 7.15824 9.62557 6.98631 9.13064 6.27567C8.63485 5.56546 8.80642 4.58525 9.51334 4.08759C9.54774 4.06383 9.58558 4.0392 9.6217 4.0176Z" fill="white"/>
<path d="M20.6753 1.32452L20.7122 1.32668C21.3357 1.36383 21.81 1.90253 21.773 2.52807C21.7374 3.12293 21.2459 3.58388 20.6624 3.59511L20.6254 3.59554C20.0006 3.60591 19.4859 3.10522 19.4756 2.47796C19.4652 1.84983 19.9636 1.33273 20.5884 1.32236C20.6168 1.32279 20.6473 1.32322 20.6753 1.32452Z" fill="white"/>
<path d="M31.1105 5.20215L31.1376 5.22332C31.4438 5.45963 31.501 5.89983 31.2658 6.20699C31.0426 6.49772 30.6358 6.56339 30.3322 6.36855L30.3047 6.34911C29.9792 6.13787 29.8863 5.70327 30.0966 5.37711C30.3064 5.05139 30.7399 4.95764 31.0641 5.16975C31.0783 5.17926 31.0951 5.19135 31.1105 5.20215Z" fill="white"/>
<path d="M37.4647 14.0698L37.4754 14.1035C37.521 14.243 37.4462 14.3947 37.3081 14.4413C37.1761 14.4863 37.0321 14.4193 36.9788 14.2932L36.9654 14.2621C36.9069 14.1255 36.9697 13.9683 37.1056 13.9091C37.2402 13.8504 37.398 13.9134 37.4552 14.0499C37.4595 14.0564 37.4621 14.0629 37.4647 14.0698Z" fill="white"/>
</g>
<defs>
<clipPath id="clip0_1_39">
<rect width="43" height="54" fill="white"/>
</clipPath>
</defs>
</svg>
