<svg width="16" height="16" viewBox="0 0 16 16" fill="none" xmlns="http://www.w3.org/2000/svg">
<path d="M3.65869 6.55291V5.10579C3.65869 2.71081 4.38225 0.764435 8.00005 0.764435C11.6178 0.764435 12.3414 2.71081 12.3414 5.10579V6.55291" stroke="#919191" stroke-width="1.2" stroke-linecap="round" stroke-linejoin="round"/>
<path d="M11.6177 15.2355H4.38208C1.48784 15.2355 0.764282 14.512 0.764282 11.6177V10.1706C0.764282 7.27639 1.48784 6.55283 4.38208 6.55283H11.6177C14.5119 6.55283 15.2355 7.27639 15.2355 10.1706V11.6177C15.2355 14.512 14.5119 15.2355 11.6177 15.2355Z" stroke="#919191" stroke-width="1.2" stroke-linecap="round" stroke-linejoin="round"/>
<mask id="path-3-inside-1_1_219" fill="white">
<path fill-rule="evenodd" clip-rule="evenodd" d="M10.8917 10.8943H10.8982H10.8917Z"/>
</mask>
<path d="M10.8917 9.89428C10.3395 9.89428 9.89174 10.342 9.89174 10.8943C9.89174 11.4466 10.3395 11.8943 10.8917 11.8943V9.89428ZM10.8982 11.8943C11.4505 11.8943 11.8982 11.4466 11.8982 10.8943C11.8982 10.342 11.4505 9.89428 10.8982 9.89428V11.8943ZM10.8917 11.8943H10.8982V9.89428H10.8917V11.8943Z" fill="#919191" mask="url(#path-3-inside-1_1_219)"/>
<mask id="path-5-inside-2_1_219" fill="white">
<path fill-rule="evenodd" clip-rule="evenodd" d="M7.9966 10.8943H8.0031H7.9966Z"/>
</mask>
<path d="M7.9966 9.89428C7.44431 9.89428 6.9966 10.342 6.9966 10.8943C6.9966 11.4466 7.44431 11.8943 7.9966 11.8943V9.89428ZM8.0031 11.8943C8.55538 11.8943 9.0031 11.4466 9.0031 10.8943C9.0031 10.342 8.55538 9.89428 8.0031 9.89428V11.8943ZM7.9966 11.8943H8.0031V9.89428H7.9966V11.8943Z" fill="#919191" mask="url(#path-5-inside-2_1_219)"/>
<mask id="path-7-inside-3_1_219" fill="white">
<path fill-rule="evenodd" clip-rule="evenodd" d="M5.10182 10.8943H5.10832H5.10182Z"/>
</mask>
<path d="M5.10182 9.89428C4.54954 9.89428 4.10182 10.342 4.10182 10.8943C4.10182 11.4466 4.54954 11.8943 5.10182 11.8943V9.89428ZM5.10832 11.8943C5.66061 11.8943 6.10832 11.4466 6.10832 10.8943C6.10832 10.342 5.66061 9.89428 5.10832 9.89428V11.8943ZM5.10182 11.8943H5.10832V9.89428H5.10182V11.8943Z" fill="#919191" mask="url(#path-7-inside-3_1_219)"/>
</svg>
