<svg width="27" height="18" viewBox="0 0 27 18" fill="none" xmlns="http://www.w3.org/2000/svg">
<path d="M24.7507 0.000308819H19.8009V1.79984C19.8009 2.15785 19.6583 2.50199 19.4059 2.75437C19.1536 3.00812 18.8092 3.14936 18.4514 3.14936H7.649C7.29098 3.14936 6.94684 3.00672 6.69446 2.75437C6.44071 2.50204 6.29948 2.15765 6.29948 1.79984V0.000308819H1.34949C0.603305 0.000308819 0 0.60526 0 1.3498V16.6505C0 17.3967 0.604951 18 1.34949 18H24.7509C25.497 18 26.1003 17.395 26.1003 16.6505V1.3498C26.1017 0.603614 25.4968 0.000308819 24.7509 0.000308819H24.7507ZM6.29924 5.39971C7.41708 5.39971 8.32502 6.30621 8.32502 7.42549C8.32502 8.54333 7.41713 9.45127 6.29924 9.45127C5.18135 9.45127 4.27346 8.54338 4.27346 7.42549C4.27467 6.30765 5.18135 5.39971 6.29924 5.39971ZM9.89953 14.851C9.89953 15.0993 9.69781 15.3008 9.44969 15.3008H3.14867C2.90035 15.3008 2.69884 15.0991 2.69884 14.851V13.9513C2.69884 11.9625 4.31033 10.351 6.29913 10.351C8.28792 10.351 9.89941 11.9625 9.89941 13.9513L9.89953 14.851ZM22.9511 14.851H13.9509C13.7026 14.851 13.501 14.6493 13.501 14.4011C13.501 14.1528 13.7028 13.9513 13.9509 13.9513H22.9511C23.1994 13.9513 23.4009 14.153 23.4009 14.4011C23.4009 14.6493 23.1994 14.851 22.9511 14.851ZM22.9511 12.1504H13.9509C13.7026 12.1504 13.501 11.9486 13.501 11.7005C13.501 11.4522 13.7028 11.2507 13.9509 11.2507H22.9511C23.1994 11.2507 23.4009 11.4524 23.4009 11.7005C23.4009 11.9486 23.1994 12.1504 22.9511 12.1504ZM22.9511 9.44973H13.9509C13.7026 9.44973 13.501 9.24801 13.501 8.99989C13.501 8.75157 13.7028 8.55006 13.9509 8.55006H22.9511C23.1994 8.55006 23.4009 8.75177 23.4009 8.99989C23.4009 9.24821 23.1994 9.44973 22.9511 9.44973ZM22.9511 6.75054H13.9509C13.7026 6.75054 13.501 6.54883 13.501 6.3007C13.501 6.05238 13.7028 5.85087 13.9509 5.85087H22.9511C23.1994 5.85087 23.4009 6.05258 23.4009 6.3007C23.4009 6.54903 23.1994 6.75054 22.9511 6.75054ZM7.1988 0V1.79953C7.1988 1.91887 7.24541 2.03399 7.33039 2.11777C7.41397 2.20275 7.52929 2.24936 7.64863 2.24936H18.4495C18.5688 2.24936 18.684 2.20275 18.7677 2.11777C18.8527 2.03419 18.8993 1.91887 18.8993 1.79953V0H7.1988Z" fill="#3570B7"/>
</svg>
