<svg width="23" height="23" viewBox="0 0 23 23" fill="none" xmlns="http://www.w3.org/2000/svg">
<path d="M6.8754 0C5.15508 0 3.75 1.40508 3.75 3.1254V3.75H3.1254C1.40508 3.75 0 5.15508 0 6.8754V19.3758C0 21.0949 1.40508 22.5 3.1254 22.5H15.6258C17.3449 22.5 18.75 21.0949 18.75 19.3746V18.75H19.3746C21.0949 18.75 22.5 17.3449 22.5 15.6246V3.1254C22.5 1.40508 21.0949 0 19.3746 0H6.8754ZM6.8754 1.2504H19.3758C20.4246 1.2504 21.2496 2.0754 21.2496 3.1254V15.6258C21.2496 16.6746 20.4246 17.4996 19.3746 17.4996H18.75V6.87543C18.75 5.15511 17.3449 3.75003 15.6246 3.75003H5.00043V3.12543C5.00043 2.07543 5.8254 1.2504 6.8754 1.2504ZM3.1254 5.0004H15.6258C16.6746 5.0004 17.4996 5.8254 17.4996 6.8754V9.9996H1.25043V6.8754C1.25043 5.8254 2.0754 5.0004 3.1254 5.0004ZM1.2504 11.25H17.5008V19.3746C17.4996 20.4246 16.6746 21.2496 15.6246 21.2496H3.12543C2.07543 21.2496 1.25043 20.4246 1.25043 19.3746L1.2504 11.25Z" fill="white"/>
<path d="M9.37497 12.5003C9.02928 12.5003 8.75037 12.7792 8.75037 13.1249V15.6245H6.2496C5.90508 15.6245 5.625 15.9046 5.625 16.2503C5.625 16.4155 5.69063 16.5749 5.80781 16.6921C5.925 16.8093 6.08438 16.8749 6.24962 16.8749H8.75039V19.3745C8.75039 19.5409 8.81602 19.6991 8.93321 19.8163C9.05039 19.9335 9.20977 20.0003 9.37502 20.0003C9.54026 20.0003 9.69962 19.9335 9.81683 19.8163C9.93401 19.6991 9.99964 19.5409 9.99964 19.3745V16.8749H12.5004C12.6656 16.8749 12.825 16.8093 12.9422 16.6921C13.0594 16.5749 13.125 16.4155 13.125 16.2503C13.125 16.0839 13.0594 15.9257 12.9422 15.8085C12.825 15.6913 12.6657 15.6245 12.5004 15.6245H9.99964V13.1249C9.99964 12.9596 9.93402 12.8003 9.81683 12.6831C9.69964 12.5658 9.54022 12.5003 9.37497 12.5003Z" fill="white"/>
<path d="M3.74991 6.24951C3.06672 6.24951 2.49951 6.81669 2.49951 7.49991C2.49951 8.18313 3.06669 8.75031 3.74991 8.75031C4.43313 8.75031 5.00031 8.18313 5.00031 7.49991C5.00031 6.81669 4.43313 6.24951 3.74991 6.24951Z" fill="white"/>
</svg>
