<svg width="29" height="29" viewBox="0 0 29 29" fill="none" xmlns="http://www.w3.org/2000/svg">
<path fill-rule="evenodd" clip-rule="evenodd" d="M8.7 1.45C7.49875 1.45 6.525 2.42378 6.525 3.625V15.225H9.38259C10.5533 15.225 11.6519 15.7904 12.3324 16.743L12.7301 17.2999C13.5976 18.5143 15.4024 18.5143 16.2699 17.2999L16.6676 16.743C17.3481 15.7904 18.4467 15.225 19.6174 15.225H22.475V3.625C22.475 2.42378 21.5013 1.45 20.3 1.45H8.7ZM23.925 15.225V3.625C23.925 1.62297 22.302 0 20.3 0H8.7C6.69799 0 5.075 1.62297 5.075 3.625V15.225H3.625C1.62297 15.225 0 16.848 0 18.85V25.375C0 27.377 1.62297 29 3.625 29H25.375C27.377 29 29 27.377 29 25.375V18.85C29 16.848 27.377 15.225 25.375 15.225H23.925ZM3.625 16.675C2.42378 16.675 1.45 17.6487 1.45 18.85V25.375C1.45 26.5763 2.42378 27.55 3.625 27.55H25.375C26.5763 27.55 27.55 26.5763 27.55 25.375V18.85C27.55 17.6487 26.5763 16.675 25.375 16.675H19.6174C18.915 16.675 18.2558 17.0142 17.8475 17.5858L17.4498 18.1426C16.0041 20.1667 12.9959 20.1667 11.5502 18.1426L11.1525 17.5858C10.7442 17.0142 10.085 16.675 9.38259 16.675H3.625Z" fill="white"/>
<path fill-rule="evenodd" clip-rule="evenodd" d="M9.22705 4.61368C9.22705 4.24966 9.56428 3.95459 9.9803 3.95459H19.0193C19.4353 3.95459 19.7725 4.24966 19.7725 4.61368C19.7725 4.9777 19.4353 5.27277 19.0193 5.27277H9.9803C9.56428 5.27277 9.22705 4.9777 9.22705 4.61368Z" fill="white"/>
<path fill-rule="evenodd" clip-rule="evenodd" d="M11.8638 8.56827C11.8638 8.20425 12.1588 7.90918 12.5229 7.90918H16.4774C16.8414 7.90918 17.1365 8.20425 17.1365 8.56827C17.1365 8.93229 16.8414 9.22736 16.4774 9.22736H12.5229C12.1588 9.22736 11.8638 8.93229 11.8638 8.56827Z" fill="white"/>
</svg>
