<svg width="100" height="125" viewBox="0 0 100 125" fill="none" xmlns="http://www.w3.org/2000/svg">
<g clip-path="url(#clip0_1_109)">
<path fill-rule="evenodd" clip-rule="evenodd" d="M43.308 52.2V34.467H37.752V52.2C37.752 52.3843 37.7156 52.5667 37.645 52.7369C37.5743 52.9071 37.4707 53.0617 37.3402 53.1917C37.2097 53.3218 37.0547 53.4248 36.8843 53.4949C36.7139 53.5649 36.5313 53.6007 36.347 53.6H34.376L40.53 66.66L46.685 53.6H44.714C44.3421 53.6 43.9854 53.4527 43.7219 53.1903C43.4584 52.9279 43.3096 52.5719 43.308 52.2ZM36.222 7.4C35.8522 7.43355 35.4841 7.3188 35.1989 7.08101C34.9136 6.84321 34.7346 6.50184 34.701 6.132C34.6674 5.76215 34.7822 5.39413 35.02 5.10889C35.2578 4.82364 35.5992 4.64455 35.969 4.611C36.205 4.589 36.4307 4.573 36.646 4.563C36.927 4.549 37.151 4.543 37.317 4.543C37.5047 4.53799 37.6916 4.57064 37.8665 4.63902C38.0414 4.7074 38.2008 4.81013 38.3353 4.94114C38.4699 5.07215 38.5768 5.22878 38.6499 5.4018C38.7229 5.57481 38.7605 5.7607 38.7605 5.9485C38.7605 6.13629 38.7229 6.32218 38.6499 6.4952C38.5768 6.66822 38.4699 6.82485 38.3353 6.95586C38.2008 7.08687 38.0414 7.18959 37.8665 7.25797C37.6916 7.32636 37.5047 7.35901 37.317 7.354C37.074 7.354 36.891 7.354 36.767 7.363C36.567 7.372 36.39 7.384 36.222 7.4ZM25.8 18.877C25.8 19.2499 25.6519 19.6075 25.3882 19.8712C25.1245 20.1349 24.7669 20.283 24.394 20.283C24.0211 20.283 23.6635 20.1349 23.3998 19.8712C23.1361 19.6075 22.988 19.2499 22.988 18.877C22.9905 16.4072 23.6298 13.9798 24.8443 11.8292C26.0587 9.6786 27.8073 7.87755 29.921 6.6C30.0786 6.50486 30.2534 6.44168 30.4354 6.41409C30.6174 6.38649 30.803 6.39502 30.9817 6.43917C31.1604 6.48333 31.3287 6.56225 31.4769 6.67143C31.6251 6.78061 31.7504 6.91791 31.8455 7.0755C31.9406 7.23308 32.0038 7.40787 32.0314 7.58987C32.059 7.77187 32.0505 7.95752 32.0063 8.13623C31.9622 8.31493 31.8833 8.48319 31.7741 8.6314C31.6649 8.7796 31.5276 8.90486 31.37 9C29.6655 10.0227 28.2559 11.4708 27.2795 13.2023C26.3031 14.9337 25.7932 16.8892 25.8 18.877ZM43.64 90.486L43.1 92.655C42.7862 93.9279 42.0535 95.0583 41.0197 95.8645C39.9858 96.6706 38.711 97.1058 37.4 97.1H33.765C33.0894 97.1018 32.4419 97.3711 31.9643 97.849C31.4866 98.3268 31.2176 98.9744 31.216 99.65V100H68.784V99.653C68.7824 98.9774 68.5134 98.3298 68.0357 97.852C67.5581 97.3741 66.9106 97.1048 66.235 97.103H62.6C61.2886 97.1086 60.0134 96.6731 58.9796 95.8663C57.9457 95.0595 57.2133 93.9284 56.9 92.655L56.356 90.486H43.64ZM65.059 39.674V38.868H67.837C68.0827 38.8697 68.3244 38.8066 68.538 38.6853C68.7516 38.5639 68.9296 38.3885 69.0539 38.1766C69.1782 37.9647 69.2446 37.7238 69.2464 37.4781C69.2482 37.2325 69.1853 36.9907 69.064 36.777L60.738 19.11C60.6254 18.8684 60.4462 18.6639 60.2214 18.5207C59.9966 18.3774 59.7356 18.3013 59.469 18.3013C59.2024 18.3013 58.9414 18.3774 58.7166 18.5207C58.4918 18.6639 58.3126 18.8684 58.2 19.11L49.834 36.864C49.7326 37.0777 49.6871 37.3136 49.7015 37.5497C49.716 37.7858 49.7901 38.0143 49.9168 38.2141C50.0435 38.4138 50.2188 38.5781 50.4262 38.6918C50.6336 38.8054 50.8665 38.8647 51.103 38.864H53.881V39.67H46.119V33.062C46.1191 32.8774 46.0829 32.6946 46.0123 32.524C45.9418 32.3534 45.8383 32.1984 45.7078 32.0679C45.5774 31.9373 45.4224 31.8337 45.2519 31.763C45.0814 31.6924 44.8986 31.656 44.714 31.656H36.347C36.1623 31.6559 35.9794 31.6921 35.8088 31.7628C35.6381 31.8334 35.4831 31.9369 35.3525 32.0675C35.2219 32.1981 35.1184 32.3531 35.0478 32.5238C34.9771 32.6944 34.9409 32.8773 34.941 33.062V39.674H13.471C12.3282 39.6766 11.233 40.1318 10.4249 40.9399C9.61679 41.748 9.16164 42.8432 9.159 43.986V49.513C7.68381 48.5149 6.42393 47.2309 5.454 45.737C4.17779 43.7504 3.4594 41.4571 3.37411 39.0974C3.28883 36.7378 3.83978 34.3986 4.96925 32.3251C6.09871 30.2515 7.7651 28.5199 9.7938 27.3118C11.8225 26.1036 14.1388 25.4633 16.5 25.458H16.7C16.8847 25.4581 17.0676 25.4219 17.2382 25.3512C17.4089 25.2806 17.5639 25.1771 17.6945 25.0465C17.8251 24.9159 17.9286 24.7608 17.9992 24.5902C18.0699 24.4196 18.1061 24.2367 18.106 24.052C18.1062 23.9552 18.0962 23.8587 18.076 23.764C18.016 23.3187 17.9697 22.8643 17.937 22.401C17.9043 21.9377 17.888 21.449 17.888 20.935C17.887 16.0131 19.6197 11.2482 22.7819 7.47654C25.9441 3.7049 30.3337 1.16761 35.1803 0.310043C40.0269 -0.547525 45.0207 0.329433 49.2851 2.78698C53.5495 5.24453 56.812 9.12562 58.5 13.749C58.5625 13.9227 58.6588 14.0823 58.7833 14.2187C58.9077 14.355 59.0579 14.4654 59.2252 14.5435C59.3925 14.6216 59.5736 14.6658 59.7581 14.6736C59.9425 14.6814 60.1267 14.6527 60.3 14.589C60.423 14.5449 60.5392 14.4836 60.645 14.407C62.5189 13.0555 64.7217 12.2328 67.0227 12.025C69.3237 11.8171 71.6383 12.2319 73.724 13.2258C75.8097 14.2196 77.5898 15.7561 78.8778 17.6741C80.1658 19.5922 80.9143 21.8213 81.045 24.128C81.064 24.4863 81.2198 24.8237 81.4803 25.0704C81.7408 25.3172 82.0862 25.4545 82.445 25.454H83.5C85.8647 25.4516 88.1863 26.0873 90.2199 27.294C92.2535 28.5007 93.9239 30.2338 95.0549 32.3106C96.1858 34.3873 96.7355 36.7307 96.646 39.0937C96.5564 41.4568 95.8309 43.7518 94.546 45.737C93.5761 47.2309 92.3162 48.5149 90.841 49.513V43.986C90.8384 42.8432 90.3832 41.748 89.5751 40.9399C88.767 40.1318 87.6718 39.6766 86.529 39.674H65.059ZM46.119 44.374V42.486H53.881V44.379L46.119 44.374ZM34.941 47.19V50.79H32.163C31.9266 50.7895 31.6938 50.8489 31.4865 50.9626C31.2792 51.0763 31.1041 51.2407 30.9775 51.4404C30.8509 51.6401 30.7769 51.8686 30.7625 52.1046C30.7481 52.3406 30.7937 52.5764 30.895 52.79L39.261 70.55C39.3737 70.7914 39.5529 70.9955 39.7776 71.1386C40.0023 71.2816 40.2631 71.3576 40.5295 71.3576C40.7959 71.3576 41.0567 71.2816 41.2814 71.1386C41.5061 70.9955 41.6853 70.7914 41.798 70.55L50.125 52.882C50.2435 52.6683 50.3043 52.4274 50.3014 52.183C50.2984 51.9387 50.2318 51.6993 50.1082 51.4885C49.9845 51.2777 49.8081 51.1028 49.5962 50.981C49.3843 50.8592 49.1444 50.7948 48.9 50.794H46.119V47.194H53.881V56.6C53.8803 56.7847 53.9162 56.9677 53.9866 57.1385C54.057 57.3092 54.1604 57.4644 54.291 57.595C54.4216 57.7256 54.5768 57.829 54.7475 57.8994C54.9183 57.9698 55.1013 58.0057 55.286 58.005H63.653C63.8376 58.0051 64.0204 57.9689 64.191 57.8983C64.3616 57.8278 64.5166 57.7243 64.6471 57.5938C64.7777 57.4634 64.8813 57.3084 64.952 57.1379C65.0226 56.9674 65.059 56.7846 65.059 56.6V47.19H82.68V82.97H17.32V47.19H34.941ZM65.059 44.379V42.486H86.529C86.9263 42.4878 87.3067 42.6465 87.5876 42.9274C87.8685 43.2083 88.0272 43.5887 88.029 43.986V86.174C88.0266 86.5711 87.8678 86.9513 87.587 87.232C87.3063 87.5128 86.9261 87.6716 86.529 87.674H13.471C13.0737 87.6722 12.6933 87.5135 12.4124 87.2326C12.1315 86.9517 11.9728 86.5713 11.971 86.174V43.986C11.9726 43.5887 12.1311 43.208 12.4121 42.9271C12.693 42.6461 13.0737 42.4876 13.471 42.486H34.941V44.379H15.914C15.7297 44.379 15.5473 44.4154 15.3771 44.486C15.2069 44.5567 15.0523 44.6603 14.9223 44.7908C14.7922 44.9213 14.6892 45.0763 14.6191 45.2467C14.5491 45.4171 14.5133 45.5997 14.514 45.784V84.376C14.514 84.7479 14.6613 85.1046 14.9237 85.3681C15.1861 85.6316 15.5421 85.7804 15.914 85.782H84.086C84.4587 85.7817 84.8161 85.6335 85.0795 85.3698C85.343 85.1062 85.491 84.7487 85.491 84.376V45.784C85.4917 45.5993 85.4558 45.4163 85.3854 45.2455C85.315 45.0748 85.2116 44.9196 85.081 44.789C84.9504 44.6584 84.7952 44.555 84.6244 44.4846C84.4537 44.4142 84.2707 44.3783 84.086 44.379H65.059ZM62.248 55.2V37.463C62.248 37.0903 62.396 36.7328 62.6595 36.4692C62.9229 36.2055 63.2803 36.0573 63.653 36.057H65.624L59.47 23L53.315 36.057H55.286C55.6589 36.057 56.0165 36.2051 56.2802 36.4688C56.5439 36.7325 56.692 37.0901 56.692 37.463V55.2H62.248Z" fill="url(#paint0_linear_1_109)"/>
</g>
<defs>
<linearGradient id="paint0_linear_1_109" x1="16.4911" y1="68.6454" x2="139.198" y2="39.9491" gradientUnits="userSpaceOnUse">
<stop stop-color="#3570B7"/>
<stop offset="1" stop-color="#D0DDED"/>
</linearGradient>
<clipPath id="clip0_1_109">
<rect width="100" height="125" fill="white"/>
</clipPath>
</defs>
</svg>
