<svg width="81" height="101" viewBox="0 0 81 101" fill="none" xmlns="http://www.w3.org/2000/svg">
<path d="M76.4835 56.3652H4.51661C3.10073 56.3652 1.95215 57.511 1.95215 58.9234V71.4344C1.95215 72.8484 3.10073 73.9926 4.51661 73.9926H76.4835C77.8994 73.9926 79.0479 72.8484 79.0479 71.4344V58.9234C79.0479 57.511 77.8994 56.3652 76.4835 56.3652ZM7.37915 68.5079C5.53964 68.5079 4.04438 67.0179 4.04438 65.1813C4.04438 63.3431 5.53964 61.8499 7.37915 61.8499C9.22514 61.8499 10.718 63.3431 10.718 65.1813C10.718 67.0179 9.22595 68.5079 7.37915 68.5079ZM16.8416 68.5079C15.0021 68.5079 13.5068 67.0179 13.5068 65.1813C13.5068 63.3431 15.0021 61.8499 16.8416 61.8499C18.6876 61.8499 20.1804 63.3431 20.1804 65.1813C20.1804 67.0179 18.6876 68.5079 16.8416 68.5079ZM26.3048 68.5079C24.4653 68.5079 22.97 67.0179 22.97 65.1813C22.97 63.3431 24.4653 61.8499 26.3048 61.8499C28.1508 61.8499 29.6436 63.3431 29.6436 65.1813C29.6436 67.0179 28.1508 68.5079 26.3048 68.5079ZM35.7664 68.5079C33.9269 68.5079 32.4316 67.0179 32.4316 65.1813C32.4316 63.3431 33.9269 61.8499 35.7664 61.8499C37.6124 61.8499 39.1052 63.3431 39.1052 65.1813C39.1052 67.0179 37.6132 68.5079 35.7664 68.5079ZM45.2296 68.5079C43.3901 68.5079 41.8949 67.0179 41.8949 65.1813C41.8949 63.3431 43.3901 61.8499 45.2296 61.8499C47.0748 61.8499 48.5685 63.3431 48.5685 65.1813C48.5685 67.0179 47.0748 68.5079 45.2296 68.5079ZM54.6921 68.5079C52.8526 68.5079 51.3573 67.0179 51.3573 65.1813C51.3573 63.3431 52.8526 61.8499 54.6921 61.8499C56.538 61.8499 58.0309 63.3431 58.0309 65.1813C58.0309 67.0179 56.538 68.5079 54.6921 68.5079ZM64.1545 68.5079C62.3142 68.5079 60.8197 67.0179 60.8197 65.1813C60.8197 63.3431 62.3142 61.8499 64.1545 61.8499C65.9997 61.8499 67.4933 63.3431 67.4933 65.1813C67.4933 67.0179 65.9997 68.5079 64.1545 68.5079ZM73.6169 68.5079C71.7774 68.5079 70.2821 67.0179 70.2821 65.1813C70.2821 63.3431 71.7774 61.8499 73.6169 61.8499C75.4629 61.8499 76.9557 63.3431 76.9557 65.1813C76.9557 67.0179 75.4629 68.5079 73.6169 68.5079ZM28.1403 33.9836L37.0308 41.0407C37.3281 41.2767 37.6845 41.3922 38.0385 41.3922C38.4977 41.3922 38.9546 41.1983 39.2745 40.8218L52.2289 25.5918C52.8072 24.9114 52.7229 23.8917 52.0417 23.314C51.3581 22.7355 50.3367 22.8203 49.7584 23.5007L37.8189 37.5364L30.1572 31.4546C29.4573 30.8987 28.4383 31.0142 27.8811 31.7132C27.3238 32.4113 27.4396 33.4285 28.1403 33.9836ZM40.5 54.3784C53.6472 54.3784 64.3448 43.7079 64.3448 30.5925C64.3448 17.477 53.6472 6.80737 40.5 6.80737C27.3521 6.80737 16.6553 17.4778 16.6553 30.5933C16.6561 43.7079 27.3521 54.3784 40.5 54.3784ZM40.5 10.0394C51.8611 10.0394 61.1048 19.2595 61.1048 30.5933C61.1048 41.9271 51.8611 51.1464 40.5 51.1464C29.139 51.1464 19.8961 41.9263 19.8961 30.5925C19.8961 19.2587 29.139 10.0394 40.5 10.0394Z" fill="#2AB513"/>
</svg>
