<svg width="116" height="145" viewBox="0 0 116 145" fill="none" xmlns="http://www.w3.org/2000/svg">
<g clip-path="url(#clip0_1_91)">
<path d="M96.0625 30.8125V38.0625H92.4375C92.4347 35.6598 91.479 33.3564 89.78 31.6575C88.0811 29.9585 85.7776 29.0028 83.375 29H16.3125C13.9098 29.0028 11.6064 29.9585 9.90746 31.6575C8.20852 33.3564 7.25282 35.6598 7.25 38.0625V50.2666L3.625 66.5209V19.9375C3.625 18.4954 4.19788 17.1123 5.21761 16.0926C6.23734 15.0729 7.62038 14.5 9.0625 14.5H32.9179C34.2495 14.5 35.5347 14.9888 36.5297 15.8737L46.6972 24.917C47.0289 25.212 47.4573 25.375 47.9011 25.375H90.625C92.0671 25.375 93.4502 25.9479 94.4699 26.9676C95.4896 27.9873 96.0625 29.3704 96.0625 30.8125ZM17.2365 38.0625H88.8125C88.8125 36.6204 88.2396 35.2373 87.2199 34.2176C86.2002 33.1979 84.8171 32.625 83.375 32.625H16.3125C14.8704 32.625 13.4873 33.1979 12.4676 34.2176C11.4479 35.2373 10.875 36.6204 10.875 38.0625V40.692C12.5632 39.007 14.8513 38.0613 17.2365 38.0625ZM66.4939 55.6189C71.2573 50.8697 77.5217 47.9214 84.2173 47.2774C90.9128 46.6335 97.6243 48.3339 103.206 52.0882L104.049 48.3083C104.22 47.5137 104.211 46.6911 104.025 45.9002C103.838 45.1093 103.477 44.37 102.969 43.7359C102.46 43.1019 101.817 42.589 101.086 42.2347C100.354 41.8804 99.5532 41.6934 98.7405 41.6875H17.2365C15.9986 41.6816 14.7963 42.1008 13.8304 42.875C12.8645 43.6492 12.1936 44.7314 11.9299 45.9409L4.55088 80.812C4.43914 81.3401 4.44673 81.8864 4.57308 82.4111C4.69944 82.9359 4.94137 83.4258 5.28123 83.8451C5.62109 84.2644 6.05029 84.6025 6.5375 84.8347C7.0247 85.067 7.55763 85.1875 8.09736 85.1875H59.486C57.8058 80.0929 57.5711 74.6321 58.8083 69.4121C60.0454 64.1922 62.7059 59.4175 66.4939 55.6189ZM85.122 62.497V52.2943C82.6784 55.2257 80.6532 58.4821 79.1045 61.9702C80.9583 62.2231 82.975 62.4142 85.122 62.497ZM78.2665 86.6503C80.5391 86.3336 82.8281 86.1479 85.122 86.0943V77.9587H76.4139C76.6826 80.9194 77.3045 83.8374 78.2665 86.6503ZM88.747 52.6407V62.5285C90.5159 62.4891 92.351 62.3634 94.2322 62.1379C92.7498 58.7845 90.9108 55.6005 88.747 52.6407ZM76.3085 74.3337H85.122V66.1755C82.6618 66.0871 80.2086 65.8578 77.7747 65.4887C76.8726 68.3535 76.379 71.3311 76.3085 74.3337ZM72.7727 77.9587H61.7178C62.0193 82.2194 63.3993 86.3334 65.7282 89.914C65.7684 89.8951 65.7955 89.8606 65.8376 89.8444C68.6794 88.7527 71.6063 87.8971 74.5886 87.2864C73.6278 84.257 73.0185 81.1273 72.7727 77.9587ZM74.1182 64.8344C71.2407 64.29 68.4235 63.4651 65.7067 62.3715C63.3835 65.9559 62.0101 70.0724 61.7158 74.3337H72.6684C72.7308 71.1172 73.2183 67.9231 74.1182 64.8344ZM95.592 65.6341C93.3229 65.9498 91.0374 66.1344 88.747 66.1871V74.3338H97.4541C97.1832 71.3699 96.558 68.4492 95.592 65.6341ZM99.7508 87.4566C102.662 87.9839 105.507 88.8284 108.235 89.9751C110.586 86.3802 111.98 82.2438 112.282 77.9588H101.201C101.138 81.1748 100.651 84.3685 99.7508 87.4566ZM80.8907 51.5246C75.8912 52.7712 71.3899 55.5107 67.9857 59.3784C70.3825 60.2012 72.8338 60.856 75.3216 61.338C76.7442 57.8391 78.6163 54.5402 80.8907 51.5246ZM85.122 99.6618V89.7635C83.3501 89.8027 81.5115 89.9284 79.627 90.1543C81.1096 93.5128 82.9521 96.7006 85.122 99.6618ZM68.0179 92.9071C71.5069 96.8606 76.1416 99.6283 81.277 100.825C79.1098 97.67 77.2887 94.2909 75.845 90.746C73.1829 91.258 70.5656 91.9807 68.0179 92.9071ZM92.9839 100.758C98.0017 99.5332 102.526 96.8058 105.952 92.9404C103.533 92.1049 101.058 91.4415 98.5461 90.9554C97.1246 94.4501 95.2549 97.7451 92.9839 100.758ZM105.975 59.335C102.443 55.3334 97.7388 52.5481 92.5319 51.3758C94.7246 54.5567 96.5658 57.966 98.0232 61.5439C100.729 61.0231 103.388 60.2844 105.975 59.335ZM88.747 89.7957V99.9964C91.1894 97.0653 93.2139 93.8099 94.7627 90.3231C92.9097 90.0701 90.8935 89.8787 88.747 89.7957ZM97.5612 77.9587H88.747V86.1183C91.2075 86.205 93.661 86.432 96.0957 86.798C96.9973 83.9351 97.4907 80.9594 97.5612 77.9587ZM101.096 74.3337H112.284C111.989 70.0441 110.6 65.9015 108.25 62.3004C105.358 63.4985 102.352 64.4028 99.279 64.9998C100.241 68.0311 100.85 71.163 101.096 74.3337Z" fill="url(#paint0_linear_1_91)"/>
<path d="M1.76847 145.46V146.028H0.0852273V145.46H1.76847ZM0.470526 148.188V145.263C0.470526 145.065 0.508996 144.902 0.585938 144.771C0.664062 144.641 0.770597 144.543 0.90554 144.478C1.04048 144.413 1.19377 144.381 1.36541 144.381C1.48142 144.381 1.58736 144.39 1.68324 144.407C1.7803 144.425 1.85251 144.441 1.89986 144.455L1.76491 145.023C1.73532 145.014 1.69863 145.005 1.65483 144.997C1.61222 144.989 1.56842 144.984 1.52344 144.984C1.41217 144.984 1.33464 145.01 1.29084 145.062C1.24704 145.113 1.22514 145.185 1.22514 145.277V148.188H0.470526ZM2.23056 148.188V145.46H2.96387V145.936H2.99228C3.04199 145.767 3.12544 145.639 3.24263 145.553C3.35982 145.465 3.49476 145.421 3.64746 145.421C3.68534 145.421 3.72618 145.424 3.76998 145.428C3.81377 145.433 3.85224 145.44 3.88539 145.448V146.119C3.84988 146.108 3.80075 146.099 3.73801 146.091C3.67528 146.082 3.61787 146.078 3.56578 146.078C3.45452 146.078 3.35508 146.102 3.26749 146.151C3.18108 146.198 3.11242 146.265 3.06152 146.35C3.01181 146.435 2.98695 146.533 2.98695 146.645V148.188H2.23056ZM5.38175 148.241C5.10594 148.241 4.86742 148.182 4.66619 148.065C4.46615 147.947 4.31167 147.782 4.20277 147.571C4.09387 147.359 4.03942 147.114 4.03942 146.835C4.03942 146.553 4.09387 146.307 4.20277 146.096C4.31167 145.884 4.46615 145.719 4.66619 145.602C4.86742 145.484 5.10594 145.425 5.38175 145.425C5.65755 145.425 5.89548 145.484 6.09553 145.602C6.29676 145.719 6.45182 145.884 6.56072 146.096C6.66963 146.307 6.72408 146.553 6.72408 146.835C6.72408 147.114 6.66963 147.359 6.56072 147.571C6.45182 147.782 6.29676 147.947 6.09553 148.065C5.89548 148.182 5.65755 148.241 5.38175 148.241ZM5.3853 147.655C5.51077 147.655 5.61553 147.619 5.69957 147.548C5.78362 147.476 5.84695 147.378 5.88956 147.254C5.93336 147.129 5.95526 146.988 5.95526 146.829C5.95526 146.671 5.93336 146.529 5.88956 146.405C5.84695 146.281 5.78362 146.182 5.69957 146.11C5.61553 146.038 5.51077 146.002 5.3853 146.002C5.25864 146.002 5.15211 146.038 5.0657 146.11C4.98047 146.182 4.91596 146.281 4.87216 146.405C4.82955 146.529 4.80824 146.671 4.80824 146.829C4.80824 146.988 4.82955 147.129 4.87216 147.254C4.91596 147.378 4.98047 147.476 5.0657 147.548C5.15211 147.619 5.25864 147.655 5.3853 147.655ZM7.21591 148.188V145.46H7.93679V145.941H7.96875C8.02557 145.782 8.12027 145.656 8.25284 145.563C8.38542 145.471 8.54403 145.425 8.72869 145.425C8.91572 145.425 9.07493 145.471 9.20632 145.565C9.33771 145.657 9.42531 145.783 9.46911 145.941H9.49751C9.55315 145.785 9.65376 145.66 9.79936 145.567C9.94614 145.472 10.1196 145.425 10.3196 145.425C10.5741 145.425 10.7807 145.506 10.9393 145.668C11.0991 145.829 11.179 146.057 11.179 146.353V148.188H10.4244V146.502C10.4244 146.351 10.3841 146.237 10.3036 146.162C10.2231 146.086 10.1225 146.048 10.0018 146.048C9.86446 146.048 9.75734 146.092 9.6804 146.179C9.60346 146.266 9.56499 146.38 9.56499 146.522V148.188H8.83168V146.487C8.83168 146.353 8.79321 146.246 8.71626 146.167C8.64051 146.088 8.54048 146.048 8.41619 146.048C8.33215 146.048 8.25639 146.069 8.18892 146.112C8.12263 146.153 8.06996 146.212 8.03089 146.288C7.99183 146.362 7.9723 146.45 7.9723 146.55V148.188H7.21591ZM14.3843 145.46V146.028H12.7419V145.46H14.3843ZM13.1148 144.807H13.8712V147.349C13.8712 147.419 13.8818 147.474 13.9031 147.513C13.9244 147.551 13.954 147.577 13.9919 147.593C14.031 147.608 14.076 147.616 14.1269 147.616C14.1624 147.616 14.1979 147.613 14.2334 147.607C14.2689 147.6 14.2961 147.594 14.3151 147.591L14.434 148.154C14.3962 148.166 14.3429 148.179 14.2742 148.195C14.2056 148.211 14.1221 148.221 14.0239 148.225C13.8416 148.232 13.6818 148.208 13.5445 148.152C13.4084 148.096 13.3024 148.01 13.2267 147.893C13.1509 147.776 13.1136 147.628 13.1148 147.449V144.807ZM15.692 146.611V148.188H14.9356V144.551H15.6707V145.941H15.7027C15.7642 145.78 15.8637 145.654 16.001 145.563C16.1383 145.471 16.3105 145.425 16.5177 145.425C16.7071 145.425 16.8722 145.466 17.0131 145.549C17.1551 145.631 17.2652 145.748 17.3433 145.902C17.4226 146.055 17.4617 146.238 17.4605 146.451V148.188H16.7041V146.586C16.7053 146.418 16.6627 146.287 16.5763 146.194C16.491 146.1 16.3715 146.053 16.2176 146.053C16.1146 146.053 16.0235 146.075 15.9442 146.119C15.866 146.163 15.8045 146.227 15.7595 146.311C15.7157 146.394 15.6932 146.494 15.692 146.611ZM19.2987 148.241C19.0181 148.241 18.7766 148.184 18.5742 148.07C18.373 147.955 18.2179 147.793 18.109 147.584C18.0001 147.373 17.9457 147.124 17.9457 146.836C17.9457 146.556 18.0001 146.31 18.109 146.098C18.2179 145.886 18.3712 145.721 18.5689 145.602C18.7678 145.484 19.0009 145.425 19.2685 145.425C19.4484 145.425 19.6159 145.454 19.771 145.512C19.9272 145.569 20.0633 145.654 20.1793 145.769C20.2965 145.884 20.3877 146.028 20.4528 146.202C20.5179 146.375 20.5504 146.578 20.5504 146.81V147.017H18.2475V146.549H19.8384C19.8384 146.44 19.8147 146.343 19.7674 146.259C19.7201 146.175 19.6544 146.109 19.5703 146.062C19.4875 146.014 19.391 145.989 19.2809 145.989C19.1661 145.989 19.0643 146.016 18.9755 146.069C18.8879 146.121 18.8192 146.192 18.7695 146.281C18.7198 146.368 18.6944 146.466 18.6932 146.574V147.019C18.6932 147.154 18.718 147.271 18.7678 147.369C18.8187 147.467 18.8903 147.543 18.9826 147.596C19.0749 147.65 19.1844 147.676 19.3111 147.676C19.3951 147.676 19.4721 147.664 19.5419 147.641C19.6117 147.617 19.6715 147.581 19.7212 147.534C19.771 147.487 19.8088 147.429 19.8349 147.36L20.5344 147.406C20.4989 147.574 20.4261 147.721 20.3161 147.847C20.2071 147.971 20.0663 148.068 19.8935 148.138C19.7218 148.206 19.5236 148.241 19.2987 148.241ZM25.257 144.551V148.188H24.593L23.0109 145.899H22.9843V148.188H22.2155V144.551H22.8902L24.4598 146.838H24.4917V144.551H25.257ZM27.1103 148.241C26.8345 148.241 26.5959 148.182 26.3947 148.065C26.1947 147.947 26.0402 147.782 25.9313 147.571C25.8224 147.359 25.7679 147.114 25.7679 146.835C25.7679 146.553 25.8224 146.307 25.9313 146.096C26.0402 145.884 26.1947 145.719 26.3947 145.602C26.5959 145.484 26.8345 145.425 27.1103 145.425C27.3861 145.425 27.624 145.484 27.824 145.602C28.0253 145.719 28.1803 145.884 28.2892 146.096C28.3981 146.307 28.4526 146.553 28.4526 146.835C28.4526 147.114 28.3981 147.359 28.2892 147.571C28.1803 147.782 28.0253 147.947 27.824 148.065C27.624 148.182 27.3861 148.241 27.1103 148.241ZM27.1138 147.655C27.2393 147.655 27.344 147.619 27.4281 147.548C27.5121 147.476 27.5755 147.378 27.6181 147.254C27.6619 147.129 27.6838 146.988 27.6838 146.829C27.6838 146.671 27.6619 146.529 27.6181 146.405C27.5755 146.281 27.5121 146.182 27.4281 146.11C27.344 146.038 27.2393 146.002 27.1138 146.002C26.9872 146.002 26.8806 146.038 26.7942 146.11C26.709 146.182 26.6445 146.281 26.6007 146.405C26.5581 146.529 26.5368 146.671 26.5368 146.829C26.5368 146.988 26.5581 147.129 26.6007 147.254C26.6445 147.378 26.709 147.476 26.7942 147.548C26.8806 147.619 26.9872 147.655 27.1138 147.655ZM30.6934 147.026V145.46H31.4498V148.188H30.7235V147.692H30.6951C30.6336 147.852 30.5312 147.98 30.388 148.077C30.2459 148.174 30.0725 148.223 29.8677 148.223C29.6854 148.223 29.525 148.182 29.3865 148.099C29.248 148.016 29.1397 147.898 29.0616 147.745C28.9847 147.593 28.9456 147.41 28.9444 147.197V145.46H29.7008V147.062C29.702 147.223 29.7452 147.35 29.8304 147.444C29.9157 147.537 30.0299 147.584 30.1731 147.584C30.2643 147.584 30.3495 147.563 30.4288 147.522C30.5081 147.479 30.572 147.416 30.6206 147.333C30.6703 147.251 30.6945 147.148 30.6934 147.026ZM32.8112 146.611V148.188H32.0548V145.46H32.7757V145.941H32.8076C32.868 145.783 32.9692 145.657 33.1112 145.565C33.2533 145.471 33.4255 145.425 33.6279 145.425C33.8173 145.425 33.9825 145.466 34.1233 145.549C34.2642 145.632 34.3737 145.75 34.4518 145.904C34.5299 146.057 34.569 146.239 34.569 146.451V148.188H33.8126V146.586C33.8138 146.419 33.7712 146.289 33.6847 146.195C33.5983 146.101 33.4794 146.053 33.3279 146.053C33.2261 146.053 33.1361 146.075 33.058 146.119C32.981 146.163 32.9207 146.227 32.8769 146.311C32.8343 146.394 32.8124 146.494 32.8112 146.611ZM36.3366 148.188V144.551H37.7712C38.047 144.551 38.282 144.604 38.4761 144.709C38.6702 144.813 38.8182 144.958 38.92 145.144C39.023 145.329 39.0745 145.542 39.0745 145.783C39.0745 146.025 39.0224 146.238 38.9182 146.423C38.8141 146.607 38.6631 146.751 38.4655 146.854C38.269 146.957 38.031 147.009 37.7517 147.009H36.8373V146.392H37.6274C37.7754 146.392 37.8973 146.367 37.9932 146.316C38.0902 146.264 38.1624 146.192 38.2098 146.101C38.2583 146.009 38.2826 145.903 38.2826 145.783C38.2826 145.663 38.2583 145.557 38.2098 145.467C38.1624 145.376 38.0902 145.306 37.9932 145.256C37.8961 145.205 37.773 145.18 37.6238 145.18H37.1054V148.188H36.3366ZM39.5597 148.188V145.46H40.293V145.936H40.3214C40.3711 145.767 40.4545 145.639 40.5717 145.553C40.6889 145.465 40.8239 145.421 40.9766 145.421C41.0144 145.421 41.0553 145.424 41.0991 145.428C41.1429 145.433 41.1813 145.44 41.2145 145.448V146.119C41.179 146.108 41.1299 146.099 41.0671 146.091C41.0044 146.082 40.947 146.078 40.8949 146.078C40.7836 146.078 40.6842 146.102 40.5966 146.151C40.5102 146.198 40.4415 146.265 40.3906 146.35C40.3409 146.435 40.3161 146.533 40.3161 146.645V148.188H39.5597ZM42.7108 148.241C42.435 148.241 42.1965 148.182 41.9953 148.065C41.7952 147.947 41.6408 147.782 41.5319 147.571C41.423 147.359 41.3685 147.114 41.3685 146.835C41.3685 146.553 41.423 146.307 41.5319 146.096C41.6408 145.884 41.7952 145.719 41.9953 145.602C42.1965 145.484 42.435 145.425 42.7108 145.425C42.9867 145.425 43.2246 145.484 43.4246 145.602C43.6259 145.719 43.7809 145.884 43.8898 146.096C43.9987 146.307 44.0532 146.553 44.0532 146.835C44.0532 147.114 43.9987 147.359 43.8898 147.571C43.7809 147.782 43.6259 147.947 43.4246 148.065C43.2246 148.182 42.9867 148.241 42.7108 148.241ZM42.7144 147.655C42.8399 147.655 42.9446 147.619 43.0287 147.548C43.1127 147.476 43.176 147.378 43.2187 147.254C43.2625 147.129 43.2844 146.988 43.2844 146.829C43.2844 146.671 43.2625 146.529 43.2187 146.405C43.176 146.281 43.1127 146.182 43.0287 146.11C42.9446 146.038 42.8399 146.002 42.7144 146.002C42.5877 146.002 42.4812 146.038 42.3948 146.11C42.3096 146.182 42.2451 146.281 42.2013 146.405C42.1586 146.529 42.1373 146.671 42.1373 146.829C42.1373 146.988 42.1586 147.129 42.2013 147.254C42.2451 147.378 42.3096 147.476 42.3948 147.548C42.4812 147.619 42.5877 147.655 42.7144 147.655ZM44.545 145.46H45.3014V148.322C45.3014 148.533 45.26 148.704 45.1771 148.834C45.0943 148.964 44.9753 149.059 44.8202 149.12C44.6663 149.18 44.4823 149.21 44.268 149.21C44.242 149.21 44.2171 149.21 44.1934 149.208C44.1686 149.208 44.1425 149.208 44.1153 149.207V148.615C44.1354 148.617 44.1532 148.617 44.1686 148.617C44.1828 148.618 44.1982 148.619 44.2148 148.619C44.3367 148.619 44.4219 148.593 44.4704 148.541C44.5202 148.49 44.545 148.413 44.545 148.31V145.46ZM44.9214 145.109C44.8102 145.109 44.7143 145.071 44.6338 144.997C44.5533 144.921 44.5131 144.83 44.5131 144.725C44.5131 144.621 44.5533 144.532 44.6338 144.457C44.7143 144.381 44.8102 144.343 44.9214 144.343C45.0351 144.343 45.1315 144.381 45.2108 144.457C45.2913 144.532 45.3316 144.621 45.3316 144.725C45.3316 144.83 45.2913 144.921 45.2108 144.997C45.1315 145.071 45.0351 145.109 44.9214 145.109ZM47.1502 148.241C46.8697 148.241 46.6282 148.184 46.4258 148.07C46.2246 147.955 46.0695 147.793 45.9606 147.584C45.8517 147.373 45.7972 147.124 45.7972 146.836C45.7972 146.556 45.8517 146.31 45.9606 146.098C46.0695 145.886 46.2228 145.721 46.4205 145.602C46.6193 145.484 46.8525 145.425 47.12 145.425C47.3 145.425 47.4674 145.454 47.6225 145.512C47.7788 145.569 47.9149 145.654 48.0309 145.769C48.1481 145.884 48.2392 146.028 48.3043 146.202C48.3694 146.375 48.402 146.578 48.402 146.81V147.017H46.0991V146.549H47.69C47.69 146.44 47.6663 146.343 47.619 146.259C47.5716 146.175 47.5059 146.109 47.4219 146.062C47.339 146.014 47.2425 145.989 47.1325 145.989C47.0176 145.989 46.9158 146.016 46.8271 146.069C46.7395 146.121 46.6708 146.192 46.6211 146.281C46.5714 146.368 46.5459 146.466 46.5447 146.574V147.019C46.5447 147.154 46.5696 147.271 46.6193 147.369C46.6702 147.467 46.7418 147.543 46.8342 147.596C46.9265 147.65 47.036 147.676 47.1626 147.676C47.2467 147.676 47.3236 147.664 47.3935 147.641C47.4633 147.617 47.5231 147.581 47.5728 147.534C47.6225 147.487 47.6604 147.429 47.6864 147.36L48.386 147.406C48.3505 147.574 48.2777 147.721 48.1676 147.847C48.0587 147.971 47.9179 148.068 47.745 148.138C47.5734 148.206 47.3751 148.241 47.1502 148.241ZM50.1278 148.241C49.8485 148.241 49.6082 148.182 49.407 148.063C49.2069 147.944 49.053 147.778 48.9453 147.566C48.8388 147.354 48.7855 147.11 48.7855 146.835C48.7855 146.555 48.8394 146.31 48.9471 146.099C49.056 145.888 49.2105 145.722 49.4105 145.604C49.6106 145.484 49.8485 145.425 50.1243 145.425C50.3622 145.425 50.5705 145.468 50.7493 145.554C50.928 145.641 51.0695 145.762 51.1737 145.918C51.2778 146.075 51.3352 146.258 51.3459 146.469H50.6321C50.612 146.333 50.5587 146.223 50.4723 146.14C50.3871 146.056 50.2752 146.014 50.1367 146.014C50.0195 146.014 49.9171 146.046 49.8295 146.11C49.7431 146.173 49.6757 146.265 49.6271 146.385C49.5786 146.506 49.5543 146.652 49.5543 146.824C49.5543 146.998 49.578 147.146 49.6254 147.268C49.6739 147.39 49.742 147.483 49.8295 147.547C49.9171 147.61 50.0195 147.642 50.1367 147.642C50.2231 147.642 50.3007 147.625 50.3693 147.589C50.4392 147.554 50.4966 147.502 50.5415 147.435C50.5877 147.366 50.6179 147.284 50.6321 147.188H51.3459C51.334 147.396 51.2772 147.58 51.1754 147.738C51.0748 147.896 50.9357 148.019 50.7582 148.108C50.5806 148.196 50.3705 148.241 50.1278 148.241ZM53.2808 145.46V146.028H51.6384V145.46H53.2808ZM52.0113 144.807H52.7677V147.349C52.7677 147.419 52.7783 147.474 52.7996 147.513C52.8209 147.551 52.8505 147.577 52.8884 147.593C52.9275 147.608 52.9724 147.616 53.0233 147.616C53.0589 147.616 53.0944 147.613 53.1299 147.607C53.1654 147.6 53.1926 147.594 53.2116 147.591L53.3305 148.154C53.2926 148.166 53.2394 148.179 53.1707 148.195C53.1021 148.211 53.0186 148.221 52.9204 148.225C52.7381 148.232 52.5783 148.208 52.441 148.152C52.3048 148.096 52.1989 148.01 52.1231 147.893C52.0474 147.776 52.0101 147.628 52.0113 147.449V144.807Z" fill="url(#paint1_linear_1_91)"/>
</g>
<defs>
<linearGradient id="paint0_linear_1_91" x1="18.913" y1="73.7609" x2="156" y2="30.5" gradientUnits="userSpaceOnUse">
<stop stop-color="#3570B7"/>
<stop offset="1" stop-color="#D0DDED"/>
</linearGradient>
<linearGradient id="paint1_linear_1_91" x1="48.9375" y1="143.188" x2="48.9375" y2="154.062" gradientUnits="userSpaceOnUse">
<stop stop-color="#3570B7"/>
<stop offset="1" stop-color="white"/>
</linearGradient>
<clipPath id="clip0_1_91">
<rect width="116" height="145" fill="white"/>
</clipPath>
</defs>
</svg>
