<svg width="100" height="125" viewBox="0 0 100 125" fill="none" xmlns="http://www.w3.org/2000/svg">
<g clip-path="url(#clip0_1_184)">
<path d="M90.625 68.75H90.1875C89.8781 67.6541 89.4263 66.6035 88.8438 65.625L89.1875 65.3125C89.776 64.724 90.1065 63.9259 90.1065 63.0938C90.1065 62.2616 89.776 61.4634 89.1875 60.875C88.5991 60.2865 87.8009 59.956 86.9688 59.956C86.1366 59.956 85.3385 60.2865 84.75 60.875L84.4375 61.2188C83.459 60.6362 82.4084 60.1845 81.3125 59.875V59.375C81.3125 58.5462 80.9833 57.7513 80.3972 57.1653C79.8112 56.5792 79.0163 56.25 78.1875 56.25C77.3587 56.25 76.5638 56.5792 75.9778 57.1653C75.3917 57.7513 75.0625 58.5462 75.0625 59.375V59.8125C73.9666 60.1219 72.916 60.5737 71.9375 61.1562L71.625 60.8125C71.3336 60.5211 70.9877 60.29 70.607 60.1323C70.2263 59.9746 69.8183 59.8935 69.4062 59.8935C68.9942 59.8935 68.5862 59.9746 68.2055 60.1323C67.8248 60.29 67.4789 60.5211 67.1875 60.8125C66.8961 61.1039 66.665 61.4498 66.5073 61.8305C66.3496 62.2112 66.2685 62.6192 66.2685 63.0312C66.2685 63.4433 66.3496 63.8513 66.5073 64.232C66.665 64.6127 66.8961 64.9586 67.1875 65.25L67.5313 65.5625C66.9487 66.541 66.497 67.5916 66.1875 68.6875H65.625C64.7962 68.6875 64.0013 69.0167 63.4153 69.6028C62.8292 70.1888 62.5 70.9837 62.5 71.8125C62.5 72.6413 62.8292 73.4362 63.4153 74.0222C64.0013 74.6083 64.7962 74.9375 65.625 74.9375H66.0625C66.3719 76.0334 66.8237 77.084 67.4062 78.0625L67.0625 78.375C66.474 78.9634 66.1435 79.7616 66.1435 80.5938C66.1435 81.4259 66.474 82.2241 67.0625 82.8125C67.6509 83.4009 68.4491 83.7315 69.2812 83.7315C70.1134 83.7315 70.9115 83.4009 71.5 82.8125L71.8125 82.4687C72.791 83.0513 73.8416 83.503 74.9375 83.8125V84.375C74.9375 85.2038 75.2667 85.9987 75.8528 86.5847C76.4388 87.1708 77.2337 87.5 78.0625 87.5C78.8913 87.5 79.6862 87.1708 80.2722 86.5847C80.8583 85.9987 81.1875 85.2038 81.1875 84.375V83.9375C82.2834 83.6281 83.334 83.1763 84.3125 82.5938L84.625 82.9375C85.2134 83.526 86.0116 83.8565 86.8438 83.8565C87.6759 83.8565 88.4741 83.526 89.0625 82.9375C89.6509 82.3491 89.9815 81.5509 89.9815 80.7188C89.9815 79.8866 89.6509 79.0885 89.0625 78.5L88.7187 78.1875C89.3013 77.209 89.753 76.1584 90.0625 75.0625H90.625C91.4538 75.0625 92.2487 74.7333 92.8347 74.1472C93.4208 73.5612 93.75 72.7663 93.75 71.9375C93.75 71.1087 93.4208 70.3138 92.8347 69.7278C92.2487 69.1417 91.4538 68.8125 90.625 68.8125V68.75ZM78.125 78.125C76.8889 78.125 75.6805 77.7584 74.6527 77.0717C73.6249 76.3849 72.8238 75.4088 72.3508 74.2668C71.8777 73.1247 71.7539 71.8681 71.9951 70.6557C72.2362 69.4433 72.8315 68.3297 73.7056 67.4556C74.5797 66.5815 75.6933 65.9862 76.9057 65.7451C78.1181 65.5039 79.3747 65.6277 80.5168 66.1008C81.6588 66.5738 82.6349 67.3749 83.3217 68.4027C84.0084 69.4305 84.375 70.6389 84.375 71.875C84.375 73.5326 83.7165 75.1223 82.5444 76.2944C81.3723 77.4665 79.7826 78.125 78.125 78.125Z" fill="url(#paint0_linear_1_184)"/>
<path d="M93.0938 16.0313C92.5851 14.9783 91.7912 14.0891 90.8024 13.4649C89.8135 12.8407 88.6694 12.5064 87.5 12.5H12.5C11.3306 12.5064 10.1865 12.8407 9.19764 13.4649C8.2088 14.0891 7.41492 14.9783 6.90625 16.0313L50 49.1875L93.0938 16.0313Z" fill="url(#paint1_linear_1_184)"/>
<path d="M6.25 23.4062V68.75C6.25696 69.2882 6.33044 69.8235 6.46875 70.3438L32.9062 43.9063L6.25 23.4062Z" fill="url(#paint2_linear_1_184)"/>
<path d="M62.6562 56.4062C64.1379 54.9494 66.0615 54.026 68.125 53.7812L62.0938 47.75L51.9063 55.5938C51.3598 56.0144 50.6896 56.2425 50 56.2425C49.3104 56.2425 48.6402 56.0144 48.0938 55.5938L37.9063 47.75L10.9062 74.7813C11.4265 74.9196 11.9618 74.993 12.5 75H56.8438C56.4728 73.9988 56.2721 72.9425 56.25 71.875C56.25 70.4196 56.5889 68.9841 57.2397 67.6824C57.8906 66.3806 58.8357 65.2483 60 64.375C59.7925 62.9317 59.9246 61.4598 60.3857 60.0765C60.8468 58.6931 61.6243 57.4364 62.6562 56.4062Z" fill="url(#paint3_linear_1_184)"/>
<path d="M67.0938 43.9063L74.0937 50.9375C75.3509 50.3286 76.7282 50.0083 78.125 50C79.5804 50 81.0159 50.3389 82.3176 50.9897C83.6194 51.6406 84.7517 52.5857 85.625 53.75C87.0683 53.5425 88.5402 53.6746 89.9235 54.1357C91.3069 54.5968 92.5636 55.3743 93.5938 56.4062L93.75 56.5938V23.4062L67.0938 43.9063Z" fill="url(#paint4_linear_1_184)"/>
</g>
<defs>
<linearGradient id="paint0_linear_1_184" x1="66.8968" y1="77.7027" x2="107.685" y2="67.4768" gradientUnits="userSpaceOnUse">
<stop stop-color="#3570B7"/>
<stop offset="1" stop-color="#D0DDED"/>
</linearGradient>
<linearGradient id="paint1_linear_1_184" x1="19.0326" y1="37.6855" x2="107.804" y2="-14.5982" gradientUnits="userSpaceOnUse">
<stop stop-color="#3570B7"/>
<stop offset="1" stop-color="#D0DDED"/>
</linearGradient>
<linearGradient id="paint2_linear_1_184" x1="10.0005" y1="55.6282" x2="46.2449" y2="50.4677" gradientUnits="userSpaceOnUse">
<stop stop-color="#3570B7"/>
<stop offset="1" stop-color="#D0DDED"/>
</linearGradient>
<linearGradient id="paint3_linear_1_184" x1="18.9568" y1="66.4567" x2="81.1098" y2="33.7376" gradientUnits="userSpaceOnUse">
<stop stop-color="#3570B7"/>
<stop offset="1" stop-color="#D0DDED"/>
</linearGradient>
<linearGradient id="paint4_linear_1_184" x1="70.8442" y1="46.189" x2="106.382" y2="39.0327" gradientUnits="userSpaceOnUse">
<stop stop-color="#3570B7"/>
<stop offset="1" stop-color="#D0DDED"/>
</linearGradient>
<clipPath id="clip0_1_184">
<rect width="100" height="125" fill="white"/>
</clipPath>
</defs>
</svg>
