<svg width="110" height="135" viewBox="0 0 110 135" fill="none" xmlns="http://www.w3.org/2000/svg">
<path d="M91.199 75.957C88.0623 72.5508 86.324 68.0898 86.3318 63.457V55.832C86.3318 52.9961 85.4959 50.2187 83.9295 47.8515C82.367 45.4843 80.1404 43.6249 77.5311 42.5117C78.9608 40.4062 79.1092 37.6875 77.9217 35.4414C76.7303 33.1914 74.3983 31.7852 71.8553 31.7852C69.3123 31.7852 66.9764 33.1914 65.7889 35.4414C64.5975 37.6875 64.7459 40.4062 66.1756 42.5117C63.5662 43.625 61.3397 45.4844 59.7772 47.8515C58.2108 50.2187 57.3788 52.996 57.3749 55.832V63.457C57.3828 68.0898 55.6444 72.5508 52.5116 75.957C51.9452 76.5664 51.7968 77.4492 52.1288 78.2109C52.4609 78.9687 53.2108 79.4609 54.0429 79.457H89.6679C90.496 79.4609 91.246 78.9687 91.5781 78.2109C91.9102 77.4492 91.7615 76.5664 91.199 75.957ZM71.855 35.98C72.9448 35.98 73.9292 36.6362 74.3472 37.6441C74.7652 38.6519 74.5347 39.8121 73.7613 40.5855C72.9917 41.355 71.8277 41.5855 70.8199 41.1675C69.8121 40.7535 69.1558 39.7691 69.1558 38.6753C69.1558 37.9605 69.4409 37.273 69.9448 36.7691C70.4526 36.2613 71.1362 35.98 71.855 35.98ZM80.6675 83.625C78.6441 86.4883 75.3589 88.1875 71.855 88.1875C68.3511 88.1875 65.062 86.4883 63.0425 83.625H80.6675ZM39.9175 23.863V17.3747H51.9565V23.863C51.9565 27.1911 49.2612 29.8864 45.937 29.8864C42.6128 29.8864 39.9175 27.1911 39.9175 23.863ZM71.8555 92.355C67.0078 92.3433 62.4649 89.9917 59.6565 86.0425L57.926 83.6363H54.0432C51.5627 83.6363 49.3166 82.1715 48.3166 79.898C47.3205 77.6285 47.758 74.9839 49.4377 73.1558C51.8674 70.523 53.215 67.0699 53.2072 63.4878V55.8316C53.2072 49.8121 56.1134 44.1636 61.0119 40.6676C60.8869 40.0035 60.8244 39.3317 60.8244 38.6559C60.84 32.5739 65.7736 27.6519 71.8554 27.6439C72.5546 27.6478 73.2499 27.7142 73.9374 27.8548V27.7923C73.9374 25.0267 72.8397 22.3782 70.8866 20.4251C68.9335 18.472 66.285 17.3743 63.5194 17.3743H56.1249V23.8626C56.1249 29.4915 51.5624 34.0506 45.9369 34.0506C40.3114 34.0506 35.7489 29.492 35.7489 23.8626V17.3743H28.6669C22.913 17.3743 18.2489 22.0384 18.2489 27.7923V92.2063C18.2489 94.9719 19.3466 97.6204 21.2997 99.5735C23.2528 101.527 25.9013 102.624 28.6669 102.624H63.5189C66.2845 102.624 68.933 101.527 70.8861 99.5735C72.8392 97.6204 73.9369 94.9719 73.9369 92.2063C73.2455 92.304 72.5508 92.3511 71.8555 92.355ZM54.1485 94.8745H37.9885C36.8401 94.8745 35.9065 93.9409 35.9065 92.7925C35.9065 91.6402 36.8401 90.7066 37.9885 90.7066H54.1995C55.3479 90.7066 56.2815 91.6402 56.2815 92.7925C56.2815 93.9409 55.3479 94.8745 54.1995 94.8745H54.1485Z" fill="url(#paint0_linear_1_153)"/>
<defs>
<linearGradient id="paint0_linear_1_153" x1="28.5907" y1="75.8973" x2="126.008" y2="54.839" gradientUnits="userSpaceOnUse">
<stop stop-color="#3570B7"/>
<stop offset="1" stop-color="#D0DDED"/>
</linearGradient>
</defs>
</svg>
