<svg width="24" height="24" viewBox="0 0 24 24" fill="none" xmlns="http://www.w3.org/2000/svg">
<path d="M10.75 14.5V9.3125L8.75 11.3125L7 9.5L12 4.5L17 9.5L15.25 11.3125L13.25 9.3125V14.5H10.75ZM3.25 23.25C2.5625 23.25 1.97396 23.0052 1.48438 22.5156C0.994792 22.026 0.75 21.4375 0.75 20.75V3.25C0.75 2.5625 0.994792 1.97396 1.48438 1.48438C1.97396 0.994792 2.5625 0.75 3.25 0.75H20.75C21.4375 0.75 22.026 0.994792 22.5156 1.48438C23.0052 1.97396 23.25 2.5625 23.25 3.25V20.75C23.25 21.4375 23.0052 22.026 22.5156 22.5156C22.026 23.0052 21.4375 23.25 20.75 23.25H3.25ZM3.25 20.75H20.75V17H17C16.375 17.7917 15.6302 18.4062 14.7656 18.8438C13.901 19.2812 12.9792 19.5 12 19.5C11.0208 19.5 10.099 19.2812 9.23438 18.8438C8.36979 18.4062 7.625 17.7917 7 17H3.25V20.75ZM12 17C12.7917 17 13.5104 16.7708 14.1562 16.3125C14.8021 15.8542 15.25 15.25 15.5 14.5H20.75V3.25H3.25V14.5H8.5C8.75 15.25 9.19792 15.8542 9.84375 16.3125C10.4896 16.7708 11.2083 17 12 17Z" fill="white"/>
</svg>
