<svg width="24" height="24" viewBox="0 0 24 24" fill="none" xmlns="http://www.w3.org/2000/svg">
<g clip-path="url(#clip0_232_2554)">
<path d="M18 22H6C5.46957 22 4.96086 21.7893 4.58579 21.4142C4.21071 21.0391 4 20.5304 4 20V12C4 11.4696 4.21071 10.9609 4.58579 10.5858C4.96086 10.2107 5.46957 10 6 10V8C6 6.4087 6.63214 4.88258 7.75736 3.75736C8.88258 2.63214 10.4087 2 12 2C13.5913 2 15.1174 2.63214 16.2426 3.75736C17.3679 4.88258 18 6.4087 18 8V10C18.5304 10 19.0391 10.2107 19.4142 10.5858C19.7893 10.9609 20 11.4696 20 12V20C20 20.5304 19.7893 21.0391 19.4142 21.4142C19.0391 21.7893 18.5304 22 18 22ZM15.5 15C15.3674 15 15.2402 15.0527 15.1464 15.1464C15.0527 15.2402 15 15.3674 15 15.5V16.5C15 16.6326 15.0527 16.7598 15.1464 16.8536C15.2402 16.9473 15.3674 17 15.5 17H16.5C16.6326 17 16.7598 16.9473 16.8536 16.8536C16.9473 16.7598 17 16.6326 17 16.5V15.5C17 15.3674 16.9473 15.2402 16.8536 15.1464C16.7598 15.0527 16.6326 15 16.5 15H15.5ZM11.5 15C11.3674 15 11.2402 15.0527 11.1464 15.1464C11.0527 15.2402 11 15.3674 11 15.5V16.5C11 16.6326 11.0527 16.7598 11.1464 16.8536C11.2402 16.9473 11.3674 17 11.5 17H12.5C12.6326 17 12.7598 16.9473 12.8536 16.8536C12.9473 16.7598 13 16.6326 13 16.5V15.5C13 15.3674 12.9473 15.2402 12.8536 15.1464C12.7598 15.0527 12.6326 15 12.5 15H11.5ZM7.5 15C7.36739 15 7.24021 15.0527 7.14645 15.1464C7.05268 15.2402 7 15.3674 7 15.5V16.5C7 16.6326 7.05268 16.7598 7.14645 16.8536C7.24021 16.9473 7.36739 17 7.5 17H8.5C8.63261 17 8.75979 16.9473 8.85355 16.8536C8.94732 16.7598 9 16.6326 9 16.5V15.5C9 15.3674 8.94732 15.2402 8.85355 15.1464C8.75979 15.0527 8.63261 15 8.5 15H7.5ZM12 4C10.9395 4.00132 9.92289 4.42318 9.17303 5.17303C8.42318 5.92289 8.00132 6.93954 8 8V10H16V8C16 6.93913 15.5786 5.92172 14.8284 5.17157C14.0783 4.42143 13.0609 4 12 4Z" fill="#3570B7"/>
</g>
<defs>
<clipPath id="clip0_232_2554">
<rect width="24" height="24" fill="white"/>
</clipPath>
</defs>
</svg>
