<svg width="28" height="20" viewBox="0 0 28 20" fill="none" xmlns="http://www.w3.org/2000/svg">
<path d="M20.75 11.25L19 9.5L21.5938 6.875L19 4.28125L20.75 2.5L23.375 5.125L25.9688 2.5L27.75 4.28125L25.125 6.875L27.75 9.5L25.9688 11.25L23.375 8.65625L20.75 11.25ZM10.25 10C8.875 10 7.69792 9.51042 6.71875 8.53125C5.73958 7.55208 5.25 6.375 5.25 5C5.25 3.625 5.73958 2.44792 6.71875 1.46875C7.69792 0.489583 8.875 0 10.25 0C11.625 0 12.8021 0.489583 13.7812 1.46875C14.7604 2.44792 15.25 3.625 15.25 5C15.25 6.375 14.7604 7.55208 13.7812 8.53125C12.8021 9.51042 11.625 10 10.25 10ZM0.25 20V16.5C0.25 15.7917 0.432292 15.1406 0.796875 14.5469C1.16146 13.9531 1.64583 13.5 2.25 13.1875C3.54167 12.5417 4.85417 12.0573 6.1875 11.7344C7.52083 11.4115 8.875 11.25 10.25 11.25C11.625 11.25 12.9792 11.4115 14.3125 11.7344C15.6458 12.0573 16.9583 12.5417 18.25 13.1875C18.8542 13.5 19.3385 13.9531 19.7031 14.5469C20.0677 15.1406 20.25 15.7917 20.25 16.5V20H0.25ZM2.75 17.5H17.75V16.5C17.75 16.2708 17.6927 16.0625 17.5781 15.875C17.4635 15.6875 17.3125 15.5417 17.125 15.4375C16 14.875 14.8646 14.4531 13.7188 14.1719C12.5729 13.8906 11.4167 13.75 10.25 13.75C9.08333 13.75 7.92708 13.8906 6.78125 14.1719C5.63542 14.4531 4.5 14.875 3.375 15.4375C3.1875 15.5417 3.03646 15.6875 2.92188 15.875C2.80729 16.0625 2.75 16.2708 2.75 16.5V17.5ZM10.25 7.5C10.9375 7.5 11.526 7.25521 12.0156 6.76562C12.5052 6.27604 12.75 5.6875 12.75 5C12.75 4.3125 12.5052 3.72396 12.0156 3.23438C11.526 2.74479 10.9375 2.5 10.25 2.5C9.5625 2.5 8.97396 2.74479 8.48438 3.23438C7.99479 3.72396 7.75 4.3125 7.75 5C7.75 5.6875 7.99479 6.27604 8.48438 6.76562C8.97396 7.25521 9.5625 7.5 10.25 7.5Z" fill="white"/>
</svg>
