<svg width="57" height="106" viewBox="0 0 57 106" fill="none" xmlns="http://www.w3.org/2000/svg">
<path d="M50.5571 0.175659H5.96412C2.88542 0.175659 0.389648 2.67144 0.389648 5.75014V99.8937C0.389648 102.972 2.88542 105.468 5.96412 105.468H50.5571C53.6358 105.468 56.1316 102.972 56.1316 99.8937V5.75014C56.1316 2.67144 53.6358 0.175659 50.5571 0.175659Z" fill="#263238"/>
<path d="M53.6524 11.7385H2.86523V93.9068H53.6524V11.7385Z" fill="white" stroke="#263238" stroke-width="1.33739" stroke-miterlimit="10"/>
<path d="M36.0447 45.0094C40.3437 40.7104 40.3437 33.7403 36.0447 29.4412C31.7456 25.1422 24.7755 25.1422 20.4765 29.4412C16.1774 33.7403 16.1774 40.7104 20.4765 45.0094C24.7755 49.3085 31.7456 49.3085 36.0447 45.0094Z" fill="#3570B7"/>
<path d="M42.7132 88.7395H13.8108C13.7458 88.7399 13.6813 88.7274 13.6211 88.7027C13.5609 88.6781 13.5061 88.6418 13.46 88.596C13.4139 88.5501 13.3773 88.4956 13.3523 88.4355C13.3273 88.3755 13.3145 88.3111 13.3145 88.246C13.3141 88.1807 13.3267 88.116 13.3515 88.0556C13.3763 87.9952 13.4128 87.9404 13.459 87.8942C13.5051 87.848 13.56 87.8115 13.6204 87.7867C13.6808 87.7619 13.7455 87.7493 13.8108 87.7497H42.7132C42.7782 87.7497 42.8426 87.7625 42.9027 87.7875C42.9627 87.8125 43.0173 87.8491 43.0631 87.8952C43.109 87.9413 43.1453 87.9961 43.1699 88.0563C43.1945 88.1165 43.207 88.181 43.2066 88.246C43.2066 88.3769 43.1546 88.5024 43.0621 88.5949C42.9696 88.6875 42.844 88.7395 42.7132 88.7395Z" fill="#3570B7"/>
<path d="M43.6536 54.4227H12.8663C12.2309 54.4227 11.7158 54.9378 11.7158 55.5731V59.2024C11.7158 59.8378 12.2309 60.3529 12.8663 60.3529H43.6536C44.289 60.3529 44.8041 59.8378 44.8041 59.2024V55.5731C44.8041 54.9378 44.289 54.4227 43.6536 54.4227Z" fill="#3570B7"/>
<path d="M43.6536 65.5145H12.8663C12.2309 65.5145 11.7158 66.0295 11.7158 66.6649V70.2942C11.7158 70.9296 12.2309 71.4447 12.8663 71.4447H43.6536C44.289 71.4447 44.8041 70.9296 44.8041 70.2942V66.6649C44.8041 66.0295 44.289 65.5145 43.6536 65.5145Z" fill="#3570B7"/>
<path d="M33.7418 42.7164L30.5027 40.8515V39.3108C30.9717 38.7434 31.3114 38.0806 31.4982 37.3685C31.6097 37.4081 31.7271 37.4285 31.8454 37.4288C32.247 37.4288 32.5024 36.1836 32.5454 35.2942C33.0131 34.3044 32.3762 33.7249 32.3762 33.7249C32.3762 33.7249 32.6401 33.4609 32.8151 32.4023C32.9901 31.3436 32.1983 31.7854 31.5814 30.8157C30.9646 29.846 30.5228 28.7902 28.4973 28.7902C27.9391 28.7718 27.3884 28.9218 26.9166 29.2206C26.4449 29.5194 26.0739 29.9533 25.852 30.4657C25.3478 30.4675 24.8454 30.5262 24.3544 30.6407C23.7347 30.8157 23.5597 32.8441 24.0876 33.6388C24.3239 34.0731 24.45 34.5588 24.4548 35.0532C24.3142 34.8811 24.1679 34.8352 24.0876 35.2254C23.9126 36.1062 24.6184 37.3398 24.6184 37.3398L24.9827 37.2365C25.1663 37.9975 25.5204 38.7068 26.0184 39.3108V40.8515L22.7793 42.7164C22.4011 42.9347 22.0869 43.2488 21.8683 43.627C21.6498 44.0052 21.5345 44.4342 21.5342 44.871V45.9382C23.4606 47.4265 25.8262 48.2338 28.2606 48.2338C30.6949 48.2338 33.0605 47.4265 34.9869 45.9382V44.871C34.9872 44.4341 34.8722 44.0048 34.6536 43.6265C34.435 43.2482 34.1205 42.9343 33.7418 42.7164Z" fill="#263238"/>
<path d="M15.9082 69.9693C15.8339 69.9682 15.763 69.9384 15.7102 69.8861C15.682 69.8609 15.6595 69.8299 15.6441 69.7953C15.6288 69.7606 15.621 69.7231 15.6213 69.6853C15.6222 69.6335 15.637 69.583 15.6643 69.539L16.1808 68.7127L15.1737 68.7442C15.1358 68.7466 15.0978 68.7409 15.0622 68.7276C15.0266 68.7142 14.9942 68.6935 14.9672 68.6668C14.9204 68.6142 14.8945 68.5463 14.8945 68.476C14.8945 68.4056 14.9204 68.3377 14.9672 68.2852C14.9936 68.2575 15.0258 68.2359 15.0615 68.222C15.0972 68.2081 15.1355 68.2023 15.1737 68.2049L16.1664 68.2422L15.6557 67.4188C15.6279 67.3739 15.613 67.3223 15.6127 67.2696C15.6124 67.2317 15.6202 67.1942 15.6355 67.1596C15.6509 67.1249 15.6734 67.094 15.7016 67.0687C15.7544 67.0164 15.8253 66.9866 15.8996 66.9855C15.9485 66.9859 15.9963 67 16.0374 67.0265C16.0785 67.0529 16.1113 67.0904 16.132 67.1347L16.6226 68.0212L17.1074 67.1405C17.1304 67.0935 17.1659 67.0537 17.2099 67.0253C17.2538 66.997 17.3047 66.9813 17.357 66.9798C17.3933 66.98 17.4291 66.9878 17.4622 67.0026C17.4953 67.0174 17.525 67.039 17.5493 67.0659C17.6019 67.1205 17.6308 67.1937 17.6296 67.2696C17.6294 67.3189 17.6166 67.3673 17.5923 67.4101L17.073 68.2422L18.08 68.2049C18.1183 68.2023 18.1566 68.2081 18.1923 68.222C18.228 68.2359 18.2602 68.2575 18.2866 68.2852C18.3355 68.336 18.3623 68.4041 18.3612 68.4746C18.361 68.5457 18.3344 68.6142 18.2866 68.6668C18.2596 68.6935 18.2272 68.7142 18.1916 68.7276C18.156 68.7409 18.118 68.7466 18.08 68.7442L17.0673 68.7127L17.5722 69.5303C17.6005 69.576 17.6154 69.6287 17.6153 69.6824C17.6153 69.7585 17.585 69.8315 17.5312 69.8853C17.4774 69.9391 17.4044 69.9693 17.3284 69.9693C17.2792 69.9687 17.2312 69.9536 17.1905 69.9261C17.1497 69.8986 17.1178 69.8598 17.0988 69.8144L16.6197 68.9537L16.1435 69.8144C16.1223 69.8594 16.0892 69.8977 16.0477 69.925C16.0061 69.9523 15.9579 69.9677 15.9082 69.9693Z" fill="white"/>
<path d="M20.5618 69.9693C20.4876 69.9682 20.4166 69.9384 20.3639 69.8861C20.3356 69.8609 20.3131 69.8299 20.2978 69.7953C20.2824 69.7606 20.2747 69.7231 20.2749 69.6853C20.2758 69.6335 20.2907 69.583 20.318 69.539L20.8344 68.7127L19.8302 68.7442C19.7919 68.746 19.7536 68.74 19.7177 68.7267C19.6817 68.7134 19.6488 68.693 19.6208 68.6668C19.5827 68.6275 19.5573 68.5777 19.548 68.5237C19.5386 68.4698 19.5457 68.4144 19.5683 68.3645C19.5909 68.3147 19.6279 68.2728 19.6747 68.2443C19.7214 68.2159 19.7756 68.2021 19.8302 68.2049L20.82 68.2422L20.3094 67.4188C20.2816 67.3739 20.2667 67.3223 20.2663 67.2696C20.266 67.2317 20.2738 67.1942 20.2892 67.1596C20.3045 67.1249 20.327 67.094 20.3553 67.0687C20.408 67.0164 20.479 66.9866 20.5532 66.9855C20.6021 66.9859 20.6499 67 20.691 67.0265C20.7322 67.0529 20.765 67.0904 20.7856 67.1347L21.2762 68.0213L21.7611 67.1405C21.7841 67.0935 21.8195 67.0537 21.8635 67.0253C21.9075 66.997 21.9584 66.9813 22.0107 66.9798C22.047 66.9797 22.0829 66.9872 22.1161 67.0021C22.1492 67.0169 22.1788 67.0387 22.2029 67.0659C22.2295 67.0927 22.2505 67.1245 22.2648 67.1594C22.2791 67.1944 22.2863 67.2318 22.2861 67.2696C22.2851 67.3191 22.2712 67.3675 22.2459 67.4102L21.7266 68.2422L22.7365 68.2106C22.7743 68.2081 22.8122 68.2139 22.8474 68.2278C22.8827 68.2417 22.9144 68.2633 22.9402 68.2909C22.9891 68.3417 23.016 68.4098 23.0148 68.4803C23.0146 68.5514 22.9881 68.6199 22.9402 68.6725C22.9138 68.6992 22.8819 68.7199 22.8468 68.7332C22.8116 68.7466 22.774 68.7523 22.7365 68.75L21.7209 68.7184L22.2259 69.5361C22.2542 69.5817 22.2691 69.6344 22.2689 69.6881C22.2689 69.7642 22.2387 69.8372 22.1849 69.891C22.1311 69.9448 22.0581 69.975 21.982 69.975C21.9328 69.9744 21.8849 69.9594 21.8441 69.9319C21.8033 69.9043 21.7715 69.8655 21.7525 69.8201L21.2733 68.9594L20.7971 69.8201C20.7752 69.864 20.7417 69.9011 20.7002 69.9274C20.6588 69.9537 20.6109 69.9682 20.5618 69.9693Z" fill="white"/>
<path d="M25.2181 69.9693C25.1428 69.969 25.0707 69.9391 25.0173 69.8861C24.989 69.8609 24.9665 69.8299 24.9512 69.7953C24.9358 69.7606 24.928 69.7231 24.9283 69.6853C24.9292 69.6335 24.9441 69.583 24.9714 69.539L25.4878 68.7127L24.4836 68.7442C24.4295 68.7464 24.3761 68.7324 24.33 68.7041C24.2839 68.6757 24.2472 68.6343 24.2248 68.585C24.2023 68.5358 24.195 68.481 24.2038 68.4276C24.2126 68.3742 24.2371 68.3246 24.2742 68.2852C24.3013 68.2576 24.334 68.2361 24.3702 68.2222C24.4063 68.2084 24.445 68.2024 24.4836 68.2049L25.4734 68.2422L24.9627 67.4188C24.935 67.3739 24.9201 67.3223 24.9197 67.2696C24.9206 67.2319 24.9289 67.1948 24.9442 67.1603C24.9595 67.1259 24.9814 67.0947 25.0086 67.0687C25.0621 67.0157 25.1342 66.9859 25.2095 66.9855C25.2579 66.9864 25.3051 67.0008 25.3456 67.0272C25.3862 67.0536 25.4186 67.0908 25.439 67.1347L25.9296 68.0213L26.4145 67.1405C26.4375 67.0935 26.4729 67.0537 26.5169 67.0253C26.5609 66.997 26.6118 66.9813 26.6641 66.9798C26.7004 66.9797 26.7363 66.9872 26.7695 67.0021C26.8026 67.0169 26.8322 67.0387 26.8563 67.0659C26.8829 67.0927 26.9039 67.1245 26.9182 67.1594C26.9325 67.1944 26.9397 67.2318 26.9395 67.2696C26.9385 67.3191 26.9246 67.3675 26.8993 67.4102L26.38 68.2422L27.3899 68.2049C27.4271 68.2012 27.4645 68.2054 27.4999 68.2174C27.5352 68.2294 27.5676 68.2489 27.5948 68.2744C27.6219 68.3 27.6433 68.3311 27.6575 68.3656C27.6717 68.4001 27.6782 68.4373 27.6768 68.4746C27.6774 68.5453 27.6519 68.6137 27.6051 68.6668C27.5781 68.6935 27.5457 68.7143 27.5101 68.7276C27.4745 68.741 27.4365 68.7466 27.3985 68.7442L26.3858 68.7127L26.8878 69.5303C26.9161 69.576 26.9311 69.6287 26.9309 69.6824C26.93 69.7201 26.9217 69.7572 26.9064 69.7917C26.8911 69.8261 26.8692 69.8572 26.8419 69.8832C26.817 69.9101 26.7868 69.9316 26.7533 69.9464C26.7197 69.9612 26.6835 69.969 26.6469 69.9693C26.5981 69.9685 26.5506 69.9533 26.5103 69.9258C26.47 69.8983 26.4387 69.8595 26.4202 69.8144L25.9382 68.9537L25.462 69.8144C25.4405 69.8609 25.406 69.9002 25.3628 69.9277C25.3196 69.9552 25.2693 69.9696 25.2181 69.9693Z" fill="white"/>
<path d="M29.871 69.9693C29.7958 69.969 29.7236 69.9391 29.6702 69.8861C29.6161 69.8331 29.5852 69.761 29.5841 69.6853C29.5832 69.6337 29.5972 69.5829 29.6243 69.539L30.1407 68.7127L29.1366 68.7442C29.0982 68.746 29.06 68.74 29.024 68.7267C28.988 68.7134 28.9551 68.693 28.9271 68.6668C28.8803 68.6142 28.8545 68.5463 28.8545 68.476C28.8545 68.4056 28.8803 68.3377 28.9271 68.2852C28.9548 68.2584 28.9877 68.2375 29.0237 68.2237C29.0596 68.2099 29.098 68.2035 29.1366 68.2049L30.1292 68.2422L29.6214 67.4188C29.5936 67.3739 29.5787 67.3223 29.5784 67.2696C29.5793 67.2319 29.5876 67.1948 29.6029 67.1603C29.6181 67.1259 29.64 67.0947 29.6673 67.0687C29.7208 67.0157 29.7929 66.9859 29.8682 66.9855C29.917 66.9859 29.9648 67 30.006 67.0265C30.0471 67.0529 30.0799 67.0904 30.1006 67.1347L30.5883 68.0212L31.0731 67.1405C31.0961 67.0935 31.1316 67.0537 31.1756 67.0253C31.2195 66.997 31.2704 66.9813 31.3227 66.9798C31.3591 66.9797 31.395 66.9872 31.4281 67.0021C31.4613 67.0169 31.4909 67.0387 31.515 67.0659C31.5416 67.0927 31.5626 67.1245 31.5769 67.1594C31.5911 67.1944 31.5984 67.2318 31.5982 67.2696C31.5971 67.3191 31.5833 67.3675 31.558 67.4102L31.0387 68.2422L32.0486 68.2049C32.0857 68.2012 32.1232 68.2054 32.1586 68.2174C32.1939 68.2294 32.2262 68.2489 32.2534 68.2744C32.2806 68.3 32.302 68.3311 32.3162 68.3656C32.3303 68.4001 32.3369 68.4373 32.3355 68.4746C32.3361 68.5453 32.3106 68.6137 32.2638 68.6668C32.2367 68.6935 32.2044 68.7143 32.1688 68.7276C32.1332 68.741 32.0952 68.7466 32.0572 68.7442L31.0444 68.7127L31.5465 69.5303C31.5748 69.576 31.5897 69.6287 31.5896 69.6824C31.5898 69.7203 31.582 69.7578 31.5667 69.7924C31.5514 69.827 31.5288 69.858 31.5006 69.8832C31.4757 69.9101 31.4455 69.9316 31.4119 69.9464C31.3784 69.9612 31.3422 69.969 31.3055 69.9693C31.2567 69.9685 31.2093 69.9533 31.169 69.9258C31.1287 69.8983 31.0974 69.8595 31.0789 69.8144L30.5969 68.9537L30.1206 69.8144C30.0987 69.8618 30.0634 69.9017 30.0191 69.9293C29.9747 69.9568 29.9232 69.9707 29.871 69.9693Z" fill="white"/>
<path d="M34.5253 69.9693C34.4501 69.969 34.3779 69.9391 34.3245 69.8861C34.2801 69.8411 34.2517 69.7826 34.2439 69.7198C34.2362 69.6571 34.2493 69.5935 34.2815 69.539L34.795 68.7127L33.7909 68.7442C33.7525 68.746 33.7143 68.74 33.6783 68.7267C33.6423 68.7134 33.6094 68.693 33.5814 68.6668C33.5346 68.6142 33.5088 68.5463 33.5088 68.476C33.5088 68.4056 33.5346 68.3377 33.5814 68.2852C33.6091 68.2584 33.642 68.2375 33.678 68.2237C33.7139 68.2099 33.7523 68.2035 33.7909 68.2049L34.7835 68.2422L34.2728 67.4188C34.2451 67.3739 34.2302 67.3223 34.2298 67.2696C34.2309 67.1939 34.2618 67.1217 34.3159 67.0687C34.3693 67.0157 34.4414 66.9859 34.5167 66.9855C34.5656 66.9859 34.6134 67 34.6545 67.0265C34.6957 67.0529 34.7285 67.0904 34.7491 67.1347L35.2368 68.0213L35.7217 67.1405C35.7447 67.0935 35.7801 67.0537 35.8241 67.0253C35.8681 66.997 35.919 66.9813 35.9713 66.9798C36.008 66.9796 36.0444 66.9872 36.078 67.002C36.1117 67.0168 36.1418 67.0386 36.1664 67.0659C36.219 67.1205 36.2479 67.1937 36.2467 67.2696C36.2457 67.3191 36.2319 67.3675 36.2066 67.4102L35.6873 68.2422L36.6972 68.2049C36.7343 68.2012 36.7718 68.2054 36.8071 68.2174C36.8424 68.2294 36.8748 68.2489 36.902 68.2744C36.9292 68.3 36.9506 68.3311 36.9647 68.3656C36.9789 68.4001 36.9855 68.4373 36.9841 68.4746C36.9847 68.5453 36.9591 68.6137 36.9123 68.6668C36.8853 68.6935 36.8529 68.7143 36.8173 68.7276C36.7817 68.741 36.7437 68.7466 36.7058 68.7442L35.693 68.7127L36.1951 69.5304C36.2234 69.576 36.2383 69.6287 36.2381 69.6824C36.2384 69.7203 36.2306 69.7578 36.2153 69.7924C36.1999 69.827 36.1774 69.858 36.1492 69.8832C36.1242 69.9101 36.094 69.9316 36.0605 69.9464C36.027 69.9612 35.9908 69.969 35.9541 69.9693C35.9053 69.9685 35.8578 69.9533 35.8175 69.9258C35.7773 69.8983 35.7459 69.8595 35.7274 69.8144L35.2454 68.9537L34.7692 69.8144C34.7477 69.8609 34.7133 69.9002 34.67 69.9277C34.6268 69.9552 34.5766 69.9696 34.5253 69.9693Z" fill="white"/>
<path d="M39.1786 69.9693C39.1043 69.9682 39.0334 69.9384 38.9807 69.8861C38.9524 69.8609 38.9299 69.8299 38.9146 69.7953C38.8992 69.7606 38.8914 69.7231 38.8917 69.6853C38.8926 69.6335 38.9075 69.583 38.9347 69.539L39.4483 68.7127L38.4442 68.7442C38.4072 68.747 38.3701 68.7421 38.3352 68.7298C38.3003 68.7174 38.2683 68.698 38.2413 68.6726C38.2143 68.6472 38.1929 68.6165 38.1784 68.5824C38.164 68.5483 38.1567 68.5116 38.1573 68.4746C38.1571 68.4395 38.1638 68.4046 38.1771 68.3722C38.1904 68.3397 38.21 68.3101 38.2347 68.2852C38.2611 68.2575 38.2934 68.2359 38.3291 68.222C38.3648 68.2081 38.4031 68.2023 38.4413 68.2049L39.434 68.2422L38.9233 67.4188C38.8955 67.3739 38.8806 67.3223 38.8802 67.2696C38.8813 67.1939 38.9123 67.1217 38.9663 67.0687C39.0198 67.0157 39.0919 66.9859 39.1671 66.9855C39.216 66.9859 39.2638 67 39.305 67.0265C39.3461 67.0529 39.3789 67.0904 39.3995 67.1347L39.8873 68.0213L40.375 67.1405C40.3978 67.0939 40.4327 67.0544 40.4762 67.0261C40.5196 66.9978 40.5699 66.9818 40.6217 66.9798C40.6585 66.9796 40.6948 66.9872 40.7285 67.002C40.7621 67.0168 40.7922 67.0386 40.8168 67.0659C40.8695 67.1205 40.8984 67.1937 40.8971 67.2696C40.897 67.3189 40.8842 67.3673 40.8599 67.4102L40.3406 68.2422L41.3476 68.2049C41.3858 68.2023 41.4241 68.2081 41.4598 68.222C41.4955 68.2359 41.5277 68.2575 41.5542 68.2852C41.6031 68.336 41.6299 68.4041 41.6287 68.4746C41.6286 68.5457 41.602 68.6142 41.5542 68.6668C41.5271 68.6935 41.4948 68.7143 41.4592 68.7276C41.4236 68.741 41.3855 68.7466 41.3476 68.7442L40.3348 68.7127L40.8369 69.5304C40.8652 69.576 40.8801 69.6287 40.8799 69.6824C40.8789 69.7581 40.8479 69.8303 40.7939 69.8832C40.7416 69.9366 40.6706 69.9675 40.5959 69.9693C40.5471 69.9685 40.4996 69.9533 40.4594 69.9258C40.4191 69.8983 40.3878 69.8595 40.3693 69.8144L39.8873 68.9537L39.411 69.8144C39.3904 69.8592 39.3577 69.8973 39.3167 69.9247C39.2757 69.952 39.2279 69.9675 39.1786 69.9693Z" fill="white"/>
<g style="mix-blend-mode:multiply">
<path d="M53.6524 11.8466H2.86523V15.0283H53.6524V11.8466Z" fill="#3570B7"/>
</g>
<path d="M33.7817 5.98566H22.7361C22.5367 5.98566 22.3455 5.90646 22.2045 5.7655C22.0636 5.62453 21.9844 5.43334 21.9844 5.23398C21.9844 5.03462 22.0636 4.84343 22.2045 4.70246C22.3455 4.56149 22.5367 4.4823 22.7361 4.4823H33.7817C33.9811 4.4823 34.1723 4.56149 34.3132 4.70246C34.4542 4.84343 34.5334 5.03462 34.5334 5.23398C34.5334 5.43334 34.4542 5.62453 34.3132 5.7655C34.1723 5.90646 33.9811 5.98566 33.7817 5.98566Z" fill="#A187C9" stroke="#263238" stroke-width="1.33739" stroke-linecap="round" stroke-linejoin="round"/>
<path d="M31.271 98.5472C31.2716 97.9512 31.0953 97.3684 30.7645 96.8725C30.4337 96.3767 29.9633 95.9901 29.4127 95.7618C28.8621 95.5334 28.2562 95.4735 27.6716 95.5897C27.0869 95.7058 26.5499 95.9928 26.1284 96.4143C25.7069 96.8357 25.42 97.3728 25.3038 97.9574C25.1877 98.542 25.2476 99.148 25.476 99.6985C25.7043 100.249 26.0909 100.72 26.5867 101.05C27.0825 101.381 27.6654 101.557 28.2614 101.557C29.0594 101.556 29.8244 101.239 30.3887 100.675C30.9529 100.11 31.2702 99.3452 31.271 98.5472Z" fill="#3570B7"/>
<path d="M29.7889 97.0223H26.7363V100.075H29.7889V97.0223Z" fill="white" stroke="#263238" stroke-width="1.33739" stroke-linecap="round" stroke-linejoin="round"/>
</svg>
