<svg width="29" height="29" viewBox="0 0 29 29" fill="none" xmlns="http://www.w3.org/2000/svg">
<path d="M15.5976 0.00127795C8.20479 0.00127795 2.19024 6.01366 2.19024 13.4037C2.19024 16.753 3.42799 19.8162 5.46471 22.1682L0.282858 27.3501C-0.0942859 27.7272 -0.0942859 28.34 0.282858 28.7172C0.47142 28.9057 0.719228 29 0.966995 29C1.21476 29 1.46138 28.9057 1.65113 28.7172L6.83299 23.5353C9.18521 25.5732 12.2494 26.8098 15.5975 26.8098C18.6423 26.8098 21.5143 25.8113 23.9041 23.9233C24.3223 23.5921 24.3948 22.9841 24.0636 22.5647C23.7324 22.1464 23.1244 22.0739 22.705 22.4051C20.6598 24.0212 18.2024 24.8758 15.5975 24.8758C12.444 24.8758 9.5839 23.597 7.5085 21.5302C7.50245 21.5229 7.49762 21.5157 7.49157 21.5084C7.48432 21.5012 7.47707 21.4975 7.46982 21.4915C5.40407 19.4149 4.12417 16.5563 4.12417 13.4025C4.12417 7.07816 9.27106 1.93405 15.5975 1.93405C21.924 1.93405 27.0659 7.07847 27.0659 13.4025C27.0659 16.0121 26.2113 18.4695 24.5965 20.5087C24.2641 20.9269 24.3354 21.5361 24.7536 21.8673C25.1718 22.1985 25.7798 22.1284 26.1122 21.7102C28.0015 19.3254 28.9999 16.4535 28.9999 13.4024C28.9999 6.01208 22.9875 0 15.5975 0L15.5976 0.00127795Z" fill="white"/>
<path d="M15.8278 18.0249C15.8278 18.3313 15.5434 18.6157 15.2371 18.6157L11.7362 18.6157C11.5611 18.6157 11.408 18.5501 11.2986 18.4407L11.2767 18.4188C11.2767 18.4188 11.2767 18.4188 11.2548 18.3969C11.1454 18.2875 11.1235 18.1343 11.1235 18.003L11.1235 14.5459C11.1016 14.2177 11.3861 13.9333 11.7143 13.9551C11.8893 13.9551 12.0425 14.0208 12.1519 14.1302C12.2613 14.2396 12.3269 14.3927 12.3269 14.5678L12.327 16.6246L19.3944 9.55713C19.6351 9.31645 20.007 9.33833 20.2258 9.55714C20.4665 9.79782 20.4446 10.1698 20.2258 10.3886L13.1584 17.456L15.2152 17.456C15.5653 17.456 15.8278 17.7186 15.8278 18.0249Z" fill="white"/>
</svg>
