<svg width="29" height="29" viewBox="0 0 29 29" fill="none" xmlns="http://www.w3.org/2000/svg">
<path d="M15.5976 0.00127795C8.20479 0.00127795 2.19024 6.01366 2.19024 13.4037C2.19024 16.753 3.42799 19.8162 5.46471 22.1682L0.282858 27.3501C-0.0942859 27.7272 -0.0942859 28.34 0.282858 28.7172C0.47142 28.9057 0.719228 29 0.966995 29C1.21476 29 1.46138 28.9057 1.65113 28.7172L6.83299 23.5353C9.18521 25.5732 12.2494 26.8098 15.5975 26.8098C18.6423 26.8098 21.5143 25.8113 23.9041 23.9233C24.3223 23.5921 24.3948 22.9841 24.0636 22.5647C23.7324 22.1464 23.1244 22.0739 22.705 22.4051C20.6598 24.0212 18.2024 24.8758 15.5975 24.8758C12.444 24.8758 9.5839 23.597 7.5085 21.5302C7.50245 21.5229 7.49762 21.5157 7.49157 21.5084C7.48432 21.5012 7.47707 21.4975 7.46982 21.4915C5.40407 19.4149 4.12417 16.5563 4.12417 13.4025C4.12417 7.07816 9.27106 1.93405 15.5975 1.93405C21.924 1.93405 27.0659 7.07847 27.0659 13.4025C27.0659 16.0121 26.2113 18.4695 24.5965 20.5087C24.2641 20.9269 24.3354 21.5361 24.7536 21.8673C25.1718 22.1985 25.7798 22.1284 26.1122 21.7102C28.0015 19.3254 28.9999 16.4535 28.9999 13.4024C28.9999 6.01208 22.9875 0 15.5975 0L15.5976 0.00127795Z" fill="white"/>
<path d="M19.6359 12.8488V11.152C19.6359 11.0235 19.5877 10.9006 19.5074 10.8042L18.1157 9.1877C18.0139 9.06976 17.8643 9.0005 17.7087 9.0005L12.6715 9C12.3769 9 12.136 9.2409 12.136 9.5355V10.071H11.606C10.7227 10.071 10 10.7937 10 11.677V18.1009C10 18.9842 10.7227 19.7069 11.606 19.7069H17.4944C17.789 19.7069 18.0299 19.466 18.0299 19.1714C18.0299 18.8768 17.789 18.6359 17.4944 18.6359H13.212C12.9174 18.6359 12.6765 18.395 12.6765 18.1004V15.9589C12.6765 15.6643 12.9174 15.4234 13.212 15.4234H14.5931C15.1497 15.4234 15.6586 15.1399 15.9527 14.6686L16.3276 14.0689C16.4239 13.9138 16.5951 13.8174 16.7828 13.8174H19.1009C19.3955 13.8174 19.6364 14.0583 19.6364 14.3529V18.1004C19.6364 18.395 19.3955 18.6359 19.1009 18.6359C18.8063 18.6359 18.5654 18.8768 18.5654 19.1714C18.5654 19.466 18.8063 19.7069 19.1009 19.7069C19.9842 19.7069 20.7069 18.9842 20.7069 18.1009V14.3535C20.7069 13.6574 20.2572 13.0687 19.6364 12.8438L19.6359 12.8488ZM15.4227 13.5073L15.0478 14.107C14.9514 14.2621 14.7803 14.3585 14.5926 14.3585H13.2115C12.3282 14.3585 11.6055 15.0811 11.6055 15.9644V18.1059C11.6055 18.2931 11.6431 18.4753 11.7018 18.6414H11.6055C11.3109 18.6414 11.07 18.4005 11.07 18.1059L11.071 11.682C11.071 11.3874 11.3119 11.1465 11.6065 11.1465H12.1365V13.288C12.1365 13.5826 12.3773 13.8235 12.6719 13.8235C12.9666 13.8235 13.2074 13.5826 13.2074 13.288V10.076H17.4688L18.5714 11.3553V12.7525H16.7888C16.2322 12.7525 15.7233 13.036 15.4292 13.5073H15.4227Z" fill="white"/>
<path d="M19.101 17.5707C19.101 17.2761 18.8601 17.0352 18.5655 17.0352H15.889C15.5944 17.0352 15.3535 17.2761 15.3535 17.5707C15.3535 17.8653 15.5944 18.1062 15.889 18.1062H18.5655C18.8601 18.1062 19.101 17.8653 19.101 17.5707Z" fill="white"/>
<path d="M16.4241 10.6108H14.2826C13.988 10.6108 13.7471 10.8517 13.7471 11.1463C13.7471 11.4409 13.988 11.6818 14.2826 11.6818H16.4241C16.7187 11.6818 16.9596 11.4409 16.9596 11.1463C16.9596 10.8517 16.7187 10.6108 16.4241 10.6108Z" fill="white"/>
<path d="M14.8181 12.2168H14.2826C13.988 12.2168 13.7471 12.4577 13.7471 12.7523C13.7471 13.0469 13.988 13.2878 14.2826 13.2878H14.8181C15.1127 13.2878 15.3536 13.0469 15.3536 12.7523C15.3536 12.4577 15.1127 12.2168 14.8181 12.2168Z" fill="white"/>
</svg>
