<svg width="29" height="29" viewBox="0 0 29 29" fill="none" xmlns="http://www.w3.org/2000/svg">
<path d="M15.5242 0.00127193C8.16618 0.00127193 2.17993 5.98536 2.17993 13.3406C2.17993 16.6742 3.41186 19.7229 5.43899 22.0639L0.281526 27.2213C-0.0938421 27.5967 -0.0938421 28.2066 0.281526 28.582C0.469201 28.7697 0.715843 28.8635 0.962444 28.8635C1.20905 28.8635 1.45451 28.7697 1.64336 28.582L6.80083 23.4245C9.14199 25.4529 12.1917 26.6836 15.5241 26.6836C18.5546 26.6836 21.413 25.6899 23.7916 23.8107C24.2079 23.4811 24.28 22.8759 23.9504 22.4585C23.6208 22.0422 23.0156 21.9701 22.5982 22.2997C20.5626 23.9082 18.1167 24.7587 15.5241 24.7587C12.3855 24.7587 9.5388 23.4859 7.47316 21.4288C7.46715 21.4216 7.46233 21.4144 7.45632 21.4072C7.4491 21.4 7.44188 21.3964 7.43466 21.3903C5.37864 19.3235 4.10476 16.4783 4.10476 13.3394C4.10476 7.04485 9.22743 1.92495 15.5241 1.92495C21.8208 1.92495 26.9386 7.04516 26.9386 13.3394C26.9386 15.9368 26.088 18.3826 24.4807 20.4122C24.1499 20.8285 24.2208 21.4348 24.6371 21.7644C25.0534 22.0941 25.6585 22.0243 25.9893 21.608C27.8697 19.2344 28.8634 16.376 28.8634 13.3393C28.8634 5.98378 22.8793 0 15.5241 0L15.5242 0.00127193Z" fill="white"/>
<path d="M15.6066 9.90967C15.6066 9.60479 15.8897 9.32168 16.1946 9.32168L19.679 9.32168C19.8532 9.32168 20.0057 9.38702 20.1146 9.4959L20.1363 9.51768C20.1363 9.51768 20.1363 9.51768 20.1581 9.53946C20.267 9.64835 20.2888 9.80079 20.2888 9.93146L20.2888 13.3723C20.3106 13.699 20.0275 13.9821 19.7008 13.9603C19.5266 13.9603 19.3741 13.895 19.2652 13.7861C19.1563 13.6772 19.091 13.5248 19.091 13.3505L19.091 11.3034L12.0568 18.3376C11.8173 18.5772 11.4471 18.5554 11.2293 18.3376C10.9897 18.0981 11.0115 17.7278 11.2293 17.5101L18.2635 10.4759L16.2164 10.4759C15.8679 10.4759 15.6066 10.2146 15.6066 9.90967Z" fill="white"/>
</svg>
