<svg width="21" height="21" viewBox="0 0 21 21" fill="none" xmlns="http://www.w3.org/2000/svg">
<path d="M16.6776 16.3362L14.8051 12.6L12.9326 16.3362" stroke="white" stroke-width="1.5" stroke-linecap="round" stroke-linejoin="round"/>
<path d="M13.2734 15.6713H16.3534" stroke="white" stroke-width="1.5" stroke-linecap="round" stroke-linejoin="round"/>
<path d="M14.8054 19.25C12.3554 19.25 10.3604 17.2637 10.3604 14.8049C10.3604 12.3549 12.3466 10.36 14.8054 10.36C17.2554 10.36 19.2504 12.3462 19.2504 14.8049C19.2504 17.2637 17.2641 19.25 14.8054 19.25Z" stroke="white" stroke-width="1.5" stroke-linecap="round" stroke-linejoin="round"/>
<path d="M4.3925 1.75H7.8225C9.63375 1.75 10.5088 2.62502 10.465 4.39252V7.8225C10.5088 9.63375 9.63375 10.5088 7.8225 10.465H4.3925C2.625 10.5 1.75 9.62499 1.75 7.81374V4.38376C1.75 2.62501 2.625 1.75 4.3925 1.75Z" stroke="white" stroke-width="1.5" stroke-linecap="round" stroke-linejoin="round"/>
<path d="M7.88355 5.11865H4.33105" stroke="white" stroke-width="1.5" stroke-linecap="round" stroke-linejoin="round"/>
<path d="M6.09863 4.52368V5.11868" stroke="white" stroke-width="1.5" stroke-linecap="round" stroke-linejoin="round"/>
<path d="M6.99102 5.10999C6.99102 6.64124 5.79227 7.88372 4.32227 7.88372" stroke="white" stroke-width="1.5" stroke-linecap="round" stroke-linejoin="round"/>
<path d="M7.88339 7.88376C7.24464 7.88376 6.66715 7.5425 6.26465 7" stroke="white" stroke-width="1.5" stroke-linecap="round" stroke-linejoin="round"/>
<path d="M1.75 13.125C1.75 16.5112 4.48875 19.25 7.875 19.25L6.95625 17.7188" stroke="white" stroke-width="1.5" stroke-linecap="round" stroke-linejoin="round"/>
<path d="M19.25 7.875C19.25 4.48875 16.5112 1.75 13.125 1.75L14.0438 3.28125" stroke="white" stroke-width="1.5" stroke-linecap="round" stroke-linejoin="round"/>
</svg>
