<svg width="22" height="14" viewBox="0 0 22 14" fill="none" xmlns="http://www.w3.org/2000/svg">
<path d="M21.766 8.59994C21.5439 7.81612 21.0722 7.1261 20.4226 6.63452C19.7729 6.14294 18.9807 5.87662 18.166 5.87594H17.844C17.9578 4.56576 17.5922 3.2588 16.8152 2.1978C16.0381 1.1368 14.9024 0.39385 13.619 0.106938C13.2659 0.037382 12.9069 0.00155476 12.547 -6.1034e-05C11.6481 -7.91973e-05 10.7627 0.218354 9.96692 0.636434C9.17118 1.05451 8.48896 1.65971 7.97899 2.39994C7.50613 2.19402 6.99467 2.09173 6.47899 2.09994C5.51274 2.10391 4.58294 2.46929 3.8725 3.12422C3.16206 3.77914 2.72239 4.6762 2.63998 5.63894C2.41454 5.75621 2.19945 5.89236 1.99699 6.04594C1.44717 6.49767 1.01945 7.08011 0.752992 7.73994C0.551831 8.2761 0.463282 8.84796 0.492875 9.41985C0.522467 9.99174 0.669563 10.5514 0.924989 11.0639C1.24144 11.7071 1.7249 12.2534 2.32478 12.6457C2.92467 13.038 3.61894 13.2619 4.33499 13.2939H10.254V13.1649C10.297 12.8859 10.318 12.3499 10.383 11.9209C10.426 11.7489 10.426 11.5779 10.447 11.4709H9.73898C9.65574 11.4743 9.57328 11.4539 9.50121 11.4121C9.42914 11.3703 9.37044 11.3088 9.33199 11.2349C9.31014 11.2168 9.29293 11.1938 9.2818 11.1677C9.27067 11.1416 9.26593 11.1132 9.26799 11.0849C9.2747 10.9833 9.31199 10.886 9.37499 10.8059C9.8234 10.1576 10.3251 9.54781 10.875 8.98294C10.9242 8.92369 10.987 8.87713 11.058 8.8472C11.129 8.81727 11.2062 8.80483 11.283 8.81094C11.4345 8.82077 11.5782 8.88136 11.691 8.98294C12.2326 9.55519 12.7338 10.1643 13.191 10.8059C13.2425 10.8675 13.2758 10.9423 13.2871 11.0218C13.2984 11.1013 13.2873 11.1824 13.255 11.2559C13.2225 11.3347 13.1648 11.4005 13.0911 11.4432C13.0173 11.4859 12.9315 11.503 12.847 11.4919H12.139C12.139 11.6209 12.182 11.8349 12.203 12.0499C12.246 12.4569 12.31 12.9499 12.332 13.2079V13.3369H18.487C19.0518 13.32 19.6057 13.1764 20.1076 12.9168C20.6095 12.6572 21.0468 12.2881 21.387 11.8369C21.9178 10.8444 22.0556 9.68844 21.773 8.59894L21.766 8.59994ZM15.139 9.04994C15.139 9.16929 15.0916 9.28375 15.0072 9.36814C14.9228 9.45253 14.8083 9.49994 14.689 9.49994C14.5696 9.49994 14.4552 9.45253 14.3708 9.36814C14.2864 9.28375 14.239 9.16929 14.239 9.04994V8.42794C14.2395 8.35451 14.2255 8.28171 14.1976 8.21377C14.1697 8.14583 14.1287 8.08411 14.0767 8.03219C14.0248 7.98027 13.9631 7.93918 13.8952 7.91133C13.8272 7.88348 13.7544 7.86941 13.681 7.86994H8.68099C8.60756 7.86941 8.53477 7.88348 8.46683 7.91133C8.39889 7.93918 8.33715 7.98027 8.28523 8.03219C8.23331 8.08411 8.19224 8.14583 8.16438 8.21377C8.13653 8.28171 8.12245 8.35451 8.12299 8.42794V9.04994C8.12299 9.16929 8.07557 9.28375 7.99118 9.36814C7.90679 9.45253 7.79234 9.49994 7.67299 9.49994C7.55364 9.49994 7.43919 9.45253 7.3548 9.36814C7.27041 9.28375 7.22299 9.16929 7.22299 9.04994V8.47094C7.22299 8.28223 7.26015 8.09537 7.33237 7.92102C7.40458 7.74668 7.51044 7.58826 7.64388 7.45483C7.77731 7.32139 7.93573 7.21554 8.11008 7.14332C8.28442 7.07111 8.47128 7.03394 8.65999 7.03394H13.636C13.8247 7.03394 14.0116 7.07111 14.1859 7.14332C14.3602 7.21554 14.5187 7.32139 14.6521 7.45483C14.7855 7.58826 14.8914 7.74668 14.9636 7.92102C15.0358 8.09537 15.073 8.28223 15.073 8.47094V9.04994H15.139Z" fill="#3570B7"/>
</svg>
