<svg width="16" height="16" viewBox="0 0 16 16" fill="none" xmlns="http://www.w3.org/2000/svg">
<path d="M8.00027 10.6667C7.8445 10.667 7.69354 10.6127 7.5736 10.5133L3.5736 7.18001C3.43745 7.06685 3.35184 6.90424 3.33558 6.72796C3.31933 6.55168 3.37377 6.37616 3.48693 6.24001C3.60009 6.10387 3.7627 6.01825 3.93898 6.002C4.11527 5.98574 4.29079 6.04018 4.42693 6.15334L8.00027 9.14001L11.5736 6.26001C11.6418 6.20463 11.7203 6.16328 11.8045 6.13832C11.8887 6.11337 11.977 6.10531 12.0644 6.1146C12.1517 6.12389 12.2364 6.15036 12.3135 6.19247C12.3906 6.23459 12.4586 6.29153 12.5136 6.36001C12.5747 6.42856 12.6209 6.50898 12.6494 6.59623C12.6779 6.68347 12.6882 6.77567 12.6794 6.86705C12.6706 6.95843 12.6431 7.04701 12.5985 7.12725C12.5539 7.20748 12.4932 7.27765 12.4203 7.33334L8.42027 10.5533C8.29688 10.637 8.149 10.6769 8.00027 10.6667Z" fill="#646466"/>
</svg>
